G75*
%MOIN*%
%OFA0B0*%
%FSLAX25Y25*%
%IPPOS*%
%LPD*%
%AMOC8*
5,1,8,0,0,1.08239X$1,22.5*
%
%ADD10R,0.07100X0.07100*%
%ADD11C,0.07100*%
%ADD12OC8,0.08000*%
%ADD13C,0.08000*%
%ADD14R,0.08600X0.08600*%
%ADD15C,0.08600*%
%ADD16R,0.05324X0.05324*%
%ADD17OC8,0.07200*%
%ADD18C,0.14443*%
%ADD19C,0.04931*%
%ADD20C,0.06899*%
%ADD21R,0.04362X0.04362*%
%ADD22R,0.03969X0.03969*%
D10*
X0275000Y0040000D03*
D11*
X0265000Y0040000D03*
D12*
X0220551Y0144803D03*
X0210551Y0144803D03*
X0210551Y0154803D03*
X0210551Y0164803D03*
X0220551Y0164803D03*
X0220551Y0154803D03*
D13*
X0140000Y0085000D03*
X0130000Y0085000D03*
X0120000Y0085000D03*
X0110000Y0085000D03*
X0100000Y0085000D03*
X0100000Y0055000D03*
X0110000Y0055000D03*
X0120000Y0055000D03*
X0130000Y0055000D03*
X0140000Y0055000D03*
X0160000Y0055000D03*
X0170000Y0055000D03*
X0180000Y0055000D03*
X0190000Y0055000D03*
X0200000Y0055000D03*
X0210000Y0055000D03*
X0297500Y0050000D03*
X0297500Y0060000D03*
X0297500Y0070000D03*
X0210000Y0245000D03*
X0200000Y0245000D03*
X0190000Y0245000D03*
X0180000Y0245000D03*
X0170000Y0245000D03*
X0160000Y0245000D03*
X0150000Y0245000D03*
X0140000Y0245000D03*
X0124000Y0245000D03*
X0114000Y0245000D03*
X0104000Y0245000D03*
X0094000Y0245000D03*
X0084000Y0245000D03*
X0074000Y0245000D03*
X0064000Y0245000D03*
X0054000Y0245000D03*
X0044000Y0245000D03*
X0034000Y0245000D03*
X0041500Y0216000D03*
X0032500Y0162000D03*
X0022500Y0162000D03*
X0012500Y0162000D03*
X0070000Y0055000D03*
X0080000Y0055000D03*
X0090000Y0055000D03*
D14*
X0014331Y0027500D03*
X0069449Y0027500D03*
X0124567Y0027500D03*
X0179685Y0027500D03*
X0207244Y0027500D03*
X0323500Y0058110D03*
X0303730Y0272500D03*
X0276171Y0272500D03*
X0248612Y0272500D03*
X0221053Y0272500D03*
X0193494Y0272500D03*
X0165935Y0272500D03*
X0138376Y0272500D03*
X0110817Y0272500D03*
X0083258Y0272500D03*
X0055699Y0272500D03*
X0028140Y0272500D03*
D15*
X0041919Y0272500D03*
X0014360Y0272500D03*
X0069478Y0272500D03*
X0097037Y0272500D03*
X0124596Y0272500D03*
X0152156Y0272500D03*
X0179715Y0272500D03*
X0207274Y0272500D03*
X0234833Y0272500D03*
X0262392Y0272500D03*
X0289951Y0272500D03*
X0323500Y0071890D03*
X0248583Y0027500D03*
X0234803Y0027500D03*
X0221024Y0027500D03*
X0193465Y0027500D03*
X0165906Y0027500D03*
X0152126Y0027500D03*
X0138346Y0027500D03*
X0110787Y0027500D03*
X0097008Y0027500D03*
X0083228Y0027500D03*
X0055669Y0027500D03*
X0041890Y0027500D03*
X0028110Y0027500D03*
D16*
X0252500Y0074587D03*
X0262500Y0074587D03*
X0272500Y0074587D03*
D17*
X0013000Y0200500D03*
X0013000Y0240500D03*
D18*
X0015000Y0146000D03*
X0015000Y0070000D03*
X0325000Y0027500D03*
X0325000Y0272500D03*
D19*
X0248878Y0097224D03*
D20*
X0248878Y0179902D03*
D21*
X0230000Y0187500D03*
X0202000Y0173000D03*
X0182000Y0199000D03*
X0182000Y0217000D03*
X0130000Y0201000D03*
X0105000Y0186000D03*
X0091000Y0186000D03*
X0068000Y0187000D03*
X0068000Y0192000D03*
X0044500Y0187500D03*
X0039000Y0184000D03*
X0040000Y0198000D03*
X0030000Y0203000D03*
X0073000Y0236000D03*
X0081000Y0215000D03*
X0099000Y0214000D03*
X0099000Y0229000D03*
X0068000Y0159000D03*
X0063500Y0154500D03*
X0044500Y0159000D03*
X0054000Y0135000D03*
X0058000Y0105000D03*
X0058000Y0100000D03*
X0092000Y0092000D03*
X0140000Y0076000D03*
X0114000Y0141000D03*
X0101000Y0150000D03*
X0230000Y0120500D03*
X0330000Y0202000D03*
X0330000Y0240000D03*
X0295500Y0241000D03*
X0275500Y0241000D03*
X0270500Y0024000D03*
X0284000Y0012000D03*
D22*
X0077500Y0194500D03*
X0071000Y0180000D03*
X0066000Y0210000D03*
X0077500Y0222000D03*
X0099000Y0236000D03*
M02*
