G04 This is an RS-274x file exported by *
G04 gerbv version 2.6.0 *
G04 More information is available about gerbv at *
G04 http://gerbv.gpleda.org/ *
G04 --End of header info--*
%MOIN*%
%FSLAX36Y36*%
%IPPOS*%
G04 --Define apertures--*
%ADD10C,0.0118*%
%ADD11R,0.0984X0.0669*%
%ADD12R,0.0748X0.0276*%
%ADD13R,0.0512X0.0472*%
%ADD14R,0.0240X0.0870*%
%ADD15C,0.0787*%
%ADD16R,0.0354X0.0315*%
%ADD17R,0.0866X0.0236*%
%ADD18R,0.0551X0.0472*%
%ADD19R,0.1102X0.0591*%
%ADD20R,0.0394X0.0098*%
%ADD21R,0.0472X0.0512*%
%ADD22R,0.0748X0.0394*%
%ADD23R,0.0197X0.0138*%
%ADD24R,0.0315X0.0354*%
%ADD25R,0.1250X0.1250*%
%ADD26C,0.0050*%
%ADD27C,0.0394*%
%ADD28C,0.0787*%
%ADD29C,0.0812*%
%ADD30C,0.0200*%
G04 --Start main section--*
G54D25*
G01X0360000Y0820000D03*
G01X0360000Y1440000D03*
G54D15*
G01X0320630Y1130000D02*
G01X0320650Y1131250D01*
G01X0320650Y1131250D02*
G01X0320710Y1132500D01*
G01X0320710Y1132500D02*
G01X0320810Y1133740D01*
G01X0320810Y1133740D02*
G01X0320950Y1134980D01*
G01X0320950Y1134980D02*
G01X0321120Y1136220D01*
G01X0321120Y1136220D02*
G01X0321340Y1137450D01*
G01X0321340Y1137450D02*
G01X0321600Y1138670D01*
G01X0321600Y1138670D02*
G01X0321890Y1139890D01*
G01X0321890Y1139890D02*
G01X0322220Y1141090D01*
G01X0322220Y1141090D02*
G01X0322600Y1142280D01*
G01X0322600Y1142280D02*
G01X0323000Y1143470D01*
G01X0323000Y1143470D02*
G01X0323450Y1144630D01*
G01X0323450Y1144630D02*
G01X0323930Y1145780D01*
G01X0323930Y1145780D02*
G01X0324450Y1146920D01*
G01X0324450Y1146920D02*
G01X0325010Y1148040D01*
G01X0325010Y1148040D02*
G01X0325600Y1149140D01*
G01X0325600Y1149140D02*
G01X0326220Y1150220D01*
G01X0326220Y1150220D02*
G01X0326880Y1151290D01*
G01X0326880Y1151290D02*
G01X0327570Y1152330D01*
G01X0327570Y1152330D02*
G01X0328300Y1153340D01*
G01X0328300Y1153340D02*
G01X0329050Y1154340D01*
G01X0329050Y1154340D02*
G01X0329840Y1155310D01*
G01X0329840Y1155310D02*
G01X0330660Y1156250D01*
G01X0330660Y1156250D02*
G01X0331510Y1157170D01*
G01X0331510Y1157170D02*
G01X0332380Y1158060D01*
G01X0332380Y1158060D02*
G01X0333290Y1158920D01*
G01X0333290Y1158920D02*
G01X0334220Y1159750D01*
G01X0334220Y1159750D02*
G01X0335180Y1160560D01*
G01X0335180Y1160560D02*
G01X0336160Y1161330D01*
G01X0336160Y1161330D02*
G01X0337160Y1162070D01*
G01X0337160Y1162070D02*
G01X0338190Y1162780D01*
G01X0338190Y1162780D02*
G01X0339240Y1163450D01*
G01X0339240Y1163450D02*
G01X0340320Y1164100D01*
G01X0340320Y1164100D02*
G01X0341410Y1164700D01*
G01X0341410Y1164700D02*
G01X0342520Y1165280D01*
G01X0342520Y1165280D02*
G01X0343650Y1165810D01*
G01X0343650Y1165810D02*
G01X0344790Y1166310D01*
G01X0344790Y1166310D02*
G01X0345950Y1166780D01*
G01X0345950Y1166780D02*
G01X0347120Y1167200D01*
G01X0347120Y1167200D02*
G01X0348310Y1167590D01*
G01X0348310Y1167590D02*
G01X0349510Y1167950D01*
G01X0349510Y1167950D02*
G01X0350720Y1168260D01*
G01X0350720Y1168260D02*
G01X0351940Y1168540D01*
G01X0351940Y1168540D02*
G01X0353160Y1168770D01*
G01X0353160Y1168770D02*
G01X0354400Y1168970D01*
G01X0354400Y1168970D02*
G01X0355640Y1169130D01*
G01X0355640Y1169130D02*
G01X0356880Y1169250D01*
G01X0356880Y1169250D02*
G01X0358130Y1169330D01*
G01X0358130Y1169330D02*
G01X0359380Y1169370D01*
G01X0359380Y1169370D02*
G01X0360620Y1169370D01*
G01X0360620Y1169370D02*
G01X0361870Y1169330D01*
G01X0361870Y1169330D02*
G01X0363120Y1169250D01*
G01X0363120Y1169250D02*
G01X0364360Y1169130D01*
G01X0364360Y1169130D02*
G01X0365600Y1168970D01*
G01X0365600Y1168970D02*
G01X0366840Y1168770D01*
G01X0366840Y1168770D02*
G01X0368060Y1168540D01*
G01X0368060Y1168540D02*
G01X0369280Y1168260D01*
G01X0369280Y1168260D02*
G01X0370490Y1167950D01*
G01X0370490Y1167950D02*
G01X0371690Y1167590D01*
G01X0371690Y1167590D02*
G01X0372880Y1167200D01*
G01X0372880Y1167200D02*
G01X0374050Y1166780D01*
G01X0374050Y1166780D02*
G01X0375210Y1166310D01*
G01X0375210Y1166310D02*
G01X0376350Y1165810D01*
G01X0376350Y1165810D02*
G01X0377480Y1165280D01*
G01X0377480Y1165280D02*
G01X0378590Y1164700D01*
G01X0378590Y1164700D02*
G01X0379690Y1164100D01*
G01X0379690Y1164100D02*
G01X0380760Y1163450D01*
G01X0380760Y1163450D02*
G01X0381810Y1162780D01*
G01X0381810Y1162780D02*
G01X0382840Y1162070D01*
G01X0382840Y1162070D02*
G01X0383840Y1161330D01*
G01X0383840Y1161330D02*
G01X0384820Y1160560D01*
G01X0384820Y1160560D02*
G01X0385780Y1159750D01*
G01X0385780Y1159750D02*
G01X0386710Y1158920D01*
G01X0386710Y1158920D02*
G01X0387620Y1158060D01*
G01X0387620Y1158060D02*
G01X0388490Y1157170D01*
G01X0388490Y1157170D02*
G01X0389340Y1156250D01*
G01X0389340Y1156250D02*
G01X0390160Y1155310D01*
G01X0390160Y1155310D02*
G01X0390950Y1154340D01*
G01X0390950Y1154340D02*
G01X0391700Y1153340D01*
G01X0391700Y1153340D02*
G01X0392430Y1152330D01*
G01X0392430Y1152330D02*
G01X0393120Y1151290D01*
G01X0393120Y1151290D02*
G01X0393780Y1150220D01*
G01X0393780Y1150220D02*
G01X0394400Y1149140D01*
G01X0394400Y1149140D02*
G01X0394990Y1148040D01*
G01X0394990Y1148040D02*
G01X0395550Y1146920D01*
G01X0395550Y1146920D02*
G01X0396070Y1145780D01*
G01X0396070Y1145780D02*
G01X0396550Y1144630D01*
G01X0396550Y1144630D02*
G01X0397000Y1143470D01*
G01X0397000Y1143470D02*
G01X0397400Y1142280D01*
G01X0397400Y1142280D02*
G01X0397780Y1141090D01*
G01X0397780Y1141090D02*
G01X0398110Y1139890D01*
G01X0398110Y1139890D02*
G01X0398400Y1138670D01*
G01X0398400Y1138670D02*
G01X0398660Y1137450D01*
G01X0398660Y1137450D02*
G01X0398880Y1136220D01*
G01X0398880Y1136220D02*
G01X0399050Y1134980D01*
G01X0399050Y1134980D02*
G01X0399190Y1133740D01*
G01X0399190Y1133740D02*
G01X0399290Y1132500D01*
G01X0399290Y1132500D02*
G01X0399350Y1131250D01*
G01X0399350Y1131250D02*
G01X0399370Y1130000D01*
G01X0399370Y1130000D02*
G01X0399350Y1128750D01*
G01X0399350Y1128750D02*
G01X0399290Y1127500D01*
G01X0399290Y1127500D02*
G01X0399190Y1126260D01*
G01X0399190Y1126260D02*
G01X0399050Y1125020D01*
G01X0399050Y1125020D02*
G01X0398880Y1123780D01*
G01X0398880Y1123780D02*
G01X0398660Y1122550D01*
G01X0398660Y1122550D02*
G01X0398400Y1121330D01*
G01X0398400Y1121330D02*
G01X0398110Y1120110D01*
G01X0398110Y1120110D02*
G01X0397780Y1118910D01*
G01X0397780Y1118910D02*
G01X0397400Y1117720D01*
G01X0397400Y1117720D02*
G01X0397000Y1116530D01*
G01X0397000Y1116530D02*
G01X0396550Y1115370D01*
G01X0396550Y1115370D02*
G01X0396070Y1114220D01*
G01X0396070Y1114220D02*
G01X0395550Y1113080D01*
G01X0395550Y1113080D02*
G01X0394990Y1111960D01*
G01X0394990Y1111960D02*
G01X0394400Y1110860D01*
G01X0394400Y1110860D02*
G01X0393780Y1109780D01*
G01X0393780Y1109780D02*
G01X0393120Y1108710D01*
G01X0393120Y1108710D02*
G01X0392430Y1107670D01*
G01X0392430Y1107670D02*
G01X0391700Y1106660D01*
G01X0391700Y1106660D02*
G01X0390950Y1105660D01*
G01X0390950Y1105660D02*
G01X0390160Y1104690D01*
G01X0390160Y1104690D02*
G01X0389340Y1103750D01*
G01X0389340Y1103750D02*
G01X0388490Y1102830D01*
G01X0388490Y1102830D02*
G01X0387620Y1101940D01*
G01X0387620Y1101940D02*
G01X0386710Y1101080D01*
G01X0386710Y1101080D02*
G01X0385780Y1100250D01*
G01X0385780Y1100250D02*
G01X0384820Y1099440D01*
G01X0384820Y1099440D02*
G01X0383840Y1098670D01*
G01X0383840Y1098670D02*
G01X0382840Y1097930D01*
G01X0382840Y1097930D02*
G01X0381810Y1097220D01*
G01X0381810Y1097220D02*
G01X0380760Y1096550D01*
G01X0380760Y1096550D02*
G01X0379680Y1095900D01*
G01X0379680Y1095900D02*
G01X0378590Y1095300D01*
G01X0378590Y1095300D02*
G01X0377480Y1094720D01*
G01X0377480Y1094720D02*
G01X0376350Y1094190D01*
G01X0376350Y1094190D02*
G01X0375210Y1093690D01*
G01X0375210Y1093690D02*
G01X0374050Y1093220D01*
G01X0374050Y1093220D02*
G01X0372880Y1092800D01*
G01X0372880Y1092800D02*
G01X0371690Y1092410D01*
G01X0371690Y1092410D02*
G01X0370490Y1092050D01*
G01X0370490Y1092050D02*
G01X0369280Y1091740D01*
G01X0369280Y1091740D02*
G01X0368060Y1091460D01*
G01X0368060Y1091460D02*
G01X0366840Y1091230D01*
G01X0366840Y1091230D02*
G01X0365600Y1091030D01*
G01X0365600Y1091030D02*
G01X0364360Y1090870D01*
G01X0364360Y1090870D02*
G01X0363120Y1090750D01*
G01X0363120Y1090750D02*
G01X0361870Y1090670D01*
G01X0361870Y1090670D02*
G01X0360620Y1090630D01*
G01X0360620Y1090630D02*
G01X0359380Y1090630D01*
G01X0359380Y1090630D02*
G01X0358130Y1090670D01*
G01X0358130Y1090670D02*
G01X0356880Y1090750D01*
G01X0356880Y1090750D02*
G01X0355640Y1090870D01*
G01X0355640Y1090870D02*
G01X0354400Y1091030D01*
G01X0354400Y1091030D02*
G01X0353160Y1091230D01*
G01X0353160Y1091230D02*
G01X0351940Y1091460D01*
G01X0351940Y1091460D02*
G01X0350720Y1091740D01*
G01X0350720Y1091740D02*
G01X0349510Y1092050D01*
G01X0349510Y1092050D02*
G01X0348310Y1092410D01*
G01X0348310Y1092410D02*
G01X0347120Y1092800D01*
G01X0347120Y1092800D02*
G01X0345950Y1093220D01*
G01X0345950Y1093220D02*
G01X0344790Y1093690D01*
G01X0344790Y1093690D02*
G01X0343650Y1094190D01*
G01X0343650Y1094190D02*
G01X0342520Y1094720D01*
G01X0342520Y1094720D02*
G01X0341410Y1095300D01*
G01X0341410Y1095300D02*
G01X0340310Y1095900D01*
G01X0340310Y1095900D02*
G01X0339240Y1096550D01*
G01X0339240Y1096550D02*
G01X0338190Y1097220D01*
G01X0338190Y1097220D02*
G01X0337160Y1097930D01*
G01X0337160Y1097930D02*
G01X0336160Y1098670D01*
G01X0336160Y1098670D02*
G01X0335180Y1099440D01*
G01X0335180Y1099440D02*
G01X0334220Y1100250D01*
G01X0334220Y1100250D02*
G01X0333290Y1101080D01*
G01X0333290Y1101080D02*
G01X0332380Y1101940D01*
G01X0332380Y1101940D02*
G01X0331510Y1102830D01*
G01X0331510Y1102830D02*
G01X0330660Y1103750D01*
G01X0330660Y1103750D02*
G01X0329840Y1104690D01*
G01X0329840Y1104690D02*
G01X0329050Y1105660D01*
G01X0329050Y1105660D02*
G01X0328300Y1106660D01*
G01X0328300Y1106660D02*
G01X0327570Y1107670D01*
G01X0327570Y1107670D02*
G01X0326880Y1108710D01*
G01X0326880Y1108710D02*
G01X0326220Y1109780D01*
G01X0326220Y1109780D02*
G01X0325600Y1110860D01*
G01X0325600Y1110860D02*
G01X0325010Y1111960D01*
G01X0325010Y1111960D02*
G01X0324450Y1113080D01*
G01X0324450Y1113080D02*
G01X0323930Y1114220D01*
G01X0323930Y1114220D02*
G01X0323450Y1115370D01*
G01X0323450Y1115370D02*
G01X0323000Y1116530D01*
G01X0323000Y1116530D02*
G01X0322600Y1117720D01*
G01X0322600Y1117720D02*
G01X0322220Y1118910D01*
G01X0322220Y1118910D02*
G01X0321890Y1120110D01*
G01X0321890Y1120110D02*
G01X0321600Y1121330D01*
G01X0321600Y1121330D02*
G01X0321340Y1122550D01*
G01X0321340Y1122550D02*
G01X0321120Y1123780D01*
G01X0321120Y1123780D02*
G01X0320950Y1125020D01*
G01X0320950Y1125020D02*
G01X0320810Y1126260D01*
G01X0320810Y1126260D02*
G01X0320710Y1127500D01*
G01X0320710Y1127500D02*
G01X0320650Y1128750D01*
G01X0320650Y1128750D02*
G01X0320630Y1130000D01*
G54D13*
G01X0960000Y1765000D03*
G01X0960000Y1845000D03*
G01X1100000Y1845000D03*
G01X1100000Y1765000D03*
G01X0695000Y1785000D03*
G01X0695000Y1865000D03*
G01X0595000Y1865000D03*
G01X0595000Y1785000D03*
G01X0495000Y1785000D03*
G01X0495000Y1865000D03*
G01X0175000Y1855000D03*
G01X0175000Y1935000D03*
G01X0285000Y2215000D03*
G01X0285000Y2295000D03*
G01X1200000Y1345000D03*
G01X1200000Y1265000D03*
G01X1200000Y1150000D03*
G01X1200000Y1070000D03*
G01X2690000Y0290000D03*
G01X2690000Y0210000D03*
G01X2820000Y0210000D03*
G01X2820000Y0290000D03*
G01X2930000Y2510000D03*
G01X2930000Y2590000D03*
G01X2660000Y2590000D03*
G01X2660000Y2510000D03*
G01X2545000Y2510000D03*
G01X2545000Y2590000D03*
G01X2310000Y2590000D03*
G01X2310000Y2510000D03*
G54D21*
G01X2190000Y2290000D03*
G01X2110000Y2290000D03*
G01X2110000Y2110000D03*
G01X2190000Y2110000D03*
G01X2210000Y1840000D03*
G01X2290000Y1840000D03*
G01X1840000Y2110000D03*
G01X1760000Y2110000D03*
G01X1760000Y2290000D03*
G01X1840000Y2290000D03*
G01X1280000Y2295000D03*
G01X1200000Y2295000D03*
G01X0970000Y2265000D03*
G01X0890000Y2265000D03*
G01X0890000Y2045000D03*
G01X0970000Y2045000D03*
G01X1200000Y2060000D03*
G01X1280000Y2060000D03*
G01X1000000Y1600000D03*
G01X0920000Y1600000D03*
G01X0920000Y1500000D03*
G01X1000000Y1500000D03*
G01X1600000Y1005000D03*
G01X1680000Y1005000D03*
G01X1680000Y0770000D03*
G01X1600000Y0770000D03*
G01X1125000Y0765000D03*
G01X1045000Y0765000D03*
G01X2210000Y1090000D03*
G01X2290000Y1090000D03*
G01X0640000Y2150000D03*
G01X0560000Y2150000D03*
G54D10*
G01X2311220Y2158310D02*
G01X2338780Y2158310D01*
G01X2338780Y2158310D02*
G01X2338780Y2130750D01*
G01X2338780Y2130750D02*
G01X2311220Y2130750D01*
G01X2311220Y2130750D02*
G01X2311220Y2158310D01*
G01X2311220Y2142550D02*
G01X2338780Y2142550D01*
G01X2338780Y2154350D02*
G01X2311220Y2154350D01*
G01X2311220Y2089250D02*
G01X2338780Y2089250D01*
G01X2338780Y2089250D02*
G01X2338780Y2061690D01*
G01X2338780Y2061690D02*
G01X2311220Y2061690D01*
G01X2311220Y2061690D02*
G01X2311220Y2089250D01*
G01X2311220Y2073490D02*
G01X2338780Y2073490D01*
G01X2338780Y2085290D02*
G01X2311220Y2085290D01*
G01X2311220Y2269250D02*
G01X2338780Y2269250D01*
G01X2338780Y2269250D02*
G01X2338780Y2241690D01*
G01X2338780Y2241690D02*
G01X2311220Y2241690D01*
G01X2311220Y2241690D02*
G01X2311220Y2269250D01*
G01X2311220Y2253490D02*
G01X2338780Y2253490D01*
G01X2338780Y2265290D02*
G01X2311220Y2265290D01*
G01X2311220Y2338310D02*
G01X2338780Y2338310D01*
G01X2338780Y2338310D02*
G01X2338780Y2310750D01*
G01X2338780Y2310750D02*
G01X2311220Y2310750D01*
G01X2311220Y2310750D02*
G01X2311220Y2338310D01*
G01X2311220Y2322550D02*
G01X2338780Y2322550D01*
G01X2338780Y2334350D02*
G01X2311220Y2334350D01*
G54D16*
G01X2385630Y2512600D03*
G01X2385630Y2587400D03*
G01X2468310Y2550000D03*
G01X2008310Y2290000D03*
G01X1925630Y2252600D03*
G01X1925630Y2327400D03*
G01X1925630Y2147400D03*
G01X1925630Y2072600D03*
G01X2008310Y2110000D03*
G01X3005630Y2512600D03*
G01X3005630Y2587400D03*
G01X3088310Y2550000D03*
G01X1210630Y0802400D03*
G01X1210630Y0727600D03*
G01X1293310Y0765000D03*
G01X0974370Y2117600D03*
G01X0891690Y2155000D03*
G01X0974370Y2192400D03*
G01X0974370Y2337600D03*
G01X0974370Y2412400D03*
G01X0891690Y2375000D03*
G54D24*
G01X1202600Y2219370D03*
G01X1277400Y2219370D03*
G01X1240000Y2136690D03*
G01X1602600Y0924370D03*
G01X1677400Y0924370D03*
G01X1640000Y0841690D03*
G01X2732600Y2510630D03*
G01X2807400Y2510630D03*
G01X2770000Y2593310D03*
G54D18*
G01X0180000Y2295370D03*
G01X0180000Y2214630D03*
G54D19*
G01X2499410Y1925790D03*
G01X3345870Y2012400D03*
G01X3345870Y0937600D03*
G01X2499410Y0937600D03*
G54D12*
G01X2420670Y0992720D03*
G01X2420670Y1039960D03*
G54D22*
G01X2420670Y1091140D03*
G01X2420670Y1158070D03*
G01X2420670Y1253540D03*
G01X2420670Y1351970D03*
G01X2420670Y1450390D03*
G01X2420670Y1548820D03*
G01X2420670Y1647240D03*
G01X2420670Y1745670D03*
G01X2420670Y1844090D03*
G54D17*
G01X1081100Y1400000D03*
G01X1081100Y1350000D03*
G01X1081100Y1300000D03*
G01X1081100Y1250000D03*
G01X1081100Y1200000D03*
G01X1081100Y1150000D03*
G01X1081100Y1100000D03*
G01X1081100Y1050000D03*
G01X0718900Y1050000D03*
G01X0718900Y1100000D03*
G01X0718900Y1150000D03*
G01X0718900Y1200000D03*
G01X0718900Y1250000D03*
G01X0718900Y1300000D03*
G01X0718900Y1350000D03*
G01X0718900Y1400000D03*
G54D14*
G01X0400000Y1792000D03*
G01X0350000Y1792000D03*
G01X0300000Y1792000D03*
G01X0250000Y1792000D03*
G01X0250000Y1998000D03*
G01X0300000Y1998000D03*
G01X0350000Y1998000D03*
G01X0400000Y1998000D03*
G54D23*
G01X0778500Y1588390D03*
G01X0778500Y1562800D03*
G01X0778500Y1537200D03*
G01X0778500Y1511610D03*
G01X0841500Y1511610D03*
G01X0841500Y1537200D03*
G01X0841500Y1562800D03*
G01X0841500Y1588390D03*
G54D20*
G01X0678190Y1960630D03*
G01X0678190Y1980310D03*
G01X0678190Y2000000D03*
G01X0678190Y2019690D03*
G01X0678190Y2039370D03*
G01X0511810Y2039370D03*
G01X0511810Y2019690D03*
G01X0511810Y2000000D03*
G01X0511810Y1980310D03*
G01X0511810Y1960630D03*
G54D11*
G01X2946260Y0325000D03*
G01X3103740Y0325000D03*
G01X3191260Y2550000D03*
G01X3348740Y2550000D03*
G54D25*
G01X0360000Y3820000D03*
G01X0360000Y4440000D03*
G54D15*
G01X0320630Y4130000D02*
G01X0320650Y4131250D01*
G01X0320650Y4131250D02*
G01X0320710Y4132500D01*
G01X0320710Y4132500D02*
G01X0320810Y4133740D01*
G01X0320810Y4133740D02*
G01X0320950Y4134980D01*
G01X0320950Y4134980D02*
G01X0321120Y4136220D01*
G01X0321120Y4136220D02*
G01X0321340Y4137450D01*
G01X0321340Y4137450D02*
G01X0321600Y4138670D01*
G01X0321600Y4138670D02*
G01X0321890Y4139890D01*
G01X0321890Y4139890D02*
G01X0322220Y4141090D01*
G01X0322220Y4141090D02*
G01X0322600Y4142280D01*
G01X0322600Y4142280D02*
G01X0323000Y4143470D01*
G01X0323000Y4143470D02*
G01X0323450Y4144630D01*
G01X0323450Y4144630D02*
G01X0323930Y4145780D01*
G01X0323930Y4145780D02*
G01X0324450Y4146920D01*
G01X0324450Y4146920D02*
G01X0325010Y4148040D01*
G01X0325010Y4148040D02*
G01X0325600Y4149140D01*
G01X0325600Y4149140D02*
G01X0326220Y4150220D01*
G01X0326220Y4150220D02*
G01X0326880Y4151290D01*
G01X0326880Y4151290D02*
G01X0327570Y4152330D01*
G01X0327570Y4152330D02*
G01X0328300Y4153340D01*
G01X0328300Y4153340D02*
G01X0329050Y4154340D01*
G01X0329050Y4154340D02*
G01X0329840Y4155310D01*
G01X0329840Y4155310D02*
G01X0330660Y4156250D01*
G01X0330660Y4156250D02*
G01X0331510Y4157170D01*
G01X0331510Y4157170D02*
G01X0332380Y4158060D01*
G01X0332380Y4158060D02*
G01X0333290Y4158920D01*
G01X0333290Y4158920D02*
G01X0334220Y4159750D01*
G01X0334220Y4159750D02*
G01X0335180Y4160560D01*
G01X0335180Y4160560D02*
G01X0336160Y4161330D01*
G01X0336160Y4161330D02*
G01X0337160Y4162070D01*
G01X0337160Y4162070D02*
G01X0338190Y4162780D01*
G01X0338190Y4162780D02*
G01X0339240Y4163450D01*
G01X0339240Y4163450D02*
G01X0340320Y4164100D01*
G01X0340320Y4164100D02*
G01X0341410Y4164700D01*
G01X0341410Y4164700D02*
G01X0342520Y4165280D01*
G01X0342520Y4165280D02*
G01X0343650Y4165810D01*
G01X0343650Y4165810D02*
G01X0344790Y4166310D01*
G01X0344790Y4166310D02*
G01X0345950Y4166780D01*
G01X0345950Y4166780D02*
G01X0347120Y4167200D01*
G01X0347120Y4167200D02*
G01X0348310Y4167590D01*
G01X0348310Y4167590D02*
G01X0349510Y4167950D01*
G01X0349510Y4167950D02*
G01X0350720Y4168260D01*
G01X0350720Y4168260D02*
G01X0351940Y4168540D01*
G01X0351940Y4168540D02*
G01X0353160Y4168770D01*
G01X0353160Y4168770D02*
G01X0354400Y4168970D01*
G01X0354400Y4168970D02*
G01X0355640Y4169130D01*
G01X0355640Y4169130D02*
G01X0356880Y4169250D01*
G01X0356880Y4169250D02*
G01X0358130Y4169330D01*
G01X0358130Y4169330D02*
G01X0359380Y4169370D01*
G01X0359380Y4169370D02*
G01X0360620Y4169370D01*
G01X0360620Y4169370D02*
G01X0361870Y4169330D01*
G01X0361870Y4169330D02*
G01X0363120Y4169250D01*
G01X0363120Y4169250D02*
G01X0364360Y4169130D01*
G01X0364360Y4169130D02*
G01X0365600Y4168970D01*
G01X0365600Y4168970D02*
G01X0366840Y4168770D01*
G01X0366840Y4168770D02*
G01X0368060Y4168540D01*
G01X0368060Y4168540D02*
G01X0369280Y4168260D01*
G01X0369280Y4168260D02*
G01X0370490Y4167950D01*
G01X0370490Y4167950D02*
G01X0371690Y4167590D01*
G01X0371690Y4167590D02*
G01X0372880Y4167200D01*
G01X0372880Y4167200D02*
G01X0374050Y4166780D01*
G01X0374050Y4166780D02*
G01X0375210Y4166310D01*
G01X0375210Y4166310D02*
G01X0376350Y4165810D01*
G01X0376350Y4165810D02*
G01X0377480Y4165280D01*
G01X0377480Y4165280D02*
G01X0378590Y4164700D01*
G01X0378590Y4164700D02*
G01X0379690Y4164100D01*
G01X0379690Y4164100D02*
G01X0380760Y4163450D01*
G01X0380760Y4163450D02*
G01X0381810Y4162780D01*
G01X0381810Y4162780D02*
G01X0382840Y4162070D01*
G01X0382840Y4162070D02*
G01X0383840Y4161330D01*
G01X0383840Y4161330D02*
G01X0384820Y4160560D01*
G01X0384820Y4160560D02*
G01X0385780Y4159750D01*
G01X0385780Y4159750D02*
G01X0386710Y4158920D01*
G01X0386710Y4158920D02*
G01X0387620Y4158060D01*
G01X0387620Y4158060D02*
G01X0388490Y4157170D01*
G01X0388490Y4157170D02*
G01X0389340Y4156250D01*
G01X0389340Y4156250D02*
G01X0390160Y4155310D01*
G01X0390160Y4155310D02*
G01X0390950Y4154340D01*
G01X0390950Y4154340D02*
G01X0391700Y4153340D01*
G01X0391700Y4153340D02*
G01X0392430Y4152330D01*
G01X0392430Y4152330D02*
G01X0393120Y4151290D01*
G01X0393120Y4151290D02*
G01X0393780Y4150220D01*
G01X0393780Y4150220D02*
G01X0394400Y4149140D01*
G01X0394400Y4149140D02*
G01X0394990Y4148040D01*
G01X0394990Y4148040D02*
G01X0395550Y4146920D01*
G01X0395550Y4146920D02*
G01X0396070Y4145780D01*
G01X0396070Y4145780D02*
G01X0396550Y4144630D01*
G01X0396550Y4144630D02*
G01X0397000Y4143470D01*
G01X0397000Y4143470D02*
G01X0397400Y4142280D01*
G01X0397400Y4142280D02*
G01X0397780Y4141090D01*
G01X0397780Y4141090D02*
G01X0398110Y4139890D01*
G01X0398110Y4139890D02*
G01X0398400Y4138670D01*
G01X0398400Y4138670D02*
G01X0398660Y4137450D01*
G01X0398660Y4137450D02*
G01X0398880Y4136220D01*
G01X0398880Y4136220D02*
G01X0399050Y4134980D01*
G01X0399050Y4134980D02*
G01X0399190Y4133740D01*
G01X0399190Y4133740D02*
G01X0399290Y4132500D01*
G01X0399290Y4132500D02*
G01X0399350Y4131250D01*
G01X0399350Y4131250D02*
G01X0399370Y4130000D01*
G01X0399370Y4130000D02*
G01X0399350Y4128750D01*
G01X0399350Y4128750D02*
G01X0399290Y4127500D01*
G01X0399290Y4127500D02*
G01X0399190Y4126260D01*
G01X0399190Y4126260D02*
G01X0399050Y4125020D01*
G01X0399050Y4125020D02*
G01X0398880Y4123780D01*
G01X0398880Y4123780D02*
G01X0398660Y4122550D01*
G01X0398660Y4122550D02*
G01X0398400Y4121330D01*
G01X0398400Y4121330D02*
G01X0398110Y4120110D01*
G01X0398110Y4120110D02*
G01X0397780Y4118910D01*
G01X0397780Y4118910D02*
G01X0397400Y4117720D01*
G01X0397400Y4117720D02*
G01X0397000Y4116530D01*
G01X0397000Y4116530D02*
G01X0396550Y4115370D01*
G01X0396550Y4115370D02*
G01X0396070Y4114220D01*
G01X0396070Y4114220D02*
G01X0395550Y4113080D01*
G01X0395550Y4113080D02*
G01X0394990Y4111960D01*
G01X0394990Y4111960D02*
G01X0394400Y4110860D01*
G01X0394400Y4110860D02*
G01X0393780Y4109780D01*
G01X0393780Y4109780D02*
G01X0393120Y4108710D01*
G01X0393120Y4108710D02*
G01X0392430Y4107670D01*
G01X0392430Y4107670D02*
G01X0391700Y4106660D01*
G01X0391700Y4106660D02*
G01X0390950Y4105660D01*
G01X0390950Y4105660D02*
G01X0390160Y4104690D01*
G01X0390160Y4104690D02*
G01X0389340Y4103750D01*
G01X0389340Y4103750D02*
G01X0388490Y4102830D01*
G01X0388490Y4102830D02*
G01X0387620Y4101940D01*
G01X0387620Y4101940D02*
G01X0386710Y4101080D01*
G01X0386710Y4101080D02*
G01X0385780Y4100250D01*
G01X0385780Y4100250D02*
G01X0384820Y4099440D01*
G01X0384820Y4099440D02*
G01X0383840Y4098670D01*
G01X0383840Y4098670D02*
G01X0382840Y4097930D01*
G01X0382840Y4097930D02*
G01X0381810Y4097220D01*
G01X0381810Y4097220D02*
G01X0380760Y4096550D01*
G01X0380760Y4096550D02*
G01X0379680Y4095900D01*
G01X0379680Y4095900D02*
G01X0378590Y4095300D01*
G01X0378590Y4095300D02*
G01X0377480Y4094720D01*
G01X0377480Y4094720D02*
G01X0376350Y4094190D01*
G01X0376350Y4094190D02*
G01X0375210Y4093690D01*
G01X0375210Y4093690D02*
G01X0374050Y4093220D01*
G01X0374050Y4093220D02*
G01X0372880Y4092800D01*
G01X0372880Y4092800D02*
G01X0371690Y4092410D01*
G01X0371690Y4092410D02*
G01X0370490Y4092050D01*
G01X0370490Y4092050D02*
G01X0369280Y4091740D01*
G01X0369280Y4091740D02*
G01X0368060Y4091460D01*
G01X0368060Y4091460D02*
G01X0366840Y4091230D01*
G01X0366840Y4091230D02*
G01X0365600Y4091030D01*
G01X0365600Y4091030D02*
G01X0364360Y4090870D01*
G01X0364360Y4090870D02*
G01X0363120Y4090750D01*
G01X0363120Y4090750D02*
G01X0361870Y4090670D01*
G01X0361870Y4090670D02*
G01X0360620Y4090630D01*
G01X0360620Y4090630D02*
G01X0359380Y4090630D01*
G01X0359380Y4090630D02*
G01X0358130Y4090670D01*
G01X0358130Y4090670D02*
G01X0356880Y4090750D01*
G01X0356880Y4090750D02*
G01X0355640Y4090870D01*
G01X0355640Y4090870D02*
G01X0354400Y4091030D01*
G01X0354400Y4091030D02*
G01X0353160Y4091230D01*
G01X0353160Y4091230D02*
G01X0351940Y4091460D01*
G01X0351940Y4091460D02*
G01X0350720Y4091740D01*
G01X0350720Y4091740D02*
G01X0349510Y4092050D01*
G01X0349510Y4092050D02*
G01X0348310Y4092410D01*
G01X0348310Y4092410D02*
G01X0347120Y4092800D01*
G01X0347120Y4092800D02*
G01X0345950Y4093220D01*
G01X0345950Y4093220D02*
G01X0344790Y4093690D01*
G01X0344790Y4093690D02*
G01X0343650Y4094190D01*
G01X0343650Y4094190D02*
G01X0342520Y4094720D01*
G01X0342520Y4094720D02*
G01X0341410Y4095300D01*
G01X0341410Y4095300D02*
G01X0340310Y4095900D01*
G01X0340310Y4095900D02*
G01X0339240Y4096550D01*
G01X0339240Y4096550D02*
G01X0338190Y4097220D01*
G01X0338190Y4097220D02*
G01X0337160Y4097930D01*
G01X0337160Y4097930D02*
G01X0336160Y4098670D01*
G01X0336160Y4098670D02*
G01X0335180Y4099440D01*
G01X0335180Y4099440D02*
G01X0334220Y4100250D01*
G01X0334220Y4100250D02*
G01X0333290Y4101080D01*
G01X0333290Y4101080D02*
G01X0332380Y4101940D01*
G01X0332380Y4101940D02*
G01X0331510Y4102830D01*
G01X0331510Y4102830D02*
G01X0330660Y4103750D01*
G01X0330660Y4103750D02*
G01X0329840Y4104690D01*
G01X0329840Y4104690D02*
G01X0329050Y4105660D01*
G01X0329050Y4105660D02*
G01X0328300Y4106660D01*
G01X0328300Y4106660D02*
G01X0327570Y4107670D01*
G01X0327570Y4107670D02*
G01X0326880Y4108710D01*
G01X0326880Y4108710D02*
G01X0326220Y4109780D01*
G01X0326220Y4109780D02*
G01X0325600Y4110860D01*
G01X0325600Y4110860D02*
G01X0325010Y4111960D01*
G01X0325010Y4111960D02*
G01X0324450Y4113080D01*
G01X0324450Y4113080D02*
G01X0323930Y4114220D01*
G01X0323930Y4114220D02*
G01X0323450Y4115370D01*
G01X0323450Y4115370D02*
G01X0323000Y4116530D01*
G01X0323000Y4116530D02*
G01X0322600Y4117720D01*
G01X0322600Y4117720D02*
G01X0322220Y4118910D01*
G01X0322220Y4118910D02*
G01X0321890Y4120110D01*
G01X0321890Y4120110D02*
G01X0321600Y4121330D01*
G01X0321600Y4121330D02*
G01X0321340Y4122550D01*
G01X0321340Y4122550D02*
G01X0321120Y4123780D01*
G01X0321120Y4123780D02*
G01X0320950Y4125020D01*
G01X0320950Y4125020D02*
G01X0320810Y4126260D01*
G01X0320810Y4126260D02*
G01X0320710Y4127500D01*
G01X0320710Y4127500D02*
G01X0320650Y4128750D01*
G01X0320650Y4128750D02*
G01X0320630Y4130000D01*
G54D13*
G01X0960000Y4765000D03*
G01X0960000Y4845000D03*
G01X1100000Y4845000D03*
G01X1100000Y4765000D03*
G01X0695000Y4785000D03*
G01X0695000Y4865000D03*
G01X0595000Y4865000D03*
G01X0595000Y4785000D03*
G01X0495000Y4785000D03*
G01X0495000Y4865000D03*
G01X0175000Y4855000D03*
G01X0175000Y4935000D03*
G01X0285000Y5215000D03*
G01X0285000Y5295000D03*
G01X1200000Y4345000D03*
G01X1200000Y4265000D03*
G01X1200000Y4150000D03*
G01X1200000Y4070000D03*
G01X2690000Y3290000D03*
G01X2690000Y3210000D03*
G01X2820000Y3210000D03*
G01X2820000Y3290000D03*
G01X2930000Y5510000D03*
G01X2930000Y5590000D03*
G01X2660000Y5590000D03*
G01X2660000Y5510000D03*
G01X2545000Y5510000D03*
G01X2545000Y5590000D03*
G01X2310000Y5590000D03*
G01X2310000Y5510000D03*
G54D21*
G01X2190000Y5290000D03*
G01X2110000Y5290000D03*
G01X2110000Y5110000D03*
G01X2190000Y5110000D03*
G01X2210000Y4840000D03*
G01X2290000Y4840000D03*
G01X1840000Y5110000D03*
G01X1760000Y5110000D03*
G01X1760000Y5290000D03*
G01X1840000Y5290000D03*
G01X1280000Y5295000D03*
G01X1200000Y5295000D03*
G01X0970000Y5265000D03*
G01X0890000Y5265000D03*
G01X0890000Y5045000D03*
G01X0970000Y5045000D03*
G01X1200000Y5060000D03*
G01X1280000Y5060000D03*
G01X1000000Y4600000D03*
G01X0920000Y4600000D03*
G01X0920000Y4500000D03*
G01X1000000Y4500000D03*
G01X1600000Y4005000D03*
G01X1680000Y4005000D03*
G01X1680000Y3770000D03*
G01X1600000Y3770000D03*
G01X1125000Y3765000D03*
G01X1045000Y3765000D03*
G01X2210000Y4090000D03*
G01X2290000Y4090000D03*
G01X0640000Y5150000D03*
G01X0560000Y5150000D03*
G54D10*
G01X2311220Y5158310D02*
G01X2338780Y5158310D01*
G01X2338780Y5158310D02*
G01X2338780Y5130750D01*
G01X2338780Y5130750D02*
G01X2311220Y5130750D01*
G01X2311220Y5130750D02*
G01X2311220Y5158310D01*
G01X2311220Y5142550D02*
G01X2338780Y5142550D01*
G01X2338780Y5154350D02*
G01X2311220Y5154350D01*
G01X2311220Y5089250D02*
G01X2338780Y5089250D01*
G01X2338780Y5089250D02*
G01X2338780Y5061690D01*
G01X2338780Y5061690D02*
G01X2311220Y5061690D01*
G01X2311220Y5061690D02*
G01X2311220Y5089250D01*
G01X2311220Y5073490D02*
G01X2338780Y5073490D01*
G01X2338780Y5085290D02*
G01X2311220Y5085290D01*
G01X2311220Y5269250D02*
G01X2338780Y5269250D01*
G01X2338780Y5269250D02*
G01X2338780Y5241690D01*
G01X2338780Y5241690D02*
G01X2311220Y5241690D01*
G01X2311220Y5241690D02*
G01X2311220Y5269250D01*
G01X2311220Y5253490D02*
G01X2338780Y5253490D01*
G01X2338780Y5265290D02*
G01X2311220Y5265290D01*
G01X2311220Y5338310D02*
G01X2338780Y5338310D01*
G01X2338780Y5338310D02*
G01X2338780Y5310750D01*
G01X2338780Y5310750D02*
G01X2311220Y5310750D01*
G01X2311220Y5310750D02*
G01X2311220Y5338310D01*
G01X2311220Y5322550D02*
G01X2338780Y5322550D01*
G01X2338780Y5334350D02*
G01X2311220Y5334350D01*
G54D16*
G01X2385630Y5512600D03*
G01X2385630Y5587400D03*
G01X2468310Y5550000D03*
G01X2008310Y5290000D03*
G01X1925630Y5252600D03*
G01X1925630Y5327400D03*
G01X1925630Y5147400D03*
G01X1925630Y5072600D03*
G01X2008310Y5110000D03*
G01X3005630Y5512600D03*
G01X3005630Y5587400D03*
G01X3088310Y5550000D03*
G01X1210630Y3802400D03*
G01X1210630Y3727600D03*
G01X1293310Y3765000D03*
G01X0974370Y5117600D03*
G01X0891690Y5155000D03*
G01X0974370Y5192400D03*
G01X0974370Y5337600D03*
G01X0974370Y5412400D03*
G01X0891690Y5375000D03*
G54D24*
G01X1202600Y5219370D03*
G01X1277400Y5219370D03*
G01X1240000Y5136690D03*
G01X1602600Y3924370D03*
G01X1677400Y3924370D03*
G01X1640000Y3841690D03*
G01X2732600Y5510630D03*
G01X2807400Y5510630D03*
G01X2770000Y5593310D03*
G54D18*
G01X0180000Y5295370D03*
G01X0180000Y5214630D03*
G54D19*
G01X2499410Y4925790D03*
G01X3345870Y5012400D03*
G01X3345870Y3937600D03*
G01X2499410Y3937600D03*
G54D12*
G01X2420670Y3992720D03*
G01X2420670Y4039960D03*
G54D22*
G01X2420670Y4091140D03*
G01X2420670Y4158070D03*
G01X2420670Y4253540D03*
G01X2420670Y4351970D03*
G01X2420670Y4450390D03*
G01X2420670Y4548820D03*
G01X2420670Y4647240D03*
G01X2420670Y4745670D03*
G01X2420670Y4844090D03*
G54D17*
G01X1081100Y4400000D03*
G01X1081100Y4350000D03*
G01X1081100Y4300000D03*
G01X1081100Y4250000D03*
G01X1081100Y4200000D03*
G01X1081100Y4150000D03*
G01X1081100Y4100000D03*
G01X1081100Y4050000D03*
G01X0718900Y4050000D03*
G01X0718900Y4100000D03*
G01X0718900Y4150000D03*
G01X0718900Y4200000D03*
G01X0718900Y4250000D03*
G01X0718900Y4300000D03*
G01X0718900Y4350000D03*
G01X0718900Y4400000D03*
G54D14*
G01X0400000Y4792000D03*
G01X0350000Y4792000D03*
G01X0300000Y4792000D03*
G01X0250000Y4792000D03*
G01X0250000Y4998000D03*
G01X0300000Y4998000D03*
G01X0350000Y4998000D03*
G01X0400000Y4998000D03*
G54D23*
G01X0778500Y4588390D03*
G01X0778500Y4562800D03*
G01X0778500Y4537200D03*
G01X0778500Y4511610D03*
G01X0841500Y4511610D03*
G01X0841500Y4537200D03*
G01X0841500Y4562800D03*
G01X0841500Y4588390D03*
G54D20*
G01X0678190Y4960630D03*
G01X0678190Y4980310D03*
G01X0678190Y5000000D03*
G01X0678190Y5019690D03*
G01X0678190Y5039370D03*
G01X0511810Y5039370D03*
G01X0511810Y5019690D03*
G01X0511810Y5000000D03*
G01X0511810Y4980310D03*
G01X0511810Y4960630D03*
G54D11*
G01X2946260Y3325000D03*
G01X3103740Y3325000D03*
G01X3191260Y5550000D03*
G01X3348740Y5550000D03*
G54D25*
G01X3835000Y0820000D03*
G01X3835000Y1440000D03*
G54D15*
G01X3795630Y1130000D02*
G01X3795650Y1131250D01*
G01X3795650Y1131250D02*
G01X3795710Y1132500D01*
G01X3795710Y1132500D02*
G01X3795810Y1133740D01*
G01X3795810Y1133740D02*
G01X3795950Y1134980D01*
G01X3795950Y1134980D02*
G01X3796120Y1136220D01*
G01X3796120Y1136220D02*
G01X3796340Y1137450D01*
G01X3796340Y1137450D02*
G01X3796600Y1138670D01*
G01X3796600Y1138670D02*
G01X3796890Y1139890D01*
G01X3796890Y1139890D02*
G01X3797220Y1141090D01*
G01X3797220Y1141090D02*
G01X3797600Y1142280D01*
G01X3797600Y1142280D02*
G01X3798000Y1143470D01*
G01X3798000Y1143470D02*
G01X3798450Y1144630D01*
G01X3798450Y1144630D02*
G01X3798930Y1145780D01*
G01X3798930Y1145780D02*
G01X3799450Y1146920D01*
G01X3799450Y1146920D02*
G01X3800010Y1148040D01*
G01X3800010Y1148040D02*
G01X3800600Y1149140D01*
G01X3800600Y1149140D02*
G01X3801220Y1150220D01*
G01X3801220Y1150220D02*
G01X3801880Y1151290D01*
G01X3801880Y1151290D02*
G01X3802570Y1152330D01*
G01X3802570Y1152330D02*
G01X3803300Y1153340D01*
G01X3803300Y1153340D02*
G01X3804050Y1154340D01*
G01X3804050Y1154340D02*
G01X3804840Y1155310D01*
G01X3804840Y1155310D02*
G01X3805660Y1156250D01*
G01X3805660Y1156250D02*
G01X3806510Y1157170D01*
G01X3806510Y1157170D02*
G01X3807380Y1158060D01*
G01X3807380Y1158060D02*
G01X3808290Y1158920D01*
G01X3808290Y1158920D02*
G01X3809220Y1159750D01*
G01X3809220Y1159750D02*
G01X3810180Y1160560D01*
G01X3810180Y1160560D02*
G01X3811160Y1161330D01*
G01X3811160Y1161330D02*
G01X3812160Y1162070D01*
G01X3812160Y1162070D02*
G01X3813190Y1162780D01*
G01X3813190Y1162780D02*
G01X3814240Y1163450D01*
G01X3814240Y1163450D02*
G01X3815320Y1164100D01*
G01X3815320Y1164100D02*
G01X3816410Y1164700D01*
G01X3816410Y1164700D02*
G01X3817520Y1165280D01*
G01X3817520Y1165280D02*
G01X3818650Y1165810D01*
G01X3818650Y1165810D02*
G01X3819790Y1166310D01*
G01X3819790Y1166310D02*
G01X3820950Y1166780D01*
G01X3820950Y1166780D02*
G01X3822120Y1167200D01*
G01X3822120Y1167200D02*
G01X3823310Y1167590D01*
G01X3823310Y1167590D02*
G01X3824510Y1167950D01*
G01X3824510Y1167950D02*
G01X3825720Y1168260D01*
G01X3825720Y1168260D02*
G01X3826940Y1168540D01*
G01X3826940Y1168540D02*
G01X3828160Y1168770D01*
G01X3828160Y1168770D02*
G01X3829400Y1168970D01*
G01X3829400Y1168970D02*
G01X3830640Y1169130D01*
G01X3830640Y1169130D02*
G01X3831880Y1169250D01*
G01X3831880Y1169250D02*
G01X3833130Y1169330D01*
G01X3833130Y1169330D02*
G01X3834380Y1169370D01*
G01X3834380Y1169370D02*
G01X3835620Y1169370D01*
G01X3835620Y1169370D02*
G01X3836870Y1169330D01*
G01X3836870Y1169330D02*
G01X3838120Y1169250D01*
G01X3838120Y1169250D02*
G01X3839360Y1169130D01*
G01X3839360Y1169130D02*
G01X3840600Y1168970D01*
G01X3840600Y1168970D02*
G01X3841840Y1168770D01*
G01X3841840Y1168770D02*
G01X3843060Y1168540D01*
G01X3843060Y1168540D02*
G01X3844280Y1168260D01*
G01X3844280Y1168260D02*
G01X3845490Y1167950D01*
G01X3845490Y1167950D02*
G01X3846690Y1167590D01*
G01X3846690Y1167590D02*
G01X3847880Y1167200D01*
G01X3847880Y1167200D02*
G01X3849050Y1166780D01*
G01X3849050Y1166780D02*
G01X3850210Y1166310D01*
G01X3850210Y1166310D02*
G01X3851350Y1165810D01*
G01X3851350Y1165810D02*
G01X3852480Y1165280D01*
G01X3852480Y1165280D02*
G01X3853590Y1164700D01*
G01X3853590Y1164700D02*
G01X3854690Y1164100D01*
G01X3854690Y1164100D02*
G01X3855760Y1163450D01*
G01X3855760Y1163450D02*
G01X3856810Y1162780D01*
G01X3856810Y1162780D02*
G01X3857840Y1162070D01*
G01X3857840Y1162070D02*
G01X3858840Y1161330D01*
G01X3858840Y1161330D02*
G01X3859820Y1160560D01*
G01X3859820Y1160560D02*
G01X3860780Y1159750D01*
G01X3860780Y1159750D02*
G01X3861710Y1158920D01*
G01X3861710Y1158920D02*
G01X3862620Y1158060D01*
G01X3862620Y1158060D02*
G01X3863490Y1157170D01*
G01X3863490Y1157170D02*
G01X3864340Y1156250D01*
G01X3864340Y1156250D02*
G01X3865160Y1155310D01*
G01X3865160Y1155310D02*
G01X3865950Y1154340D01*
G01X3865950Y1154340D02*
G01X3866700Y1153340D01*
G01X3866700Y1153340D02*
G01X3867430Y1152330D01*
G01X3867430Y1152330D02*
G01X3868120Y1151290D01*
G01X3868120Y1151290D02*
G01X3868780Y1150220D01*
G01X3868780Y1150220D02*
G01X3869400Y1149140D01*
G01X3869400Y1149140D02*
G01X3869990Y1148040D01*
G01X3869990Y1148040D02*
G01X3870550Y1146920D01*
G01X3870550Y1146920D02*
G01X3871070Y1145780D01*
G01X3871070Y1145780D02*
G01X3871550Y1144630D01*
G01X3871550Y1144630D02*
G01X3872000Y1143470D01*
G01X3872000Y1143470D02*
G01X3872400Y1142280D01*
G01X3872400Y1142280D02*
G01X3872780Y1141090D01*
G01X3872780Y1141090D02*
G01X3873110Y1139890D01*
G01X3873110Y1139890D02*
G01X3873400Y1138670D01*
G01X3873400Y1138670D02*
G01X3873660Y1137450D01*
G01X3873660Y1137450D02*
G01X3873880Y1136220D01*
G01X3873880Y1136220D02*
G01X3874050Y1134980D01*
G01X3874050Y1134980D02*
G01X3874190Y1133740D01*
G01X3874190Y1133740D02*
G01X3874290Y1132500D01*
G01X3874290Y1132500D02*
G01X3874350Y1131250D01*
G01X3874350Y1131250D02*
G01X3874370Y1130000D01*
G01X3874370Y1130000D02*
G01X3874350Y1128750D01*
G01X3874350Y1128750D02*
G01X3874290Y1127500D01*
G01X3874290Y1127500D02*
G01X3874190Y1126260D01*
G01X3874190Y1126260D02*
G01X3874050Y1125020D01*
G01X3874050Y1125020D02*
G01X3873880Y1123780D01*
G01X3873880Y1123780D02*
G01X3873660Y1122550D01*
G01X3873660Y1122550D02*
G01X3873400Y1121330D01*
G01X3873400Y1121330D02*
G01X3873110Y1120110D01*
G01X3873110Y1120110D02*
G01X3872780Y1118910D01*
G01X3872780Y1118910D02*
G01X3872400Y1117720D01*
G01X3872400Y1117720D02*
G01X3872000Y1116530D01*
G01X3872000Y1116530D02*
G01X3871550Y1115370D01*
G01X3871550Y1115370D02*
G01X3871070Y1114220D01*
G01X3871070Y1114220D02*
G01X3870550Y1113080D01*
G01X3870550Y1113080D02*
G01X3869990Y1111960D01*
G01X3869990Y1111960D02*
G01X3869400Y1110860D01*
G01X3869400Y1110860D02*
G01X3868780Y1109780D01*
G01X3868780Y1109780D02*
G01X3868120Y1108710D01*
G01X3868120Y1108710D02*
G01X3867430Y1107670D01*
G01X3867430Y1107670D02*
G01X3866700Y1106660D01*
G01X3866700Y1106660D02*
G01X3865950Y1105660D01*
G01X3865950Y1105660D02*
G01X3865160Y1104690D01*
G01X3865160Y1104690D02*
G01X3864340Y1103750D01*
G01X3864340Y1103750D02*
G01X3863490Y1102830D01*
G01X3863490Y1102830D02*
G01X3862620Y1101940D01*
G01X3862620Y1101940D02*
G01X3861710Y1101080D01*
G01X3861710Y1101080D02*
G01X3860780Y1100250D01*
G01X3860780Y1100250D02*
G01X3859820Y1099440D01*
G01X3859820Y1099440D02*
G01X3858840Y1098670D01*
G01X3858840Y1098670D02*
G01X3857840Y1097930D01*
G01X3857840Y1097930D02*
G01X3856810Y1097220D01*
G01X3856810Y1097220D02*
G01X3855760Y1096550D01*
G01X3855760Y1096550D02*
G01X3854680Y1095900D01*
G01X3854680Y1095900D02*
G01X3853590Y1095300D01*
G01X3853590Y1095300D02*
G01X3852480Y1094720D01*
G01X3852480Y1094720D02*
G01X3851350Y1094190D01*
G01X3851350Y1094190D02*
G01X3850210Y1093690D01*
G01X3850210Y1093690D02*
G01X3849050Y1093220D01*
G01X3849050Y1093220D02*
G01X3847880Y1092800D01*
G01X3847880Y1092800D02*
G01X3846690Y1092410D01*
G01X3846690Y1092410D02*
G01X3845490Y1092050D01*
G01X3845490Y1092050D02*
G01X3844280Y1091740D01*
G01X3844280Y1091740D02*
G01X3843060Y1091460D01*
G01X3843060Y1091460D02*
G01X3841840Y1091230D01*
G01X3841840Y1091230D02*
G01X3840600Y1091030D01*
G01X3840600Y1091030D02*
G01X3839360Y1090870D01*
G01X3839360Y1090870D02*
G01X3838120Y1090750D01*
G01X3838120Y1090750D02*
G01X3836870Y1090670D01*
G01X3836870Y1090670D02*
G01X3835620Y1090630D01*
G01X3835620Y1090630D02*
G01X3834380Y1090630D01*
G01X3834380Y1090630D02*
G01X3833130Y1090670D01*
G01X3833130Y1090670D02*
G01X3831880Y1090750D01*
G01X3831880Y1090750D02*
G01X3830640Y1090870D01*
G01X3830640Y1090870D02*
G01X3829400Y1091030D01*
G01X3829400Y1091030D02*
G01X3828160Y1091230D01*
G01X3828160Y1091230D02*
G01X3826940Y1091460D01*
G01X3826940Y1091460D02*
G01X3825720Y1091740D01*
G01X3825720Y1091740D02*
G01X3824510Y1092050D01*
G01X3824510Y1092050D02*
G01X3823310Y1092410D01*
G01X3823310Y1092410D02*
G01X3822120Y1092800D01*
G01X3822120Y1092800D02*
G01X3820950Y1093220D01*
G01X3820950Y1093220D02*
G01X3819790Y1093690D01*
G01X3819790Y1093690D02*
G01X3818650Y1094190D01*
G01X3818650Y1094190D02*
G01X3817520Y1094720D01*
G01X3817520Y1094720D02*
G01X3816410Y1095300D01*
G01X3816410Y1095300D02*
G01X3815310Y1095900D01*
G01X3815310Y1095900D02*
G01X3814240Y1096550D01*
G01X3814240Y1096550D02*
G01X3813190Y1097220D01*
G01X3813190Y1097220D02*
G01X3812160Y1097930D01*
G01X3812160Y1097930D02*
G01X3811160Y1098670D01*
G01X3811160Y1098670D02*
G01X3810180Y1099440D01*
G01X3810180Y1099440D02*
G01X3809220Y1100250D01*
G01X3809220Y1100250D02*
G01X3808290Y1101080D01*
G01X3808290Y1101080D02*
G01X3807380Y1101940D01*
G01X3807380Y1101940D02*
G01X3806510Y1102830D01*
G01X3806510Y1102830D02*
G01X3805660Y1103750D01*
G01X3805660Y1103750D02*
G01X3804840Y1104690D01*
G01X3804840Y1104690D02*
G01X3804050Y1105660D01*
G01X3804050Y1105660D02*
G01X3803300Y1106660D01*
G01X3803300Y1106660D02*
G01X3802570Y1107670D01*
G01X3802570Y1107670D02*
G01X3801880Y1108710D01*
G01X3801880Y1108710D02*
G01X3801220Y1109780D01*
G01X3801220Y1109780D02*
G01X3800600Y1110860D01*
G01X3800600Y1110860D02*
G01X3800010Y1111960D01*
G01X3800010Y1111960D02*
G01X3799450Y1113080D01*
G01X3799450Y1113080D02*
G01X3798930Y1114220D01*
G01X3798930Y1114220D02*
G01X3798450Y1115370D01*
G01X3798450Y1115370D02*
G01X3798000Y1116530D01*
G01X3798000Y1116530D02*
G01X3797600Y1117720D01*
G01X3797600Y1117720D02*
G01X3797220Y1118910D01*
G01X3797220Y1118910D02*
G01X3796890Y1120110D01*
G01X3796890Y1120110D02*
G01X3796600Y1121330D01*
G01X3796600Y1121330D02*
G01X3796340Y1122550D01*
G01X3796340Y1122550D02*
G01X3796120Y1123780D01*
G01X3796120Y1123780D02*
G01X3795950Y1125020D01*
G01X3795950Y1125020D02*
G01X3795810Y1126260D01*
G01X3795810Y1126260D02*
G01X3795710Y1127500D01*
G01X3795710Y1127500D02*
G01X3795650Y1128750D01*
G01X3795650Y1128750D02*
G01X3795630Y1130000D01*
G54D13*
G01X4435000Y1765000D03*
G01X4435000Y1845000D03*
G01X4575000Y1845000D03*
G01X4575000Y1765000D03*
G01X4170000Y1785000D03*
G01X4170000Y1865000D03*
G01X4070000Y1865000D03*
G01X4070000Y1785000D03*
G01X3970000Y1785000D03*
G01X3970000Y1865000D03*
G01X3650000Y1855000D03*
G01X3650000Y1935000D03*
G01X3760000Y2215000D03*
G01X3760000Y2295000D03*
G01X4675000Y1345000D03*
G01X4675000Y1265000D03*
G01X4675000Y1150000D03*
G01X4675000Y1070000D03*
G01X6165000Y0290000D03*
G01X6165000Y0210000D03*
G01X6295000Y0210000D03*
G01X6295000Y0290000D03*
G01X6405000Y2510000D03*
G01X6405000Y2590000D03*
G01X6135000Y2590000D03*
G01X6135000Y2510000D03*
G01X6020000Y2510000D03*
G01X6020000Y2590000D03*
G01X5785000Y2590000D03*
G01X5785000Y2510000D03*
G54D21*
G01X5665000Y2290000D03*
G01X5585000Y2290000D03*
G01X5585000Y2110000D03*
G01X5665000Y2110000D03*
G01X5685000Y1840000D03*
G01X5765000Y1840000D03*
G01X5315000Y2110000D03*
G01X5235000Y2110000D03*
G01X5235000Y2290000D03*
G01X5315000Y2290000D03*
G01X4755000Y2295000D03*
G01X4675000Y2295000D03*
G01X4445000Y2265000D03*
G01X4365000Y2265000D03*
G01X4365000Y2045000D03*
G01X4445000Y2045000D03*
G01X4675000Y2060000D03*
G01X4755000Y2060000D03*
G01X4475000Y1600000D03*
G01X4395000Y1600000D03*
G01X4395000Y1500000D03*
G01X4475000Y1500000D03*
G01X5075000Y1005000D03*
G01X5155000Y1005000D03*
G01X5155000Y0770000D03*
G01X5075000Y0770000D03*
G01X4600000Y0765000D03*
G01X4520000Y0765000D03*
G01X5685000Y1090000D03*
G01X5765000Y1090000D03*
G01X4115000Y2150000D03*
G01X4035000Y2150000D03*
G54D10*
G01X5786220Y2158310D02*
G01X5813780Y2158310D01*
G01X5813780Y2158310D02*
G01X5813780Y2130750D01*
G01X5813780Y2130750D02*
G01X5786220Y2130750D01*
G01X5786220Y2130750D02*
G01X5786220Y2158310D01*
G01X5786220Y2142550D02*
G01X5813780Y2142550D01*
G01X5813780Y2154350D02*
G01X5786220Y2154350D01*
G01X5786220Y2089250D02*
G01X5813780Y2089250D01*
G01X5813780Y2089250D02*
G01X5813780Y2061690D01*
G01X5813780Y2061690D02*
G01X5786220Y2061690D01*
G01X5786220Y2061690D02*
G01X5786220Y2089250D01*
G01X5786220Y2073490D02*
G01X5813780Y2073490D01*
G01X5813780Y2085290D02*
G01X5786220Y2085290D01*
G01X5786220Y2269250D02*
G01X5813780Y2269250D01*
G01X5813780Y2269250D02*
G01X5813780Y2241690D01*
G01X5813780Y2241690D02*
G01X5786220Y2241690D01*
G01X5786220Y2241690D02*
G01X5786220Y2269250D01*
G01X5786220Y2253490D02*
G01X5813780Y2253490D01*
G01X5813780Y2265290D02*
G01X5786220Y2265290D01*
G01X5786220Y2338310D02*
G01X5813780Y2338310D01*
G01X5813780Y2338310D02*
G01X5813780Y2310750D01*
G01X5813780Y2310750D02*
G01X5786220Y2310750D01*
G01X5786220Y2310750D02*
G01X5786220Y2338310D01*
G01X5786220Y2322550D02*
G01X5813780Y2322550D01*
G01X5813780Y2334350D02*
G01X5786220Y2334350D01*
G54D16*
G01X5860630Y2512600D03*
G01X5860630Y2587400D03*
G01X5943310Y2550000D03*
G01X5483310Y2290000D03*
G01X5400630Y2252600D03*
G01X5400630Y2327400D03*
G01X5400630Y2147400D03*
G01X5400630Y2072600D03*
G01X5483310Y2110000D03*
G01X6480630Y2512600D03*
G01X6480630Y2587400D03*
G01X6563310Y2550000D03*
G01X4685630Y0802400D03*
G01X4685630Y0727600D03*
G01X4768310Y0765000D03*
G01X4449370Y2117600D03*
G01X4366690Y2155000D03*
G01X4449370Y2192400D03*
G01X4449370Y2337600D03*
G01X4449370Y2412400D03*
G01X4366690Y2375000D03*
G54D24*
G01X4677600Y2219370D03*
G01X4752400Y2219370D03*
G01X4715000Y2136690D03*
G01X5077600Y0924370D03*
G01X5152400Y0924370D03*
G01X5115000Y0841690D03*
G01X6207600Y2510630D03*
G01X6282400Y2510630D03*
G01X6245000Y2593310D03*
G54D18*
G01X3655000Y2295370D03*
G01X3655000Y2214630D03*
G54D19*
G01X5974410Y1925790D03*
G01X6820870Y2012400D03*
G01X6820870Y0937600D03*
G01X5974410Y0937600D03*
G54D12*
G01X5895670Y0992720D03*
G01X5895670Y1039960D03*
G54D22*
G01X5895670Y1091140D03*
G01X5895670Y1158070D03*
G01X5895670Y1253540D03*
G01X5895670Y1351970D03*
G01X5895670Y1450390D03*
G01X5895670Y1548820D03*
G01X5895670Y1647240D03*
G01X5895670Y1745670D03*
G01X5895670Y1844090D03*
G54D17*
G01X4556100Y1400000D03*
G01X4556100Y1350000D03*
G01X4556100Y1300000D03*
G01X4556100Y1250000D03*
G01X4556100Y1200000D03*
G01X4556100Y1150000D03*
G01X4556100Y1100000D03*
G01X4556100Y1050000D03*
G01X4193900Y1050000D03*
G01X4193900Y1100000D03*
G01X4193900Y1150000D03*
G01X4193900Y1200000D03*
G01X4193900Y1250000D03*
G01X4193900Y1300000D03*
G01X4193900Y1350000D03*
G01X4193900Y1400000D03*
G54D14*
G01X3875000Y1792000D03*
G01X3825000Y1792000D03*
G01X3775000Y1792000D03*
G01X3725000Y1792000D03*
G01X3725000Y1998000D03*
G01X3775000Y1998000D03*
G01X3825000Y1998000D03*
G01X3875000Y1998000D03*
G54D23*
G01X4253500Y1588390D03*
G01X4253500Y1562800D03*
G01X4253500Y1537200D03*
G01X4253500Y1511610D03*
G01X4316500Y1511610D03*
G01X4316500Y1537200D03*
G01X4316500Y1562800D03*
G01X4316500Y1588390D03*
G54D20*
G01X4153190Y1960630D03*
G01X4153190Y1980310D03*
G01X4153190Y2000000D03*
G01X4153190Y2019690D03*
G01X4153190Y2039370D03*
G01X3986810Y2039370D03*
G01X3986810Y2019690D03*
G01X3986810Y2000000D03*
G01X3986810Y1980310D03*
G01X3986810Y1960630D03*
G54D11*
G01X6421260Y0325000D03*
G01X6578740Y0325000D03*
G01X6666260Y2550000D03*
G01X6823740Y2550000D03*
G54D25*
G01X3835000Y3820000D03*
G01X3835000Y4440000D03*
G54D15*
G01X3795630Y4130000D02*
G01X3795650Y4131250D01*
G01X3795650Y4131250D02*
G01X3795710Y4132500D01*
G01X3795710Y4132500D02*
G01X3795810Y4133740D01*
G01X3795810Y4133740D02*
G01X3795950Y4134980D01*
G01X3795950Y4134980D02*
G01X3796120Y4136220D01*
G01X3796120Y4136220D02*
G01X3796340Y4137450D01*
G01X3796340Y4137450D02*
G01X3796600Y4138670D01*
G01X3796600Y4138670D02*
G01X3796890Y4139890D01*
G01X3796890Y4139890D02*
G01X3797220Y4141090D01*
G01X3797220Y4141090D02*
G01X3797600Y4142280D01*
G01X3797600Y4142280D02*
G01X3798000Y4143470D01*
G01X3798000Y4143470D02*
G01X3798450Y4144630D01*
G01X3798450Y4144630D02*
G01X3798930Y4145780D01*
G01X3798930Y4145780D02*
G01X3799450Y4146920D01*
G01X3799450Y4146920D02*
G01X3800010Y4148040D01*
G01X3800010Y4148040D02*
G01X3800600Y4149140D01*
G01X3800600Y4149140D02*
G01X3801220Y4150220D01*
G01X3801220Y4150220D02*
G01X3801880Y4151290D01*
G01X3801880Y4151290D02*
G01X3802570Y4152330D01*
G01X3802570Y4152330D02*
G01X3803300Y4153340D01*
G01X3803300Y4153340D02*
G01X3804050Y4154340D01*
G01X3804050Y4154340D02*
G01X3804840Y4155310D01*
G01X3804840Y4155310D02*
G01X3805660Y4156250D01*
G01X3805660Y4156250D02*
G01X3806510Y4157170D01*
G01X3806510Y4157170D02*
G01X3807380Y4158060D01*
G01X3807380Y4158060D02*
G01X3808290Y4158920D01*
G01X3808290Y4158920D02*
G01X3809220Y4159750D01*
G01X3809220Y4159750D02*
G01X3810180Y4160560D01*
G01X3810180Y4160560D02*
G01X3811160Y4161330D01*
G01X3811160Y4161330D02*
G01X3812160Y4162070D01*
G01X3812160Y4162070D02*
G01X3813190Y4162780D01*
G01X3813190Y4162780D02*
G01X3814240Y4163450D01*
G01X3814240Y4163450D02*
G01X3815320Y4164100D01*
G01X3815320Y4164100D02*
G01X3816410Y4164700D01*
G01X3816410Y4164700D02*
G01X3817520Y4165280D01*
G01X3817520Y4165280D02*
G01X3818650Y4165810D01*
G01X3818650Y4165810D02*
G01X3819790Y4166310D01*
G01X3819790Y4166310D02*
G01X3820950Y4166780D01*
G01X3820950Y4166780D02*
G01X3822120Y4167200D01*
G01X3822120Y4167200D02*
G01X3823310Y4167590D01*
G01X3823310Y4167590D02*
G01X3824510Y4167950D01*
G01X3824510Y4167950D02*
G01X3825720Y4168260D01*
G01X3825720Y4168260D02*
G01X3826940Y4168540D01*
G01X3826940Y4168540D02*
G01X3828160Y4168770D01*
G01X3828160Y4168770D02*
G01X3829400Y4168970D01*
G01X3829400Y4168970D02*
G01X3830640Y4169130D01*
G01X3830640Y4169130D02*
G01X3831880Y4169250D01*
G01X3831880Y4169250D02*
G01X3833130Y4169330D01*
G01X3833130Y4169330D02*
G01X3834380Y4169370D01*
G01X3834380Y4169370D02*
G01X3835620Y4169370D01*
G01X3835620Y4169370D02*
G01X3836870Y4169330D01*
G01X3836870Y4169330D02*
G01X3838120Y4169250D01*
G01X3838120Y4169250D02*
G01X3839360Y4169130D01*
G01X3839360Y4169130D02*
G01X3840600Y4168970D01*
G01X3840600Y4168970D02*
G01X3841840Y4168770D01*
G01X3841840Y4168770D02*
G01X3843060Y4168540D01*
G01X3843060Y4168540D02*
G01X3844280Y4168260D01*
G01X3844280Y4168260D02*
G01X3845490Y4167950D01*
G01X3845490Y4167950D02*
G01X3846690Y4167590D01*
G01X3846690Y4167590D02*
G01X3847880Y4167200D01*
G01X3847880Y4167200D02*
G01X3849050Y4166780D01*
G01X3849050Y4166780D02*
G01X3850210Y4166310D01*
G01X3850210Y4166310D02*
G01X3851350Y4165810D01*
G01X3851350Y4165810D02*
G01X3852480Y4165280D01*
G01X3852480Y4165280D02*
G01X3853590Y4164700D01*
G01X3853590Y4164700D02*
G01X3854690Y4164100D01*
G01X3854690Y4164100D02*
G01X3855760Y4163450D01*
G01X3855760Y4163450D02*
G01X3856810Y4162780D01*
G01X3856810Y4162780D02*
G01X3857840Y4162070D01*
G01X3857840Y4162070D02*
G01X3858840Y4161330D01*
G01X3858840Y4161330D02*
G01X3859820Y4160560D01*
G01X3859820Y4160560D02*
G01X3860780Y4159750D01*
G01X3860780Y4159750D02*
G01X3861710Y4158920D01*
G01X3861710Y4158920D02*
G01X3862620Y4158060D01*
G01X3862620Y4158060D02*
G01X3863490Y4157170D01*
G01X3863490Y4157170D02*
G01X3864340Y4156250D01*
G01X3864340Y4156250D02*
G01X3865160Y4155310D01*
G01X3865160Y4155310D02*
G01X3865950Y4154340D01*
G01X3865950Y4154340D02*
G01X3866700Y4153340D01*
G01X3866700Y4153340D02*
G01X3867430Y4152330D01*
G01X3867430Y4152330D02*
G01X3868120Y4151290D01*
G01X3868120Y4151290D02*
G01X3868780Y4150220D01*
G01X3868780Y4150220D02*
G01X3869400Y4149140D01*
G01X3869400Y4149140D02*
G01X3869990Y4148040D01*
G01X3869990Y4148040D02*
G01X3870550Y4146920D01*
G01X3870550Y4146920D02*
G01X3871070Y4145780D01*
G01X3871070Y4145780D02*
G01X3871550Y4144630D01*
G01X3871550Y4144630D02*
G01X3872000Y4143470D01*
G01X3872000Y4143470D02*
G01X3872400Y4142280D01*
G01X3872400Y4142280D02*
G01X3872780Y4141090D01*
G01X3872780Y4141090D02*
G01X3873110Y4139890D01*
G01X3873110Y4139890D02*
G01X3873400Y4138670D01*
G01X3873400Y4138670D02*
G01X3873660Y4137450D01*
G01X3873660Y4137450D02*
G01X3873880Y4136220D01*
G01X3873880Y4136220D02*
G01X3874050Y4134980D01*
G01X3874050Y4134980D02*
G01X3874190Y4133740D01*
G01X3874190Y4133740D02*
G01X3874290Y4132500D01*
G01X3874290Y4132500D02*
G01X3874350Y4131250D01*
G01X3874350Y4131250D02*
G01X3874370Y4130000D01*
G01X3874370Y4130000D02*
G01X3874350Y4128750D01*
G01X3874350Y4128750D02*
G01X3874290Y4127500D01*
G01X3874290Y4127500D02*
G01X3874190Y4126260D01*
G01X3874190Y4126260D02*
G01X3874050Y4125020D01*
G01X3874050Y4125020D02*
G01X3873880Y4123780D01*
G01X3873880Y4123780D02*
G01X3873660Y4122550D01*
G01X3873660Y4122550D02*
G01X3873400Y4121330D01*
G01X3873400Y4121330D02*
G01X3873110Y4120110D01*
G01X3873110Y4120110D02*
G01X3872780Y4118910D01*
G01X3872780Y4118910D02*
G01X3872400Y4117720D01*
G01X3872400Y4117720D02*
G01X3872000Y4116530D01*
G01X3872000Y4116530D02*
G01X3871550Y4115370D01*
G01X3871550Y4115370D02*
G01X3871070Y4114220D01*
G01X3871070Y4114220D02*
G01X3870550Y4113080D01*
G01X3870550Y4113080D02*
G01X3869990Y4111960D01*
G01X3869990Y4111960D02*
G01X3869400Y4110860D01*
G01X3869400Y4110860D02*
G01X3868780Y4109780D01*
G01X3868780Y4109780D02*
G01X3868120Y4108710D01*
G01X3868120Y4108710D02*
G01X3867430Y4107670D01*
G01X3867430Y4107670D02*
G01X3866700Y4106660D01*
G01X3866700Y4106660D02*
G01X3865950Y4105660D01*
G01X3865950Y4105660D02*
G01X3865160Y4104690D01*
G01X3865160Y4104690D02*
G01X3864340Y4103750D01*
G01X3864340Y4103750D02*
G01X3863490Y4102830D01*
G01X3863490Y4102830D02*
G01X3862620Y4101940D01*
G01X3862620Y4101940D02*
G01X3861710Y4101080D01*
G01X3861710Y4101080D02*
G01X3860780Y4100250D01*
G01X3860780Y4100250D02*
G01X3859820Y4099440D01*
G01X3859820Y4099440D02*
G01X3858840Y4098670D01*
G01X3858840Y4098670D02*
G01X3857840Y4097930D01*
G01X3857840Y4097930D02*
G01X3856810Y4097220D01*
G01X3856810Y4097220D02*
G01X3855760Y4096550D01*
G01X3855760Y4096550D02*
G01X3854680Y4095900D01*
G01X3854680Y4095900D02*
G01X3853590Y4095300D01*
G01X3853590Y4095300D02*
G01X3852480Y4094720D01*
G01X3852480Y4094720D02*
G01X3851350Y4094190D01*
G01X3851350Y4094190D02*
G01X3850210Y4093690D01*
G01X3850210Y4093690D02*
G01X3849050Y4093220D01*
G01X3849050Y4093220D02*
G01X3847880Y4092800D01*
G01X3847880Y4092800D02*
G01X3846690Y4092410D01*
G01X3846690Y4092410D02*
G01X3845490Y4092050D01*
G01X3845490Y4092050D02*
G01X3844280Y4091740D01*
G01X3844280Y4091740D02*
G01X3843060Y4091460D01*
G01X3843060Y4091460D02*
G01X3841840Y4091230D01*
G01X3841840Y4091230D02*
G01X3840600Y4091030D01*
G01X3840600Y4091030D02*
G01X3839360Y4090870D01*
G01X3839360Y4090870D02*
G01X3838120Y4090750D01*
G01X3838120Y4090750D02*
G01X3836870Y4090670D01*
G01X3836870Y4090670D02*
G01X3835620Y4090630D01*
G01X3835620Y4090630D02*
G01X3834380Y4090630D01*
G01X3834380Y4090630D02*
G01X3833130Y4090670D01*
G01X3833130Y4090670D02*
G01X3831880Y4090750D01*
G01X3831880Y4090750D02*
G01X3830640Y4090870D01*
G01X3830640Y4090870D02*
G01X3829400Y4091030D01*
G01X3829400Y4091030D02*
G01X3828160Y4091230D01*
G01X3828160Y4091230D02*
G01X3826940Y4091460D01*
G01X3826940Y4091460D02*
G01X3825720Y4091740D01*
G01X3825720Y4091740D02*
G01X3824510Y4092050D01*
G01X3824510Y4092050D02*
G01X3823310Y4092410D01*
G01X3823310Y4092410D02*
G01X3822120Y4092800D01*
G01X3822120Y4092800D02*
G01X3820950Y4093220D01*
G01X3820950Y4093220D02*
G01X3819790Y4093690D01*
G01X3819790Y4093690D02*
G01X3818650Y4094190D01*
G01X3818650Y4094190D02*
G01X3817520Y4094720D01*
G01X3817520Y4094720D02*
G01X3816410Y4095300D01*
G01X3816410Y4095300D02*
G01X3815310Y4095900D01*
G01X3815310Y4095900D02*
G01X3814240Y4096550D01*
G01X3814240Y4096550D02*
G01X3813190Y4097220D01*
G01X3813190Y4097220D02*
G01X3812160Y4097930D01*
G01X3812160Y4097930D02*
G01X3811160Y4098670D01*
G01X3811160Y4098670D02*
G01X3810180Y4099440D01*
G01X3810180Y4099440D02*
G01X3809220Y4100250D01*
G01X3809220Y4100250D02*
G01X3808290Y4101080D01*
G01X3808290Y4101080D02*
G01X3807380Y4101940D01*
G01X3807380Y4101940D02*
G01X3806510Y4102830D01*
G01X3806510Y4102830D02*
G01X3805660Y4103750D01*
G01X3805660Y4103750D02*
G01X3804840Y4104690D01*
G01X3804840Y4104690D02*
G01X3804050Y4105660D01*
G01X3804050Y4105660D02*
G01X3803300Y4106660D01*
G01X3803300Y4106660D02*
G01X3802570Y4107670D01*
G01X3802570Y4107670D02*
G01X3801880Y4108710D01*
G01X3801880Y4108710D02*
G01X3801220Y4109780D01*
G01X3801220Y4109780D02*
G01X3800600Y4110860D01*
G01X3800600Y4110860D02*
G01X3800010Y4111960D01*
G01X3800010Y4111960D02*
G01X3799450Y4113080D01*
G01X3799450Y4113080D02*
G01X3798930Y4114220D01*
G01X3798930Y4114220D02*
G01X3798450Y4115370D01*
G01X3798450Y4115370D02*
G01X3798000Y4116530D01*
G01X3798000Y4116530D02*
G01X3797600Y4117720D01*
G01X3797600Y4117720D02*
G01X3797220Y4118910D01*
G01X3797220Y4118910D02*
G01X3796890Y4120110D01*
G01X3796890Y4120110D02*
G01X3796600Y4121330D01*
G01X3796600Y4121330D02*
G01X3796340Y4122550D01*
G01X3796340Y4122550D02*
G01X3796120Y4123780D01*
G01X3796120Y4123780D02*
G01X3795950Y4125020D01*
G01X3795950Y4125020D02*
G01X3795810Y4126260D01*
G01X3795810Y4126260D02*
G01X3795710Y4127500D01*
G01X3795710Y4127500D02*
G01X3795650Y4128750D01*
G01X3795650Y4128750D02*
G01X3795630Y4130000D01*
G54D13*
G01X4435000Y4765000D03*
G01X4435000Y4845000D03*
G01X4575000Y4845000D03*
G01X4575000Y4765000D03*
G01X4170000Y4785000D03*
G01X4170000Y4865000D03*
G01X4070000Y4865000D03*
G01X4070000Y4785000D03*
G01X3970000Y4785000D03*
G01X3970000Y4865000D03*
G01X3650000Y4855000D03*
G01X3650000Y4935000D03*
G01X3760000Y5215000D03*
G01X3760000Y5295000D03*
G01X4675000Y4345000D03*
G01X4675000Y4265000D03*
G01X4675000Y4150000D03*
G01X4675000Y4070000D03*
G01X6165000Y3290000D03*
G01X6165000Y3210000D03*
G01X6295000Y3210000D03*
G01X6295000Y3290000D03*
G01X6405000Y5510000D03*
G01X6405000Y5590000D03*
G01X6135000Y5590000D03*
G01X6135000Y5510000D03*
G01X6020000Y5510000D03*
G01X6020000Y5590000D03*
G01X5785000Y5590000D03*
G01X5785000Y5510000D03*
G54D21*
G01X5665000Y5290000D03*
G01X5585000Y5290000D03*
G01X5585000Y5110000D03*
G01X5665000Y5110000D03*
G01X5685000Y4840000D03*
G01X5765000Y4840000D03*
G01X5315000Y5110000D03*
G01X5235000Y5110000D03*
G01X5235000Y5290000D03*
G01X5315000Y5290000D03*
G01X4755000Y5295000D03*
G01X4675000Y5295000D03*
G01X4445000Y5265000D03*
G01X4365000Y5265000D03*
G01X4365000Y5045000D03*
G01X4445000Y5045000D03*
G01X4675000Y5060000D03*
G01X4755000Y5060000D03*
G01X4475000Y4600000D03*
G01X4395000Y4600000D03*
G01X4395000Y4500000D03*
G01X4475000Y4500000D03*
G01X5075000Y4005000D03*
G01X5155000Y4005000D03*
G01X5155000Y3770000D03*
G01X5075000Y3770000D03*
G01X4600000Y3765000D03*
G01X4520000Y3765000D03*
G01X5685000Y4090000D03*
G01X5765000Y4090000D03*
G01X4115000Y5150000D03*
G01X4035000Y5150000D03*
G54D10*
G01X5786220Y5158310D02*
G01X5813780Y5158310D01*
G01X5813780Y5158310D02*
G01X5813780Y5130750D01*
G01X5813780Y5130750D02*
G01X5786220Y5130750D01*
G01X5786220Y5130750D02*
G01X5786220Y5158310D01*
G01X5786220Y5142550D02*
G01X5813780Y5142550D01*
G01X5813780Y5154350D02*
G01X5786220Y5154350D01*
G01X5786220Y5089250D02*
G01X5813780Y5089250D01*
G01X5813780Y5089250D02*
G01X5813780Y5061690D01*
G01X5813780Y5061690D02*
G01X5786220Y5061690D01*
G01X5786220Y5061690D02*
G01X5786220Y5089250D01*
G01X5786220Y5073490D02*
G01X5813780Y5073490D01*
G01X5813780Y5085290D02*
G01X5786220Y5085290D01*
G01X5786220Y5269250D02*
G01X5813780Y5269250D01*
G01X5813780Y5269250D02*
G01X5813780Y5241690D01*
G01X5813780Y5241690D02*
G01X5786220Y5241690D01*
G01X5786220Y5241690D02*
G01X5786220Y5269250D01*
G01X5786220Y5253490D02*
G01X5813780Y5253490D01*
G01X5813780Y5265290D02*
G01X5786220Y5265290D01*
G01X5786220Y5338310D02*
G01X5813780Y5338310D01*
G01X5813780Y5338310D02*
G01X5813780Y5310750D01*
G01X5813780Y5310750D02*
G01X5786220Y5310750D01*
G01X5786220Y5310750D02*
G01X5786220Y5338310D01*
G01X5786220Y5322550D02*
G01X5813780Y5322550D01*
G01X5813780Y5334350D02*
G01X5786220Y5334350D01*
G54D16*
G01X5860630Y5512600D03*
G01X5860630Y5587400D03*
G01X5943310Y5550000D03*
G01X5483310Y5290000D03*
G01X5400630Y5252600D03*
G01X5400630Y5327400D03*
G01X5400630Y5147400D03*
G01X5400630Y5072600D03*
G01X5483310Y5110000D03*
G01X6480630Y5512600D03*
G01X6480630Y5587400D03*
G01X6563310Y5550000D03*
G01X4685630Y3802400D03*
G01X4685630Y3727600D03*
G01X4768310Y3765000D03*
G01X4449370Y5117600D03*
G01X4366690Y5155000D03*
G01X4449370Y5192400D03*
G01X4449370Y5337600D03*
G01X4449370Y5412400D03*
G01X4366690Y5375000D03*
G54D24*
G01X4677600Y5219370D03*
G01X4752400Y5219370D03*
G01X4715000Y5136690D03*
G01X5077600Y3924370D03*
G01X5152400Y3924370D03*
G01X5115000Y3841690D03*
G01X6207600Y5510630D03*
G01X6282400Y5510630D03*
G01X6245000Y5593310D03*
G54D18*
G01X3655000Y5295370D03*
G01X3655000Y5214630D03*
G54D19*
G01X5974410Y4925790D03*
G01X6820870Y5012400D03*
G01X6820870Y3937600D03*
G01X5974410Y3937600D03*
G54D12*
G01X5895670Y3992720D03*
G01X5895670Y4039960D03*
G54D22*
G01X5895670Y4091140D03*
G01X5895670Y4158070D03*
G01X5895670Y4253540D03*
G01X5895670Y4351970D03*
G01X5895670Y4450390D03*
G01X5895670Y4548820D03*
G01X5895670Y4647240D03*
G01X5895670Y4745670D03*
G01X5895670Y4844090D03*
G54D17*
G01X4556100Y4400000D03*
G01X4556100Y4350000D03*
G01X4556100Y4300000D03*
G01X4556100Y4250000D03*
G01X4556100Y4200000D03*
G01X4556100Y4150000D03*
G01X4556100Y4100000D03*
G01X4556100Y4050000D03*
G01X4193900Y4050000D03*
G01X4193900Y4100000D03*
G01X4193900Y4150000D03*
G01X4193900Y4200000D03*
G01X4193900Y4250000D03*
G01X4193900Y4300000D03*
G01X4193900Y4350000D03*
G01X4193900Y4400000D03*
G54D14*
G01X3875000Y4792000D03*
G01X3825000Y4792000D03*
G01X3775000Y4792000D03*
G01X3725000Y4792000D03*
G01X3725000Y4998000D03*
G01X3775000Y4998000D03*
G01X3825000Y4998000D03*
G01X3875000Y4998000D03*
G54D23*
G01X4253500Y4588390D03*
G01X4253500Y4562800D03*
G01X4253500Y4537200D03*
G01X4253500Y4511610D03*
G01X4316500Y4511610D03*
G01X4316500Y4537200D03*
G01X4316500Y4562800D03*
G01X4316500Y4588390D03*
G54D20*
G01X4153190Y4960630D03*
G01X4153190Y4980310D03*
G01X4153190Y5000000D03*
G01X4153190Y5019690D03*
G01X4153190Y5039370D03*
G01X3986810Y5039370D03*
G01X3986810Y5019690D03*
G01X3986810Y5000000D03*
G01X3986810Y4980310D03*
G01X3986810Y4960630D03*
G54D11*
G01X6421260Y3325000D03*
G01X6578740Y3325000D03*
G01X6666260Y5550000D03*
G01X6823740Y5550000D03*
G01X0000000Y0000000D02*
G54D29*
G01X0500000Y-100000D03*
G01X6550000Y-100000D03*
G01X0500000Y6200000D03*
G01X6550000Y6200000D03*
G54D30*
G01X0090000Y-130000D03*
G01X0010000Y-130000D03*
G01X0090000Y-100000D03*
G01X0010000Y-100000D03*
G01X0090000Y-070000D03*
G01X0010000Y-070000D03*
G01X0090000Y6170000D03*
G01X0010000Y6170000D03*
G01X0090000Y6200000D03*
G01X0010000Y6200000D03*
G01X0090000Y6230000D03*
G01X0010000Y6230000D03*
G01X6960000Y-130000D03*
G01X7040000Y-130000D03*
G01X6960000Y-100000D03*
G01X7040000Y-100000D03*
G01X6960000Y-070000D03*
G01X7040000Y-070000D03*
G01X6960000Y6170000D03*
G01X7040000Y6170000D03*
G01X6960000Y6200000D03*
G01X7040000Y6200000D03*
G01X6960000Y6230000D03*
G01X7040000Y6230000D03*
M02*
