G75*
G70*
%OFA0B0*%
%FSLAX25Y25*%
%IPPOS*%
%LPD*%
%AMOC8*
5,1,8,0,0,1.08239X$1,22.5*
%
%ADD61C,0.00300*%
X0010000Y0010000D02*
D61*
G01*
X0204388Y0066050D02*
G01*
X0206323Y0067985D01*
G01*
X0206323Y0066050D02*
G01*
X0204388Y0067985D01*
G01*
X0213888Y0067985D02*
G01*
X0215823Y0066050D01*
G01*
X0215823Y0067985D02*
G01*
X0213888Y0066050D01*
G01*
X0214388Y0241550D02*
G01*
X0216323Y0243485D01*
G01*
X0216323Y0241550D02*
G01*
X0214388Y0243485D01*
G01*
X0196323Y0243485D02*
G01*
X0194388Y0241550D01*
G01*
X0196323Y0241550D02*
G01*
X0194388Y0243485D01*
G01*
X0176323Y0243485D02*
G01*
X0174388Y0241550D01*
G01*
X0176323Y0241550D02*
G01*
X0174388Y0243485D01*
G01*
X0165823Y0243485D02*
G01*
X0163888Y0241550D01*
G01*
X0165823Y0241550D02*
G01*
X0163888Y0243485D01*
G01*
X0155823Y0243485D02*
G01*
X0153888Y0241550D01*
G01*
X0155823Y0241550D02*
G01*
X0153888Y0243485D01*
G01*
X0129823Y0243485D02*
G01*
X0127888Y0241550D01*
G01*
X0129823Y0241550D02*
G01*
X0127888Y0243485D01*
G01*
X0119823Y0243485D02*
G01*
X0117888Y0241550D01*
G01*
X0119823Y0241550D02*
G01*
X0117888Y0243485D01*
G01*
X0109823Y0243485D02*
G01*
X0107888Y0241550D01*
G01*
X0109823Y0241550D02*
G01*
X0107888Y0243485D01*
G01*
X0049823Y0243485D02*
G01*
X0047888Y0241550D01*
G01*
X0049823Y0241550D02*
G01*
X0047888Y0243485D01*
G01*
X0039823Y0243485D02*
G01*
X0037888Y0241550D01*
G01*
X0039823Y0241550D02*
G01*
X0037888Y0243485D01*
X0010000Y0310000D02*
D61*
G01*
X0204388Y0366050D02*
G01*
X0206323Y0367985D01*
G01*
X0206323Y0366050D02*
G01*
X0204388Y0367985D01*
G01*
X0213888Y0367985D02*
G01*
X0215823Y0366050D01*
G01*
X0215823Y0367985D02*
G01*
X0213888Y0366050D01*
G01*
X0214388Y0541550D02*
G01*
X0216323Y0543485D01*
G01*
X0216323Y0541550D02*
G01*
X0214388Y0543485D01*
G01*
X0196323Y0543485D02*
G01*
X0194388Y0541550D01*
G01*
X0196323Y0541550D02*
G01*
X0194388Y0543485D01*
G01*
X0176323Y0543485D02*
G01*
X0174388Y0541550D01*
G01*
X0176323Y0541550D02*
G01*
X0174388Y0543485D01*
G01*
X0165823Y0543485D02*
G01*
X0163888Y0541550D01*
G01*
X0165823Y0541550D02*
G01*
X0163888Y0543485D01*
G01*
X0155823Y0543485D02*
G01*
X0153888Y0541550D01*
G01*
X0155823Y0541550D02*
G01*
X0153888Y0543485D01*
G01*
X0129823Y0543485D02*
G01*
X0127888Y0541550D01*
G01*
X0129823Y0541550D02*
G01*
X0127888Y0543485D01*
G01*
X0119823Y0543485D02*
G01*
X0117888Y0541550D01*
G01*
X0119823Y0541550D02*
G01*
X0117888Y0543485D01*
G01*
X0109823Y0543485D02*
G01*
X0107888Y0541550D01*
G01*
X0109823Y0541550D02*
G01*
X0107888Y0543485D01*
G01*
X0049823Y0543485D02*
G01*
X0047888Y0541550D01*
G01*
X0049823Y0541550D02*
G01*
X0047888Y0543485D01*
G01*
X0039823Y0543485D02*
G01*
X0037888Y0541550D01*
G01*
X0039823Y0541550D02*
G01*
X0037888Y0543485D01*
X0357500Y0010000D02*
D61*
G01*
X0551888Y0066050D02*
G01*
X0553823Y0067985D01*
G01*
X0553823Y0066050D02*
G01*
X0551888Y0067985D01*
G01*
X0561388Y0067985D02*
G01*
X0563323Y0066050D01*
G01*
X0563323Y0067985D02*
G01*
X0561388Y0066050D01*
G01*
X0561888Y0241550D02*
G01*
X0563823Y0243485D01*
G01*
X0563823Y0241550D02*
G01*
X0561888Y0243485D01*
G01*
X0543823Y0243485D02*
G01*
X0541888Y0241550D01*
G01*
X0543823Y0241550D02*
G01*
X0541888Y0243485D01*
G01*
X0523823Y0243485D02*
G01*
X0521888Y0241550D01*
G01*
X0523823Y0241550D02*
G01*
X0521888Y0243485D01*
G01*
X0513323Y0243485D02*
G01*
X0511388Y0241550D01*
G01*
X0513323Y0241550D02*
G01*
X0511388Y0243485D01*
G01*
X0503323Y0243485D02*
G01*
X0501388Y0241550D01*
G01*
X0503323Y0241550D02*
G01*
X0501388Y0243485D01*
G01*
X0477323Y0243485D02*
G01*
X0475388Y0241550D01*
G01*
X0477323Y0241550D02*
G01*
X0475388Y0243485D01*
G01*
X0467323Y0243485D02*
G01*
X0465388Y0241550D01*
G01*
X0467323Y0241550D02*
G01*
X0465388Y0243485D01*
G01*
X0457323Y0243485D02*
G01*
X0455388Y0241550D01*
G01*
X0457323Y0241550D02*
G01*
X0455388Y0243485D01*
G01*
X0397323Y0243485D02*
G01*
X0395388Y0241550D01*
G01*
X0397323Y0241550D02*
G01*
X0395388Y0243485D01*
G01*
X0387323Y0243485D02*
G01*
X0385388Y0241550D01*
G01*
X0387323Y0241550D02*
G01*
X0385388Y0243485D01*
X0357500Y0310000D02*
D61*
G01*
X0551888Y0366050D02*
G01*
X0553823Y0367985D01*
G01*
X0553823Y0366050D02*
G01*
X0551888Y0367985D01*
G01*
X0561388Y0367985D02*
G01*
X0563323Y0366050D01*
G01*
X0563323Y0367985D02*
G01*
X0561388Y0366050D01*
G01*
X0561888Y0541550D02*
G01*
X0563823Y0543485D01*
G01*
X0563823Y0541550D02*
G01*
X0561888Y0543485D01*
G01*
X0543823Y0543485D02*
G01*
X0541888Y0541550D01*
G01*
X0543823Y0541550D02*
G01*
X0541888Y0543485D01*
G01*
X0523823Y0543485D02*
G01*
X0521888Y0541550D01*
G01*
X0523823Y0541550D02*
G01*
X0521888Y0543485D01*
G01*
X0513323Y0543485D02*
G01*
X0511388Y0541550D01*
G01*
X0513323Y0541550D02*
G01*
X0511388Y0543485D01*
G01*
X0503323Y0543485D02*
G01*
X0501388Y0541550D01*
G01*
X0503323Y0541550D02*
G01*
X0501388Y0543485D01*
G01*
X0477323Y0543485D02*
G01*
X0475388Y0541550D01*
G01*
X0477323Y0541550D02*
G01*
X0475388Y0543485D01*
G01*
X0467323Y0543485D02*
G01*
X0465388Y0541550D01*
G01*
X0467323Y0541550D02*
G01*
X0465388Y0543485D01*
G01*
X0457323Y0543485D02*
G01*
X0455388Y0541550D01*
G01*
X0457323Y0541550D02*
G01*
X0455388Y0543485D01*
G01*
X0397323Y0543485D02*
G01*
X0395388Y0541550D01*
G01*
X0397323Y0541550D02*
G01*
X0395388Y0543485D01*
G01*
X0387323Y0543485D02*
G01*
X0385388Y0541550D01*
G01*
X0387323Y0541550D02*
G01*
X0385388Y0543485D01*
M02*
