M48
INCH,TZ
%
T10C0.032
X1800Y20550
X1800Y24550
X26750Y7959
X25750Y7959
X27750Y7959
X1800Y50550
X1800Y54550
X26750Y37959
X25750Y37959
X27750Y37959
X36550Y20550
X36550Y24550
X61500Y7959
X60500Y7959
X62500Y7959
X36550Y50550
X36550Y54550
X61500Y37959
X60500Y37959
X62500Y37959
T11C0.040
X3900Y25000
X4900Y25000
X5900Y25000
X6900Y25000
X7900Y25000
X8900Y25000
X9900Y25000
X10900Y25000
X11900Y25000
X12900Y25000
X14500Y25000
X15500Y25000
X16500Y25000
X17500Y25000
X18500Y25000
X19500Y25000
X20500Y25000
X21500Y25000
X21555Y16980
X21555Y15980
X22555Y15980
X22555Y16980
X22555Y14980
X21555Y14980
X14500Y9000
X13500Y9000
X12500Y9000
X11500Y9000
X10500Y9000
X10500Y6000
X11500Y6000
X12500Y6000
X13500Y6000
X14500Y6000
X16500Y6000
X17500Y6000
X18500Y6000
X19500Y6000
X20500Y6000
X21500Y6000
X30250Y5500
X30250Y6500
X30250Y7500
X9500Y6000
X8500Y6000
X7500Y6000
X3750Y16700
X2750Y16700
X1750Y16700
X4650Y22100
X3900Y55000
X4900Y55000
X5900Y55000
X6900Y55000
X7900Y55000
X8900Y55000
X9900Y55000
X10900Y55000
X11900Y55000
X12900Y55000
X14500Y55000
X15500Y55000
X16500Y55000
X17500Y55000
X18500Y55000
X19500Y55000
X20500Y55000
X21500Y55000
X21555Y46980
X21555Y45980
X22555Y45980
X22555Y46980
X22555Y44980
X21555Y44980
X14500Y39000
X13500Y39000
X12500Y39000
X11500Y39000
X10500Y39000
X10500Y36000
X11500Y36000
X12500Y36000
X13500Y36000
X14500Y36000
X16500Y36000
X17500Y36000
X18500Y36000
X19500Y36000
X20500Y36000
X21500Y36000
X30250Y35500
X30250Y36500
X30250Y37500
X9500Y36000
X8500Y36000
X7500Y36000
X3750Y46700
X2750Y46700
X1750Y46700
X4650Y52100
X38650Y25000
X39650Y25000
X40650Y25000
X41650Y25000
X42650Y25000
X43650Y25000
X44650Y25000
X45650Y25000
X46650Y25000
X47650Y25000
X49250Y25000
X50250Y25000
X51250Y25000
X52250Y25000
X53250Y25000
X54250Y25000
X55250Y25000
X56250Y25000
X56305Y16980
X56305Y15980
X57305Y15980
X57305Y16980
X57305Y14980
X56305Y14980
X49250Y9000
X48250Y9000
X47250Y9000
X46250Y9000
X45250Y9000
X45250Y6000
X46250Y6000
X47250Y6000
X48250Y6000
X49250Y6000
X51250Y6000
X52250Y6000
X53250Y6000
X54250Y6000
X55250Y6000
X56250Y6000
X65000Y5500
X65000Y6500
X65000Y7500
X44250Y6000
X43250Y6000
X42250Y6000
X38500Y16700
X37500Y16700
X36500Y16700
X39400Y22100
X38650Y55000
X39650Y55000
X40650Y55000
X41650Y55000
X42650Y55000
X43650Y55000
X44650Y55000
X45650Y55000
X46650Y55000
X47650Y55000
X49250Y55000
X50250Y55000
X51250Y55000
X52250Y55000
X53250Y55000
X54250Y55000
X55250Y55000
X56250Y55000
X56305Y46980
X56305Y45980
X57305Y45980
X57305Y46980
X57305Y44980
X56305Y44980
X49250Y39000
X48250Y39000
X47250Y39000
X46250Y39000
X45250Y39000
X45250Y36000
X46250Y36000
X47250Y36000
X48250Y36000
X49250Y36000
X51250Y36000
X52250Y36000
X53250Y36000
X54250Y36000
X55250Y36000
X56250Y36000
X65000Y35500
X65000Y36500
X65000Y37500
X44250Y36000
X43250Y36000
X42250Y36000
X38500Y46700
X37500Y46700
X36500Y46700
X39400Y52100
T12C0.043
X25388Y10222
X25388Y40222
X60138Y10222
X60138Y40222
T13C0.047
X1933Y3250
X3311Y3250
X4689Y3250
X6067Y3250
X7445Y3250
X8823Y3250
X10201Y3250
X11579Y3250
X12957Y3250
X14335Y3250
X15713Y3250
X17091Y3250
X18469Y3250
X19846Y3250
X21224Y3250
X22602Y3250
X23980Y3250
X25358Y3250
X32850Y6311
X32850Y7689
X30873Y27750
X29495Y27750
X28117Y27750
X26739Y27750
X25361Y27750
X23983Y27750
X22605Y27750
X21227Y27750
X19849Y27750
X18471Y27750
X17094Y27750
X15716Y27750
X14338Y27750
X12960Y27750
X11582Y27750
X10204Y27750
X8826Y27750
X7448Y27750
X6070Y27750
X4692Y27750
X3314Y27750
X1936Y27750
X1933Y33250
X3311Y33250
X4689Y33250
X6067Y33250
X7445Y33250
X8823Y33250
X10201Y33250
X11579Y33250
X12957Y33250
X14335Y33250
X15713Y33250
X17091Y33250
X18469Y33250
X19846Y33250
X21224Y33250
X22602Y33250
X23980Y33250
X25358Y33250
X32850Y36311
X32850Y37689
X30873Y57750
X29495Y57750
X28117Y57750
X26739Y57750
X25361Y57750
X23983Y57750
X22605Y57750
X21227Y57750
X19849Y57750
X18471Y57750
X17094Y57750
X15716Y57750
X14338Y57750
X12960Y57750
X11582Y57750
X10204Y57750
X8826Y57750
X7448Y57750
X6070Y57750
X4692Y57750
X3314Y57750
X1936Y57750
X36683Y3250
X38061Y3250
X39439Y3250
X40817Y3250
X42195Y3250
X43573Y3250
X44951Y3250
X46329Y3250
X47707Y3250
X49085Y3250
X50463Y3250
X51841Y3250
X53219Y3250
X54596Y3250
X55974Y3250
X57352Y3250
X58730Y3250
X60108Y3250
X67600Y6311
X67600Y7689
X65623Y27750
X64245Y27750
X62867Y27750
X61489Y27750
X60111Y27750
X58733Y27750
X57355Y27750
X55977Y27750
X54599Y27750
X53221Y27750
X51844Y27750
X50466Y27750
X49088Y27750
X47710Y27750
X46332Y27750
X44954Y27750
X43576Y27750
X42198Y27750
X40820Y27750
X39442Y27750
X38064Y27750
X36686Y27750
X36683Y33250
X38061Y33250
X39439Y33250
X40817Y33250
X42195Y33250
X43573Y33250
X44951Y33250
X46329Y33250
X47707Y33250
X49085Y33250
X50463Y33250
X51841Y33250
X53219Y33250
X54596Y33250
X55974Y33250
X57352Y33250
X58730Y33250
X60108Y33250
X67600Y36311
X67600Y37689
X65623Y57750
X64245Y57750
X62867Y57750
X61489Y57750
X60111Y57750
X58733Y57750
X57355Y57750
X55977Y57750
X54599Y57750
X53221Y57750
X51844Y57750
X50466Y57750
X49088Y57750
X47710Y57750
X46332Y57750
X44954Y57750
X43576Y57750
X42198Y57750
X40820Y57750
X39442Y57750
X38064Y57750
X36686Y57750
T14C0.020
X7600Y18500
X8250Y19950
X7100Y21500
X8250Y22700
X10400Y24100
X7600Y48500
X8250Y49950
X7100Y51500
X8250Y52700
X10400Y54100
X42350Y18500
X43000Y19950
X41850Y21500
X43000Y22700
X45150Y24100
X42350Y48500
X43000Y49950
X41850Y51500
X43000Y52700
X45150Y54100
X900Y-1300
X100Y-1300
X900Y-1000
X100Y-1000
X900Y-700
X100Y-700
X900Y61700
X100Y61700
X900Y62000
X100Y62000
X900Y62300
X100Y62300
X69600Y-1300
X70400Y-1300
X69600Y-1000
X70400Y-1000
X69600Y-700
X70400Y-700
X69600Y61700
X70400Y61700
X69600Y62000
X70400Y62000
X69600Y62300
X70400Y62300
T15C0.024
X10400Y23400
X10400Y21900
X8600Y22000
X7800Y24100
X4500Y20300
X3500Y20800
X4950Y19250
X4400Y18900
X7300Y19200
X7300Y19700
X9600Y19100
X11000Y19100
X13500Y20600
X18700Y20400
X18700Y22200
X23500Y19250
X20700Y17800
X23500Y12550
X14500Y8100
X9700Y9700
X6300Y10500
X6300Y11000
X5900Y14000
X6850Y15950
X7300Y16400
X4950Y16400
X10600Y15500
X11900Y14600
X27550Y2900
X28900Y1700
X33500Y20700
X33500Y24500
X30050Y24600
X28050Y24600
X10400Y53400
X10400Y51900
X8600Y52000
X7800Y54100
X4500Y50300
X3500Y50800
X4950Y49250
X4400Y48900
X7300Y49200
X7300Y49700
X9600Y49100
X11000Y49100
X13500Y50600
X18700Y50400
X18700Y52200
X23500Y49250
X20700Y47800
X23500Y42550
X14500Y38100
X9700Y39700
X6300Y40500
X6300Y41000
X5900Y44000
X6850Y45950
X7300Y46400
X4950Y46400
X10600Y45500
X11900Y44600
X27550Y32900
X28900Y31700
X33500Y50700
X33500Y54500
X30050Y54600
X28050Y54600
X45150Y23400
X45150Y21900
X43350Y22000
X42550Y24100
X39250Y20300
X38250Y20800
X39700Y19250
X39150Y18900
X42050Y19200
X42050Y19700
X44350Y19100
X45750Y19100
X48250Y20600
X53450Y20400
X53450Y22200
X58250Y19250
X55450Y17800
X58250Y12550
X49250Y8100
X44450Y9700
X41050Y10500
X41050Y11000
X40650Y14000
X41600Y15950
X42050Y16400
X39700Y16400
X45350Y15500
X46650Y14600
X62300Y2900
X63650Y1700
X68250Y20700
X68250Y24500
X64800Y24600
X62800Y24600
X45150Y53400
X45150Y51900
X43350Y52000
X42550Y54100
X39250Y50300
X38250Y50800
X39700Y49250
X39150Y48900
X42050Y49200
X42050Y49700
X44350Y49100
X45750Y49100
X48250Y50600
X53450Y50400
X53450Y52200
X58250Y49250
X55450Y47800
X58250Y42550
X49250Y38100
X44450Y39700
X41050Y40500
X41050Y41000
X40650Y44000
X41600Y45950
X42050Y46400
X39700Y46400
X45350Y45500
X46650Y44600
X62300Y32900
X63650Y31700
X68250Y50700
X68250Y54500
X64800Y54600
X62800Y54600
T16C0.028
X28000Y4500
X27000Y4500
X28000Y34500
X27000Y34500
X62750Y4500
X61750Y4500
X62750Y34500
X61750Y34500
T17C0.063
X25388Y18490
X25388Y48490
X60138Y18490
X60138Y48490
T18C0.098
X33000Y27750
X33000Y3250
X2000Y7500
X2000Y15100
X33000Y57750
X33000Y33250
X2000Y37500
X2000Y45100
X67750Y27750
X67750Y3250
X36750Y7500
X36750Y15100
X67750Y57750
X67750Y33250
X36750Y37500
X36750Y45100
T22C0.081
X5000Y-1000
X65500Y-1000
X5000Y62000
X65500Y62000
M30
