%
M48
M72
T01C0.0197
T02C0.0236
T03C0.0276
T04C0.0315
T05C0.0320
T06C0.0400
T07C0.0433
T08C0.0472
T09C0.0630
T10C0.0984
%
T01
X7100Y18000
X7750Y19450
X6600Y21000
X7750Y22200
X9900Y23600
T02
X9900Y22900
X9900Y21400
X8100Y21500
X7300Y23600
X4000Y19800
X3000Y20300
X4450Y18750
X3900Y18400
X6800Y18700
X6800Y19200
X9100Y18600
X10500Y18600
X13000Y20100
X18200Y19900
X18200Y21700
X23000Y18750
X20200Y17300
X23000Y12050
X14000Y7600
X9200Y9200
X5800Y10000
X5800Y10500
X5400Y13500
X6350Y15450
X6800Y15900
X4450Y15900
X10100Y15000
X11400Y14100
X27050Y2400
X28400Y1200
X33000Y20200
X33000Y24000
X29550Y24100
X27550Y24100
T03
X27500Y4000
X26500Y4000
T04
X26250Y7459
X25250Y7459
X27250Y7459
T05
X1300Y20050
X1300Y24050
T06
X3400Y24500
X4400Y24500
X5400Y24500
X6400Y24500
X7400Y24500
X8400Y24500
X9400Y24500
X10400Y24500
X11400Y24500
X12400Y24500
X14000Y24500
X15000Y24500
X16000Y24500
X17000Y24500
X18000Y24500
X19000Y24500
X20000Y24500
X21000Y24500
X21055Y16480
X21055Y15480
X22055Y15480
X22055Y16480
X22055Y14480
X21055Y14480
X14000Y8500
X13000Y8500
X12000Y8500
X11000Y8500
X10000Y8500
X10000Y5500
X11000Y5500
X12000Y5500
X13000Y5500
X14000Y5500
X16000Y5500
X17000Y5500
X18000Y5500
X19000Y5500
X20000Y5500
X21000Y5500
X29750Y5000
X29750Y6000
X29750Y7000
X9000Y5500
X8000Y5500
X7000Y5500
X3250Y16200
X2250Y16200
X1250Y16200
X4150Y21600
T07
X24888Y9722
T08
X1433Y2750
X2811Y2750
X4189Y2750
X5567Y2750
X6945Y2750
X8323Y2750
X9701Y2750
X11079Y2750
X12457Y2750
X13835Y2750
X15213Y2750
X16591Y2750
X17969Y2750
X19346Y2750
X20724Y2750
X22102Y2750
X23480Y2750
X24858Y2750
X32350Y5811
X32350Y7189
X30373Y27250
X28995Y27250
X27617Y27250
X26239Y27250
X24861Y27250
X23483Y27250
X22105Y27250
X20727Y27250
X19349Y27250
X17971Y27250
X16594Y27250
X15216Y27250
X13838Y27250
X12460Y27250
X11082Y27250
X9704Y27250
X8326Y27250
X6948Y27250
X5570Y27250
X4192Y27250
X2814Y27250
X1436Y27250
T09
X24888Y17990
T10
X32500Y27250
X32500Y2750
X1500Y7000
X1500Y14600
M30
