G75*
%MOIN*%
%OFA0B0*%
%FSLAX25Y25*%
%IPPOS*%
%LPD*%
%AMOC8*
5,1,8,0,0,1.08239X$1,22.5*
%
%ADD10C,0.00700*%
%ADD11C,0.31496*%
%ADD12R,0.12500X0.12500*%
%ADD13R,0.06500X0.06500*%
%ADD14C,0.06500*%
%ADD15R,0.05118X0.04724*%
%ADD16R,0.04724X0.05118*%
%ADD17C,0.01181*%
%ADD18C,0.03937*%
%ADD19OC8,0.07400*%
%ADD20C,0.07400*%
%ADD21R,0.08000X0.08000*%
%ADD22C,0.08000*%
%ADD23C,0.01000*%
%ADD24R,0.02500X0.05000*%
%ADD25R,0.04724X0.04724*%
%ADD26R,0.03543X0.03150*%
%ADD27R,0.03150X0.03543*%
%ADD28C,0.01200*%
%ADD29OC8,0.06600*%
%ADD30R,0.05512X0.04724*%
%ADD31C,0.13843*%
%ADD32R,0.11024X0.05906*%
%ADD33R,0.07480X0.02756*%
%ADD34R,0.07480X0.03937*%
%ADD35R,0.08661X0.02362*%
%ADD36R,0.02400X0.08700*%
%ADD37R,0.01969X0.01378*%
%ADD38R,0.03937X0.00984*%
%ADD39R,0.09843X0.06693*%
%ADD40C,0.01600*%
%ADD41C,0.00800*%
%ADD42R,0.03762X0.03762*%
%ADD43C,0.02400*%
%ADD44R,0.03369X0.03369*%
D10*
X0261094Y0217550D02*
X0266365Y0217550D01*
X0269012Y0217550D02*
X0274284Y0217550D01*
X0276931Y0217550D02*
X0276931Y0225457D01*
X0279567Y0222821D01*
X0282202Y0225457D01*
X0282202Y0217550D01*
X0284850Y0218868D02*
X0286168Y0217550D01*
X0288803Y0217550D01*
X0290121Y0218868D01*
X0290121Y0220186D01*
X0288803Y0221503D01*
X0286168Y0221503D01*
X0284850Y0222821D01*
X0284850Y0224139D01*
X0286168Y0225457D01*
X0288803Y0225457D01*
X0290121Y0224139D01*
X0292769Y0222821D02*
X0295404Y0217550D01*
X0298040Y0222821D01*
X0300688Y0224139D02*
X0302005Y0225457D01*
X0304641Y0225457D01*
X0305959Y0224139D01*
X0305959Y0222821D01*
X0300688Y0217550D01*
X0305959Y0217550D01*
X0274284Y0225457D02*
X0269012Y0225457D01*
X0269012Y0217550D01*
X0269012Y0221503D02*
X0271648Y0221503D01*
X0261094Y0225457D02*
X0261094Y0217550D01*
D11*
X0031000Y0108000D03*
D12*
X0031000Y0139000D03*
X0031000Y0077000D03*
D13*
X0275000Y0040000D03*
D14*
X0265000Y0040000D03*
D15*
X0264000Y0024000D03*
X0264000Y0016000D03*
X0277000Y0016000D03*
X0277000Y0024000D03*
X0115000Y0102000D03*
X0115000Y0110000D03*
X0115000Y0121500D03*
X0115000Y0129500D03*
X0105000Y0171500D03*
X0105000Y0179500D03*
X0091000Y0179500D03*
X0091000Y0171500D03*
X0064500Y0173500D03*
X0064500Y0181500D03*
X0054500Y0181500D03*
X0054500Y0173500D03*
X0044500Y0173500D03*
X0044500Y0181500D03*
X0012500Y0180500D03*
X0012500Y0188500D03*
X0023500Y0216500D03*
X0023500Y0224500D03*
X0226000Y0246000D03*
X0226000Y0254000D03*
X0249500Y0254000D03*
X0249500Y0246000D03*
X0261000Y0246000D03*
X0261000Y0254000D03*
X0288000Y0254000D03*
X0288000Y0246000D03*
D16*
X0214000Y0224000D03*
X0206000Y0224000D03*
X0206000Y0206000D03*
X0214000Y0206000D03*
X0216000Y0179000D03*
X0224000Y0179000D03*
X0179000Y0206000D03*
X0171000Y0206000D03*
X0171000Y0224000D03*
X0179000Y0224000D03*
X0123000Y0224500D03*
X0115000Y0224500D03*
X0092000Y0221500D03*
X0084000Y0221500D03*
X0084000Y0199500D03*
X0092000Y0199500D03*
X0115000Y0201000D03*
X0123000Y0201000D03*
X0095000Y0155000D03*
X0087000Y0155000D03*
X0087000Y0145000D03*
X0095000Y0145000D03*
X0155000Y0095500D03*
X0163000Y0095500D03*
X0163000Y0072000D03*
X0155000Y0072000D03*
X0107500Y0071500D03*
X0099500Y0071500D03*
X0216000Y0104000D03*
X0224000Y0104000D03*
X0059000Y0210000D03*
X0051000Y0210000D03*
D17*
X0226122Y0210831D02*
X0228878Y0210831D01*
X0228878Y0208075D01*
X0226122Y0208075D01*
X0226122Y0210831D01*
X0226122Y0209255D02*
X0228878Y0209255D01*
X0228878Y0210435D02*
X0226122Y0210435D01*
X0226122Y0203925D02*
X0228878Y0203925D01*
X0228878Y0201169D01*
X0226122Y0201169D01*
X0226122Y0203925D01*
X0226122Y0202349D02*
X0228878Y0202349D01*
X0228878Y0203529D02*
X0226122Y0203529D01*
X0226122Y0221925D02*
X0228878Y0221925D01*
X0228878Y0219169D01*
X0226122Y0219169D01*
X0226122Y0221925D01*
X0226122Y0220349D02*
X0228878Y0220349D01*
X0228878Y0221529D02*
X0226122Y0221529D01*
X0226122Y0228831D02*
X0228878Y0228831D01*
X0228878Y0226075D01*
X0226122Y0226075D01*
X0226122Y0228831D01*
X0226122Y0227255D02*
X0228878Y0227255D01*
X0228878Y0228435D02*
X0226122Y0228435D01*
D18*
X0325000Y0287500D03*
X0015000Y0055000D03*
X0325000Y0012500D03*
D19*
X0220551Y0144803D03*
X0210551Y0144803D03*
X0210551Y0154803D03*
X0210551Y0164803D03*
X0220551Y0164803D03*
X0220551Y0154803D03*
D20*
X0140000Y0085000D03*
X0130000Y0085000D03*
X0120000Y0085000D03*
X0110000Y0085000D03*
X0100000Y0085000D03*
X0100000Y0055000D03*
X0110000Y0055000D03*
X0120000Y0055000D03*
X0130000Y0055000D03*
X0140000Y0055000D03*
X0160000Y0055000D03*
X0170000Y0055000D03*
X0180000Y0055000D03*
X0190000Y0055000D03*
X0200000Y0055000D03*
X0210000Y0055000D03*
X0297500Y0050000D03*
X0297500Y0060000D03*
X0297500Y0070000D03*
X0210000Y0245000D03*
X0200000Y0245000D03*
X0190000Y0245000D03*
X0180000Y0245000D03*
X0170000Y0245000D03*
X0160000Y0245000D03*
X0150000Y0245000D03*
X0140000Y0245000D03*
X0124000Y0245000D03*
X0114000Y0245000D03*
X0104000Y0245000D03*
X0094000Y0245000D03*
X0084000Y0245000D03*
X0074000Y0245000D03*
X0064000Y0245000D03*
X0054000Y0245000D03*
X0044000Y0245000D03*
X0034000Y0245000D03*
X0041500Y0216000D03*
X0032500Y0162000D03*
X0022500Y0162000D03*
X0012500Y0162000D03*
X0070000Y0055000D03*
X0080000Y0055000D03*
X0090000Y0055000D03*
D21*
X0069449Y0027500D03*
X0124567Y0027500D03*
X0179685Y0027500D03*
X0207244Y0027500D03*
X0323500Y0058110D03*
X0303730Y0272500D03*
X0276171Y0272500D03*
X0248612Y0272500D03*
X0221053Y0272500D03*
X0193494Y0272500D03*
X0165935Y0272500D03*
X0138376Y0272500D03*
X0110817Y0272500D03*
X0083258Y0272500D03*
X0055699Y0272500D03*
X0028140Y0272500D03*
X0014331Y0027500D03*
D22*
X0028110Y0027500D03*
X0041890Y0027500D03*
X0055669Y0027500D03*
X0083228Y0027500D03*
X0097008Y0027500D03*
X0110787Y0027500D03*
X0138346Y0027500D03*
X0152126Y0027500D03*
X0165906Y0027500D03*
X0193465Y0027500D03*
X0221024Y0027500D03*
X0234803Y0027500D03*
X0248583Y0027500D03*
X0323500Y0071890D03*
X0289951Y0272500D03*
X0262392Y0272500D03*
X0234833Y0272500D03*
X0207274Y0272500D03*
X0179715Y0272500D03*
X0152156Y0272500D03*
X0124596Y0272500D03*
X0097037Y0272500D03*
X0069478Y0272500D03*
X0041919Y0272500D03*
X0014360Y0272500D03*
D23*
X0030000Y0253000D02*
X0096000Y0253000D01*
X0097000Y0254000D01*
X0097000Y0272463D01*
X0097037Y0272500D01*
X0110817Y0272500D02*
X0111000Y0272317D01*
X0111000Y0254000D01*
X0108000Y0251000D01*
X0031000Y0251000D01*
X0028000Y0248000D01*
X0028000Y0242000D01*
X0031000Y0239000D01*
X0082000Y0239000D01*
X0084169Y0236831D01*
X0084169Y0232500D01*
X0084169Y0221669D01*
X0084000Y0221500D01*
X0083500Y0222000D01*
X0077500Y0222000D01*
X0073000Y0224000D02*
X0072000Y0223000D01*
X0072000Y0219000D01*
X0076000Y0215000D01*
X0081000Y0215000D01*
X0087000Y0215000D01*
X0088000Y0214000D01*
X0092197Y0214000D01*
X0092437Y0214240D01*
X0092677Y0214000D01*
X0084169Y0210500D02*
X0074000Y0210500D01*
X0068000Y0216500D01*
X0068000Y0236000D01*
X0067000Y0237000D01*
X0030000Y0237000D01*
X0026000Y0241000D01*
X0026000Y0249000D01*
X0030000Y0253000D01*
X0041500Y0216000D02*
X0043500Y0214000D01*
X0043500Y0206000D01*
X0046000Y0206000D01*
X0046181Y0205819D01*
X0046181Y0198937D01*
X0046181Y0196969D02*
X0049969Y0196969D01*
X0051000Y0198000D01*
X0051000Y0210000D01*
X0043000Y0206000D02*
X0040000Y0206000D01*
X0039500Y0206000D02*
X0039500Y0202000D01*
X0040000Y0201500D01*
X0040000Y0198000D01*
X0043000Y0195000D01*
X0046181Y0195000D01*
X0046181Y0193031D02*
X0040969Y0193031D01*
X0039500Y0194500D01*
X0035300Y0194500D01*
X0035000Y0194800D01*
X0037000Y0186000D02*
X0026000Y0186000D01*
X0025000Y0187000D01*
X0025000Y0194800D01*
X0037000Y0186000D02*
X0039000Y0184000D01*
X0039000Y0174500D01*
X0040000Y0173500D01*
X0044500Y0173500D01*
X0044500Y0181500D02*
X0054500Y0181500D01*
X0054500Y0194500D01*
X0055000Y0195000D01*
X0062819Y0195000D01*
X0062819Y0193031D02*
X0066969Y0193031D01*
X0068000Y0192000D01*
X0068000Y0187000D02*
X0064000Y0187000D01*
X0063000Y0188000D01*
X0063000Y0190882D01*
X0062819Y0191063D01*
X0062819Y0196969D02*
X0072031Y0196969D01*
X0074500Y0194500D01*
X0077500Y0194500D01*
X0077000Y0194000D01*
X0081000Y0193000D02*
X0082000Y0194000D01*
X0091000Y0194000D01*
X0092000Y0195000D01*
X0092000Y0199500D01*
X0084169Y0199669D02*
X0084000Y0199500D01*
X0083437Y0198937D01*
X0062819Y0198937D01*
X0066000Y0210000D02*
X0059000Y0210000D01*
X0073000Y0224000D02*
X0073000Y0236000D01*
X0092437Y0236240D02*
X0098760Y0236240D01*
X0099000Y0236000D01*
X0104000Y0239000D02*
X0105000Y0238000D01*
X0121000Y0238000D01*
X0123000Y0236000D01*
X0123000Y0224500D01*
X0115437Y0216937D01*
X0115260Y0216937D01*
X0119000Y0208669D02*
X0119000Y0205000D01*
X0123000Y0201000D01*
X0130000Y0201000D01*
X0115000Y0201000D02*
X0105500Y0201000D01*
X0104500Y0202000D01*
X0084169Y0199669D02*
X0084169Y0210500D01*
X0081000Y0193000D02*
X0081000Y0182000D01*
X0079000Y0180000D01*
X0071000Y0180000D01*
X0062500Y0181500D02*
X0054500Y0173500D01*
X0044500Y0159000D02*
X0044500Y0150000D01*
X0045780Y0148720D01*
X0072850Y0148720D01*
X0072850Y0151280D02*
X0064220Y0151280D01*
X0063500Y0152000D01*
X0063500Y0154500D01*
X0068000Y0156500D02*
X0068000Y0159000D01*
X0068000Y0156500D02*
X0070661Y0153839D01*
X0072850Y0153839D01*
X0072850Y0159850D01*
X0075000Y0162000D01*
X0083000Y0162000D01*
X0084000Y0163000D01*
X0084000Y0178500D01*
X0085000Y0179500D01*
X0091000Y0179500D01*
X0098000Y0178500D02*
X0099000Y0179500D01*
X0105000Y0179500D01*
X0098000Y0178500D02*
X0098000Y0161000D01*
X0097000Y0160000D01*
X0076000Y0160000D01*
X0075500Y0159500D01*
X0075500Y0152000D01*
X0075000Y0151500D01*
X0073071Y0151500D01*
X0072850Y0151280D01*
X0079150Y0153839D02*
X0081339Y0153839D01*
X0082500Y0155000D01*
X0087000Y0155000D01*
X0083000Y0150000D02*
X0081720Y0148720D01*
X0079150Y0148720D01*
X0079150Y0146161D02*
X0079311Y0146000D01*
X0082500Y0146000D01*
X0083500Y0145000D01*
X0087000Y0145000D01*
X0083000Y0150000D02*
X0094000Y0150000D01*
X0095000Y0151000D01*
X0095000Y0150000D02*
X0101000Y0150000D01*
X0095000Y0149000D02*
X0094000Y0150000D01*
X0114000Y0141000D02*
X0116000Y0139000D01*
X0119000Y0139000D01*
X0121000Y0137000D01*
X0121000Y0112000D01*
X0119000Y0110000D01*
X0115000Y0110000D01*
X0121000Y0091000D02*
X0120000Y0090000D01*
X0120000Y0085000D01*
X0121000Y0091000D02*
X0145000Y0091000D01*
X0148500Y0087500D01*
X0155197Y0087500D01*
X0155260Y0087437D01*
X0155260Y0095240D01*
X0155000Y0095500D01*
X0159000Y0079169D02*
X0159000Y0076000D01*
X0163000Y0072000D01*
X0163000Y0064000D01*
X0161000Y0062000D01*
X0153000Y0062000D01*
X0151000Y0060000D01*
X0151000Y0049000D01*
X0152000Y0048000D01*
X0205000Y0048000D01*
X0207000Y0046000D01*
X0207000Y0027744D01*
X0207244Y0027500D01*
X0193500Y0027535D02*
X0193465Y0027500D01*
X0193500Y0027535D02*
X0193500Y0043500D01*
X0192000Y0045000D01*
X0148000Y0045000D01*
X0146000Y0047000D01*
X0146000Y0070000D01*
X0144500Y0071500D01*
X0124331Y0071500D01*
X0140000Y0076000D02*
X0149000Y0076000D01*
X0150000Y0075000D01*
X0150000Y0073000D01*
X0151000Y0072000D01*
X0155000Y0072000D01*
X0201000Y0112000D02*
X0202000Y0111000D01*
X0204000Y0111000D01*
X0205000Y0110000D01*
X0206000Y0111000D01*
X0236874Y0111000D01*
X0237067Y0110807D01*
X0237067Y0120354D02*
X0230146Y0120354D01*
X0230000Y0120500D01*
X0237067Y0120354D02*
X0243354Y0120354D01*
X0244000Y0121000D01*
X0244000Y0134000D01*
X0243000Y0135000D01*
X0221500Y0135000D01*
X0220500Y0136000D01*
X0220500Y0144752D01*
X0220551Y0144803D01*
X0220854Y0144500D01*
X0229000Y0144500D01*
X0230000Y0145500D01*
X0230000Y0149000D01*
X0230882Y0149882D01*
X0237067Y0149882D01*
X0236843Y0159500D02*
X0229500Y0159500D01*
X0224803Y0154803D01*
X0220551Y0154803D01*
X0210551Y0154803D02*
X0204803Y0154803D01*
X0204000Y0154000D01*
X0204000Y0131000D01*
X0205000Y0130000D01*
X0236870Y0130000D01*
X0237067Y0130197D01*
X0206000Y0111000D02*
X0205000Y0111000D01*
X0205000Y0110000D01*
X0205000Y0098000D01*
X0207000Y0096000D01*
X0219000Y0096000D01*
X0221000Y0094000D01*
X0221000Y0057000D01*
X0223000Y0055000D01*
X0245000Y0055000D01*
X0248583Y0051417D01*
X0248583Y0027500D01*
X0264000Y0016000D02*
X0264000Y0013000D01*
X0265000Y0012000D01*
X0284000Y0012000D01*
X0205000Y0111000D02*
X0204000Y0111000D01*
X0201000Y0112000D02*
X0201000Y0164000D01*
X0201803Y0164803D01*
X0210551Y0164803D01*
X0202000Y0173000D02*
X0227000Y0173000D01*
X0230433Y0169567D01*
X0237067Y0169567D01*
X0237067Y0159724D02*
X0236843Y0159500D01*
X0223953Y0199000D02*
X0202000Y0199000D01*
X0195831Y0205169D01*
X0195831Y0206000D01*
X0202000Y0217000D02*
X0195831Y0223169D01*
X0195831Y0224000D01*
X0202000Y0217000D02*
X0223953Y0217000D01*
X0227500Y0220547D01*
X0227500Y0227453D02*
X0217453Y0227453D01*
X0214000Y0224000D01*
X0217453Y0209453D02*
X0227500Y0209453D01*
X0227500Y0202547D02*
X0223953Y0199000D01*
X0214000Y0206000D02*
X0217453Y0209453D01*
X0104000Y0239000D02*
X0104000Y0245000D01*
X0066890Y0105000D02*
X0058000Y0105000D01*
X0058000Y0100000D02*
X0066890Y0100000D01*
X0092000Y0092000D02*
X0092000Y0067000D01*
X0090000Y0065000D01*
X0058000Y0065000D01*
X0056000Y0063000D01*
X0056000Y0027831D01*
X0055669Y0027500D01*
X0082000Y0015000D02*
X0029000Y0015000D01*
X0028000Y0016000D01*
X0028000Y0027390D01*
X0028110Y0027500D01*
X0082000Y0015000D02*
X0083228Y0016228D01*
X0083228Y0027500D01*
D24*
X0043500Y0206000D03*
X0039500Y0206000D03*
D25*
X0252500Y0074587D03*
X0262500Y0074587D03*
X0272500Y0074587D03*
D26*
X0124331Y0071500D03*
X0116063Y0067760D03*
X0116063Y0075240D03*
X0187563Y0202260D03*
X0187563Y0209740D03*
X0195831Y0206000D03*
X0187563Y0220260D03*
X0187563Y0227740D03*
X0195831Y0224000D03*
X0233563Y0246260D03*
X0233563Y0253740D03*
X0241831Y0250000D03*
X0295563Y0246260D03*
X0295563Y0253740D03*
X0303831Y0250000D03*
X0092437Y0236240D03*
X0092437Y0228760D03*
X0084169Y0232500D03*
X0092437Y0214240D03*
X0084169Y0210500D03*
X0092437Y0206760D03*
D27*
X0115260Y0216937D03*
X0122740Y0216937D03*
X0119000Y0208669D03*
X0155260Y0087437D03*
X0162740Y0087437D03*
X0159000Y0079169D03*
X0268260Y0246063D03*
X0275740Y0246063D03*
X0272000Y0254331D03*
D28*
X0013000Y0238217D02*
X0013000Y0224831D01*
X0013000Y0216563D02*
X0013000Y0200421D01*
D29*
X0013000Y0200500D03*
X0013000Y0240500D03*
D30*
X0013000Y0224537D03*
X0013000Y0216463D03*
D31*
X0015000Y0146000D03*
X0015000Y0070000D03*
X0325000Y0027500D03*
X0325000Y0272500D03*
D32*
X0329587Y0196240D03*
X0244941Y0187579D03*
X0244941Y0088760D03*
X0329587Y0088760D03*
D33*
X0237067Y0094272D03*
X0237067Y0098996D03*
D34*
X0237067Y0104114D03*
X0237067Y0110807D03*
X0237067Y0120354D03*
X0237067Y0130197D03*
X0237067Y0140039D03*
X0237067Y0149882D03*
X0237067Y0159724D03*
X0237067Y0169567D03*
X0237067Y0179409D03*
D35*
X0103110Y0135000D03*
X0103110Y0130000D03*
X0103110Y0125000D03*
X0103110Y0120000D03*
X0103110Y0115000D03*
X0103110Y0110000D03*
X0103110Y0105000D03*
X0103110Y0100000D03*
X0066890Y0100000D03*
X0066890Y0105000D03*
X0066890Y0110000D03*
X0066890Y0115000D03*
X0066890Y0120000D03*
X0066890Y0125000D03*
X0066890Y0130000D03*
X0066890Y0135000D03*
D36*
X0035000Y0174200D03*
X0030000Y0174200D03*
X0025000Y0174200D03*
X0020000Y0174200D03*
X0020000Y0194800D03*
X0025000Y0194800D03*
X0030000Y0194800D03*
X0035000Y0194800D03*
D37*
X0072850Y0153839D03*
X0072850Y0151280D03*
X0072850Y0148720D03*
X0072850Y0146161D03*
X0079150Y0146161D03*
X0079150Y0148720D03*
X0079150Y0151280D03*
X0079150Y0153839D03*
D38*
X0062819Y0191063D03*
X0062819Y0193031D03*
X0062819Y0195000D03*
X0062819Y0196969D03*
X0062819Y0198937D03*
X0046181Y0198937D03*
X0046181Y0196969D03*
X0046181Y0195000D03*
X0046181Y0193031D03*
X0046181Y0191063D03*
D39*
X0289626Y0027500D03*
X0305374Y0027500D03*
X0314126Y0250000D03*
X0329874Y0250000D03*
D40*
X0008000Y0063287D02*
X0008000Y0008000D01*
X0321387Y0008000D01*
X0320136Y0009250D01*
X0320136Y0009250D01*
X0319263Y0011359D01*
X0319263Y0013641D01*
X0320136Y0015750D01*
X0320136Y0015750D01*
X0321750Y0017364D01*
X0321750Y0017364D01*
X0323456Y0018070D01*
X0321274Y0018504D01*
X0318115Y0020615D01*
X0316004Y0023774D01*
X0315263Y0027500D01*
X0316004Y0031226D01*
X0318115Y0034385D01*
X0321274Y0036496D01*
X0325000Y0037237D01*
X0328726Y0036496D01*
X0331885Y0034385D01*
X0333996Y0031226D01*
X0334737Y0027500D01*
X0333996Y0023774D01*
X0331885Y0020615D01*
X0328726Y0018504D01*
X0326544Y0018070D01*
X0328250Y0017364D01*
X0328250Y0017364D01*
X0329864Y0015750D01*
X0329864Y0015750D01*
X0330737Y0013641D01*
X0330737Y0011359D01*
X0329864Y0009250D01*
X0329864Y0009250D01*
X0328613Y0008000D01*
X0339000Y0008000D01*
X0339000Y0292000D01*
X0328613Y0292000D01*
X0329864Y0290750D01*
X0329864Y0290750D01*
X0330737Y0288641D01*
X0330737Y0286359D01*
X0329864Y0284250D01*
X0329864Y0284250D01*
X0328250Y0282636D01*
X0328250Y0282636D01*
X0326544Y0281930D01*
X0328726Y0281496D01*
X0331885Y0279385D01*
X0333996Y0276226D01*
X0334737Y0272500D01*
X0333996Y0268774D01*
X0331885Y0265615D01*
X0328726Y0263504D01*
X0325000Y0262763D01*
X0321274Y0263504D01*
X0318115Y0265615D01*
X0316004Y0268774D01*
X0315263Y0272500D01*
X0316004Y0276226D01*
X0318115Y0279385D01*
X0321274Y0281496D01*
X0323456Y0281930D01*
X0321750Y0282636D01*
X0321750Y0282636D01*
X0320136Y0284250D01*
X0320136Y0284250D01*
X0319263Y0286359D01*
X0319263Y0288641D01*
X0320136Y0290750D01*
X0320136Y0290750D01*
X0321387Y0292000D01*
X0008000Y0292000D01*
X0008000Y0242712D01*
X0010400Y0245112D01*
X0010400Y0248517D01*
X0010796Y0249473D01*
X0011527Y0250204D01*
X0011527Y0250204D01*
X0011760Y0250437D01*
X0011760Y0267299D01*
X0011075Y0267583D01*
X0009443Y0269215D01*
X0008560Y0271346D01*
X0008560Y0273654D01*
X0009443Y0275785D01*
X0011075Y0277417D01*
X0013207Y0278300D01*
X0015514Y0278300D01*
X0017646Y0277417D01*
X0018400Y0276663D01*
X0018400Y0279517D01*
X0018796Y0280473D01*
X0019527Y0281204D01*
X0021527Y0283204D01*
X0022483Y0283600D01*
X0122517Y0283600D01*
X0123473Y0283204D01*
X0124204Y0282473D01*
X0126204Y0280473D01*
X0126600Y0279517D01*
X0126600Y0277948D01*
X0127882Y0277417D01*
X0129513Y0275785D01*
X0129632Y0275500D01*
X0132576Y0275500D01*
X0132576Y0277246D01*
X0133630Y0278300D01*
X0135776Y0278300D01*
X0135776Y0286893D01*
X0136172Y0287849D01*
X0137796Y0289473D01*
X0138527Y0290204D01*
X0139483Y0290600D01*
X0302517Y0290600D01*
X0303473Y0290204D01*
X0304204Y0289473D01*
X0305934Y0287742D01*
X0306330Y0286787D01*
X0306330Y0278300D01*
X0308476Y0278300D01*
X0309530Y0277246D01*
X0309530Y0267754D01*
X0308476Y0266700D01*
X0306600Y0266700D01*
X0306600Y0263077D01*
X0307077Y0262600D01*
X0328517Y0262600D01*
X0329473Y0262204D01*
X0330204Y0261473D01*
X0330204Y0261473D01*
X0332078Y0259599D01*
X0332474Y0258643D01*
X0332474Y0255146D01*
X0335541Y0255146D01*
X0336595Y0254092D01*
X0336595Y0245908D01*
X0335541Y0244854D01*
X0333000Y0244854D01*
X0333000Y0243308D01*
X0333681Y0242627D01*
X0333681Y0237373D01*
X0332627Y0236319D01*
X0327373Y0236319D01*
X0326319Y0237373D01*
X0326319Y0242627D01*
X0327000Y0243308D01*
X0327000Y0244854D01*
X0324207Y0244854D01*
X0323153Y0245908D01*
X0323153Y0254092D01*
X0324207Y0255146D01*
X0327274Y0255146D01*
X0327274Y0257049D01*
X0326923Y0257400D01*
X0306135Y0257400D01*
X0306431Y0256686D01*
X0306431Y0253292D01*
X0307123Y0252600D01*
X0307405Y0252600D01*
X0307405Y0254092D01*
X0308459Y0255146D01*
X0319793Y0255146D01*
X0320847Y0254092D01*
X0320847Y0245908D01*
X0319793Y0244854D01*
X0308459Y0244854D01*
X0307405Y0245908D01*
X0307405Y0247400D01*
X0307123Y0247400D01*
X0306348Y0246625D01*
X0301313Y0246625D01*
X0300259Y0247680D01*
X0300259Y0252320D01*
X0301231Y0253292D01*
X0301231Y0255092D01*
X0297923Y0258400D01*
X0291483Y0258400D01*
X0290527Y0258796D01*
X0288527Y0260796D01*
X0287796Y0261527D01*
X0287400Y0262483D01*
X0287400Y0267279D01*
X0286665Y0267583D01*
X0285034Y0269215D01*
X0284151Y0271346D01*
X0284151Y0273654D01*
X0285034Y0275785D01*
X0286665Y0277417D01*
X0288797Y0278300D01*
X0291104Y0278300D01*
X0293236Y0277417D01*
X0294868Y0275785D01*
X0295751Y0273654D01*
X0295751Y0271346D01*
X0294868Y0269215D01*
X0293236Y0267583D01*
X0292600Y0267319D01*
X0292600Y0264077D01*
X0293077Y0263600D01*
X0299517Y0263600D01*
X0300473Y0263204D01*
X0301204Y0262473D01*
X0301400Y0262277D01*
X0301400Y0266700D01*
X0298985Y0266700D01*
X0297930Y0267754D01*
X0297930Y0277246D01*
X0298985Y0278300D01*
X0301130Y0278300D01*
X0301130Y0285193D01*
X0300923Y0285400D01*
X0252077Y0285400D01*
X0251973Y0285296D01*
X0251973Y0285296D01*
X0251600Y0284923D01*
X0251600Y0278300D01*
X0253358Y0278300D01*
X0254412Y0277246D01*
X0254412Y0267754D01*
X0253358Y0266700D01*
X0251600Y0266700D01*
X0251600Y0263077D01*
X0251704Y0262973D01*
X0252100Y0262017D01*
X0252100Y0258162D01*
X0252805Y0258162D01*
X0253859Y0257108D01*
X0253859Y0250892D01*
X0252967Y0250000D01*
X0253859Y0249108D01*
X0253859Y0242892D01*
X0252805Y0241838D01*
X0246195Y0241838D01*
X0245141Y0242892D01*
X0245141Y0246682D01*
X0244773Y0247050D01*
X0244348Y0246625D01*
X0239313Y0246625D01*
X0238259Y0247680D01*
X0238259Y0252320D01*
X0239231Y0253292D01*
X0239231Y0258092D01*
X0238923Y0258400D01*
X0236483Y0258400D01*
X0235527Y0258796D01*
X0233527Y0260796D01*
X0232796Y0261527D01*
X0232400Y0262483D01*
X0232400Y0267230D01*
X0231547Y0267583D01*
X0229916Y0269215D01*
X0229033Y0271346D01*
X0229033Y0273654D01*
X0229916Y0275785D01*
X0231547Y0277417D01*
X0233679Y0278300D01*
X0235986Y0278300D01*
X0238118Y0277417D01*
X0239750Y0275785D01*
X0240633Y0273654D01*
X0240633Y0271346D01*
X0239750Y0269215D01*
X0238118Y0267583D01*
X0237600Y0267368D01*
X0237600Y0264077D01*
X0238077Y0263600D01*
X0240517Y0263600D01*
X0241473Y0263204D01*
X0242204Y0262473D01*
X0244035Y0260642D01*
X0244431Y0259686D01*
X0244431Y0253292D01*
X0245123Y0252600D01*
X0245141Y0252600D01*
X0245141Y0257108D01*
X0246195Y0258162D01*
X0246900Y0258162D01*
X0246900Y0260423D01*
X0246796Y0260527D01*
X0246400Y0261483D01*
X0246400Y0266700D01*
X0243867Y0266700D01*
X0242812Y0267754D01*
X0242812Y0277246D01*
X0243867Y0278300D01*
X0246400Y0278300D01*
X0246400Y0284923D01*
X0245923Y0285400D01*
X0141077Y0285400D01*
X0140976Y0285299D01*
X0140976Y0278300D01*
X0143122Y0278300D01*
X0144176Y0277246D01*
X0144176Y0267754D01*
X0143122Y0266700D01*
X0133630Y0266700D01*
X0132576Y0267754D01*
X0132576Y0269500D01*
X0129632Y0269500D01*
X0129513Y0269215D01*
X0127882Y0267583D01*
X0125750Y0266700D01*
X0123443Y0266700D01*
X0121311Y0267583D01*
X0119679Y0269215D01*
X0118796Y0271346D01*
X0118796Y0273654D01*
X0119679Y0275785D01*
X0121311Y0277417D01*
X0121400Y0277454D01*
X0121400Y0277923D01*
X0120923Y0278400D01*
X0024077Y0278400D01*
X0023977Y0278300D01*
X0032885Y0278300D01*
X0033940Y0277246D01*
X0033940Y0267754D01*
X0032885Y0266700D01*
X0023600Y0266700D01*
X0023600Y0243077D01*
X0023700Y0242977D01*
X0023700Y0249953D01*
X0027700Y0253953D01*
X0029047Y0255300D01*
X0094700Y0255300D01*
X0094700Y0267190D01*
X0093752Y0267583D01*
X0092120Y0269215D01*
X0091237Y0271346D01*
X0091237Y0273654D01*
X0092120Y0275785D01*
X0093752Y0277417D01*
X0095884Y0278300D01*
X0098191Y0278300D01*
X0100323Y0277417D01*
X0101954Y0275785D01*
X0102837Y0273654D01*
X0102837Y0271346D01*
X0101954Y0269215D01*
X0100323Y0267583D01*
X0099300Y0267159D01*
X0099300Y0253300D01*
X0107047Y0253300D01*
X0108700Y0254953D01*
X0108700Y0266700D01*
X0106071Y0266700D01*
X0105017Y0267754D01*
X0105017Y0277246D01*
X0106071Y0278300D01*
X0115563Y0278300D01*
X0116617Y0277246D01*
X0116617Y0267754D01*
X0115563Y0266700D01*
X0113300Y0266700D01*
X0113300Y0253047D01*
X0111953Y0251700D01*
X0108953Y0248700D01*
X0108078Y0248700D01*
X0108663Y0248115D01*
X0109000Y0247301D01*
X0109337Y0248115D01*
X0110884Y0249663D01*
X0112906Y0250500D01*
X0115094Y0250500D01*
X0117115Y0249663D01*
X0118663Y0248115D01*
X0119000Y0247301D01*
X0119337Y0248115D01*
X0120884Y0249663D01*
X0122906Y0250500D01*
X0125094Y0250500D01*
X0127115Y0249663D01*
X0128663Y0248115D01*
X0129500Y0246094D01*
X0129500Y0243906D01*
X0128663Y0241884D01*
X0127115Y0240337D01*
X0125094Y0239500D01*
X0122906Y0239500D01*
X0122644Y0239608D01*
X0123953Y0238300D01*
X0125300Y0236953D01*
X0125300Y0228859D01*
X0126108Y0228859D01*
X0127162Y0227805D01*
X0127162Y0221195D01*
X0126108Y0220141D01*
X0125428Y0220141D01*
X0125755Y0219814D01*
X0125992Y0219403D01*
X0126115Y0218946D01*
X0126115Y0216937D01*
X0122740Y0216937D01*
X0119365Y0216937D01*
X0119365Y0214928D01*
X0119488Y0214471D01*
X0119725Y0214060D01*
X0120060Y0213725D01*
X0120471Y0213488D01*
X0120928Y0213365D01*
X0122740Y0213365D01*
X0122740Y0216937D01*
X0122740Y0216937D01*
X0119365Y0216937D01*
X0119365Y0217613D01*
X0118635Y0216882D01*
X0118635Y0214420D01*
X0117580Y0213365D01*
X0112939Y0213365D01*
X0111885Y0214420D01*
X0111885Y0219454D01*
X0112572Y0220141D01*
X0112401Y0220141D01*
X0111943Y0220264D01*
X0111533Y0220501D01*
X0111197Y0220836D01*
X0110960Y0221246D01*
X0110838Y0221704D01*
X0110838Y0224119D01*
X0114619Y0224119D01*
X0114619Y0224881D01*
X0110838Y0224881D01*
X0110838Y0227296D01*
X0110960Y0227754D01*
X0111197Y0228164D01*
X0111533Y0228499D01*
X0111943Y0228736D01*
X0112401Y0228859D01*
X0114619Y0228859D01*
X0114619Y0224881D01*
X0115381Y0224881D01*
X0115381Y0228859D01*
X0117599Y0228859D01*
X0118057Y0228736D01*
X0118467Y0228499D01*
X0118803Y0228164D01*
X0118947Y0227914D01*
X0119892Y0228859D01*
X0120700Y0228859D01*
X0120700Y0235047D01*
X0120047Y0235700D01*
X0104047Y0235700D01*
X0102700Y0237047D01*
X0102484Y0237263D01*
X0102484Y0233570D01*
X0101430Y0232516D01*
X0096570Y0232516D01*
X0095587Y0233499D01*
X0094954Y0232865D01*
X0089920Y0232865D01*
X0088865Y0233920D01*
X0088865Y0238561D01*
X0089920Y0239615D01*
X0092628Y0239615D01*
X0090884Y0240337D01*
X0089337Y0241884D01*
X0089000Y0242699D01*
X0088663Y0241884D01*
X0087115Y0240337D01*
X0085094Y0239500D01*
X0084753Y0239500D01*
X0086469Y0237783D01*
X0086469Y0235875D01*
X0086687Y0235875D01*
X0087741Y0234820D01*
X0087741Y0230180D01*
X0086687Y0229125D01*
X0086469Y0229125D01*
X0086469Y0225859D01*
X0087108Y0225859D01*
X0088000Y0224967D01*
X0088892Y0225859D01*
X0089446Y0225859D01*
X0089225Y0226080D01*
X0088988Y0226490D01*
X0088865Y0226948D01*
X0088865Y0228760D01*
X0092437Y0228760D01*
X0092437Y0232135D01*
X0090428Y0232135D01*
X0089971Y0232012D01*
X0089560Y0231775D01*
X0089225Y0231440D01*
X0088988Y0231029D01*
X0088865Y0230572D01*
X0088865Y0228760D01*
X0092437Y0228760D01*
X0092437Y0228760D01*
X0092437Y0232135D01*
X0094446Y0232135D01*
X0094903Y0232012D01*
X0095314Y0231775D01*
X0095649Y0231440D01*
X0095886Y0231029D01*
X0096009Y0230572D01*
X0096009Y0228760D01*
X0092437Y0228760D01*
X0092437Y0228760D01*
X0092437Y0228760D01*
X0096009Y0228760D01*
X0096009Y0226948D01*
X0095886Y0226490D01*
X0095649Y0226080D01*
X0095314Y0225745D01*
X0095256Y0225711D01*
X0096162Y0224805D01*
X0096162Y0224100D01*
X0102517Y0224100D01*
X0103473Y0223704D01*
X0105973Y0221204D01*
X0106704Y0220473D01*
X0107100Y0219517D01*
X0107100Y0203300D01*
X0110838Y0203300D01*
X0110838Y0204305D01*
X0111892Y0205359D01*
X0116418Y0205359D01*
X0115625Y0206152D01*
X0115625Y0211187D01*
X0116680Y0212241D01*
X0121320Y0212241D01*
X0122375Y0211187D01*
X0122375Y0206152D01*
X0121738Y0205515D01*
X0121894Y0205359D01*
X0126108Y0205359D01*
X0127080Y0204387D01*
X0127373Y0204681D01*
X0132627Y0204681D01*
X0133681Y0203627D01*
X0133681Y0198373D01*
X0132627Y0197319D01*
X0127373Y0197319D01*
X0127080Y0197613D01*
X0126108Y0196641D01*
X0119892Y0196641D01*
X0119000Y0197533D01*
X0118108Y0196641D01*
X0111892Y0196641D01*
X0110838Y0197695D01*
X0110838Y0198700D01*
X0104877Y0198700D01*
X0104204Y0198027D01*
X0103473Y0197296D01*
X0102517Y0196900D01*
X0096162Y0196900D01*
X0096162Y0196195D01*
X0095108Y0195141D01*
X0094300Y0195141D01*
X0094300Y0194047D01*
X0092953Y0192700D01*
X0091953Y0191700D01*
X0083300Y0191700D01*
X0083300Y0181053D01*
X0084047Y0181800D01*
X0086641Y0181800D01*
X0086641Y0182608D01*
X0087363Y0183330D01*
X0087319Y0183373D01*
X0087319Y0188627D01*
X0088373Y0189681D01*
X0093627Y0189681D01*
X0094681Y0188627D01*
X0094681Y0183373D01*
X0094637Y0183330D01*
X0095359Y0182608D01*
X0095359Y0176392D01*
X0094414Y0175447D01*
X0094664Y0175303D01*
X0094999Y0174967D01*
X0095236Y0174557D01*
X0095359Y0174099D01*
X0095359Y0171881D01*
X0091381Y0171881D01*
X0091381Y0171119D01*
X0095359Y0171119D01*
X0095359Y0168901D01*
X0095236Y0168443D01*
X0094999Y0168033D01*
X0094664Y0167697D01*
X0094254Y0167460D01*
X0093796Y0167338D01*
X0091381Y0167338D01*
X0091381Y0171119D01*
X0090619Y0171119D01*
X0090619Y0167338D01*
X0088204Y0167338D01*
X0087746Y0167460D01*
X0087336Y0167697D01*
X0087001Y0168033D01*
X0086764Y0168443D01*
X0086641Y0168901D01*
X0086641Y0171119D01*
X0090619Y0171119D01*
X0090619Y0171881D01*
X0086641Y0171881D01*
X0086641Y0174099D01*
X0086764Y0174557D01*
X0087001Y0174967D01*
X0087336Y0175303D01*
X0087586Y0175447D01*
X0086641Y0176392D01*
X0086641Y0177200D01*
X0086300Y0177200D01*
X0086300Y0162300D01*
X0095700Y0162300D01*
X0095700Y0179453D01*
X0096700Y0180453D01*
X0098047Y0181800D01*
X0100641Y0181800D01*
X0100641Y0182608D01*
X0101363Y0183330D01*
X0101319Y0183373D01*
X0101319Y0188627D01*
X0102373Y0189681D01*
X0107627Y0189681D01*
X0108681Y0188627D01*
X0108681Y0183373D01*
X0108637Y0183330D01*
X0109359Y0182608D01*
X0109359Y0176392D01*
X0108414Y0175447D01*
X0108664Y0175303D01*
X0108999Y0174967D01*
X0109236Y0174557D01*
X0109359Y0174099D01*
X0109359Y0171881D01*
X0105381Y0171881D01*
X0105381Y0171119D01*
X0109359Y0171119D01*
X0109359Y0168901D01*
X0109236Y0168443D01*
X0108999Y0168033D01*
X0108664Y0167697D01*
X0108254Y0167460D01*
X0107796Y0167338D01*
X0105381Y0167338D01*
X0105381Y0171119D01*
X0104619Y0171119D01*
X0104619Y0167338D01*
X0102204Y0167338D01*
X0101746Y0167460D01*
X0101336Y0167697D01*
X0101001Y0168033D01*
X0100764Y0168443D01*
X0100641Y0168901D01*
X0100641Y0171119D01*
X0104619Y0171119D01*
X0104619Y0171881D01*
X0100641Y0171881D01*
X0100641Y0174099D01*
X0100764Y0174557D01*
X0101001Y0174967D01*
X0101336Y0175303D01*
X0101586Y0175447D01*
X0100641Y0176392D01*
X0100641Y0177200D01*
X0100300Y0177200D01*
X0100300Y0160047D01*
X0098953Y0158700D01*
X0098860Y0158607D01*
X0099162Y0158305D01*
X0099162Y0153681D01*
X0103627Y0153681D01*
X0104681Y0152627D01*
X0104681Y0147373D01*
X0103627Y0146319D01*
X0102358Y0146319D01*
X0105314Y0143363D01*
X0105710Y0142407D01*
X0105710Y0137981D01*
X0108187Y0137981D01*
X0109241Y0136927D01*
X0109241Y0133073D01*
X0108668Y0132500D01*
X0109241Y0131927D01*
X0109241Y0128073D01*
X0108668Y0127500D01*
X0109241Y0126927D01*
X0109241Y0123073D01*
X0108768Y0122600D01*
X0110641Y0122600D01*
X0110641Y0124608D01*
X0111586Y0125553D01*
X0111336Y0125697D01*
X0111001Y0126033D01*
X0110764Y0126443D01*
X0110641Y0126901D01*
X0110641Y0129119D01*
X0114619Y0129119D01*
X0114619Y0129881D01*
X0110641Y0129881D01*
X0110641Y0132099D01*
X0110764Y0132557D01*
X0111001Y0132967D01*
X0111336Y0133303D01*
X0111746Y0133540D01*
X0112204Y0133662D01*
X0114619Y0133662D01*
X0114619Y0129881D01*
X0115381Y0129881D01*
X0115381Y0133662D01*
X0117796Y0133662D01*
X0118254Y0133540D01*
X0118664Y0133303D01*
X0118700Y0133267D01*
X0118700Y0136047D01*
X0118047Y0136700D01*
X0115047Y0136700D01*
X0114428Y0137319D01*
X0111373Y0137319D01*
X0110319Y0138373D01*
X0110319Y0143627D01*
X0111373Y0144681D01*
X0116627Y0144681D01*
X0117681Y0143627D01*
X0117681Y0141300D01*
X0119953Y0141300D01*
X0121300Y0139953D01*
X0123300Y0137953D01*
X0123300Y0111047D01*
X0121953Y0109700D01*
X0119953Y0107700D01*
X0119359Y0107700D01*
X0119359Y0106892D01*
X0118414Y0105947D01*
X0118664Y0105803D01*
X0118999Y0105467D01*
X0119236Y0105057D01*
X0119359Y0104599D01*
X0119359Y0102381D01*
X0115381Y0102381D01*
X0115381Y0101619D01*
X0119359Y0101619D01*
X0119359Y0099401D01*
X0119236Y0098943D01*
X0118999Y0098533D01*
X0118664Y0098197D01*
X0118254Y0097960D01*
X0117796Y0097838D01*
X0115381Y0097838D01*
X0115381Y0101619D01*
X0114619Y0101619D01*
X0114619Y0097838D01*
X0112204Y0097838D01*
X0111746Y0097960D01*
X0111336Y0098197D01*
X0111001Y0098533D01*
X0110764Y0098943D01*
X0110641Y0099401D01*
X0110641Y0101619D01*
X0114619Y0101619D01*
X0114619Y0102381D01*
X0110641Y0102381D01*
X0110641Y0104599D01*
X0110764Y0105057D01*
X0111001Y0105467D01*
X0111336Y0105803D01*
X0111586Y0105947D01*
X0110641Y0106892D01*
X0110641Y0107400D01*
X0108768Y0107400D01*
X0108881Y0107286D01*
X0109118Y0106876D01*
X0109241Y0106418D01*
X0109241Y0105000D01*
X0103110Y0105000D01*
X0103110Y0105000D01*
X0096980Y0105000D01*
X0096980Y0103582D01*
X0097102Y0103124D01*
X0097339Y0102714D01*
X0097553Y0102500D01*
X0096980Y0101927D01*
X0096980Y0098073D01*
X0098034Y0097019D01*
X0108187Y0097019D01*
X0109241Y0098073D01*
X0109241Y0101927D01*
X0108668Y0102500D01*
X0108881Y0102714D01*
X0109118Y0103124D01*
X0109241Y0103582D01*
X0109241Y0105000D01*
X0103110Y0105000D01*
X0096980Y0105000D01*
X0096980Y0106418D01*
X0097102Y0106876D01*
X0097339Y0107286D01*
X0097553Y0107500D01*
X0096980Y0108073D01*
X0096980Y0111927D01*
X0097553Y0112500D01*
X0096980Y0113073D01*
X0096980Y0116927D01*
X0097553Y0117500D01*
X0096980Y0118073D01*
X0096980Y0121927D01*
X0097553Y0122500D01*
X0096980Y0123073D01*
X0096980Y0126927D01*
X0097553Y0127500D01*
X0096980Y0128073D01*
X0096980Y0131927D01*
X0097553Y0132500D01*
X0096980Y0133073D01*
X0096980Y0136927D01*
X0098034Y0137981D01*
X0100510Y0137981D01*
X0100510Y0140813D01*
X0099162Y0142161D01*
X0099162Y0141695D01*
X0098108Y0140641D01*
X0091892Y0140641D01*
X0090947Y0141586D01*
X0090803Y0141336D01*
X0090467Y0141001D01*
X0090057Y0140764D01*
X0089599Y0140641D01*
X0087381Y0140641D01*
X0087381Y0144619D01*
X0086619Y0144619D01*
X0086619Y0140641D01*
X0084401Y0140641D01*
X0083943Y0140764D01*
X0083533Y0141001D01*
X0083197Y0141336D01*
X0082960Y0141746D01*
X0082838Y0142204D01*
X0082838Y0144619D01*
X0086619Y0144619D01*
X0086619Y0145381D01*
X0082838Y0145381D01*
X0082838Y0146585D01*
X0082673Y0146420D01*
X0081934Y0146420D01*
X0081934Y0146161D01*
X0079150Y0146161D01*
X0079150Y0146161D01*
X0079150Y0143672D01*
X0080371Y0143672D01*
X0080829Y0143795D01*
X0081239Y0144032D01*
X0081574Y0144367D01*
X0081811Y0144778D01*
X0081934Y0145235D01*
X0081934Y0146161D01*
X0079150Y0146161D01*
X0079150Y0146161D01*
X0079150Y0143672D01*
X0077928Y0143672D01*
X0077471Y0143795D01*
X0077060Y0144032D01*
X0076725Y0144367D01*
X0076488Y0144778D01*
X0076365Y0145235D01*
X0076365Y0146161D01*
X0079149Y0146161D01*
X0079149Y0146161D01*
X0076365Y0146161D01*
X0076365Y0147087D01*
X0076407Y0147244D01*
X0076365Y0147286D01*
X0076365Y0149613D01*
X0075953Y0149200D01*
X0075635Y0149200D01*
X0075635Y0148721D01*
X0073466Y0148721D01*
X0073467Y0148720D01*
X0075635Y0148720D01*
X0075635Y0147795D01*
X0075593Y0147638D01*
X0075635Y0147596D01*
X0075635Y0144727D01*
X0074580Y0143672D01*
X0073636Y0143672D01*
X0073368Y0143561D01*
X0069600Y0143561D01*
X0069600Y0137981D01*
X0071966Y0137981D01*
X0073020Y0136927D01*
X0073020Y0133073D01*
X0072447Y0132500D01*
X0073020Y0131927D01*
X0073020Y0128073D01*
X0072447Y0127500D01*
X0073020Y0126927D01*
X0073020Y0123073D01*
X0072447Y0122500D01*
X0073020Y0121927D01*
X0073020Y0118073D01*
X0072447Y0117500D01*
X0073020Y0116927D01*
X0073020Y0113073D01*
X0072447Y0112500D01*
X0073020Y0111927D01*
X0073020Y0108073D01*
X0072447Y0107500D01*
X0073020Y0106927D01*
X0073020Y0103073D01*
X0072447Y0102500D01*
X0073020Y0101927D01*
X0073020Y0098073D01*
X0071966Y0097019D01*
X0061813Y0097019D01*
X0061570Y0097262D01*
X0060627Y0096319D01*
X0055373Y0096319D01*
X0054600Y0097092D01*
X0054600Y0078483D01*
X0054204Y0077527D01*
X0053473Y0076796D01*
X0051473Y0074796D01*
X0050517Y0074400D01*
X0039050Y0074400D01*
X0039050Y0070004D01*
X0037996Y0068950D01*
X0024528Y0068950D01*
X0023996Y0066274D01*
X0021885Y0063115D01*
X0018726Y0061004D01*
X0016544Y0060570D01*
X0018250Y0059864D01*
X0018250Y0059864D01*
X0019864Y0058250D01*
X0019864Y0058250D01*
X0020737Y0056141D01*
X0020737Y0053859D01*
X0019864Y0051750D01*
X0019864Y0051750D01*
X0018250Y0050136D01*
X0018250Y0050136D01*
X0016141Y0049263D01*
X0013859Y0049263D01*
X0011750Y0050136D01*
X0011750Y0050136D01*
X0010136Y0051750D01*
X0010136Y0051750D01*
X0009263Y0053859D01*
X0009263Y0056141D01*
X0010136Y0058250D01*
X0010136Y0058250D01*
X0011750Y0059864D01*
X0011750Y0059864D01*
X0013456Y0060570D01*
X0011274Y0061004D01*
X0008115Y0063115D01*
X0008000Y0063287D01*
X0008000Y0062546D02*
X0008966Y0062546D01*
X0008000Y0060948D02*
X0011557Y0060948D01*
X0011236Y0059349D02*
X0008000Y0059349D01*
X0008000Y0057751D02*
X0009930Y0057751D01*
X0009268Y0056152D02*
X0008000Y0056152D01*
X0008000Y0054554D02*
X0009263Y0054554D01*
X0009637Y0052955D02*
X0008000Y0052955D01*
X0008000Y0051357D02*
X0010530Y0051357D01*
X0012663Y0049758D02*
X0008000Y0049758D01*
X0008000Y0048160D02*
X0053700Y0048160D01*
X0053700Y0049758D02*
X0017337Y0049758D01*
X0019470Y0051357D02*
X0053700Y0051357D01*
X0053700Y0052955D02*
X0020363Y0052955D01*
X0020737Y0054554D02*
X0053700Y0054554D01*
X0053700Y0056152D02*
X0020732Y0056152D01*
X0020070Y0057751D02*
X0053700Y0057751D01*
X0053700Y0059349D02*
X0018764Y0059349D01*
X0018443Y0060948D02*
X0053700Y0060948D01*
X0053700Y0062546D02*
X0021034Y0062546D01*
X0022573Y0064145D02*
X0053892Y0064145D01*
X0053700Y0063953D02*
X0053700Y0032962D01*
X0052384Y0032417D01*
X0050752Y0030785D01*
X0049869Y0028654D01*
X0049869Y0026346D01*
X0050752Y0024215D01*
X0052384Y0022583D01*
X0054516Y0021700D01*
X0056823Y0021700D01*
X0058955Y0022583D01*
X0060586Y0024215D01*
X0061469Y0026346D01*
X0061469Y0028654D01*
X0060586Y0030785D01*
X0058955Y0032417D01*
X0058300Y0032688D01*
X0058300Y0062047D01*
X0058953Y0062700D01*
X0090953Y0062700D01*
X0092300Y0064047D01*
X0094300Y0066047D01*
X0094300Y0088319D01*
X0094627Y0088319D01*
X0095681Y0089373D01*
X0095681Y0094627D01*
X0094627Y0095681D01*
X0089373Y0095681D01*
X0088319Y0094627D01*
X0088319Y0089373D01*
X0089373Y0088319D01*
X0089700Y0088319D01*
X0089700Y0067953D01*
X0089047Y0067300D01*
X0057047Y0067300D01*
X0055047Y0065300D01*
X0053700Y0063953D01*
X0055491Y0065743D02*
X0023641Y0065743D01*
X0024208Y0067342D02*
X0089089Y0067342D01*
X0089700Y0068940D02*
X0024526Y0068940D01*
X0022950Y0075291D02*
X0021885Y0076885D01*
X0018726Y0078996D01*
X0015000Y0079737D01*
X0011274Y0078996D01*
X0008115Y0076885D01*
X0008000Y0076713D01*
X0008000Y0139287D01*
X0008115Y0139115D01*
X0011274Y0137004D01*
X0015000Y0136263D01*
X0018726Y0137004D01*
X0021885Y0139115D01*
X0022950Y0140709D01*
X0022950Y0132004D01*
X0024004Y0130950D01*
X0037996Y0130950D01*
X0039050Y0132004D01*
X0039050Y0145996D01*
X0037996Y0147050D01*
X0024528Y0147050D01*
X0023996Y0149726D01*
X0021885Y0152885D01*
X0018726Y0154996D01*
X0015000Y0155737D01*
X0011274Y0154996D01*
X0008115Y0152885D01*
X0008000Y0152713D01*
X0008000Y0158722D01*
X0009384Y0157337D01*
X0011406Y0156500D01*
X0013594Y0156500D01*
X0015615Y0157337D01*
X0017163Y0158884D01*
X0017500Y0159699D01*
X0017837Y0158884D01*
X0019384Y0157337D01*
X0021406Y0156500D01*
X0023594Y0156500D01*
X0025615Y0157337D01*
X0027163Y0158884D01*
X0027500Y0159699D01*
X0027837Y0158884D01*
X0029384Y0157337D01*
X0031406Y0156500D01*
X0033594Y0156500D01*
X0035615Y0157337D01*
X0037163Y0158884D01*
X0038000Y0160906D01*
X0038000Y0163094D01*
X0037163Y0165115D01*
X0035615Y0166663D01*
X0033594Y0167500D01*
X0032600Y0167500D01*
X0032600Y0168504D01*
X0033054Y0168050D01*
X0035273Y0168050D01*
X0040796Y0162527D01*
X0041527Y0161796D01*
X0042483Y0161400D01*
X0064319Y0161400D01*
X0064319Y0158181D01*
X0060873Y0158181D01*
X0059819Y0157127D01*
X0059819Y0151873D01*
X0060873Y0150819D01*
X0061428Y0150819D01*
X0062547Y0149700D01*
X0063268Y0148980D01*
X0070066Y0148980D01*
X0070066Y0148761D01*
X0067644Y0148761D01*
X0066689Y0148366D01*
X0065527Y0147204D01*
X0064796Y0146473D01*
X0064400Y0145517D01*
X0064400Y0137981D01*
X0061813Y0137981D01*
X0061432Y0137600D01*
X0057681Y0137600D01*
X0057681Y0137627D01*
X0056627Y0138681D01*
X0051373Y0138681D01*
X0050319Y0137627D01*
X0050319Y0132373D01*
X0051373Y0131319D01*
X0051400Y0131319D01*
X0051400Y0131077D01*
X0050923Y0130600D01*
X0032483Y0130600D01*
X0031527Y0130204D01*
X0030796Y0129473D01*
X0028796Y0127473D01*
X0028400Y0126517D01*
X0028400Y0125470D01*
X0024227Y0124352D01*
X0020225Y0122042D01*
X0016958Y0118775D01*
X0014648Y0114773D01*
X0013452Y0110310D01*
X0013452Y0105690D01*
X0014648Y0101227D01*
X0016958Y0097225D01*
X0020225Y0093958D01*
X0024227Y0091648D01*
X0028690Y0090452D01*
X0033310Y0090452D01*
X0037773Y0091648D01*
X0041775Y0093958D01*
X0045042Y0097225D01*
X0047352Y0101227D01*
X0048548Y0105690D01*
X0048548Y0110310D01*
X0047352Y0114773D01*
X0045042Y0118775D01*
X0041775Y0122042D01*
X0037773Y0124352D01*
X0034032Y0125355D01*
X0034077Y0125400D01*
X0052517Y0125400D01*
X0053473Y0125796D01*
X0055473Y0127796D01*
X0056204Y0128527D01*
X0056600Y0129483D01*
X0056600Y0131319D01*
X0056627Y0131319D01*
X0057681Y0132373D01*
X0057681Y0132400D01*
X0061232Y0132400D01*
X0060759Y0131927D01*
X0060759Y0128073D01*
X0061332Y0127500D01*
X0060759Y0126927D01*
X0060759Y0123073D01*
X0061332Y0122500D01*
X0060759Y0121927D01*
X0060759Y0118073D01*
X0061332Y0117500D01*
X0060759Y0116927D01*
X0060759Y0113073D01*
X0061232Y0112600D01*
X0053483Y0112600D01*
X0052527Y0112204D01*
X0051796Y0111473D01*
X0049796Y0109473D01*
X0049400Y0108517D01*
X0049400Y0080077D01*
X0048923Y0079600D01*
X0039050Y0079600D01*
X0039050Y0083996D01*
X0037996Y0085050D01*
X0024004Y0085050D01*
X0022950Y0083996D01*
X0022950Y0075291D01*
X0022950Y0075334D02*
X0022921Y0075334D01*
X0022950Y0076933D02*
X0021813Y0076933D01*
X0022950Y0078532D02*
X0019421Y0078532D01*
X0022950Y0080130D02*
X0008000Y0080130D01*
X0008000Y0078532D02*
X0010579Y0078532D01*
X0008187Y0076933D02*
X0008000Y0076933D01*
X0008000Y0081729D02*
X0022950Y0081729D01*
X0022950Y0083327D02*
X0008000Y0083327D01*
X0008000Y0084926D02*
X0023880Y0084926D01*
X0025452Y0091320D02*
X0008000Y0091320D01*
X0008000Y0092918D02*
X0022027Y0092918D01*
X0019667Y0094517D02*
X0008000Y0094517D01*
X0008000Y0096115D02*
X0018068Y0096115D01*
X0016676Y0097714D02*
X0008000Y0097714D01*
X0008000Y0099312D02*
X0015753Y0099312D01*
X0014830Y0100911D02*
X0008000Y0100911D01*
X0008000Y0102509D02*
X0014304Y0102509D01*
X0013876Y0104108D02*
X0008000Y0104108D01*
X0008000Y0105706D02*
X0013452Y0105706D01*
X0013452Y0107305D02*
X0008000Y0107305D01*
X0008000Y0108903D02*
X0013452Y0108903D01*
X0013503Y0110502D02*
X0008000Y0110502D01*
X0008000Y0112100D02*
X0013932Y0112100D01*
X0014360Y0113699D02*
X0008000Y0113699D01*
X0008000Y0115297D02*
X0014950Y0115297D01*
X0015873Y0116896D02*
X0008000Y0116896D01*
X0008000Y0118494D02*
X0016796Y0118494D01*
X0018276Y0120093D02*
X0008000Y0120093D01*
X0008000Y0121691D02*
X0019875Y0121691D01*
X0022387Y0123290D02*
X0008000Y0123290D01*
X0008000Y0124888D02*
X0026228Y0124888D01*
X0028400Y0126487D02*
X0008000Y0126487D01*
X0008000Y0128085D02*
X0029408Y0128085D01*
X0031007Y0129684D02*
X0008000Y0129684D01*
X0008000Y0131282D02*
X0023672Y0131282D01*
X0022950Y0132881D02*
X0008000Y0132881D01*
X0008000Y0134479D02*
X0022950Y0134479D01*
X0022950Y0136078D02*
X0008000Y0136078D01*
X0008000Y0137676D02*
X0010268Y0137676D01*
X0008008Y0139275D02*
X0008000Y0139275D01*
X0019732Y0137676D02*
X0022950Y0137676D01*
X0022950Y0139275D02*
X0021992Y0139275D01*
X0024485Y0147268D02*
X0065591Y0147268D01*
X0065527Y0147204D02*
X0065527Y0147204D01*
X0064463Y0145669D02*
X0039050Y0145669D01*
X0039050Y0144070D02*
X0064400Y0144070D01*
X0064400Y0142472D02*
X0039050Y0142472D01*
X0039050Y0140873D02*
X0064400Y0140873D01*
X0064400Y0139275D02*
X0039050Y0139275D01*
X0039050Y0137676D02*
X0050369Y0137676D01*
X0050319Y0136078D02*
X0039050Y0136078D01*
X0039050Y0134479D02*
X0050319Y0134479D01*
X0050319Y0132881D02*
X0039050Y0132881D01*
X0038328Y0131282D02*
X0051400Y0131282D01*
X0054000Y0130000D02*
X0054000Y0135000D01*
X0066890Y0135000D01*
X0067000Y0135110D01*
X0067000Y0145000D01*
X0068161Y0146161D01*
X0072850Y0146161D01*
X0075635Y0145669D02*
X0076365Y0145669D01*
X0076384Y0147268D02*
X0075635Y0147268D01*
X0075635Y0148866D02*
X0076365Y0148866D01*
X0079150Y0151280D02*
X0079150Y0153768D01*
X0079150Y0153838D01*
X0079150Y0151280D01*
X0079150Y0151280D01*
X0079150Y0152063D02*
X0079150Y0152063D01*
X0079150Y0153662D02*
X0079150Y0153662D01*
X0079150Y0153838D02*
X0079150Y0153838D01*
X0079150Y0153839D02*
X0079150Y0153839D01*
X0079150Y0153839D01*
X0079150Y0156328D01*
X0080371Y0156328D01*
X0080829Y0156205D01*
X0081239Y0155968D01*
X0081574Y0155633D01*
X0081811Y0155222D01*
X0081934Y0154765D01*
X0081934Y0153839D01*
X0079150Y0153839D01*
X0079150Y0156328D01*
X0077928Y0156328D01*
X0077800Y0156293D01*
X0077800Y0157700D01*
X0082838Y0157700D01*
X0082838Y0155381D01*
X0086619Y0155381D01*
X0086619Y0154619D01*
X0082838Y0154619D01*
X0082838Y0152300D01*
X0082047Y0152300D01*
X0081934Y0152187D01*
X0081934Y0152205D01*
X0081839Y0152559D01*
X0081934Y0152913D01*
X0081934Y0153839D01*
X0079150Y0153839D01*
X0079150Y0155260D02*
X0079150Y0155260D01*
X0077800Y0156859D02*
X0082838Y0156859D01*
X0081789Y0155260D02*
X0086619Y0155260D01*
X0082838Y0153662D02*
X0081934Y0153662D01*
X0081934Y0145669D02*
X0082838Y0145669D01*
X0082838Y0144070D02*
X0081277Y0144070D01*
X0079150Y0144070D02*
X0079150Y0144070D01*
X0079150Y0145669D02*
X0079150Y0145669D01*
X0077022Y0144070D02*
X0074978Y0144070D01*
X0069600Y0142472D02*
X0082838Y0142472D01*
X0083753Y0140873D02*
X0069600Y0140873D01*
X0069600Y0139275D02*
X0100510Y0139275D01*
X0100450Y0140873D02*
X0098340Y0140873D01*
X0097729Y0137676D02*
X0072271Y0137676D01*
X0073020Y0136078D02*
X0096980Y0136078D01*
X0096980Y0134479D02*
X0073020Y0134479D01*
X0072828Y0132881D02*
X0097172Y0132881D01*
X0096980Y0131282D02*
X0073020Y0131282D01*
X0073020Y0129684D02*
X0096980Y0129684D01*
X0096980Y0128085D02*
X0073020Y0128085D01*
X0073020Y0126487D02*
X0096980Y0126487D01*
X0096980Y0124888D02*
X0073020Y0124888D01*
X0073020Y0123290D02*
X0096980Y0123290D01*
X0096980Y0121691D02*
X0073020Y0121691D01*
X0073020Y0120093D02*
X0096980Y0120093D01*
X0096980Y0118494D02*
X0073020Y0118494D01*
X0073020Y0116896D02*
X0096980Y0116896D01*
X0096980Y0115297D02*
X0073020Y0115297D01*
X0073020Y0113699D02*
X0096980Y0113699D01*
X0097153Y0112100D02*
X0072847Y0112100D01*
X0073020Y0110502D02*
X0096980Y0110502D01*
X0096980Y0108903D02*
X0073020Y0108903D01*
X0072642Y0107305D02*
X0097358Y0107305D01*
X0096980Y0105706D02*
X0073020Y0105706D01*
X0073020Y0104108D02*
X0096980Y0104108D01*
X0097544Y0102509D02*
X0072456Y0102509D01*
X0073020Y0100911D02*
X0096980Y0100911D01*
X0096980Y0099312D02*
X0073020Y0099312D01*
X0072661Y0097714D02*
X0097339Y0097714D01*
X0095681Y0094517D02*
X0150838Y0094517D01*
X0150838Y0096115D02*
X0054600Y0096115D01*
X0054600Y0094517D02*
X0088319Y0094517D01*
X0088319Y0092918D02*
X0054600Y0092918D01*
X0054600Y0091320D02*
X0088319Y0091320D01*
X0088319Y0089721D02*
X0054600Y0089721D01*
X0054600Y0088123D02*
X0089700Y0088123D01*
X0089700Y0086524D02*
X0054600Y0086524D01*
X0054600Y0084926D02*
X0089700Y0084926D01*
X0089700Y0083327D02*
X0054600Y0083327D01*
X0054600Y0081729D02*
X0089700Y0081729D01*
X0089700Y0080130D02*
X0054600Y0080130D01*
X0054600Y0078532D02*
X0089700Y0078532D01*
X0089700Y0076933D02*
X0053610Y0076933D01*
X0052011Y0075334D02*
X0089700Y0075334D01*
X0089700Y0073736D02*
X0039050Y0073736D01*
X0039050Y0072137D02*
X0089700Y0072137D01*
X0089700Y0070539D02*
X0039050Y0070539D01*
X0031000Y0077000D02*
X0050000Y0077000D01*
X0052000Y0079000D01*
X0052000Y0108000D01*
X0054000Y0110000D01*
X0066890Y0110000D01*
X0066890Y0115000D02*
X0066890Y0120000D01*
X0066890Y0125000D01*
X0066890Y0130000D01*
X0066890Y0135000D01*
X0061509Y0137676D02*
X0057631Y0137676D01*
X0056600Y0131282D02*
X0060759Y0131282D01*
X0060759Y0129684D02*
X0056600Y0129684D01*
X0055762Y0128085D02*
X0060759Y0128085D01*
X0060759Y0126487D02*
X0054164Y0126487D01*
X0052000Y0128000D02*
X0054000Y0130000D01*
X0052000Y0128000D02*
X0033000Y0128000D01*
X0031000Y0126000D01*
X0031000Y0108000D01*
X0046247Y0099312D02*
X0049400Y0099312D01*
X0049400Y0097714D02*
X0045324Y0097714D01*
X0043932Y0096115D02*
X0049400Y0096115D01*
X0049400Y0094517D02*
X0042333Y0094517D01*
X0039973Y0092918D02*
X0049400Y0092918D01*
X0049400Y0091320D02*
X0036548Y0091320D01*
X0038120Y0084926D02*
X0049400Y0084926D01*
X0049400Y0086524D02*
X0008000Y0086524D01*
X0008000Y0088123D02*
X0049400Y0088123D01*
X0049400Y0089721D02*
X0008000Y0089721D01*
X0039050Y0083327D02*
X0049400Y0083327D01*
X0049400Y0081729D02*
X0039050Y0081729D01*
X0039050Y0080130D02*
X0049400Y0080130D01*
X0058799Y0062546D02*
X0114777Y0062546D01*
X0113859Y0063464D02*
X0115796Y0061527D01*
X0116527Y0060796D01*
X0117483Y0060400D01*
X0118665Y0060400D01*
X0116884Y0059663D01*
X0115337Y0058115D01*
X0115000Y0057301D01*
X0114663Y0058115D01*
X0113115Y0059663D01*
X0111094Y0060500D01*
X0108906Y0060500D01*
X0106884Y0059663D01*
X0105337Y0058115D01*
X0105000Y0057301D01*
X0104704Y0057883D01*
X0104195Y0058583D01*
X0103583Y0059195D01*
X0102883Y0059704D01*
X0102111Y0060097D01*
X0101288Y0060365D01*
X0100433Y0060500D01*
X0100200Y0060500D01*
X0100200Y0055200D01*
X0099800Y0055200D01*
X0099800Y0060500D01*
X0099567Y0060500D01*
X0098712Y0060365D01*
X0097889Y0060097D01*
X0097117Y0059704D01*
X0096417Y0059195D01*
X0095805Y0058583D01*
X0095296Y0057883D01*
X0095000Y0057301D01*
X0094663Y0058115D01*
X0093115Y0059663D01*
X0091094Y0060500D01*
X0088906Y0060500D01*
X0086884Y0059663D01*
X0085337Y0058115D01*
X0085000Y0057301D01*
X0084663Y0058115D01*
X0083115Y0059663D01*
X0081094Y0060500D01*
X0078906Y0060500D01*
X0076884Y0059663D01*
X0075337Y0058115D01*
X0075000Y0057301D01*
X0074663Y0058115D01*
X0073115Y0059663D01*
X0071094Y0060500D01*
X0068906Y0060500D01*
X0066884Y0059663D01*
X0065337Y0058115D01*
X0064500Y0056094D01*
X0064500Y0053906D01*
X0065337Y0051884D01*
X0066884Y0050337D01*
X0068906Y0049500D01*
X0071094Y0049500D01*
X0073115Y0050337D01*
X0074663Y0051884D01*
X0075000Y0052699D01*
X0075337Y0051884D01*
X0076884Y0050337D01*
X0078906Y0049500D01*
X0081094Y0049500D01*
X0083115Y0050337D01*
X0084663Y0051884D01*
X0085000Y0052699D01*
X0085337Y0051884D01*
X0086884Y0050337D01*
X0088906Y0049500D01*
X0091094Y0049500D01*
X0093115Y0050337D01*
X0094663Y0051884D01*
X0095000Y0052699D01*
X0095296Y0052117D01*
X0095805Y0051417D01*
X0096417Y0050805D01*
X0097117Y0050296D01*
X0097889Y0049903D01*
X0098712Y0049635D01*
X0099567Y0049500D01*
X0099800Y0049500D01*
X0099800Y0054800D01*
X0100200Y0054800D01*
X0100200Y0049500D01*
X0100433Y0049500D01*
X0101288Y0049635D01*
X0102111Y0049903D01*
X0102883Y0050296D01*
X0103583Y0050805D01*
X0104195Y0051417D01*
X0104704Y0052117D01*
X0105000Y0052699D01*
X0105337Y0051884D01*
X0106884Y0050337D01*
X0108906Y0049500D01*
X0111094Y0049500D01*
X0113115Y0050337D01*
X0114663Y0051884D01*
X0115000Y0052699D01*
X0115337Y0051884D01*
X0116884Y0050337D01*
X0118906Y0049500D01*
X0121094Y0049500D01*
X0123115Y0050337D01*
X0124663Y0051884D01*
X0125000Y0052699D01*
X0125337Y0051884D01*
X0126884Y0050337D01*
X0128906Y0049500D01*
X0131094Y0049500D01*
X0133115Y0050337D01*
X0134663Y0051884D01*
X0135000Y0052699D01*
X0135337Y0051884D01*
X0136884Y0050337D01*
X0137000Y0050289D01*
X0137000Y0042403D01*
X0137457Y0041301D01*
X0138301Y0040457D01*
X0140301Y0038457D01*
X0141403Y0038000D01*
X0176685Y0038000D01*
X0176685Y0033300D01*
X0174939Y0033300D01*
X0173885Y0032246D01*
X0173885Y0022754D01*
X0174939Y0021700D01*
X0176685Y0021700D01*
X0176685Y0015718D01*
X0177142Y0014616D01*
X0178457Y0013301D01*
X0179301Y0012457D01*
X0180403Y0012000D01*
X0256597Y0012000D01*
X0257699Y0012457D01*
X0259641Y0014398D01*
X0259641Y0012892D01*
X0260695Y0011838D01*
X0261910Y0011838D01*
X0262700Y0011047D01*
X0264047Y0009700D01*
X0280319Y0009700D01*
X0280319Y0009373D01*
X0281373Y0008319D01*
X0286627Y0008319D01*
X0287681Y0009373D01*
X0287681Y0013400D01*
X0303517Y0013400D01*
X0304473Y0013796D01*
X0306473Y0015796D01*
X0307204Y0016527D01*
X0307600Y0017483D01*
X0307600Y0022354D01*
X0311041Y0022354D01*
X0312095Y0023408D01*
X0312095Y0031592D01*
X0311041Y0032646D01*
X0308000Y0032646D01*
X0308000Y0039757D01*
X0308243Y0040000D01*
X0321597Y0040000D01*
X0322699Y0040457D01*
X0323543Y0041301D01*
X0326043Y0043801D01*
X0326500Y0044903D01*
X0326500Y0052310D01*
X0328246Y0052310D01*
X0329300Y0053365D01*
X0329300Y0062856D01*
X0328246Y0063910D01*
X0318754Y0063910D01*
X0317700Y0062856D01*
X0317700Y0053365D01*
X0318754Y0052310D01*
X0320500Y0052310D01*
X0320500Y0046743D01*
X0319757Y0046000D01*
X0306403Y0046000D01*
X0305301Y0045543D01*
X0303301Y0043543D01*
X0302457Y0042699D01*
X0302000Y0041597D01*
X0302000Y0032646D01*
X0299707Y0032646D01*
X0298653Y0031592D01*
X0298653Y0023408D01*
X0299707Y0022354D01*
X0302400Y0022354D01*
X0302400Y0019077D01*
X0301923Y0018600D01*
X0281359Y0018600D01*
X0281359Y0019108D01*
X0280467Y0020000D01*
X0281359Y0020892D01*
X0281359Y0027108D01*
X0280305Y0028162D01*
X0273695Y0028162D01*
X0273170Y0027637D01*
X0273127Y0027681D01*
X0267873Y0027681D01*
X0267830Y0027637D01*
X0267305Y0028162D01*
X0261000Y0028162D01*
X0261000Y0036858D01*
X0262139Y0035719D01*
X0263995Y0034950D01*
X0266005Y0034950D01*
X0267861Y0035719D01*
X0269281Y0037139D01*
X0269950Y0038754D01*
X0269950Y0036004D01*
X0271004Y0034950D01*
X0278996Y0034950D01*
X0280050Y0036004D01*
X0280050Y0043996D01*
X0278996Y0045050D01*
X0278000Y0045050D01*
X0278000Y0059597D01*
X0277543Y0060699D01*
X0276699Y0061543D01*
X0275500Y0062743D01*
X0275500Y0070424D01*
X0275608Y0070424D01*
X0276183Y0071000D01*
X0284757Y0071000D01*
X0288301Y0067457D01*
X0289403Y0067000D01*
X0292789Y0067000D01*
X0292837Y0066884D01*
X0294384Y0065337D01*
X0295199Y0065000D01*
X0294384Y0064663D01*
X0292837Y0063115D01*
X0292789Y0063000D01*
X0289403Y0063000D01*
X0288301Y0062543D01*
X0287457Y0061699D01*
X0284457Y0058699D01*
X0284000Y0057597D01*
X0284000Y0035403D01*
X0284457Y0034301D01*
X0285301Y0033457D01*
X0286111Y0032646D01*
X0283959Y0032646D01*
X0282905Y0031592D01*
X0282905Y0023408D01*
X0283959Y0022354D01*
X0295293Y0022354D01*
X0296347Y0023408D01*
X0296347Y0031592D01*
X0295293Y0032646D01*
X0292626Y0032646D01*
X0292626Y0033971D01*
X0292169Y0035073D01*
X0290000Y0037243D01*
X0290000Y0055757D01*
X0291243Y0057000D01*
X0292789Y0057000D01*
X0292837Y0056884D01*
X0294384Y0055337D01*
X0295199Y0055000D01*
X0294384Y0054663D01*
X0292837Y0053115D01*
X0292000Y0051094D01*
X0292000Y0048906D01*
X0292837Y0046884D01*
X0294384Y0045337D01*
X0296406Y0044500D01*
X0298594Y0044500D01*
X0300615Y0045337D01*
X0302163Y0046884D01*
X0303000Y0048906D01*
X0303000Y0051094D01*
X0302163Y0053115D01*
X0300615Y0054663D01*
X0299801Y0055000D01*
X0300615Y0055337D01*
X0302163Y0056884D01*
X0303000Y0058906D01*
X0303000Y0061094D01*
X0302163Y0063115D01*
X0300615Y0064663D01*
X0299801Y0065000D01*
X0300615Y0065337D01*
X0302163Y0066884D01*
X0303000Y0068906D01*
X0303000Y0071094D01*
X0302163Y0073115D01*
X0300615Y0074663D01*
X0298594Y0075500D01*
X0296406Y0075500D01*
X0294384Y0074663D01*
X0292837Y0073115D01*
X0292789Y0073000D01*
X0291243Y0073000D01*
X0288543Y0075699D01*
X0287699Y0076543D01*
X0286597Y0077000D01*
X0276662Y0077000D01*
X0276662Y0077694D01*
X0275608Y0078749D01*
X0269392Y0078749D01*
X0268338Y0077694D01*
X0268338Y0071479D01*
X0269392Y0070424D01*
X0269500Y0070424D01*
X0269500Y0060903D01*
X0269957Y0059801D01*
X0272000Y0057757D01*
X0272000Y0045050D01*
X0271004Y0045050D01*
X0269950Y0043996D01*
X0269950Y0041246D01*
X0269281Y0042861D01*
X0267861Y0044281D01*
X0266005Y0045050D01*
X0263995Y0045050D01*
X0262139Y0044281D01*
X0261000Y0043142D01*
X0261000Y0053597D01*
X0260543Y0054699D01*
X0256000Y0059243D01*
X0256000Y0070817D01*
X0256662Y0071479D01*
X0256662Y0077694D01*
X0255608Y0078749D01*
X0249392Y0078749D01*
X0248338Y0077694D01*
X0248338Y0071479D01*
X0249392Y0070424D01*
X0250000Y0070424D01*
X0250000Y0057403D01*
X0250457Y0056301D01*
X0251301Y0055457D01*
X0255000Y0051757D01*
X0255000Y0018243D01*
X0254757Y0018000D01*
X0182685Y0018000D01*
X0182685Y0021700D01*
X0184431Y0021700D01*
X0185485Y0022754D01*
X0185485Y0032246D01*
X0184431Y0033300D01*
X0182685Y0033300D01*
X0182685Y0039912D01*
X0182228Y0041014D01*
X0180543Y0042700D01*
X0191047Y0042700D01*
X0191200Y0042547D01*
X0191200Y0032840D01*
X0190179Y0032417D01*
X0188548Y0030785D01*
X0187665Y0028654D01*
X0187665Y0026346D01*
X0188548Y0024215D01*
X0190179Y0022583D01*
X0192311Y0021700D01*
X0194618Y0021700D01*
X0196750Y0022583D01*
X0198382Y0024215D01*
X0199265Y0026346D01*
X0199265Y0028654D01*
X0198382Y0030785D01*
X0196750Y0032417D01*
X0195800Y0032810D01*
X0195800Y0044453D01*
X0194553Y0045700D01*
X0204047Y0045700D01*
X0204700Y0045047D01*
X0204700Y0033300D01*
X0202498Y0033300D01*
X0201444Y0032246D01*
X0201444Y0022754D01*
X0202498Y0021700D01*
X0211990Y0021700D01*
X0213044Y0022754D01*
X0213044Y0032246D01*
X0211990Y0033300D01*
X0209300Y0033300D01*
X0209300Y0046953D01*
X0207953Y0048300D01*
X0205953Y0050300D01*
X0203025Y0050300D01*
X0203115Y0050337D01*
X0204663Y0051884D01*
X0205000Y0052699D01*
X0205337Y0051884D01*
X0206884Y0050337D01*
X0208906Y0049500D01*
X0211094Y0049500D01*
X0213115Y0050337D01*
X0214663Y0051884D01*
X0215500Y0053906D01*
X0215500Y0056094D01*
X0214663Y0058115D01*
X0213115Y0059663D01*
X0211094Y0060500D01*
X0208906Y0060500D01*
X0206884Y0059663D01*
X0205337Y0058115D01*
X0205000Y0057301D01*
X0204663Y0058115D01*
X0203115Y0059663D01*
X0201094Y0060500D01*
X0198906Y0060500D01*
X0196884Y0059663D01*
X0195337Y0058115D01*
X0195000Y0057301D01*
X0194663Y0058115D01*
X0193115Y0059663D01*
X0191094Y0060500D01*
X0188906Y0060500D01*
X0186884Y0059663D01*
X0185337Y0058115D01*
X0185000Y0057301D01*
X0184663Y0058115D01*
X0183115Y0059663D01*
X0181094Y0060500D01*
X0178906Y0060500D01*
X0176884Y0059663D01*
X0175337Y0058115D01*
X0175000Y0057301D01*
X0174663Y0058115D01*
X0173115Y0059663D01*
X0171094Y0060500D01*
X0168906Y0060500D01*
X0166884Y0059663D01*
X0165337Y0058115D01*
X0165000Y0057301D01*
X0164663Y0058115D01*
X0163115Y0059663D01*
X0162267Y0060014D01*
X0163300Y0061047D01*
X0163300Y0061047D01*
X0165300Y0063047D01*
X0165300Y0067641D01*
X0166108Y0067641D01*
X0167162Y0068695D01*
X0167162Y0075305D01*
X0166108Y0076359D01*
X0162082Y0076359D01*
X0162375Y0076652D01*
X0162375Y0081687D01*
X0161320Y0082741D01*
X0156680Y0082741D01*
X0155625Y0081687D01*
X0155625Y0076652D01*
X0155918Y0076359D01*
X0151894Y0076359D01*
X0151300Y0076953D01*
X0149953Y0078300D01*
X0143681Y0078300D01*
X0143681Y0078627D01*
X0142627Y0079681D01*
X0141531Y0079681D01*
X0143115Y0080337D01*
X0144663Y0081884D01*
X0145500Y0083906D01*
X0145500Y0086094D01*
X0144684Y0088063D01*
X0146200Y0086547D01*
X0147547Y0085200D01*
X0151885Y0085200D01*
X0151885Y0084920D01*
X0152939Y0083865D01*
X0157580Y0083865D01*
X0158635Y0084920D01*
X0158635Y0089954D01*
X0157580Y0091009D01*
X0157560Y0091009D01*
X0157560Y0091141D01*
X0158108Y0091141D01*
X0159053Y0092086D01*
X0159197Y0091836D01*
X0159533Y0091501D01*
X0159943Y0091264D01*
X0160401Y0091141D01*
X0162619Y0091141D01*
X0162619Y0095119D01*
X0163381Y0095119D01*
X0163381Y0095881D01*
X0162619Y0095881D01*
X0162619Y0099859D01*
X0160401Y0099859D01*
X0159943Y0099736D01*
X0159533Y0099499D01*
X0159197Y0099164D01*
X0159053Y0098914D01*
X0158108Y0099859D01*
X0151892Y0099859D01*
X0150838Y0098805D01*
X0150838Y0092195D01*
X0151892Y0091141D01*
X0152960Y0091141D01*
X0152960Y0091009D01*
X0152939Y0091009D01*
X0151885Y0089954D01*
X0151885Y0089800D01*
X0149453Y0089800D01*
X0145953Y0093300D01*
X0120047Y0093300D01*
X0118700Y0091953D01*
X0117700Y0090953D01*
X0117700Y0090000D01*
X0116884Y0089663D01*
X0115337Y0088115D01*
X0115000Y0087301D01*
X0114663Y0088115D01*
X0113115Y0089663D01*
X0111094Y0090500D01*
X0108906Y0090500D01*
X0106884Y0089663D01*
X0105337Y0088115D01*
X0105000Y0087301D01*
X0104663Y0088115D01*
X0103115Y0089663D01*
X0101094Y0090500D01*
X0098906Y0090500D01*
X0096884Y0089663D01*
X0095337Y0088115D01*
X0094500Y0086094D01*
X0094500Y0083906D01*
X0095337Y0081884D01*
X0096884Y0080337D01*
X0097400Y0080124D01*
X0097400Y0075859D01*
X0096392Y0075859D01*
X0095338Y0074805D01*
X0095338Y0068195D01*
X0096392Y0067141D01*
X0102608Y0067141D01*
X0103500Y0068033D01*
X0104392Y0067141D01*
X0110608Y0067141D01*
X0111662Y0068195D01*
X0111662Y0068900D01*
X0112491Y0068900D01*
X0112491Y0065439D01*
X0113463Y0064468D01*
X0113463Y0064420D01*
X0113859Y0063464D01*
X0113577Y0064145D02*
X0092398Y0064145D01*
X0093996Y0065743D02*
X0112491Y0065743D01*
X0112491Y0067342D02*
X0110809Y0067342D01*
X0116063Y0067760D02*
X0116063Y0064937D01*
X0118000Y0063000D01*
X0129000Y0063000D01*
X0130000Y0062000D01*
X0130000Y0055000D01*
X0125865Y0051357D02*
X0124135Y0051357D01*
X0121718Y0049758D02*
X0128282Y0049758D01*
X0131718Y0049758D02*
X0137000Y0049758D01*
X0137000Y0048160D02*
X0058300Y0048160D01*
X0058300Y0049758D02*
X0068282Y0049758D01*
X0065865Y0051357D02*
X0058300Y0051357D01*
X0058300Y0052955D02*
X0064894Y0052955D01*
X0064500Y0054554D02*
X0058300Y0054554D01*
X0058300Y0056152D02*
X0064524Y0056152D01*
X0065186Y0057751D02*
X0058300Y0057751D01*
X0058300Y0059349D02*
X0066571Y0059349D01*
X0073429Y0059349D02*
X0076571Y0059349D01*
X0075186Y0057751D02*
X0074814Y0057751D01*
X0074135Y0051357D02*
X0075865Y0051357D01*
X0078282Y0049758D02*
X0071718Y0049758D01*
X0081718Y0049758D02*
X0088282Y0049758D01*
X0085865Y0051357D02*
X0084135Y0051357D01*
X0084814Y0057751D02*
X0085186Y0057751D01*
X0086571Y0059349D02*
X0083429Y0059349D01*
X0093429Y0059349D02*
X0096629Y0059349D01*
X0095229Y0057751D02*
X0094814Y0057751D01*
X0099800Y0057751D02*
X0100200Y0057751D01*
X0100200Y0059349D02*
X0099800Y0059349D01*
X0103371Y0059349D02*
X0106571Y0059349D01*
X0105186Y0057751D02*
X0104771Y0057751D01*
X0100200Y0056152D02*
X0099800Y0056152D01*
X0099800Y0054554D02*
X0100200Y0054554D01*
X0100200Y0052955D02*
X0099800Y0052955D01*
X0099800Y0051357D02*
X0100200Y0051357D01*
X0100200Y0049758D02*
X0099800Y0049758D01*
X0098334Y0049758D02*
X0091718Y0049758D01*
X0094135Y0051357D02*
X0095865Y0051357D01*
X0101666Y0049758D02*
X0108282Y0049758D01*
X0105865Y0051357D02*
X0104135Y0051357D01*
X0111718Y0049758D02*
X0118282Y0049758D01*
X0115865Y0051357D02*
X0114135Y0051357D01*
X0114814Y0057751D02*
X0115186Y0057751D01*
X0116571Y0059349D02*
X0113429Y0059349D01*
X0116375Y0060948D02*
X0058300Y0060948D01*
X0058300Y0046561D02*
X0137000Y0046561D01*
X0137000Y0044963D02*
X0058300Y0044963D01*
X0058300Y0043364D02*
X0137000Y0043364D01*
X0137264Y0041766D02*
X0058300Y0041766D01*
X0058300Y0040167D02*
X0138590Y0040167D01*
X0138301Y0040457D02*
X0138301Y0040457D01*
X0140189Y0038569D02*
X0058300Y0038569D01*
X0058300Y0036970D02*
X0176685Y0036970D01*
X0176685Y0035372D02*
X0058300Y0035372D01*
X0058300Y0033773D02*
X0176685Y0033773D01*
X0173885Y0032175D02*
X0169433Y0032175D01*
X0169191Y0032417D02*
X0167059Y0033300D01*
X0164752Y0033300D01*
X0162620Y0032417D01*
X0160989Y0030785D01*
X0160106Y0028654D01*
X0160106Y0026346D01*
X0160989Y0024215D01*
X0162620Y0022583D01*
X0164752Y0021700D01*
X0167059Y0021700D01*
X0169191Y0022583D01*
X0170823Y0024215D01*
X0171705Y0026346D01*
X0171705Y0028654D01*
X0170823Y0030785D01*
X0169191Y0032417D01*
X0170909Y0030576D02*
X0173885Y0030576D01*
X0173885Y0028978D02*
X0171571Y0028978D01*
X0171705Y0027379D02*
X0173885Y0027379D01*
X0173885Y0025781D02*
X0171471Y0025781D01*
X0170790Y0024182D02*
X0173885Y0024182D01*
X0174056Y0022584D02*
X0169192Y0022584D01*
X0162619Y0022584D02*
X0155412Y0022584D01*
X0155411Y0022583D02*
X0157043Y0024215D01*
X0157926Y0026346D01*
X0157926Y0028654D01*
X0157043Y0030785D01*
X0155411Y0032417D01*
X0153280Y0033300D01*
X0150972Y0033300D01*
X0148841Y0032417D01*
X0147209Y0030785D01*
X0146326Y0028654D01*
X0146326Y0026346D01*
X0147209Y0024215D01*
X0148824Y0022600D01*
X0141649Y0022600D01*
X0143263Y0024215D01*
X0144146Y0026346D01*
X0144146Y0028654D01*
X0143263Y0030785D01*
X0141632Y0032417D01*
X0139500Y0033300D01*
X0137193Y0033300D01*
X0135061Y0032417D01*
X0133429Y0030785D01*
X0132546Y0028654D01*
X0132546Y0026346D01*
X0133429Y0024215D01*
X0135044Y0022600D01*
X0130126Y0022600D01*
X0130244Y0022805D01*
X0130367Y0023263D01*
X0130367Y0027119D01*
X0124948Y0027119D01*
X0124948Y0027881D01*
X0130367Y0027881D01*
X0130367Y0031737D01*
X0130244Y0032195D01*
X0130007Y0032605D01*
X0129672Y0032940D01*
X0129262Y0033177D01*
X0128804Y0033300D01*
X0124948Y0033300D01*
X0124948Y0027881D01*
X0124186Y0027881D01*
X0124186Y0033300D01*
X0120330Y0033300D01*
X0119872Y0033177D01*
X0119462Y0032940D01*
X0119127Y0032605D01*
X0118890Y0032195D01*
X0118767Y0031737D01*
X0118767Y0027881D01*
X0124186Y0027881D01*
X0124186Y0027119D01*
X0118767Y0027119D01*
X0118767Y0023263D01*
X0118890Y0022805D01*
X0119008Y0022600D01*
X0114090Y0022600D01*
X0115704Y0024215D01*
X0116587Y0026346D01*
X0116587Y0028654D01*
X0115704Y0030785D01*
X0114073Y0032417D01*
X0111941Y0033300D01*
X0109634Y0033300D01*
X0107502Y0032417D01*
X0105870Y0030785D01*
X0104987Y0028654D01*
X0104987Y0026346D01*
X0105870Y0024215D01*
X0107485Y0022600D01*
X0100310Y0022600D01*
X0101925Y0024215D01*
X0102808Y0026346D01*
X0102808Y0028654D01*
X0101925Y0030785D01*
X0100293Y0032417D01*
X0098162Y0033300D01*
X0095854Y0033300D01*
X0093722Y0032417D01*
X0092091Y0030785D01*
X0091208Y0028654D01*
X0091208Y0026346D01*
X0092091Y0024215D01*
X0093722Y0022583D01*
X0094408Y0022299D01*
X0094408Y0020475D01*
X0094804Y0019519D01*
X0095796Y0018527D01*
X0096527Y0017796D01*
X0097483Y0017400D01*
X0151517Y0017400D01*
X0152473Y0017796D01*
X0153473Y0018796D01*
X0154204Y0019527D01*
X0154600Y0020483D01*
X0154600Y0022247D01*
X0155411Y0022583D01*
X0154600Y0020985D02*
X0176685Y0020985D01*
X0176685Y0019387D02*
X0154064Y0019387D01*
X0152454Y0017788D02*
X0176685Y0017788D01*
X0176685Y0016190D02*
X0085528Y0016190D01*
X0085528Y0015276D02*
X0085528Y0022175D01*
X0086514Y0022583D01*
X0088145Y0024215D01*
X0089028Y0026346D01*
X0089028Y0028654D01*
X0088145Y0030785D01*
X0086514Y0032417D01*
X0084382Y0033300D01*
X0082075Y0033300D01*
X0079943Y0032417D01*
X0078311Y0030785D01*
X0077428Y0028654D01*
X0077428Y0026346D01*
X0078311Y0024215D01*
X0079943Y0022583D01*
X0080928Y0022175D01*
X0080928Y0017300D01*
X0030300Y0017300D01*
X0030300Y0022129D01*
X0031396Y0022583D01*
X0033027Y0024215D01*
X0033910Y0026346D01*
X0033910Y0028654D01*
X0033027Y0030785D01*
X0031396Y0032417D01*
X0029264Y0033300D01*
X0026957Y0033300D01*
X0024825Y0032417D01*
X0023193Y0030785D01*
X0022310Y0028654D01*
X0022310Y0026346D01*
X0023193Y0024215D01*
X0024825Y0022583D01*
X0025700Y0022220D01*
X0025700Y0015047D01*
X0027047Y0013700D01*
X0028047Y0012700D01*
X0082953Y0012700D01*
X0084181Y0013928D01*
X0085528Y0015276D01*
X0084844Y0014591D02*
X0177166Y0014591D01*
X0178765Y0012993D02*
X0083245Y0012993D01*
X0084181Y0013928D02*
X0084181Y0013928D01*
X0085528Y0017788D02*
X0096546Y0017788D01*
X0094936Y0019387D02*
X0085528Y0019387D01*
X0085528Y0020985D02*
X0094408Y0020985D01*
X0093722Y0022584D02*
X0086514Y0022584D01*
X0088113Y0024182D02*
X0092123Y0024182D01*
X0091442Y0025781D02*
X0088794Y0025781D01*
X0089028Y0027379D02*
X0091208Y0027379D01*
X0091342Y0028978D02*
X0088894Y0028978D01*
X0088232Y0030576D02*
X0092004Y0030576D01*
X0093480Y0032175D02*
X0086756Y0032175D01*
X0079701Y0032175D02*
X0075132Y0032175D01*
X0075126Y0032195D02*
X0074889Y0032605D01*
X0074554Y0032940D01*
X0074144Y0033177D01*
X0073686Y0033300D01*
X0069830Y0033300D01*
X0069830Y0027881D01*
X0075249Y0027881D01*
X0075249Y0031737D01*
X0075126Y0032195D01*
X0075249Y0030576D02*
X0078225Y0030576D01*
X0077563Y0028978D02*
X0075249Y0028978D01*
X0075249Y0027119D02*
X0069830Y0027119D01*
X0069830Y0027881D01*
X0069068Y0027881D01*
X0069068Y0033300D01*
X0065212Y0033300D01*
X0064754Y0033177D01*
X0064344Y0032940D01*
X0064008Y0032605D01*
X0063771Y0032195D01*
X0063649Y0031737D01*
X0063649Y0027881D01*
X0069068Y0027881D01*
X0069068Y0027119D01*
X0069830Y0027119D01*
X0069830Y0021700D01*
X0073686Y0021700D01*
X0074144Y0021823D01*
X0074554Y0022060D01*
X0074889Y0022395D01*
X0075126Y0022805D01*
X0075249Y0023263D01*
X0075249Y0027119D01*
X0075249Y0025781D02*
X0077663Y0025781D01*
X0077428Y0027379D02*
X0069830Y0027379D01*
X0069068Y0027379D02*
X0061469Y0027379D01*
X0061335Y0028978D02*
X0063649Y0028978D01*
X0063649Y0030576D02*
X0060673Y0030576D01*
X0059197Y0032175D02*
X0063766Y0032175D01*
X0063649Y0027119D02*
X0063649Y0023263D01*
X0063771Y0022805D01*
X0064008Y0022395D01*
X0064344Y0022060D01*
X0064754Y0021823D01*
X0065212Y0021700D01*
X0069068Y0021700D01*
X0069068Y0027119D01*
X0063649Y0027119D01*
X0063649Y0025781D02*
X0061235Y0025781D01*
X0060554Y0024182D02*
X0063649Y0024182D01*
X0063899Y0022584D02*
X0058955Y0022584D01*
X0052383Y0022584D02*
X0045176Y0022584D01*
X0045175Y0022583D02*
X0046807Y0024215D01*
X0047690Y0026346D01*
X0047690Y0028654D01*
X0046807Y0030785D01*
X0045175Y0032417D01*
X0043043Y0033300D01*
X0040736Y0033300D01*
X0038604Y0032417D01*
X0036973Y0030785D01*
X0036090Y0028654D01*
X0036090Y0026346D01*
X0036973Y0024215D01*
X0038604Y0022583D01*
X0040736Y0021700D01*
X0043043Y0021700D01*
X0045175Y0022583D01*
X0046774Y0024182D02*
X0050785Y0024182D01*
X0050104Y0025781D02*
X0047455Y0025781D01*
X0047690Y0027379D02*
X0049869Y0027379D01*
X0050003Y0028978D02*
X0047556Y0028978D01*
X0046893Y0030576D02*
X0050666Y0030576D01*
X0052142Y0032175D02*
X0045417Y0032175D01*
X0038362Y0032175D02*
X0031638Y0032175D01*
X0033114Y0030576D02*
X0036886Y0030576D01*
X0036224Y0028978D02*
X0033776Y0028978D01*
X0033910Y0027379D02*
X0036090Y0027379D01*
X0036324Y0025781D02*
X0033676Y0025781D01*
X0032995Y0024182D02*
X0037005Y0024182D01*
X0038604Y0022584D02*
X0031396Y0022584D01*
X0030300Y0020985D02*
X0080928Y0020985D01*
X0080928Y0019387D02*
X0030300Y0019387D01*
X0030300Y0017788D02*
X0080928Y0017788D01*
X0079942Y0022584D02*
X0074998Y0022584D01*
X0075249Y0024182D02*
X0078344Y0024182D01*
X0069830Y0024182D02*
X0069068Y0024182D01*
X0069068Y0022584D02*
X0069830Y0022584D01*
X0069830Y0025781D02*
X0069068Y0025781D01*
X0069068Y0028978D02*
X0069830Y0028978D01*
X0069830Y0030576D02*
X0069068Y0030576D01*
X0069068Y0032175D02*
X0069830Y0032175D01*
X0053700Y0033773D02*
X0008000Y0033773D01*
X0008890Y0032605D02*
X0009225Y0032940D01*
X0009636Y0033177D01*
X0010094Y0033300D01*
X0013950Y0033300D01*
X0013950Y0027881D01*
X0014712Y0027881D01*
X0020131Y0027881D01*
X0020131Y0031737D01*
X0020008Y0032195D01*
X0019771Y0032605D01*
X0019436Y0032940D01*
X0019025Y0033177D01*
X0018568Y0033300D01*
X0014712Y0033300D01*
X0014712Y0027881D01*
X0014712Y0027119D01*
X0020131Y0027119D01*
X0020131Y0023263D01*
X0020008Y0022805D01*
X0019771Y0022395D01*
X0019436Y0022060D01*
X0019025Y0021823D01*
X0018568Y0021700D01*
X0014712Y0021700D01*
X0014712Y0027119D01*
X0013950Y0027119D01*
X0013950Y0021700D01*
X0010094Y0021700D01*
X0009636Y0021823D01*
X0009225Y0022060D01*
X0008890Y0022395D01*
X0008653Y0022805D01*
X0008531Y0023263D01*
X0008531Y0027119D01*
X0013950Y0027119D01*
X0013950Y0027881D01*
X0008531Y0027881D01*
X0008531Y0031737D01*
X0008653Y0032195D01*
X0008890Y0032605D01*
X0008648Y0032175D02*
X0008000Y0032175D01*
X0008000Y0030576D02*
X0008531Y0030576D01*
X0008531Y0028978D02*
X0008000Y0028978D01*
X0008000Y0027379D02*
X0013950Y0027379D01*
X0014712Y0027379D02*
X0022310Y0027379D01*
X0022444Y0028978D02*
X0020131Y0028978D01*
X0020131Y0030576D02*
X0023107Y0030576D01*
X0024582Y0032175D02*
X0020013Y0032175D01*
X0014712Y0032175D02*
X0013950Y0032175D01*
X0013950Y0030576D02*
X0014712Y0030576D01*
X0014712Y0028978D02*
X0013950Y0028978D01*
X0013950Y0025781D02*
X0014712Y0025781D01*
X0014712Y0024182D02*
X0013950Y0024182D01*
X0013950Y0022584D02*
X0014712Y0022584D01*
X0019880Y0022584D02*
X0024824Y0022584D01*
X0025700Y0020985D02*
X0008000Y0020985D01*
X0008000Y0019387D02*
X0025700Y0019387D01*
X0025700Y0017788D02*
X0008000Y0017788D01*
X0008000Y0016190D02*
X0025700Y0016190D01*
X0026156Y0014591D02*
X0008000Y0014591D01*
X0008000Y0012993D02*
X0027755Y0012993D01*
X0023226Y0024182D02*
X0020131Y0024182D01*
X0020131Y0025781D02*
X0022545Y0025781D01*
X0008531Y0025781D02*
X0008000Y0025781D01*
X0008000Y0024182D02*
X0008531Y0024182D01*
X0008781Y0022584D02*
X0008000Y0022584D01*
X0008000Y0011394D02*
X0262353Y0011394D01*
X0263952Y0009796D02*
X0008000Y0009796D01*
X0008000Y0008197D02*
X0321190Y0008197D01*
X0319911Y0009796D02*
X0287681Y0009796D01*
X0287681Y0011394D02*
X0319263Y0011394D01*
X0319263Y0012993D02*
X0287681Y0012993D01*
X0281080Y0019387D02*
X0302400Y0019387D01*
X0302400Y0020985D02*
X0281359Y0020985D01*
X0281359Y0022584D02*
X0283729Y0022584D01*
X0282905Y0024182D02*
X0281359Y0024182D01*
X0281359Y0025781D02*
X0282905Y0025781D01*
X0282905Y0027379D02*
X0281088Y0027379D01*
X0282905Y0028978D02*
X0261000Y0028978D01*
X0261000Y0030576D02*
X0282905Y0030576D01*
X0283487Y0032175D02*
X0261000Y0032175D01*
X0261000Y0033773D02*
X0284984Y0033773D01*
X0284013Y0035372D02*
X0279417Y0035372D01*
X0280050Y0036970D02*
X0284000Y0036970D01*
X0284000Y0038569D02*
X0280050Y0038569D01*
X0280050Y0040167D02*
X0284000Y0040167D01*
X0284000Y0041766D02*
X0280050Y0041766D01*
X0280050Y0043364D02*
X0284000Y0043364D01*
X0284000Y0044963D02*
X0279083Y0044963D01*
X0278000Y0046561D02*
X0284000Y0046561D01*
X0284000Y0048160D02*
X0278000Y0048160D01*
X0278000Y0049758D02*
X0284000Y0049758D01*
X0284000Y0051357D02*
X0278000Y0051357D01*
X0278000Y0052955D02*
X0284000Y0052955D01*
X0284000Y0054554D02*
X0278000Y0054554D01*
X0278000Y0056152D02*
X0284000Y0056152D01*
X0284064Y0057751D02*
X0278000Y0057751D01*
X0278000Y0059349D02*
X0285107Y0059349D01*
X0286705Y0060948D02*
X0277295Y0060948D01*
X0275696Y0062546D02*
X0288308Y0062546D01*
X0288578Y0067342D02*
X0275500Y0067342D01*
X0275500Y0068940D02*
X0286817Y0068940D01*
X0285218Y0070539D02*
X0275722Y0070539D01*
X0275500Y0065743D02*
X0293978Y0065743D01*
X0293867Y0064145D02*
X0275500Y0064145D01*
X0269500Y0064145D02*
X0256000Y0064145D01*
X0256000Y0065743D02*
X0269500Y0065743D01*
X0269500Y0067342D02*
X0256000Y0067342D01*
X0256000Y0068940D02*
X0269500Y0068940D01*
X0269278Y0070539D02*
X0265722Y0070539D01*
X0265608Y0070424D02*
X0266662Y0071479D01*
X0266662Y0077694D01*
X0265608Y0078749D01*
X0265100Y0078749D01*
X0265100Y0087517D01*
X0264704Y0088473D01*
X0263204Y0089973D01*
X0262473Y0090704D01*
X0261517Y0091100D01*
X0252253Y0091100D01*
X0252253Y0092458D01*
X0251312Y0093399D01*
X0251407Y0093439D01*
X0252663Y0094695D01*
X0253343Y0096336D01*
X0253343Y0098113D01*
X0252663Y0099754D01*
X0251407Y0101010D01*
X0249766Y0101690D01*
X0247990Y0101690D01*
X0246349Y0101010D01*
X0245092Y0099754D01*
X0244413Y0098113D01*
X0244413Y0096336D01*
X0245092Y0094695D01*
X0246275Y0093513D01*
X0242607Y0093513D01*
X0242607Y0096395D01*
X0242368Y0096634D01*
X0242607Y0096873D01*
X0242607Y0101120D01*
X0242467Y0101260D01*
X0242607Y0101400D01*
X0242607Y0106828D01*
X0241975Y0107461D01*
X0242607Y0108093D01*
X0242607Y0113521D01*
X0241553Y0114576D01*
X0232581Y0114576D01*
X0231527Y0113521D01*
X0231527Y0113300D01*
X0203300Y0113300D01*
X0203300Y0128447D01*
X0204047Y0127700D01*
X0231527Y0127700D01*
X0231527Y0127483D01*
X0232581Y0126428D01*
X0241553Y0126428D01*
X0241700Y0126576D01*
X0241700Y0123975D01*
X0241553Y0124123D01*
X0232685Y0124123D01*
X0232627Y0124181D01*
X0227373Y0124181D01*
X0226319Y0123127D01*
X0226319Y0117873D01*
X0227373Y0116819D01*
X0232348Y0116819D01*
X0232581Y0116586D01*
X0241553Y0116586D01*
X0242607Y0117640D01*
X0242607Y0118054D01*
X0244307Y0118054D01*
X0244953Y0118700D01*
X0246300Y0120047D01*
X0246300Y0134953D01*
X0245300Y0135953D01*
X0243953Y0137300D01*
X0242440Y0137300D01*
X0242484Y0137376D01*
X0242607Y0137834D01*
X0242607Y0139855D01*
X0237251Y0139855D01*
X0237251Y0140224D01*
X0236883Y0140224D01*
X0236883Y0143808D01*
X0233090Y0143808D01*
X0232632Y0143685D01*
X0232222Y0143448D01*
X0231886Y0143113D01*
X0231649Y0142703D01*
X0231527Y0142245D01*
X0231527Y0140224D01*
X0236883Y0140224D01*
X0236883Y0139855D01*
X0231527Y0139855D01*
X0231527Y0137834D01*
X0231649Y0137376D01*
X0231693Y0137300D01*
X0222800Y0137300D01*
X0222800Y0139303D01*
X0222829Y0139303D01*
X0225726Y0142200D01*
X0229953Y0142200D01*
X0231300Y0143547D01*
X0232300Y0144547D01*
X0232300Y0146395D01*
X0232581Y0146113D01*
X0241553Y0146113D01*
X0242607Y0147168D01*
X0242607Y0152596D01*
X0241553Y0153650D01*
X0232581Y0153650D01*
X0231527Y0152596D01*
X0231527Y0152182D01*
X0229929Y0152182D01*
X0229047Y0151300D01*
X0227700Y0149953D01*
X0227700Y0146800D01*
X0226051Y0146800D01*
X0226051Y0147081D01*
X0223329Y0149803D01*
X0226051Y0152525D01*
X0226051Y0152799D01*
X0227103Y0153850D01*
X0227103Y0153850D01*
X0230453Y0157200D01*
X0231527Y0157200D01*
X0231527Y0157010D01*
X0232581Y0155956D01*
X0241553Y0155956D01*
X0242607Y0157010D01*
X0242607Y0162438D01*
X0241553Y0163493D01*
X0232581Y0163493D01*
X0231527Y0162438D01*
X0231527Y0161800D01*
X0228547Y0161800D01*
X0227200Y0160453D01*
X0227200Y0160453D01*
X0224940Y0158193D01*
X0223329Y0159803D01*
X0226051Y0162525D01*
X0226051Y0164603D01*
X0220751Y0164603D01*
X0220751Y0165003D01*
X0220351Y0165003D01*
X0220351Y0170303D01*
X0218273Y0170303D01*
X0215551Y0167581D01*
X0212829Y0170303D01*
X0208273Y0170303D01*
X0205073Y0167103D01*
X0200850Y0167103D01*
X0200047Y0166300D01*
X0198700Y0164953D01*
X0198700Y0111047D01*
X0199700Y0110047D01*
X0201047Y0108700D01*
X0202700Y0108700D01*
X0202700Y0097047D01*
X0204047Y0095700D01*
X0206047Y0093700D01*
X0218047Y0093700D01*
X0218700Y0093047D01*
X0218700Y0056047D01*
X0220047Y0054700D01*
X0222047Y0052700D01*
X0244047Y0052700D01*
X0246283Y0050465D01*
X0246283Y0032825D01*
X0245297Y0032417D01*
X0243666Y0030785D01*
X0242783Y0028654D01*
X0242783Y0026346D01*
X0243666Y0024215D01*
X0245297Y0022583D01*
X0247429Y0021700D01*
X0249736Y0021700D01*
X0251868Y0022583D01*
X0253500Y0024215D01*
X0254383Y0026346D01*
X0254383Y0028654D01*
X0253500Y0030785D01*
X0251868Y0032417D01*
X0250883Y0032825D01*
X0250883Y0052370D01*
X0247300Y0055953D01*
X0245953Y0057300D01*
X0223953Y0057300D01*
X0223300Y0057953D01*
X0223300Y0094953D01*
X0221300Y0096953D01*
X0219953Y0098300D01*
X0207953Y0098300D01*
X0207300Y0098953D01*
X0207300Y0108700D01*
X0231527Y0108700D01*
X0231527Y0108093D01*
X0232159Y0107461D01*
X0231527Y0106828D01*
X0231527Y0106714D01*
X0228162Y0106714D01*
X0228162Y0107305D01*
X0232003Y0107305D01*
X0228162Y0107305D02*
X0227108Y0108359D01*
X0220892Y0108359D01*
X0219947Y0107414D01*
X0219803Y0107664D01*
X0219467Y0107999D01*
X0219057Y0108236D01*
X0218599Y0108359D01*
X0216381Y0108359D01*
X0216381Y0104381D01*
X0215619Y0104381D01*
X0215619Y0103619D01*
X0216381Y0103619D01*
X0216381Y0099641D01*
X0218599Y0099641D01*
X0219057Y0099764D01*
X0219467Y0100001D01*
X0219803Y0100336D01*
X0219947Y0100586D01*
X0220892Y0099641D01*
X0227108Y0099641D01*
X0228162Y0100695D01*
X0228162Y0101514D01*
X0231527Y0101514D01*
X0231527Y0101400D01*
X0231667Y0101260D01*
X0231527Y0101120D01*
X0231527Y0096873D01*
X0231765Y0096634D01*
X0231527Y0096395D01*
X0231527Y0092148D01*
X0232581Y0091094D01*
X0237629Y0091094D01*
X0237629Y0085061D01*
X0238684Y0084007D01*
X0251198Y0084007D01*
X0252253Y0085061D01*
X0252253Y0085900D01*
X0259900Y0085900D01*
X0259900Y0078749D01*
X0259392Y0078749D01*
X0258338Y0077694D01*
X0258338Y0071479D01*
X0259392Y0070424D01*
X0265608Y0070424D01*
X0266662Y0072137D02*
X0268338Y0072137D01*
X0268338Y0073736D02*
X0266662Y0073736D01*
X0266662Y0075334D02*
X0268338Y0075334D01*
X0268338Y0076933D02*
X0266662Y0076933D01*
X0265825Y0078532D02*
X0269175Y0078532D01*
X0265100Y0080130D02*
X0326987Y0080130D01*
X0326987Y0079053D02*
X0325339Y0077406D01*
X0324654Y0077690D01*
X0322346Y0077690D01*
X0320215Y0076807D01*
X0318583Y0075175D01*
X0317700Y0073043D01*
X0317700Y0070736D01*
X0318583Y0068604D01*
X0320215Y0066973D01*
X0322346Y0066090D01*
X0324654Y0066090D01*
X0326785Y0066973D01*
X0328417Y0068604D01*
X0329300Y0070736D01*
X0329300Y0073043D01*
X0329016Y0073729D01*
X0331791Y0076504D01*
X0332187Y0077459D01*
X0332187Y0084007D01*
X0335844Y0084007D01*
X0336898Y0085061D01*
X0336898Y0092458D01*
X0335844Y0093513D01*
X0323329Y0093513D01*
X0322275Y0092458D01*
X0322275Y0085061D01*
X0323329Y0084007D01*
X0326987Y0084007D01*
X0326987Y0079053D01*
X0326465Y0078532D02*
X0275825Y0078532D01*
X0286758Y0076933D02*
X0320519Y0076933D01*
X0318742Y0075334D02*
X0298994Y0075334D01*
X0296006Y0075334D02*
X0288908Y0075334D01*
X0290507Y0073736D02*
X0293458Y0073736D01*
X0301542Y0073736D02*
X0317987Y0073736D01*
X0317700Y0072137D02*
X0302568Y0072137D01*
X0303000Y0070539D02*
X0317782Y0070539D01*
X0318444Y0068940D02*
X0303000Y0068940D01*
X0302352Y0067342D02*
X0319845Y0067342D01*
X0317700Y0062546D02*
X0302398Y0062546D01*
X0303000Y0060948D02*
X0317700Y0060948D01*
X0317700Y0059349D02*
X0303000Y0059349D01*
X0302522Y0057751D02*
X0317700Y0057751D01*
X0317700Y0056152D02*
X0301431Y0056152D01*
X0300724Y0054554D02*
X0317700Y0054554D01*
X0318109Y0052955D02*
X0302229Y0052955D01*
X0302891Y0051357D02*
X0320500Y0051357D01*
X0320500Y0049758D02*
X0303000Y0049758D01*
X0302691Y0048160D02*
X0320500Y0048160D01*
X0320319Y0046561D02*
X0301839Y0046561D01*
X0299711Y0044963D02*
X0304720Y0044963D01*
X0303122Y0043364D02*
X0290000Y0043364D01*
X0290000Y0041766D02*
X0302070Y0041766D01*
X0302000Y0040167D02*
X0290000Y0040167D01*
X0290000Y0038569D02*
X0302000Y0038569D01*
X0302000Y0036970D02*
X0290272Y0036970D01*
X0291871Y0035372D02*
X0302000Y0035372D01*
X0302000Y0033773D02*
X0292626Y0033773D01*
X0295765Y0032175D02*
X0299235Y0032175D01*
X0298653Y0030576D02*
X0296347Y0030576D01*
X0296347Y0028978D02*
X0298653Y0028978D01*
X0298653Y0027379D02*
X0296347Y0027379D01*
X0296347Y0025781D02*
X0298653Y0025781D01*
X0298653Y0024182D02*
X0296347Y0024182D01*
X0295523Y0022584D02*
X0299477Y0022584D01*
X0305000Y0027126D02*
X0305000Y0018000D01*
X0303000Y0016000D01*
X0277000Y0016000D01*
X0277000Y0024000D02*
X0270500Y0024000D01*
X0264000Y0024000D01*
X0255000Y0024182D02*
X0253467Y0024182D01*
X0254148Y0025781D02*
X0255000Y0025781D01*
X0255000Y0027379D02*
X0254383Y0027379D01*
X0254248Y0028978D02*
X0255000Y0028978D01*
X0255000Y0030576D02*
X0253586Y0030576D01*
X0255000Y0032175D02*
X0252110Y0032175D01*
X0250883Y0033773D02*
X0255000Y0033773D01*
X0255000Y0035372D02*
X0250883Y0035372D01*
X0250883Y0036970D02*
X0255000Y0036970D01*
X0255000Y0038569D02*
X0250883Y0038569D01*
X0250883Y0040167D02*
X0255000Y0040167D01*
X0255000Y0041766D02*
X0250883Y0041766D01*
X0250883Y0043364D02*
X0255000Y0043364D01*
X0255000Y0044963D02*
X0250883Y0044963D01*
X0250883Y0046561D02*
X0255000Y0046561D01*
X0255000Y0048160D02*
X0250883Y0048160D01*
X0250883Y0049758D02*
X0255000Y0049758D01*
X0255000Y0051357D02*
X0250883Y0051357D01*
X0250297Y0052955D02*
X0253802Y0052955D01*
X0252203Y0054554D02*
X0248699Y0054554D01*
X0247100Y0056152D02*
X0250605Y0056152D01*
X0250000Y0057751D02*
X0223502Y0057751D01*
X0223300Y0059349D02*
X0250000Y0059349D01*
X0250000Y0060948D02*
X0223300Y0060948D01*
X0223300Y0062546D02*
X0250000Y0062546D01*
X0250000Y0064145D02*
X0223300Y0064145D01*
X0223300Y0065743D02*
X0250000Y0065743D01*
X0250000Y0067342D02*
X0223300Y0067342D01*
X0223300Y0068940D02*
X0250000Y0068940D01*
X0249278Y0070539D02*
X0223300Y0070539D01*
X0223300Y0072137D02*
X0248338Y0072137D01*
X0248338Y0073736D02*
X0223300Y0073736D01*
X0223300Y0075334D02*
X0248338Y0075334D01*
X0248338Y0076933D02*
X0223300Y0076933D01*
X0223300Y0078532D02*
X0249175Y0078532D01*
X0255825Y0078532D02*
X0259175Y0078532D01*
X0259900Y0080130D02*
X0223300Y0080130D01*
X0223300Y0081729D02*
X0259900Y0081729D01*
X0259900Y0083327D02*
X0223300Y0083327D01*
X0223300Y0084926D02*
X0237765Y0084926D01*
X0237629Y0086524D02*
X0223300Y0086524D01*
X0223300Y0088123D02*
X0237629Y0088123D01*
X0237629Y0089721D02*
X0223300Y0089721D01*
X0223300Y0091320D02*
X0232355Y0091320D01*
X0231527Y0092918D02*
X0223300Y0092918D01*
X0223300Y0094517D02*
X0231527Y0094517D01*
X0231527Y0096115D02*
X0222138Y0096115D01*
X0220539Y0097714D02*
X0231527Y0097714D01*
X0231527Y0099312D02*
X0207300Y0099312D01*
X0207300Y0100911D02*
X0211916Y0100911D01*
X0211960Y0100746D02*
X0211838Y0101204D01*
X0211838Y0103619D01*
X0215619Y0103619D01*
X0215619Y0099641D01*
X0213401Y0099641D01*
X0212943Y0099764D01*
X0212533Y0100001D01*
X0212197Y0100336D01*
X0211960Y0100746D01*
X0211838Y0102509D02*
X0207300Y0102509D01*
X0207300Y0104108D02*
X0215619Y0104108D01*
X0215619Y0104381D02*
X0211838Y0104381D01*
X0211838Y0106796D01*
X0211960Y0107254D01*
X0212197Y0107664D01*
X0212533Y0107999D01*
X0212943Y0108236D01*
X0213401Y0108359D01*
X0215619Y0108359D01*
X0215619Y0104381D01*
X0215619Y0105706D02*
X0216381Y0105706D01*
X0216381Y0107305D02*
X0215619Y0107305D01*
X0211990Y0107305D02*
X0207300Y0107305D01*
X0207300Y0105706D02*
X0211838Y0105706D01*
X0215619Y0102509D02*
X0216381Y0102509D01*
X0216381Y0100911D02*
X0215619Y0100911D01*
X0218700Y0092918D02*
X0167162Y0092918D01*
X0167162Y0092704D02*
X0167162Y0095119D01*
X0163381Y0095119D01*
X0163381Y0091141D01*
X0165599Y0091141D01*
X0166057Y0091264D01*
X0166467Y0091501D01*
X0166803Y0091836D01*
X0167040Y0092246D01*
X0167162Y0092704D01*
X0166154Y0091320D02*
X0218700Y0091320D01*
X0218700Y0089721D02*
X0166041Y0089721D01*
X0165992Y0089903D02*
X0165755Y0090314D01*
X0165420Y0090649D01*
X0165010Y0090886D01*
X0164552Y0091009D01*
X0162740Y0091009D01*
X0160928Y0091009D01*
X0160471Y0090886D01*
X0160060Y0090649D01*
X0159725Y0090314D01*
X0159488Y0089903D01*
X0159365Y0089446D01*
X0159365Y0087437D01*
X0159365Y0085428D01*
X0159488Y0084971D01*
X0159725Y0084560D01*
X0160060Y0084225D01*
X0160471Y0083988D01*
X0160928Y0083865D01*
X0162740Y0083865D01*
X0162740Y0087437D01*
X0159365Y0087437D01*
X0162740Y0087437D01*
X0162740Y0087437D01*
X0162740Y0087437D01*
X0162740Y0091009D01*
X0162740Y0087437D01*
X0162740Y0087437D01*
X0162740Y0083865D01*
X0164552Y0083865D01*
X0165010Y0083988D01*
X0165420Y0084225D01*
X0165755Y0084560D01*
X0165992Y0084971D01*
X0166115Y0085428D01*
X0166115Y0087437D01*
X0166115Y0089446D01*
X0165992Y0089903D01*
X0166115Y0088123D02*
X0218700Y0088123D01*
X0218700Y0086524D02*
X0166115Y0086524D01*
X0166115Y0087437D02*
X0162740Y0087437D01*
X0166115Y0087437D01*
X0165966Y0084926D02*
X0218700Y0084926D01*
X0218700Y0083327D02*
X0145260Y0083327D01*
X0145500Y0084926D02*
X0151885Y0084926D01*
X0155667Y0081729D02*
X0144507Y0081729D01*
X0142615Y0080130D02*
X0155625Y0080130D01*
X0155625Y0078532D02*
X0143681Y0078532D01*
X0151320Y0076933D02*
X0155625Y0076933D01*
X0162375Y0076933D02*
X0218700Y0076933D01*
X0218700Y0075334D02*
X0167132Y0075334D01*
X0167162Y0073736D02*
X0218700Y0073736D01*
X0218700Y0072137D02*
X0167162Y0072137D01*
X0167162Y0070539D02*
X0218700Y0070539D01*
X0218700Y0068940D02*
X0167162Y0068940D01*
X0165300Y0067342D02*
X0218700Y0067342D01*
X0218700Y0065743D02*
X0165300Y0065743D01*
X0165300Y0064145D02*
X0218700Y0064145D01*
X0218700Y0062546D02*
X0164799Y0062546D01*
X0163201Y0060948D02*
X0218700Y0060948D01*
X0218700Y0059349D02*
X0213429Y0059349D01*
X0214814Y0057751D02*
X0218700Y0057751D01*
X0218700Y0056152D02*
X0215476Y0056152D01*
X0215500Y0054554D02*
X0220193Y0054554D01*
X0221792Y0052955D02*
X0215106Y0052955D01*
X0214135Y0051357D02*
X0245390Y0051357D01*
X0246283Y0049758D02*
X0211718Y0049758D01*
X0208282Y0049758D02*
X0206494Y0049758D01*
X0205865Y0051357D02*
X0204135Y0051357D01*
X0208093Y0048160D02*
X0246283Y0048160D01*
X0246283Y0046561D02*
X0209300Y0046561D01*
X0209300Y0044963D02*
X0246283Y0044963D01*
X0246283Y0043364D02*
X0209300Y0043364D01*
X0209300Y0041766D02*
X0246283Y0041766D01*
X0246283Y0040167D02*
X0209300Y0040167D01*
X0209300Y0038569D02*
X0246283Y0038569D01*
X0246283Y0036970D02*
X0209300Y0036970D01*
X0209300Y0035372D02*
X0246283Y0035372D01*
X0246283Y0033773D02*
X0209300Y0033773D01*
X0213044Y0032175D02*
X0217496Y0032175D01*
X0217738Y0032417D02*
X0216107Y0030785D01*
X0215224Y0028654D01*
X0215224Y0026346D01*
X0216107Y0024215D01*
X0217738Y0022583D01*
X0219870Y0021700D01*
X0222177Y0021700D01*
X0224309Y0022583D01*
X0225941Y0024215D01*
X0226824Y0026346D01*
X0226824Y0028654D01*
X0225941Y0030785D01*
X0224309Y0032417D01*
X0222177Y0033300D01*
X0219870Y0033300D01*
X0217738Y0032417D01*
X0216020Y0030576D02*
X0213044Y0030576D01*
X0213044Y0028978D02*
X0215358Y0028978D01*
X0215224Y0027379D02*
X0213044Y0027379D01*
X0213044Y0025781D02*
X0215458Y0025781D01*
X0216139Y0024182D02*
X0213044Y0024182D01*
X0212873Y0022584D02*
X0217738Y0022584D01*
X0224310Y0022584D02*
X0231517Y0022584D01*
X0231518Y0022583D02*
X0233649Y0021700D01*
X0235957Y0021700D01*
X0238089Y0022583D01*
X0239720Y0024215D01*
X0240603Y0026346D01*
X0240603Y0028654D01*
X0239720Y0030785D01*
X0238089Y0032417D01*
X0235957Y0033300D01*
X0233649Y0033300D01*
X0231518Y0032417D01*
X0229886Y0030785D01*
X0229003Y0028654D01*
X0229003Y0026346D01*
X0229886Y0024215D01*
X0231518Y0022583D01*
X0229919Y0024182D02*
X0225908Y0024182D01*
X0226589Y0025781D02*
X0229237Y0025781D01*
X0229003Y0027379D02*
X0226824Y0027379D01*
X0226689Y0028978D02*
X0229137Y0028978D01*
X0229799Y0030576D02*
X0226027Y0030576D01*
X0224551Y0032175D02*
X0231275Y0032175D01*
X0238331Y0032175D02*
X0245055Y0032175D01*
X0243579Y0030576D02*
X0239807Y0030576D01*
X0240469Y0028978D02*
X0242917Y0028978D01*
X0242783Y0027379D02*
X0240603Y0027379D01*
X0240369Y0025781D02*
X0243017Y0025781D01*
X0243698Y0024182D02*
X0239688Y0024182D01*
X0238089Y0022584D02*
X0245297Y0022584D01*
X0251869Y0022584D02*
X0255000Y0022584D01*
X0255000Y0020985D02*
X0182685Y0020985D01*
X0182685Y0019387D02*
X0255000Y0019387D01*
X0258235Y0012993D02*
X0259641Y0012993D01*
X0261000Y0035372D02*
X0262977Y0035372D01*
X0267023Y0035372D02*
X0270583Y0035372D01*
X0269950Y0036970D02*
X0269112Y0036970D01*
X0269873Y0038569D02*
X0269950Y0038569D01*
X0269950Y0041766D02*
X0269735Y0041766D01*
X0269950Y0043364D02*
X0268777Y0043364D01*
X0270917Y0044963D02*
X0266215Y0044963D01*
X0263785Y0044963D02*
X0261000Y0044963D01*
X0261000Y0046561D02*
X0272000Y0046561D01*
X0272000Y0048160D02*
X0261000Y0048160D01*
X0261000Y0049758D02*
X0272000Y0049758D01*
X0272000Y0051357D02*
X0261000Y0051357D01*
X0261000Y0052955D02*
X0272000Y0052955D01*
X0272000Y0054554D02*
X0260604Y0054554D01*
X0259090Y0056152D02*
X0272000Y0056152D01*
X0272000Y0057751D02*
X0257492Y0057751D01*
X0256000Y0059349D02*
X0270408Y0059349D01*
X0269500Y0060948D02*
X0256000Y0060948D01*
X0256000Y0062546D02*
X0269500Y0062546D01*
X0259278Y0070539D02*
X0256000Y0070539D01*
X0256662Y0072137D02*
X0258338Y0072137D01*
X0258338Y0073736D02*
X0256662Y0073736D01*
X0256662Y0075334D02*
X0258338Y0075334D01*
X0258338Y0076933D02*
X0256662Y0076933D01*
X0262500Y0074587D02*
X0262500Y0087000D01*
X0261000Y0088500D01*
X0245201Y0088500D01*
X0244941Y0088760D01*
X0245271Y0094517D02*
X0242607Y0094517D01*
X0242607Y0096115D02*
X0244504Y0096115D01*
X0244413Y0097714D02*
X0242607Y0097714D01*
X0242607Y0099312D02*
X0244909Y0099312D01*
X0246249Y0100911D02*
X0242607Y0100911D01*
X0242607Y0102509D02*
X0339000Y0102509D01*
X0339000Y0100911D02*
X0251507Y0100911D01*
X0252846Y0099312D02*
X0339000Y0099312D01*
X0339000Y0097714D02*
X0253343Y0097714D01*
X0253252Y0096115D02*
X0339000Y0096115D01*
X0339000Y0094517D02*
X0252485Y0094517D01*
X0251793Y0092918D02*
X0322735Y0092918D01*
X0322275Y0091320D02*
X0252253Y0091320D01*
X0252117Y0084926D02*
X0259900Y0084926D01*
X0264849Y0088123D02*
X0322275Y0088123D01*
X0322275Y0089721D02*
X0263456Y0089721D01*
X0265100Y0086524D02*
X0322275Y0086524D01*
X0322411Y0084926D02*
X0265100Y0084926D01*
X0265100Y0083327D02*
X0326987Y0083327D01*
X0326987Y0081729D02*
X0265100Y0081729D01*
X0242607Y0104108D02*
X0339000Y0104108D01*
X0339000Y0105706D02*
X0242607Y0105706D01*
X0242131Y0107305D02*
X0339000Y0107305D01*
X0339000Y0108903D02*
X0242607Y0108903D01*
X0242607Y0110502D02*
X0339000Y0110502D01*
X0339000Y0112100D02*
X0242607Y0112100D01*
X0242429Y0113699D02*
X0339000Y0113699D01*
X0339000Y0115297D02*
X0203300Y0115297D01*
X0203300Y0113699D02*
X0231704Y0113699D01*
X0227296Y0116896D02*
X0203300Y0116896D01*
X0203300Y0118494D02*
X0226319Y0118494D01*
X0226319Y0120093D02*
X0203300Y0120093D01*
X0203300Y0121691D02*
X0226319Y0121691D01*
X0226482Y0123290D02*
X0203300Y0123290D01*
X0203300Y0124888D02*
X0241700Y0124888D01*
X0241700Y0126487D02*
X0241611Y0126487D01*
X0246300Y0126487D02*
X0339000Y0126487D01*
X0339000Y0128085D02*
X0246300Y0128085D01*
X0246300Y0129684D02*
X0339000Y0129684D01*
X0339000Y0131282D02*
X0246300Y0131282D01*
X0246300Y0132881D02*
X0339000Y0132881D01*
X0339000Y0134479D02*
X0246300Y0134479D01*
X0245175Y0136078D02*
X0339000Y0136078D01*
X0339000Y0137676D02*
X0242565Y0137676D01*
X0242607Y0139275D02*
X0339000Y0139275D01*
X0339000Y0140873D02*
X0242607Y0140873D01*
X0242607Y0140224D02*
X0242607Y0142245D01*
X0242484Y0142703D01*
X0242247Y0143113D01*
X0241912Y0143448D01*
X0241502Y0143685D01*
X0241044Y0143808D01*
X0237251Y0143808D01*
X0237251Y0140224D01*
X0242607Y0140224D01*
X0242546Y0142472D02*
X0339000Y0142472D01*
X0339000Y0144070D02*
X0231823Y0144070D01*
X0231588Y0142472D02*
X0230225Y0142472D01*
X0231527Y0140873D02*
X0224400Y0140873D01*
X0222800Y0139275D02*
X0231527Y0139275D01*
X0231569Y0137676D02*
X0222800Y0137676D01*
X0225865Y0147268D02*
X0227700Y0147268D01*
X0227700Y0148866D02*
X0224266Y0148866D01*
X0223991Y0150465D02*
X0228212Y0150465D01*
X0229810Y0152063D02*
X0225589Y0152063D01*
X0226914Y0153662D02*
X0339000Y0153662D01*
X0339000Y0155260D02*
X0228513Y0155260D01*
X0230111Y0156859D02*
X0231679Y0156859D01*
X0228401Y0161654D02*
X0225180Y0161654D01*
X0226051Y0163253D02*
X0232341Y0163253D01*
X0232581Y0165798D02*
X0241553Y0165798D01*
X0242607Y0166853D01*
X0242607Y0172281D01*
X0241553Y0173335D01*
X0232581Y0173335D01*
X0231527Y0172281D01*
X0231527Y0171867D01*
X0231386Y0171867D01*
X0229300Y0173953D01*
X0227953Y0175300D01*
X0227767Y0175300D01*
X0228162Y0175695D01*
X0228162Y0176809D01*
X0231527Y0176809D01*
X0231527Y0176695D01*
X0232581Y0175641D01*
X0241553Y0175641D01*
X0242607Y0176695D01*
X0242607Y0182124D01*
X0241905Y0182826D01*
X0244191Y0182826D01*
X0243428Y0180986D01*
X0243428Y0178818D01*
X0244258Y0176815D01*
X0245791Y0175282D01*
X0247794Y0174452D01*
X0249962Y0174452D01*
X0251965Y0175282D01*
X0253498Y0176815D01*
X0254328Y0178818D01*
X0254328Y0180986D01*
X0253498Y0182989D01*
X0252253Y0184234D01*
X0252253Y0191277D01*
X0251198Y0192331D01*
X0238684Y0192331D01*
X0237629Y0191277D01*
X0237629Y0190179D01*
X0233629Y0190179D01*
X0232627Y0191181D01*
X0227373Y0191181D01*
X0226319Y0190127D01*
X0226319Y0184873D01*
X0227373Y0183819D01*
X0232627Y0183819D01*
X0233681Y0184873D01*
X0233681Y0184979D01*
X0237629Y0184979D01*
X0237629Y0183880D01*
X0238332Y0183178D01*
X0232581Y0183178D01*
X0231527Y0182124D01*
X0231527Y0182009D01*
X0228162Y0182009D01*
X0228162Y0182305D01*
X0227108Y0183359D01*
X0220892Y0183359D01*
X0219947Y0182414D01*
X0219803Y0182664D01*
X0219467Y0182999D01*
X0219057Y0183236D01*
X0218599Y0183359D01*
X0216381Y0183359D01*
X0216381Y0179381D01*
X0215619Y0179381D01*
X0215619Y0178619D01*
X0211838Y0178619D01*
X0211838Y0176204D01*
X0211960Y0175746D01*
X0212197Y0175336D01*
X0212233Y0175300D01*
X0205681Y0175300D01*
X0205681Y0175627D01*
X0204627Y0176681D01*
X0199373Y0176681D01*
X0198319Y0175627D01*
X0198319Y0170373D01*
X0199373Y0169319D01*
X0204627Y0169319D01*
X0205681Y0170373D01*
X0205681Y0170700D01*
X0226047Y0170700D01*
X0229480Y0167267D01*
X0231527Y0167267D01*
X0231527Y0166853D01*
X0232581Y0165798D01*
X0231930Y0166450D02*
X0226051Y0166450D01*
X0226051Y0167081D02*
X0222829Y0170303D01*
X0220751Y0170303D01*
X0220751Y0165003D01*
X0226051Y0165003D01*
X0226051Y0167081D01*
X0225084Y0168048D02*
X0228699Y0168048D01*
X0227101Y0169647D02*
X0223486Y0169647D01*
X0220751Y0169647D02*
X0220351Y0169647D01*
X0220351Y0168048D02*
X0220751Y0168048D01*
X0220751Y0166450D02*
X0220351Y0166450D01*
X0220751Y0164851D02*
X0339000Y0164851D01*
X0339000Y0163253D02*
X0241793Y0163253D01*
X0242607Y0161654D02*
X0339000Y0161654D01*
X0339000Y0160056D02*
X0242607Y0160056D01*
X0242607Y0158457D02*
X0339000Y0158457D01*
X0339000Y0156859D02*
X0242455Y0156859D01*
X0242607Y0152063D02*
X0339000Y0152063D01*
X0339000Y0150465D02*
X0242607Y0150465D01*
X0242607Y0148866D02*
X0339000Y0148866D01*
X0339000Y0147268D02*
X0242607Y0147268D01*
X0237251Y0142472D02*
X0236883Y0142472D01*
X0236883Y0140873D02*
X0237251Y0140873D01*
X0232300Y0145669D02*
X0339000Y0145669D01*
X0339000Y0124888D02*
X0246300Y0124888D01*
X0246300Y0123290D02*
X0339000Y0123290D01*
X0339000Y0121691D02*
X0246300Y0121691D01*
X0246300Y0120093D02*
X0339000Y0120093D01*
X0339000Y0118494D02*
X0244747Y0118494D01*
X0241863Y0116896D02*
X0339000Y0116896D01*
X0339000Y0092918D02*
X0336438Y0092918D01*
X0336898Y0091320D02*
X0339000Y0091320D01*
X0339000Y0089721D02*
X0336898Y0089721D01*
X0336898Y0088123D02*
X0339000Y0088123D01*
X0339000Y0086524D02*
X0336898Y0086524D01*
X0336762Y0084926D02*
X0339000Y0084926D01*
X0339000Y0083327D02*
X0332187Y0083327D01*
X0332187Y0081729D02*
X0339000Y0081729D01*
X0339000Y0080130D02*
X0332187Y0080130D01*
X0332187Y0078532D02*
X0339000Y0078532D01*
X0339000Y0076933D02*
X0331969Y0076933D01*
X0330622Y0075334D02*
X0339000Y0075334D01*
X0339000Y0073736D02*
X0329023Y0073736D01*
X0329300Y0072137D02*
X0339000Y0072137D01*
X0339000Y0070539D02*
X0329218Y0070539D01*
X0328556Y0068940D02*
X0339000Y0068940D01*
X0339000Y0067342D02*
X0327155Y0067342D01*
X0329300Y0062546D02*
X0339000Y0062546D01*
X0339000Y0060948D02*
X0329300Y0060948D01*
X0329300Y0059349D02*
X0339000Y0059349D01*
X0339000Y0057751D02*
X0329300Y0057751D01*
X0329300Y0056152D02*
X0339000Y0056152D01*
X0339000Y0054554D02*
X0329300Y0054554D01*
X0328891Y0052955D02*
X0339000Y0052955D01*
X0339000Y0051357D02*
X0326500Y0051357D01*
X0326500Y0049758D02*
X0339000Y0049758D01*
X0339000Y0048160D02*
X0326500Y0048160D01*
X0326500Y0046561D02*
X0339000Y0046561D01*
X0339000Y0044963D02*
X0326500Y0044963D01*
X0325607Y0043364D02*
X0339000Y0043364D01*
X0339000Y0041766D02*
X0324008Y0041766D01*
X0322001Y0040167D02*
X0339000Y0040167D01*
X0339000Y0038569D02*
X0308000Y0038569D01*
X0308000Y0036970D02*
X0323659Y0036970D01*
X0326341Y0036970D02*
X0339000Y0036970D01*
X0339000Y0035372D02*
X0330409Y0035372D01*
X0332294Y0033773D02*
X0339000Y0033773D01*
X0339000Y0032175D02*
X0333362Y0032175D01*
X0334125Y0030576D02*
X0339000Y0030576D01*
X0339000Y0028978D02*
X0334443Y0028978D01*
X0334713Y0027379D02*
X0339000Y0027379D01*
X0339000Y0025781D02*
X0334395Y0025781D01*
X0334077Y0024182D02*
X0339000Y0024182D01*
X0339000Y0022584D02*
X0333201Y0022584D01*
X0332132Y0020985D02*
X0339000Y0020985D01*
X0339000Y0019387D02*
X0330047Y0019387D01*
X0327225Y0017788D02*
X0339000Y0017788D01*
X0339000Y0016190D02*
X0329424Y0016190D01*
X0330344Y0014591D02*
X0339000Y0014591D01*
X0339000Y0012993D02*
X0330737Y0012993D01*
X0330737Y0011394D02*
X0339000Y0011394D01*
X0339000Y0009796D02*
X0330089Y0009796D01*
X0328810Y0008197D02*
X0339000Y0008197D01*
X0322775Y0017788D02*
X0307600Y0017788D01*
X0307600Y0019387D02*
X0319953Y0019387D01*
X0317868Y0020985D02*
X0307600Y0020985D01*
X0311271Y0022584D02*
X0316799Y0022584D01*
X0315923Y0024182D02*
X0312095Y0024182D01*
X0312095Y0025781D02*
X0315605Y0025781D01*
X0315287Y0027379D02*
X0312095Y0027379D01*
X0312095Y0028978D02*
X0315557Y0028978D01*
X0315875Y0030576D02*
X0312095Y0030576D01*
X0311513Y0032175D02*
X0316638Y0032175D01*
X0317706Y0033773D02*
X0308000Y0033773D01*
X0308000Y0035372D02*
X0319591Y0035372D01*
X0305374Y0027500D02*
X0305000Y0027126D01*
X0306867Y0016190D02*
X0320576Y0016190D01*
X0319656Y0014591D02*
X0305268Y0014591D01*
X0295289Y0044963D02*
X0290000Y0044963D01*
X0290000Y0046561D02*
X0293161Y0046561D01*
X0292309Y0048160D02*
X0290000Y0048160D01*
X0290000Y0049758D02*
X0292000Y0049758D01*
X0292109Y0051357D02*
X0290000Y0051357D01*
X0290000Y0052955D02*
X0292771Y0052955D01*
X0294276Y0054554D02*
X0290000Y0054554D01*
X0290395Y0056152D02*
X0293569Y0056152D01*
X0301133Y0064145D02*
X0339000Y0064145D01*
X0339000Y0065743D02*
X0301022Y0065743D01*
X0323500Y0071890D02*
X0329587Y0077976D01*
X0329587Y0088760D01*
X0261223Y0043364D02*
X0261000Y0043364D01*
X0218700Y0078532D02*
X0162375Y0078532D01*
X0162375Y0080130D02*
X0218700Y0080130D01*
X0218700Y0081729D02*
X0162333Y0081729D01*
X0162740Y0084926D02*
X0162740Y0084926D01*
X0162740Y0086524D02*
X0162740Y0086524D01*
X0162740Y0087437D02*
X0162740Y0087437D01*
X0162740Y0088123D02*
X0162740Y0088123D01*
X0162740Y0089721D02*
X0162740Y0089721D01*
X0162619Y0091320D02*
X0163381Y0091320D01*
X0163381Y0092918D02*
X0162619Y0092918D01*
X0162619Y0094517D02*
X0163381Y0094517D01*
X0163381Y0095881D02*
X0167162Y0095881D01*
X0167162Y0098296D01*
X0167040Y0098754D01*
X0166803Y0099164D01*
X0166467Y0099499D01*
X0166057Y0099736D01*
X0165599Y0099859D01*
X0163381Y0099859D01*
X0163381Y0095881D01*
X0163381Y0096115D02*
X0162619Y0096115D01*
X0162619Y0097714D02*
X0163381Y0097714D01*
X0163381Y0099312D02*
X0162619Y0099312D01*
X0159345Y0099312D02*
X0158655Y0099312D01*
X0166655Y0099312D02*
X0202700Y0099312D01*
X0202700Y0097714D02*
X0167162Y0097714D01*
X0167162Y0096115D02*
X0203632Y0096115D01*
X0205231Y0094517D02*
X0167162Y0094517D01*
X0159846Y0091320D02*
X0158286Y0091320D01*
X0158635Y0089721D02*
X0159439Y0089721D01*
X0159365Y0088123D02*
X0158635Y0088123D01*
X0158635Y0086524D02*
X0159365Y0086524D01*
X0159514Y0084926D02*
X0158635Y0084926D01*
X0151714Y0091320D02*
X0147933Y0091320D01*
X0146335Y0092918D02*
X0150838Y0092918D01*
X0150838Y0097714D02*
X0108881Y0097714D01*
X0109241Y0099312D02*
X0110665Y0099312D01*
X0110641Y0100911D02*
X0109241Y0100911D01*
X0108677Y0102509D02*
X0110641Y0102509D01*
X0110641Y0104108D02*
X0109241Y0104108D01*
X0109241Y0105706D02*
X0111239Y0105706D01*
X0110641Y0107305D02*
X0108863Y0107305D01*
X0103110Y0105000D02*
X0103110Y0105000D01*
X0103110Y0110000D02*
X0115000Y0110000D01*
X0119359Y0107305D02*
X0202700Y0107305D01*
X0202700Y0105706D02*
X0118761Y0105706D01*
X0119359Y0104108D02*
X0202700Y0104108D01*
X0202700Y0102509D02*
X0119359Y0102509D01*
X0119359Y0100911D02*
X0202700Y0100911D01*
X0200844Y0108903D02*
X0121156Y0108903D01*
X0122754Y0110502D02*
X0199246Y0110502D01*
X0198700Y0112100D02*
X0123300Y0112100D01*
X0123300Y0113699D02*
X0198700Y0113699D01*
X0198700Y0115297D02*
X0123300Y0115297D01*
X0123300Y0116896D02*
X0198700Y0116896D01*
X0198700Y0118494D02*
X0123300Y0118494D01*
X0123300Y0120093D02*
X0198700Y0120093D01*
X0198700Y0121691D02*
X0123300Y0121691D01*
X0123300Y0123290D02*
X0198700Y0123290D01*
X0198700Y0124888D02*
X0123300Y0124888D01*
X0123300Y0126487D02*
X0198700Y0126487D01*
X0198700Y0128085D02*
X0123300Y0128085D01*
X0123300Y0129684D02*
X0198700Y0129684D01*
X0198700Y0131282D02*
X0123300Y0131282D01*
X0123300Y0132881D02*
X0198700Y0132881D01*
X0198700Y0134479D02*
X0123300Y0134479D01*
X0123300Y0136078D02*
X0198700Y0136078D01*
X0198700Y0137676D02*
X0123300Y0137676D01*
X0121978Y0139275D02*
X0198700Y0139275D01*
X0198700Y0140873D02*
X0120379Y0140873D01*
X0117681Y0142472D02*
X0198700Y0142472D01*
X0198700Y0144070D02*
X0117237Y0144070D01*
X0110763Y0144070D02*
X0104606Y0144070D01*
X0105683Y0142472D02*
X0110319Y0142472D01*
X0110319Y0140873D02*
X0105710Y0140873D01*
X0105710Y0139275D02*
X0110319Y0139275D01*
X0111016Y0137676D02*
X0108491Y0137676D01*
X0109241Y0136078D02*
X0118669Y0136078D01*
X0118700Y0134479D02*
X0109241Y0134479D01*
X0109049Y0132881D02*
X0110951Y0132881D01*
X0110641Y0131282D02*
X0109241Y0131282D01*
X0109241Y0129684D02*
X0114619Y0129684D01*
X0114619Y0131282D02*
X0115381Y0131282D01*
X0115381Y0132881D02*
X0114619Y0132881D01*
X0110641Y0128085D02*
X0109241Y0128085D01*
X0109241Y0126487D02*
X0110752Y0126487D01*
X0110922Y0124888D02*
X0109241Y0124888D01*
X0109241Y0123290D02*
X0110641Y0123290D01*
X0115000Y0121500D02*
X0115000Y0120000D01*
X0116000Y0120000D01*
X0115000Y0120000D02*
X0103110Y0120000D01*
X0103110Y0125000D01*
X0103110Y0130000D01*
X0103110Y0135000D01*
X0103110Y0141890D01*
X0100000Y0145000D01*
X0095000Y0145000D01*
X0095000Y0149000D01*
X0095000Y0150000D01*
X0095000Y0151000D01*
X0095000Y0155000D01*
X0099162Y0155260D02*
X0198700Y0155260D01*
X0198700Y0153662D02*
X0103646Y0153662D01*
X0104681Y0152063D02*
X0198700Y0152063D01*
X0198700Y0150465D02*
X0104681Y0150465D01*
X0104681Y0148866D02*
X0198700Y0148866D01*
X0198700Y0147268D02*
X0104575Y0147268D01*
X0103008Y0145669D02*
X0198700Y0145669D01*
X0198700Y0156859D02*
X0099162Y0156859D01*
X0099010Y0158457D02*
X0198700Y0158457D01*
X0198700Y0160056D02*
X0100300Y0160056D01*
X0100300Y0161654D02*
X0198700Y0161654D01*
X0198700Y0163253D02*
X0100300Y0163253D01*
X0100300Y0164851D02*
X0198700Y0164851D01*
X0200197Y0166450D02*
X0100300Y0166450D01*
X0100300Y0168048D02*
X0100992Y0168048D01*
X0100641Y0169647D02*
X0100300Y0169647D01*
X0100300Y0171245D02*
X0104619Y0171245D01*
X0105381Y0171245D02*
X0198319Y0171245D01*
X0198319Y0172844D02*
X0109359Y0172844D01*
X0109267Y0174442D02*
X0198319Y0174442D01*
X0198733Y0176041D02*
X0109008Y0176041D01*
X0109359Y0177639D02*
X0211838Y0177639D01*
X0211882Y0176041D02*
X0205267Y0176041D01*
X0204954Y0169647D02*
X0207617Y0169647D01*
X0206018Y0168048D02*
X0109008Y0168048D01*
X0109359Y0169647D02*
X0199046Y0169647D01*
X0211838Y0179381D02*
X0211838Y0181796D01*
X0211960Y0182254D01*
X0212197Y0182664D01*
X0212533Y0182999D01*
X0212943Y0183236D01*
X0213401Y0183359D01*
X0215619Y0183359D01*
X0215619Y0179381D01*
X0211838Y0179381D01*
X0211838Y0180836D02*
X0109359Y0180836D01*
X0109359Y0179238D02*
X0215619Y0179238D01*
X0215619Y0180836D02*
X0216381Y0180836D01*
X0216381Y0182435D02*
X0215619Y0182435D01*
X0212065Y0182435D02*
X0109359Y0182435D01*
X0108681Y0184033D02*
X0227159Y0184033D01*
X0226319Y0185632D02*
X0108681Y0185632D01*
X0108681Y0187230D02*
X0226319Y0187230D01*
X0226319Y0188829D02*
X0108479Y0188829D01*
X0105000Y0186000D02*
X0105000Y0179500D01*
X0100641Y0182435D02*
X0095359Y0182435D01*
X0095359Y0180836D02*
X0097084Y0180836D01*
X0095700Y0179238D02*
X0095359Y0179238D01*
X0095359Y0177639D02*
X0095700Y0177639D01*
X0095700Y0176041D02*
X0095008Y0176041D01*
X0095267Y0174442D02*
X0095700Y0174442D01*
X0095700Y0172844D02*
X0095359Y0172844D01*
X0095700Y0171245D02*
X0091381Y0171245D01*
X0090619Y0171245D02*
X0086300Y0171245D01*
X0086300Y0169647D02*
X0086641Y0169647D01*
X0086300Y0168048D02*
X0086992Y0168048D01*
X0086300Y0166450D02*
X0095700Y0166450D01*
X0095700Y0168048D02*
X0095008Y0168048D01*
X0095359Y0169647D02*
X0095700Y0169647D01*
X0091381Y0169647D02*
X0090619Y0169647D01*
X0090619Y0168048D02*
X0091381Y0168048D01*
X0095700Y0164851D02*
X0086300Y0164851D01*
X0086300Y0163253D02*
X0095700Y0163253D01*
X0104619Y0168048D02*
X0105381Y0168048D01*
X0105381Y0169647D02*
X0104619Y0169647D01*
X0100641Y0172844D02*
X0100300Y0172844D01*
X0100300Y0174442D02*
X0100733Y0174442D01*
X0100992Y0176041D02*
X0100300Y0176041D01*
X0101319Y0184033D02*
X0094681Y0184033D01*
X0094681Y0185632D02*
X0101319Y0185632D01*
X0101319Y0187230D02*
X0094681Y0187230D01*
X0094479Y0188829D02*
X0101521Y0188829D01*
X0095190Y0195223D02*
X0322275Y0195223D01*
X0322275Y0196821D02*
X0225027Y0196821D01*
X0224905Y0196700D02*
X0226253Y0198047D01*
X0226984Y0198779D01*
X0229353Y0198779D01*
X0230232Y0199143D01*
X0230905Y0199815D01*
X0231268Y0200694D01*
X0231268Y0204401D01*
X0230905Y0205279D01*
X0230232Y0205952D01*
X0230116Y0206000D01*
X0230232Y0206048D01*
X0230905Y0206721D01*
X0231268Y0207599D01*
X0231268Y0211306D01*
X0230905Y0212185D01*
X0230232Y0212857D01*
X0229353Y0213221D01*
X0225647Y0213221D01*
X0224768Y0212857D01*
X0224095Y0212185D01*
X0223916Y0211753D01*
X0216500Y0211753D01*
X0215153Y0210405D01*
X0215106Y0210359D01*
X0210892Y0210359D01*
X0209947Y0209414D01*
X0209803Y0209664D01*
X0209467Y0209999D01*
X0209057Y0210236D01*
X0208599Y0210359D01*
X0206381Y0210359D01*
X0206381Y0206381D01*
X0205619Y0206381D01*
X0205619Y0205619D01*
X0201838Y0205619D01*
X0201838Y0203204D01*
X0201960Y0202746D01*
X0202197Y0202336D01*
X0202533Y0202001D01*
X0202943Y0201764D01*
X0203401Y0201641D01*
X0205619Y0201641D01*
X0205619Y0205619D01*
X0206381Y0205619D01*
X0206381Y0201641D01*
X0208599Y0201641D01*
X0209057Y0201764D01*
X0209467Y0202001D01*
X0209803Y0202336D01*
X0209947Y0202586D01*
X0210892Y0201641D01*
X0217108Y0201641D01*
X0218162Y0202695D01*
X0218162Y0206910D01*
X0218405Y0207153D01*
X0223916Y0207153D01*
X0224095Y0206721D01*
X0224768Y0206048D01*
X0224884Y0206000D01*
X0224768Y0205952D01*
X0224095Y0205279D01*
X0223731Y0204401D01*
X0223731Y0202031D01*
X0223000Y0201300D01*
X0202953Y0201300D01*
X0199402Y0204850D01*
X0199402Y0208320D01*
X0198348Y0209375D01*
X0193313Y0209375D01*
X0192259Y0208320D01*
X0192259Y0203680D01*
X0193313Y0202625D01*
X0195122Y0202625D01*
X0201047Y0196700D01*
X0224905Y0196700D01*
X0226625Y0198420D02*
X0322275Y0198420D01*
X0322275Y0199938D02*
X0323329Y0200993D01*
X0326319Y0200993D01*
X0326319Y0204627D01*
X0327373Y0205681D01*
X0332627Y0205681D01*
X0333681Y0204627D01*
X0333681Y0200993D01*
X0335844Y0200993D01*
X0336898Y0199938D01*
X0336898Y0192542D01*
X0335844Y0191487D01*
X0323329Y0191487D01*
X0322275Y0192542D01*
X0322275Y0199938D01*
X0322355Y0200018D02*
X0230989Y0200018D01*
X0231268Y0201617D02*
X0326319Y0201617D01*
X0326319Y0203215D02*
X0231268Y0203215D01*
X0231097Y0204814D02*
X0326506Y0204814D01*
X0330000Y0202000D02*
X0330000Y0196240D01*
X0329587Y0196240D01*
X0333681Y0201617D02*
X0339000Y0201617D01*
X0339000Y0203215D02*
X0333681Y0203215D01*
X0333494Y0204814D02*
X0339000Y0204814D01*
X0339000Y0206412D02*
X0230596Y0206412D01*
X0231268Y0208011D02*
X0339000Y0208011D01*
X0339000Y0209609D02*
X0231268Y0209609D01*
X0231268Y0211208D02*
X0339000Y0211208D01*
X0339000Y0212806D02*
X0230283Y0212806D01*
X0226984Y0216779D02*
X0226253Y0216047D01*
X0224905Y0214700D01*
X0201047Y0214700D01*
X0195122Y0220625D01*
X0193313Y0220625D01*
X0192259Y0221680D01*
X0192259Y0226320D01*
X0193313Y0227375D01*
X0198348Y0227375D01*
X0199402Y0226320D01*
X0199402Y0222850D01*
X0202953Y0219300D01*
X0223000Y0219300D01*
X0223731Y0220031D01*
X0223731Y0222401D01*
X0224095Y0223279D01*
X0224768Y0223952D01*
X0224884Y0224000D01*
X0224768Y0224048D01*
X0224095Y0224721D01*
X0223916Y0225153D01*
X0218405Y0225153D01*
X0218162Y0224910D01*
X0218162Y0220695D01*
X0217108Y0219641D01*
X0210892Y0219641D01*
X0209947Y0220586D01*
X0209803Y0220336D01*
X0209467Y0220001D01*
X0209057Y0219764D01*
X0208599Y0219641D01*
X0206381Y0219641D01*
X0206381Y0223619D01*
X0205619Y0223619D01*
X0205619Y0219641D01*
X0203401Y0219641D01*
X0202943Y0219764D01*
X0202533Y0220001D01*
X0202197Y0220336D01*
X0201960Y0220746D01*
X0201838Y0221204D01*
X0201838Y0223619D01*
X0205619Y0223619D01*
X0205619Y0224381D01*
X0201838Y0224381D01*
X0201838Y0226796D01*
X0201960Y0227254D01*
X0202197Y0227664D01*
X0202533Y0227999D01*
X0202943Y0228236D01*
X0203401Y0228359D01*
X0205619Y0228359D01*
X0205619Y0224381D01*
X0206381Y0224381D01*
X0206381Y0228359D01*
X0208599Y0228359D01*
X0209057Y0228236D01*
X0209467Y0227999D01*
X0209803Y0227664D01*
X0209947Y0227414D01*
X0210892Y0228359D01*
X0215106Y0228359D01*
X0215153Y0228405D01*
X0216500Y0229753D01*
X0223916Y0229753D01*
X0224095Y0230185D01*
X0224768Y0230857D01*
X0225647Y0231221D01*
X0229353Y0231221D01*
X0230232Y0230857D01*
X0230905Y0230185D01*
X0231268Y0229306D01*
X0231268Y0225599D01*
X0230905Y0224721D01*
X0230232Y0224048D01*
X0230116Y0224000D01*
X0230232Y0223952D01*
X0230905Y0223279D01*
X0231268Y0222401D01*
X0231268Y0218694D01*
X0230905Y0217815D01*
X0230232Y0217143D01*
X0229353Y0216779D01*
X0226984Y0216779D01*
X0226209Y0216003D02*
X0259600Y0216003D01*
X0260203Y0215400D02*
X0267255Y0215400D01*
X0267689Y0215833D01*
X0268122Y0215400D01*
X0275174Y0215400D01*
X0275607Y0215833D01*
X0276041Y0215400D01*
X0277822Y0215400D01*
X0279081Y0216659D01*
X0279081Y0220671D01*
X0280052Y0220671D01*
X0280052Y0216659D01*
X0281312Y0215400D01*
X0283093Y0215400D01*
X0284185Y0216492D01*
X0285277Y0215400D01*
X0289694Y0215400D01*
X0290953Y0216659D01*
X0292271Y0217977D01*
X0292271Y0219009D01*
X0293413Y0216725D01*
X0293646Y0216025D01*
X0293802Y0215947D01*
X0293880Y0215792D01*
X0294579Y0215559D01*
X0295239Y0215229D01*
X0295404Y0215284D01*
X0295569Y0215229D01*
X0296229Y0215559D01*
X0296929Y0215792D01*
X0297007Y0215947D01*
X0297162Y0216025D01*
X0297396Y0216725D01*
X0300028Y0221989D01*
X0301578Y0221989D01*
X0302896Y0223307D01*
X0303404Y0223307D01*
X0298538Y0218441D01*
X0298538Y0216659D01*
X0299797Y0215400D01*
X0301578Y0215400D01*
X0306849Y0215400D01*
X0308109Y0216659D01*
X0308109Y0218441D01*
X0306849Y0219700D01*
X0305878Y0219700D01*
X0306849Y0220671D01*
X0308109Y0221931D01*
X0308109Y0225030D01*
X0306791Y0226347D01*
X0305531Y0227607D01*
X0301115Y0227607D01*
X0298538Y0225030D01*
X0298538Y0224976D01*
X0298205Y0225142D01*
X0296515Y0224579D01*
X0295404Y0222358D01*
X0294293Y0224579D01*
X0292604Y0225142D01*
X0292271Y0224976D01*
X0292271Y0225030D01*
X0290953Y0226347D01*
X0289694Y0227607D01*
X0285277Y0227607D01*
X0284185Y0226515D01*
X0283111Y0227588D01*
X0283093Y0227607D01*
X0281312Y0227607D01*
X0279567Y0225862D01*
X0277822Y0227607D01*
X0276041Y0227607D01*
X0275607Y0227173D01*
X0275174Y0227607D01*
X0268122Y0227607D01*
X0266862Y0226347D01*
X0266862Y0219700D01*
X0263244Y0219700D01*
X0263244Y0226347D01*
X0261984Y0227607D01*
X0260203Y0227607D01*
X0258944Y0226347D01*
X0258944Y0216659D01*
X0260203Y0215400D01*
X0258944Y0217602D02*
X0230691Y0217602D01*
X0231268Y0219201D02*
X0258944Y0219201D01*
X0258944Y0220799D02*
X0231268Y0220799D01*
X0231268Y0222398D02*
X0258944Y0222398D01*
X0258944Y0223996D02*
X0230125Y0223996D01*
X0231267Y0225595D02*
X0258944Y0225595D01*
X0259789Y0227193D02*
X0231268Y0227193D01*
X0231268Y0228792D02*
X0339000Y0228792D01*
X0339000Y0230390D02*
X0230699Y0230390D01*
X0224301Y0230390D02*
X0190805Y0230390D01*
X0191135Y0230061D02*
X0190080Y0231115D01*
X0185046Y0231115D01*
X0184271Y0230340D01*
X0182223Y0230340D01*
X0181267Y0229944D01*
X0180536Y0229213D01*
X0179682Y0228359D01*
X0175892Y0228359D01*
X0175000Y0227467D01*
X0174108Y0228359D01*
X0167892Y0228359D01*
X0166838Y0227305D01*
X0166838Y0226600D01*
X0153077Y0226600D01*
X0152600Y0227077D01*
X0152600Y0240124D01*
X0153115Y0240337D01*
X0154663Y0241884D01*
X0155000Y0242699D01*
X0155337Y0241884D01*
X0156884Y0240337D01*
X0158906Y0239500D01*
X0161094Y0239500D01*
X0163115Y0240337D01*
X0164663Y0241884D01*
X0165000Y0242699D01*
X0165337Y0241884D01*
X0166884Y0240337D01*
X0167400Y0240124D01*
X0167400Y0236483D01*
X0167796Y0235527D01*
X0169796Y0233527D01*
X0170527Y0232796D01*
X0171483Y0232400D01*
X0286517Y0232400D01*
X0287473Y0232796D01*
X0289473Y0234796D01*
X0290204Y0235527D01*
X0290600Y0236483D01*
X0290600Y0241838D01*
X0291305Y0241838D01*
X0291819Y0242352D01*
X0291819Y0238373D01*
X0292873Y0237319D01*
X0298127Y0237319D01*
X0299181Y0238373D01*
X0299181Y0243627D01*
X0299001Y0243806D01*
X0299135Y0243939D01*
X0299135Y0248580D01*
X0298080Y0249635D01*
X0293046Y0249635D01*
X0292359Y0248948D01*
X0292359Y0249108D01*
X0291467Y0250000D01*
X0292359Y0250892D01*
X0292359Y0251052D01*
X0293046Y0250365D01*
X0298080Y0250365D01*
X0299135Y0251420D01*
X0299135Y0256061D01*
X0298080Y0257115D01*
X0293046Y0257115D01*
X0292359Y0256428D01*
X0292359Y0257108D01*
X0291305Y0258162D01*
X0284695Y0258162D01*
X0283641Y0257108D01*
X0283641Y0250892D01*
X0284533Y0250000D01*
X0283641Y0249108D01*
X0283641Y0242892D01*
X0284695Y0241838D01*
X0285400Y0241838D01*
X0285400Y0238077D01*
X0284923Y0237600D01*
X0278408Y0237600D01*
X0279181Y0238373D01*
X0279181Y0243627D01*
X0279115Y0243693D01*
X0279115Y0248580D01*
X0278061Y0249635D01*
X0273420Y0249635D01*
X0272365Y0248580D01*
X0272365Y0244173D01*
X0271819Y0243627D01*
X0271819Y0238373D01*
X0272592Y0237600D01*
X0262277Y0237600D01*
X0262473Y0237796D01*
X0263204Y0238527D01*
X0263600Y0239483D01*
X0263600Y0241838D01*
X0264305Y0241838D01*
X0265359Y0242892D01*
X0265359Y0243072D01*
X0265939Y0242491D01*
X0270580Y0242491D01*
X0271635Y0243546D01*
X0271635Y0248580D01*
X0270580Y0249635D01*
X0268365Y0249635D01*
X0265359Y0252641D01*
X0265359Y0257108D01*
X0264305Y0258162D01*
X0257695Y0258162D01*
X0256641Y0257108D01*
X0256641Y0250892D01*
X0257533Y0250000D01*
X0256641Y0249108D01*
X0256641Y0242892D01*
X0257695Y0241838D01*
X0258400Y0241838D01*
X0258400Y0241077D01*
X0257923Y0240600D01*
X0213378Y0240600D01*
X0214663Y0241884D01*
X0214876Y0242400D01*
X0217517Y0242400D01*
X0218473Y0242796D01*
X0219077Y0243400D01*
X0221641Y0243400D01*
X0221641Y0242892D01*
X0222695Y0241838D01*
X0229305Y0241838D01*
X0230359Y0242892D01*
X0230359Y0243572D01*
X0231046Y0242885D01*
X0236080Y0242885D01*
X0237135Y0243939D01*
X0237135Y0248580D01*
X0236080Y0249635D01*
X0231046Y0249635D01*
X0230359Y0248948D01*
X0230359Y0249108D01*
X0229414Y0250053D01*
X0229664Y0250197D01*
X0229999Y0250533D01*
X0230236Y0250943D01*
X0230294Y0251159D01*
X0230351Y0251060D01*
X0230686Y0250725D01*
X0231097Y0250488D01*
X0231554Y0250365D01*
X0233563Y0250365D01*
X0233563Y0253740D01*
X0233563Y0250365D01*
X0235572Y0250365D01*
X0236029Y0250488D01*
X0236440Y0250725D01*
X0236775Y0251060D01*
X0237012Y0251471D01*
X0237135Y0251928D01*
X0237135Y0253740D01*
X0233563Y0253740D01*
X0233563Y0253740D01*
X0233563Y0253740D01*
X0229991Y0253740D01*
X0229991Y0253619D01*
X0226381Y0253619D01*
X0226381Y0254381D01*
X0225619Y0254381D01*
X0225619Y0258162D01*
X0223204Y0258162D01*
X0222746Y0258040D01*
X0222336Y0257803D01*
X0222001Y0257467D01*
X0221764Y0257057D01*
X0221641Y0256599D01*
X0221641Y0254381D01*
X0225619Y0254381D01*
X0225619Y0253619D01*
X0221641Y0253619D01*
X0221641Y0251401D01*
X0221764Y0250943D01*
X0222001Y0250533D01*
X0222336Y0250197D01*
X0222586Y0250053D01*
X0221641Y0249108D01*
X0221641Y0248600D01*
X0217483Y0248600D01*
X0216527Y0248204D01*
X0215923Y0247600D01*
X0214876Y0247600D01*
X0214663Y0248115D01*
X0213115Y0249663D01*
X0211094Y0250500D01*
X0208906Y0250500D01*
X0206884Y0249663D01*
X0205337Y0248115D01*
X0205000Y0247301D01*
X0204663Y0248115D01*
X0203115Y0249663D01*
X0201094Y0250500D01*
X0198906Y0250500D01*
X0196884Y0249663D01*
X0195337Y0248115D01*
X0195000Y0247301D01*
X0194663Y0248115D01*
X0193115Y0249663D01*
X0191094Y0250500D01*
X0188906Y0250500D01*
X0186884Y0249663D01*
X0185337Y0248115D01*
X0185000Y0247301D01*
X0184663Y0248115D01*
X0183115Y0249663D01*
X0181094Y0250500D01*
X0178906Y0250500D01*
X0176884Y0249663D01*
X0175337Y0248115D01*
X0175000Y0247301D01*
X0174663Y0248115D01*
X0173115Y0249663D01*
X0171094Y0250500D01*
X0168906Y0250500D01*
X0166884Y0249663D01*
X0165337Y0248115D01*
X0165000Y0247301D01*
X0164663Y0248115D01*
X0163115Y0249663D01*
X0161094Y0250500D01*
X0158906Y0250500D01*
X0156884Y0249663D01*
X0155337Y0248115D01*
X0155000Y0247301D01*
X0154663Y0248115D01*
X0153115Y0249663D01*
X0151094Y0250500D01*
X0148906Y0250500D01*
X0146884Y0249663D01*
X0145337Y0248115D01*
X0145000Y0247301D01*
X0144663Y0248115D01*
X0143115Y0249663D01*
X0141094Y0250500D01*
X0138906Y0250500D01*
X0136884Y0249663D01*
X0135337Y0248115D01*
X0134500Y0246094D01*
X0134500Y0243906D01*
X0135337Y0241884D01*
X0136884Y0240337D01*
X0137400Y0240124D01*
X0137400Y0207483D01*
X0137796Y0206527D01*
X0139796Y0204527D01*
X0140527Y0203796D01*
X0141483Y0203400D01*
X0166838Y0203400D01*
X0166838Y0202695D01*
X0167892Y0201641D01*
X0174108Y0201641D01*
X0175000Y0202533D01*
X0175892Y0201641D01*
X0178333Y0201641D01*
X0178319Y0201627D01*
X0178319Y0196373D01*
X0179373Y0195319D01*
X0184627Y0195319D01*
X0185681Y0196373D01*
X0185681Y0198885D01*
X0190080Y0198885D01*
X0191135Y0199939D01*
X0191135Y0204580D01*
X0190080Y0205635D01*
X0185046Y0205635D01*
X0183991Y0204580D01*
X0183991Y0204549D01*
X0183787Y0204464D01*
X0183162Y0203839D01*
X0183162Y0206485D01*
X0183817Y0207140D01*
X0184271Y0207140D01*
X0185046Y0206365D01*
X0190080Y0206365D01*
X0191135Y0207420D01*
X0191135Y0212061D01*
X0190080Y0213115D01*
X0185046Y0213115D01*
X0184271Y0212340D01*
X0182223Y0212340D01*
X0181267Y0211944D01*
X0180536Y0211213D01*
X0179682Y0210359D01*
X0175892Y0210359D01*
X0175000Y0209467D01*
X0174108Y0210359D01*
X0167892Y0210359D01*
X0166838Y0209305D01*
X0166838Y0208600D01*
X0143077Y0208600D01*
X0142600Y0209077D01*
X0142600Y0240124D01*
X0143115Y0240337D01*
X0144663Y0241884D01*
X0145000Y0242699D01*
X0145337Y0241884D01*
X0146884Y0240337D01*
X0147400Y0240124D01*
X0147400Y0225483D01*
X0147796Y0224527D01*
X0150527Y0221796D01*
X0151483Y0221400D01*
X0166838Y0221400D01*
X0166838Y0220695D01*
X0167892Y0219641D01*
X0174108Y0219641D01*
X0175000Y0220533D01*
X0175892Y0219641D01*
X0178333Y0219641D01*
X0178319Y0219627D01*
X0178319Y0214373D01*
X0179373Y0213319D01*
X0184627Y0213319D01*
X0185681Y0214373D01*
X0185681Y0216885D01*
X0190080Y0216885D01*
X0191135Y0217939D01*
X0191135Y0222580D01*
X0190080Y0223635D01*
X0185046Y0223635D01*
X0183991Y0222580D01*
X0183991Y0222549D01*
X0183787Y0222464D01*
X0183162Y0221839D01*
X0183162Y0224485D01*
X0183817Y0225140D01*
X0184271Y0225140D01*
X0185046Y0224365D01*
X0190080Y0224365D01*
X0191135Y0225420D01*
X0191135Y0230061D01*
X0191135Y0228792D02*
X0215539Y0228792D01*
X0218162Y0223996D02*
X0224875Y0223996D01*
X0223731Y0222398D02*
X0218162Y0222398D01*
X0218162Y0220799D02*
X0223731Y0220799D01*
X0224717Y0212806D02*
X0190389Y0212806D01*
X0191135Y0211208D02*
X0215955Y0211208D01*
X0210143Y0209609D02*
X0209834Y0209609D01*
X0206381Y0209609D02*
X0205619Y0209609D01*
X0205619Y0210359D02*
X0203401Y0210359D01*
X0202943Y0210236D01*
X0202533Y0209999D01*
X0202197Y0209664D01*
X0201960Y0209254D01*
X0201838Y0208796D01*
X0201838Y0206381D01*
X0205619Y0206381D01*
X0205619Y0210359D01*
X0205619Y0208011D02*
X0206381Y0208011D01*
X0206381Y0206412D02*
X0205619Y0206412D01*
X0205619Y0204814D02*
X0206381Y0204814D01*
X0206381Y0203215D02*
X0205619Y0203215D01*
X0202636Y0201617D02*
X0223317Y0201617D01*
X0223731Y0203215D02*
X0218162Y0203215D01*
X0218162Y0204814D02*
X0223903Y0204814D01*
X0224404Y0206412D02*
X0218162Y0206412D01*
X0202166Y0209609D02*
X0191135Y0209609D01*
X0191135Y0208011D02*
X0192259Y0208011D01*
X0192259Y0206412D02*
X0190127Y0206412D01*
X0190901Y0204814D02*
X0192259Y0204814D01*
X0192723Y0203215D02*
X0191135Y0203215D01*
X0191135Y0201617D02*
X0196130Y0201617D01*
X0197729Y0200018D02*
X0191135Y0200018D01*
X0187563Y0202260D02*
X0185260Y0202260D01*
X0182000Y0199000D01*
X0185681Y0198420D02*
X0199327Y0198420D01*
X0200926Y0196821D02*
X0185681Y0196821D01*
X0178319Y0196821D02*
X0126288Y0196821D01*
X0119712Y0196821D02*
X0118288Y0196821D01*
X0111712Y0196821D02*
X0096162Y0196821D01*
X0093877Y0193624D02*
X0322275Y0193624D01*
X0322791Y0192026D02*
X0251504Y0192026D01*
X0252253Y0190427D02*
X0339000Y0190427D01*
X0339000Y0188829D02*
X0252253Y0188829D01*
X0252253Y0187230D02*
X0339000Y0187230D01*
X0339000Y0185632D02*
X0252253Y0185632D01*
X0252453Y0184033D02*
X0339000Y0184033D01*
X0339000Y0182435D02*
X0253727Y0182435D01*
X0254328Y0180836D02*
X0339000Y0180836D01*
X0339000Y0179238D02*
X0254328Y0179238D01*
X0253839Y0177639D02*
X0339000Y0177639D01*
X0339000Y0176041D02*
X0252724Y0176041D01*
X0245032Y0176041D02*
X0241952Y0176041D01*
X0242607Y0177639D02*
X0243916Y0177639D01*
X0243428Y0179238D02*
X0242607Y0179238D01*
X0242607Y0180836D02*
X0243428Y0180836D01*
X0244029Y0182435D02*
X0242296Y0182435D01*
X0237629Y0184033D02*
X0232841Y0184033D01*
X0231838Y0182435D02*
X0228032Y0182435D01*
X0224000Y0179409D02*
X0224000Y0179000D01*
X0224000Y0179409D02*
X0237067Y0179409D01*
X0232181Y0176041D02*
X0228162Y0176041D01*
X0228810Y0174442D02*
X0339000Y0174442D01*
X0339000Y0172844D02*
X0242044Y0172844D01*
X0242607Y0171245D02*
X0339000Y0171245D01*
X0339000Y0169647D02*
X0242607Y0169647D01*
X0242607Y0168048D02*
X0339000Y0168048D01*
X0339000Y0166450D02*
X0242204Y0166450D01*
X0232089Y0172844D02*
X0230409Y0172844D01*
X0217617Y0169647D02*
X0213486Y0169647D01*
X0215084Y0168048D02*
X0216018Y0168048D01*
X0223582Y0160056D02*
X0226803Y0160056D01*
X0225204Y0158457D02*
X0224675Y0158457D01*
X0219968Y0182435D02*
X0219935Y0182435D01*
X0226620Y0190427D02*
X0083300Y0190427D01*
X0083300Y0188829D02*
X0087521Y0188829D01*
X0087319Y0187230D02*
X0083300Y0187230D01*
X0083300Y0185632D02*
X0087319Y0185632D01*
X0087319Y0184033D02*
X0083300Y0184033D01*
X0083300Y0182435D02*
X0086641Y0182435D01*
X0091000Y0179500D02*
X0091000Y0186000D01*
X0092279Y0192026D02*
X0238378Y0192026D01*
X0237629Y0190427D02*
X0233380Y0190427D01*
X0230000Y0187579D02*
X0230000Y0187500D01*
X0230000Y0187579D02*
X0244941Y0187579D01*
X0278425Y0216003D02*
X0280708Y0216003D01*
X0280052Y0217602D02*
X0279081Y0217602D01*
X0279081Y0219201D02*
X0280052Y0219201D01*
X0283696Y0216003D02*
X0284674Y0216003D01*
X0290297Y0216003D02*
X0293690Y0216003D01*
X0292975Y0217602D02*
X0291896Y0217602D01*
X0297119Y0216003D02*
X0299193Y0216003D01*
X0298538Y0217602D02*
X0297834Y0217602D01*
X0298633Y0219201D02*
X0299297Y0219201D01*
X0299433Y0220799D02*
X0300896Y0220799D01*
X0301987Y0222398D02*
X0302495Y0222398D01*
X0299103Y0225595D02*
X0291706Y0225595D01*
X0290108Y0227193D02*
X0300701Y0227193D01*
X0305945Y0227193D02*
X0339000Y0227193D01*
X0339000Y0225595D02*
X0307544Y0225595D01*
X0308109Y0223996D02*
X0339000Y0223996D01*
X0339000Y0222398D02*
X0308109Y0222398D01*
X0306977Y0220799D02*
X0339000Y0220799D01*
X0339000Y0219201D02*
X0307349Y0219201D01*
X0308109Y0217602D02*
X0339000Y0217602D01*
X0339000Y0216003D02*
X0307453Y0216003D01*
X0296224Y0223996D02*
X0294585Y0223996D01*
X0295384Y0222398D02*
X0295424Y0222398D01*
X0284864Y0227193D02*
X0283507Y0227193D01*
X0280898Y0227193D02*
X0278235Y0227193D01*
X0275627Y0227193D02*
X0275588Y0227193D01*
X0267708Y0227193D02*
X0262398Y0227193D01*
X0263244Y0225595D02*
X0266862Y0225595D01*
X0266862Y0223996D02*
X0263244Y0223996D01*
X0263244Y0222398D02*
X0266862Y0222398D01*
X0266862Y0220799D02*
X0263244Y0220799D01*
X0263060Y0238383D02*
X0271819Y0238383D01*
X0271819Y0239981D02*
X0263600Y0239981D01*
X0263600Y0241580D02*
X0271819Y0241580D01*
X0271819Y0243178D02*
X0271267Y0243178D01*
X0271635Y0244777D02*
X0272365Y0244777D01*
X0272365Y0246375D02*
X0271635Y0246375D01*
X0271635Y0247974D02*
X0272365Y0247974D01*
X0273357Y0249572D02*
X0270643Y0249572D01*
X0269680Y0250759D02*
X0274320Y0250759D01*
X0275375Y0251813D01*
X0275375Y0256848D01*
X0274600Y0257623D01*
X0274600Y0260517D01*
X0274204Y0261473D01*
X0272204Y0263473D01*
X0271473Y0264204D01*
X0270517Y0264600D01*
X0265577Y0264600D01*
X0265100Y0265077D01*
X0265100Y0267344D01*
X0265677Y0267583D01*
X0267309Y0269215D01*
X0268192Y0271346D01*
X0268192Y0273654D01*
X0267309Y0275785D01*
X0265677Y0277417D01*
X0263545Y0278300D01*
X0261238Y0278300D01*
X0259106Y0277417D01*
X0257475Y0275785D01*
X0256592Y0273654D01*
X0256592Y0271346D01*
X0257475Y0269215D01*
X0259106Y0267583D01*
X0259900Y0267254D01*
X0259900Y0263483D01*
X0260296Y0262527D01*
X0261027Y0261796D01*
X0263027Y0259796D01*
X0263983Y0259400D01*
X0268923Y0259400D01*
X0269400Y0258923D01*
X0269400Y0257623D01*
X0268625Y0256848D01*
X0268625Y0251813D01*
X0269680Y0250759D01*
X0269268Y0251171D02*
X0266829Y0251171D01*
X0265359Y0252769D02*
X0268625Y0252769D01*
X0268625Y0254368D02*
X0265359Y0254368D01*
X0265359Y0255966D02*
X0268625Y0255966D01*
X0269342Y0257565D02*
X0264902Y0257565D01*
X0262061Y0260762D02*
X0252100Y0260762D01*
X0252100Y0259163D02*
X0269160Y0259163D01*
X0270000Y0262000D02*
X0264500Y0262000D01*
X0262500Y0264000D01*
X0262500Y0272392D01*
X0262392Y0272500D01*
X0267780Y0270353D02*
X0270371Y0270353D01*
X0270371Y0271951D02*
X0268192Y0271951D01*
X0268192Y0273550D02*
X0270371Y0273550D01*
X0270371Y0275148D02*
X0267573Y0275148D01*
X0266347Y0276747D02*
X0270371Y0276747D01*
X0270371Y0277246D02*
X0271426Y0278300D01*
X0280917Y0278300D01*
X0281971Y0277246D01*
X0281971Y0267754D01*
X0280917Y0266700D01*
X0271426Y0266700D01*
X0270371Y0267754D01*
X0270371Y0277246D01*
X0270371Y0268754D02*
X0266849Y0268754D01*
X0265100Y0267156D02*
X0270970Y0267156D01*
X0271718Y0263959D02*
X0287400Y0263959D01*
X0287400Y0265557D02*
X0265100Y0265557D01*
X0270000Y0262000D02*
X0272000Y0260000D01*
X0272000Y0254331D01*
X0275375Y0254368D02*
X0283641Y0254368D01*
X0283641Y0255966D02*
X0275375Y0255966D01*
X0274658Y0257565D02*
X0284098Y0257565D01*
X0283641Y0252769D02*
X0275375Y0252769D01*
X0274732Y0251171D02*
X0283641Y0251171D01*
X0284105Y0249572D02*
X0278123Y0249572D01*
X0279115Y0247974D02*
X0283641Y0247974D01*
X0283641Y0246375D02*
X0279115Y0246375D01*
X0279115Y0244777D02*
X0283641Y0244777D01*
X0283641Y0243178D02*
X0279181Y0243178D01*
X0279181Y0241580D02*
X0285400Y0241580D01*
X0285400Y0239981D02*
X0279181Y0239981D01*
X0279181Y0238383D02*
X0285400Y0238383D01*
X0288000Y0237000D02*
X0288000Y0246000D01*
X0290600Y0241580D02*
X0291819Y0241580D01*
X0291819Y0239981D02*
X0290600Y0239981D01*
X0290600Y0238383D02*
X0291819Y0238383D01*
X0290600Y0236784D02*
X0326908Y0236784D01*
X0326319Y0238383D02*
X0299181Y0238383D01*
X0299181Y0239981D02*
X0326319Y0239981D01*
X0326319Y0241580D02*
X0299181Y0241580D01*
X0299181Y0243178D02*
X0326870Y0243178D01*
X0327000Y0244777D02*
X0299135Y0244777D01*
X0299135Y0246375D02*
X0307405Y0246375D01*
X0303831Y0250000D02*
X0314126Y0250000D01*
X0320847Y0249572D02*
X0323153Y0249572D01*
X0323153Y0247974D02*
X0320847Y0247974D01*
X0320847Y0246375D02*
X0323153Y0246375D01*
X0323153Y0251171D02*
X0320847Y0251171D01*
X0320847Y0252769D02*
X0323153Y0252769D01*
X0323428Y0254368D02*
X0320572Y0254368D01*
X0327274Y0255966D02*
X0306431Y0255966D01*
X0306431Y0254368D02*
X0307680Y0254368D01*
X0307405Y0252769D02*
X0306953Y0252769D01*
X0303831Y0250000D02*
X0303831Y0256169D01*
X0299000Y0261000D01*
X0292000Y0261000D01*
X0290000Y0263000D01*
X0290000Y0272451D01*
X0289951Y0272500D01*
X0295339Y0270353D02*
X0297930Y0270353D01*
X0297930Y0271951D02*
X0295751Y0271951D01*
X0295751Y0273550D02*
X0297930Y0273550D01*
X0297930Y0275148D02*
X0295132Y0275148D01*
X0293906Y0276747D02*
X0297930Y0276747D01*
X0301130Y0278345D02*
X0251600Y0278345D01*
X0251600Y0279944D02*
X0301130Y0279944D01*
X0301130Y0281542D02*
X0251600Y0281542D01*
X0251600Y0283141D02*
X0301130Y0283141D01*
X0301130Y0284739D02*
X0251600Y0284739D01*
X0249000Y0286000D02*
X0247000Y0288000D01*
X0248000Y0288000D01*
X0249000Y0287000D01*
X0249000Y0286000D02*
X0249000Y0272888D01*
X0248612Y0272500D01*
X0249000Y0272112D01*
X0249000Y0262000D01*
X0249500Y0261500D01*
X0249500Y0254000D01*
X0253859Y0254368D02*
X0256641Y0254368D01*
X0256641Y0255966D02*
X0253859Y0255966D01*
X0253402Y0257565D02*
X0257098Y0257565D01*
X0256641Y0252769D02*
X0253859Y0252769D01*
X0253859Y0251171D02*
X0256641Y0251171D01*
X0257105Y0249572D02*
X0253395Y0249572D01*
X0253859Y0247974D02*
X0256641Y0247974D01*
X0256641Y0246375D02*
X0253859Y0246375D01*
X0253859Y0244777D02*
X0256641Y0244777D01*
X0256641Y0243178D02*
X0253859Y0243178D01*
X0249500Y0246000D02*
X0245500Y0250000D01*
X0241831Y0250000D01*
X0241831Y0259169D01*
X0240000Y0261000D01*
X0237000Y0261000D01*
X0235000Y0263000D01*
X0235000Y0272333D01*
X0234833Y0272500D01*
X0240221Y0270353D02*
X0242812Y0270353D01*
X0242812Y0271951D02*
X0240633Y0271951D01*
X0240633Y0273550D02*
X0242812Y0273550D01*
X0242812Y0275148D02*
X0240014Y0275148D01*
X0238788Y0276747D02*
X0242812Y0276747D01*
X0246400Y0278345D02*
X0140976Y0278345D01*
X0140976Y0279944D02*
X0246400Y0279944D01*
X0246400Y0281542D02*
X0140976Y0281542D01*
X0140976Y0283141D02*
X0246400Y0283141D01*
X0246400Y0284739D02*
X0140976Y0284739D01*
X0138376Y0286376D02*
X0140000Y0288000D01*
X0247000Y0288000D01*
X0248000Y0288000D02*
X0250000Y0288000D01*
X0251000Y0288000D01*
X0250500Y0287500D01*
X0250000Y0288000D01*
X0250500Y0287500D02*
X0249000Y0286000D01*
X0251000Y0288000D02*
X0302000Y0288000D01*
X0303730Y0286270D01*
X0303730Y0272500D01*
X0304000Y0272230D01*
X0304000Y0262000D01*
X0306000Y0260000D01*
X0328000Y0260000D01*
X0329874Y0258126D01*
X0329874Y0250000D01*
X0333000Y0244777D02*
X0339000Y0244777D01*
X0339000Y0246375D02*
X0336595Y0246375D01*
X0336595Y0247974D02*
X0339000Y0247974D01*
X0339000Y0249572D02*
X0336595Y0249572D01*
X0336595Y0251171D02*
X0339000Y0251171D01*
X0339000Y0252769D02*
X0336595Y0252769D01*
X0336320Y0254368D02*
X0339000Y0254368D01*
X0339000Y0255966D02*
X0332474Y0255966D01*
X0332474Y0257565D02*
X0339000Y0257565D01*
X0339000Y0259163D02*
X0332259Y0259163D01*
X0330915Y0260762D02*
X0339000Y0260762D01*
X0339000Y0262360D02*
X0329096Y0262360D01*
X0329407Y0263959D02*
X0339000Y0263959D01*
X0339000Y0265557D02*
X0331799Y0265557D01*
X0332915Y0267156D02*
X0339000Y0267156D01*
X0339000Y0268754D02*
X0333983Y0268754D01*
X0334310Y0270353D02*
X0339000Y0270353D01*
X0339000Y0271951D02*
X0334628Y0271951D01*
X0334528Y0273550D02*
X0339000Y0273550D01*
X0339000Y0275148D02*
X0334210Y0275148D01*
X0333648Y0276747D02*
X0339000Y0276747D01*
X0339000Y0278345D02*
X0332580Y0278345D01*
X0331049Y0279944D02*
X0339000Y0279944D01*
X0339000Y0281542D02*
X0328492Y0281542D01*
X0328754Y0283141D02*
X0339000Y0283141D01*
X0339000Y0284739D02*
X0330066Y0284739D01*
X0330728Y0286338D02*
X0339000Y0286338D01*
X0339000Y0287937D02*
X0330737Y0287937D01*
X0330367Y0289535D02*
X0339000Y0289535D01*
X0339000Y0291134D02*
X0329480Y0291134D01*
X0320520Y0291134D02*
X0008000Y0291134D01*
X0008000Y0289535D02*
X0137858Y0289535D01*
X0136260Y0287937D02*
X0008000Y0287937D01*
X0008000Y0286338D02*
X0135776Y0286338D01*
X0135776Y0284739D02*
X0008000Y0284739D01*
X0008000Y0283141D02*
X0021464Y0283141D01*
X0019866Y0281542D02*
X0008000Y0281542D01*
X0008000Y0279944D02*
X0018577Y0279944D01*
X0018400Y0278345D02*
X0008000Y0278345D01*
X0008000Y0276747D02*
X0010405Y0276747D01*
X0009179Y0275148D02*
X0008000Y0275148D01*
X0008000Y0273550D02*
X0008560Y0273550D01*
X0008560Y0271951D02*
X0008000Y0271951D01*
X0008000Y0270353D02*
X0008972Y0270353D01*
X0009903Y0268754D02*
X0008000Y0268754D01*
X0008000Y0267156D02*
X0011760Y0267156D01*
X0011760Y0265557D02*
X0008000Y0265557D01*
X0008000Y0263959D02*
X0011760Y0263959D01*
X0011760Y0262360D02*
X0008000Y0262360D01*
X0008000Y0260762D02*
X0011760Y0260762D01*
X0011760Y0259163D02*
X0008000Y0259163D01*
X0008000Y0257565D02*
X0011760Y0257565D01*
X0011760Y0255966D02*
X0008000Y0255966D01*
X0008000Y0254368D02*
X0011760Y0254368D01*
X0011760Y0252769D02*
X0008000Y0252769D01*
X0008000Y0251171D02*
X0011760Y0251171D01*
X0010895Y0249572D02*
X0008000Y0249572D01*
X0008000Y0247974D02*
X0010400Y0247974D01*
X0010400Y0246375D02*
X0008000Y0246375D01*
X0008000Y0244777D02*
X0010064Y0244777D01*
X0008466Y0243178D02*
X0008000Y0243178D01*
X0013000Y0240500D02*
X0017500Y0240500D01*
X0019000Y0239000D01*
X0019000Y0225500D01*
X0020000Y0224500D01*
X0023500Y0224500D01*
X0023500Y0216500D02*
X0020000Y0216500D01*
X0019000Y0215500D01*
X0019000Y0204000D01*
X0015500Y0200500D01*
X0013000Y0200500D01*
X0014300Y0194800D02*
X0012500Y0193000D01*
X0012500Y0188500D01*
X0014300Y0194800D02*
X0020000Y0194800D01*
X0025000Y0194800D01*
X0030000Y0194800D02*
X0030000Y0203000D01*
X0035000Y0194800D02*
X0035000Y0214500D01*
X0033000Y0216500D01*
X0023500Y0216500D01*
X0039000Y0224000D02*
X0056000Y0224000D01*
X0059000Y0221000D01*
X0059000Y0210000D01*
X0063162Y0206924D02*
X0063570Y0206516D01*
X0068430Y0206516D01*
X0069484Y0207570D01*
X0069484Y0211763D01*
X0073047Y0208200D01*
X0080598Y0208200D01*
X0080598Y0208180D01*
X0081652Y0207125D01*
X0081869Y0207125D01*
X0081869Y0203859D01*
X0080892Y0203859D01*
X0079838Y0202805D01*
X0079838Y0201237D01*
X0061867Y0201237D01*
X0061859Y0201229D01*
X0060105Y0201229D01*
X0059051Y0200175D01*
X0059051Y0197300D01*
X0054047Y0197300D01*
X0052700Y0195953D01*
X0052200Y0195453D01*
X0052200Y0185662D01*
X0051195Y0185662D01*
X0050141Y0184608D01*
X0050141Y0183800D01*
X0048859Y0183800D01*
X0048859Y0184608D01*
X0047805Y0185662D01*
X0042681Y0185662D01*
X0042681Y0186627D01*
X0041627Y0187681D01*
X0038572Y0187681D01*
X0037953Y0188300D01*
X0027300Y0188300D01*
X0027300Y0189004D01*
X0027500Y0189204D01*
X0028054Y0188650D01*
X0031946Y0188650D01*
X0032500Y0189204D01*
X0033054Y0188650D01*
X0036946Y0188650D01*
X0038000Y0189704D01*
X0038000Y0192200D01*
X0038547Y0192200D01*
X0040016Y0190731D01*
X0042412Y0190731D01*
X0042412Y0190334D01*
X0042535Y0189876D01*
X0042772Y0189466D01*
X0043107Y0189130D01*
X0043517Y0188894D01*
X0043975Y0188771D01*
X0046181Y0188771D01*
X0048386Y0188771D01*
X0048844Y0188894D01*
X0049254Y0189130D01*
X0049590Y0189466D01*
X0049827Y0189876D01*
X0049949Y0190334D01*
X0049949Y0191063D01*
X0049949Y0191792D01*
X0049949Y0191793D01*
X0049949Y0191794D01*
X0049949Y0194669D01*
X0050921Y0194669D01*
X0051953Y0195700D01*
X0053300Y0197047D01*
X0053300Y0205641D01*
X0054108Y0205641D01*
X0055000Y0206533D01*
X0055892Y0205641D01*
X0062108Y0205641D01*
X0063162Y0206695D01*
X0063162Y0206924D01*
X0062879Y0206412D02*
X0081869Y0206412D01*
X0081869Y0204814D02*
X0053300Y0204814D01*
X0053300Y0203215D02*
X0080249Y0203215D01*
X0079838Y0201617D02*
X0053300Y0201617D01*
X0053300Y0200018D02*
X0059051Y0200018D01*
X0059051Y0198420D02*
X0053300Y0198420D01*
X0053074Y0196821D02*
X0053569Y0196821D01*
X0052200Y0195223D02*
X0051476Y0195223D01*
X0052200Y0193624D02*
X0049949Y0193624D01*
X0049949Y0192026D02*
X0052200Y0192026D01*
X0052200Y0190427D02*
X0049949Y0190427D01*
X0049949Y0191063D02*
X0049218Y0191063D01*
X0049218Y0191063D01*
X0049949Y0191063D01*
X0048602Y0188829D02*
X0052200Y0188829D01*
X0052200Y0187230D02*
X0042077Y0187230D01*
X0043759Y0188829D02*
X0037124Y0188829D01*
X0038000Y0190427D02*
X0042412Y0190427D01*
X0046181Y0190427D02*
X0046181Y0190427D01*
X0046181Y0190731D02*
X0046181Y0188771D01*
X0046181Y0190731D01*
X0046181Y0190731D01*
X0046181Y0188829D02*
X0046181Y0188829D01*
X0047835Y0185632D02*
X0051165Y0185632D01*
X0050141Y0184033D02*
X0048859Y0184033D01*
X0038721Y0192026D02*
X0038000Y0192026D01*
X0032876Y0188829D02*
X0032124Y0188829D01*
X0027876Y0188829D02*
X0027300Y0188829D01*
X0034000Y0181000D02*
X0013000Y0181000D01*
X0012500Y0180500D01*
X0020000Y0174200D02*
X0020000Y0169500D01*
X0012500Y0162000D01*
X0016735Y0158457D02*
X0018265Y0158457D01*
X0020540Y0156859D02*
X0014460Y0156859D01*
X0012602Y0155260D02*
X0008000Y0155260D01*
X0008000Y0153662D02*
X0009277Y0153662D01*
X0010540Y0156859D02*
X0008000Y0156859D01*
X0008000Y0158457D02*
X0008265Y0158457D01*
X0017398Y0155260D02*
X0059819Y0155260D01*
X0059819Y0153662D02*
X0020723Y0153662D01*
X0022434Y0152063D02*
X0059819Y0152063D01*
X0061783Y0150465D02*
X0023502Y0150465D01*
X0024167Y0148866D02*
X0070066Y0148866D01*
X0064319Y0158457D02*
X0036735Y0158457D01*
X0037648Y0160056D02*
X0064319Y0160056D01*
X0059819Y0156859D02*
X0034460Y0156859D01*
X0030540Y0156859D02*
X0024460Y0156859D01*
X0026735Y0158457D02*
X0028265Y0158457D01*
X0032500Y0162000D02*
X0030000Y0164500D01*
X0030000Y0174200D01*
X0025000Y0174200D02*
X0025000Y0164500D01*
X0022500Y0162000D01*
X0032600Y0168048D02*
X0035275Y0168048D01*
X0035829Y0166450D02*
X0036873Y0166450D01*
X0037272Y0164851D02*
X0038472Y0164851D01*
X0037934Y0163253D02*
X0040070Y0163253D01*
X0041869Y0161654D02*
X0038000Y0161654D01*
X0043000Y0164000D02*
X0070000Y0164000D01*
X0071000Y0165000D01*
X0071000Y0180000D01*
X0069500Y0181500D01*
X0064500Y0181500D01*
X0062500Y0181500D01*
X0064500Y0173500D02*
X0064500Y0169500D01*
X0063000Y0168000D01*
X0046000Y0168000D01*
X0044500Y0169500D01*
X0044500Y0173500D01*
X0035000Y0174200D02*
X0035000Y0180000D01*
X0034000Y0181000D01*
X0035000Y0172000D02*
X0043000Y0164000D01*
X0035772Y0124888D02*
X0060759Y0124888D01*
X0060759Y0123290D02*
X0039613Y0123290D01*
X0042125Y0121691D02*
X0060759Y0121691D01*
X0060759Y0120093D02*
X0043724Y0120093D01*
X0045204Y0118494D02*
X0060759Y0118494D01*
X0060759Y0116896D02*
X0046127Y0116896D01*
X0047050Y0115297D02*
X0060759Y0115297D01*
X0060759Y0113699D02*
X0047640Y0113699D01*
X0048068Y0112100D02*
X0052423Y0112100D01*
X0050825Y0110502D02*
X0048497Y0110502D01*
X0048548Y0108903D02*
X0049560Y0108903D01*
X0049400Y0107305D02*
X0048548Y0107305D01*
X0048548Y0105706D02*
X0049400Y0105706D01*
X0049400Y0104108D02*
X0048124Y0104108D01*
X0047696Y0102509D02*
X0049400Y0102509D01*
X0049400Y0100911D02*
X0047170Y0100911D01*
X0086619Y0140873D02*
X0087381Y0140873D01*
X0087381Y0142472D02*
X0086619Y0142472D01*
X0086619Y0144070D02*
X0087381Y0144070D01*
X0090247Y0140873D02*
X0091660Y0140873D01*
X0086641Y0172844D02*
X0086300Y0172844D01*
X0086300Y0174442D02*
X0086733Y0174442D01*
X0086992Y0176041D02*
X0086300Y0176041D01*
X0104597Y0198420D02*
X0110838Y0198420D01*
X0104500Y0202000D02*
X0102000Y0199500D01*
X0092000Y0199500D01*
X0096162Y0202100D02*
X0096162Y0202805D01*
X0095256Y0203711D01*
X0095314Y0203745D01*
X0095649Y0204080D01*
X0095886Y0204490D01*
X0096009Y0204948D01*
X0096009Y0206760D01*
X0096009Y0208572D01*
X0095886Y0209029D01*
X0095649Y0209440D01*
X0095314Y0209775D01*
X0094903Y0210012D01*
X0094446Y0210135D01*
X0092437Y0210135D01*
X0090428Y0210135D01*
X0089971Y0210012D01*
X0089560Y0209775D01*
X0089225Y0209440D01*
X0088988Y0209029D01*
X0088865Y0208572D01*
X0088865Y0206760D01*
X0092437Y0206760D01*
X0092437Y0210135D01*
X0092437Y0206760D01*
X0092437Y0206760D01*
X0092437Y0206760D01*
X0096009Y0206760D01*
X0092437Y0206760D01*
X0092437Y0206760D01*
X0088865Y0206760D01*
X0088865Y0204948D01*
X0088988Y0204490D01*
X0089225Y0204080D01*
X0089446Y0203859D01*
X0088892Y0203859D01*
X0088000Y0202967D01*
X0087108Y0203859D01*
X0086469Y0203859D01*
X0086469Y0207125D01*
X0086687Y0207125D01*
X0087741Y0208180D01*
X0087741Y0211700D01*
X0089085Y0211700D01*
X0089920Y0210865D01*
X0094954Y0210865D01*
X0096009Y0211920D01*
X0096009Y0216561D01*
X0095268Y0217301D01*
X0096162Y0218195D01*
X0096162Y0218900D01*
X0100923Y0218900D01*
X0101900Y0217923D01*
X0101900Y0203077D01*
X0100923Y0202100D01*
X0096162Y0202100D01*
X0095751Y0203215D02*
X0101900Y0203215D01*
X0101900Y0204814D02*
X0095973Y0204814D01*
X0096009Y0206412D02*
X0101900Y0206412D01*
X0101900Y0208011D02*
X0096009Y0208011D01*
X0095479Y0209609D02*
X0101900Y0209609D01*
X0101900Y0211208D02*
X0095297Y0211208D01*
X0096009Y0212806D02*
X0101900Y0212806D01*
X0101900Y0214405D02*
X0096009Y0214405D01*
X0096009Y0216003D02*
X0101900Y0216003D01*
X0101900Y0217602D02*
X0095569Y0217602D01*
X0092000Y0221500D02*
X0102000Y0221500D01*
X0104500Y0219000D01*
X0104500Y0202000D01*
X0107100Y0204814D02*
X0111347Y0204814D01*
X0107100Y0206412D02*
X0115625Y0206412D01*
X0115625Y0208011D02*
X0107100Y0208011D01*
X0107100Y0209609D02*
X0115625Y0209609D01*
X0115647Y0211208D02*
X0107100Y0211208D01*
X0107100Y0212806D02*
X0137400Y0212806D01*
X0137400Y0211208D02*
X0122353Y0211208D01*
X0122375Y0209609D02*
X0137400Y0209609D01*
X0137400Y0208011D02*
X0122375Y0208011D01*
X0122375Y0206412D02*
X0137911Y0206412D01*
X0139509Y0204814D02*
X0126653Y0204814D01*
X0133681Y0203215D02*
X0166838Y0203215D01*
X0171000Y0206000D02*
X0142000Y0206000D01*
X0140000Y0208000D01*
X0140000Y0245000D01*
X0134500Y0244777D02*
X0129500Y0244777D01*
X0129384Y0246375D02*
X0134616Y0246375D01*
X0135279Y0247974D02*
X0128721Y0247974D01*
X0127206Y0249572D02*
X0136794Y0249572D01*
X0143206Y0249572D02*
X0146794Y0249572D01*
X0145279Y0247974D02*
X0144721Y0247974D01*
X0150000Y0245000D02*
X0150000Y0226000D01*
X0152000Y0224000D01*
X0171000Y0224000D01*
X0166838Y0227193D02*
X0152600Y0227193D01*
X0152600Y0228792D02*
X0180115Y0228792D01*
X0182740Y0227740D02*
X0187563Y0227740D01*
X0191135Y0227193D02*
X0193132Y0227193D01*
X0192259Y0225595D02*
X0191135Y0225595D01*
X0192259Y0223996D02*
X0183162Y0223996D01*
X0183162Y0222398D02*
X0183721Y0222398D01*
X0185260Y0220260D02*
X0182000Y0217000D01*
X0178319Y0217602D02*
X0142600Y0217602D01*
X0142600Y0219201D02*
X0178319Y0219201D01*
X0178319Y0216003D02*
X0142600Y0216003D01*
X0142600Y0214405D02*
X0178319Y0214405D01*
X0180531Y0211208D02*
X0142600Y0211208D01*
X0142600Y0212806D02*
X0184737Y0212806D01*
X0185681Y0214405D02*
X0339000Y0214405D01*
X0339000Y0200018D02*
X0336819Y0200018D01*
X0336898Y0198420D02*
X0339000Y0198420D01*
X0339000Y0196821D02*
X0336898Y0196821D01*
X0336898Y0195223D02*
X0339000Y0195223D01*
X0339000Y0193624D02*
X0336898Y0193624D01*
X0336382Y0192026D02*
X0339000Y0192026D01*
X0339000Y0231989D02*
X0152600Y0231989D01*
X0152600Y0233587D02*
X0169736Y0233587D01*
X0169796Y0233527D02*
X0169796Y0233527D01*
X0168137Y0235186D02*
X0152600Y0235186D01*
X0152600Y0236784D02*
X0167400Y0236784D01*
X0167400Y0238383D02*
X0152600Y0238383D01*
X0152600Y0239981D02*
X0157744Y0239981D01*
X0155642Y0241580D02*
X0154358Y0241580D01*
X0154721Y0247974D02*
X0155279Y0247974D01*
X0156794Y0249572D02*
X0153206Y0249572D01*
X0163206Y0249572D02*
X0166794Y0249572D01*
X0165279Y0247974D02*
X0164721Y0247974D01*
X0170000Y0245000D02*
X0170000Y0237000D01*
X0172000Y0235000D01*
X0286000Y0235000D01*
X0288000Y0237000D01*
X0289863Y0235186D02*
X0339000Y0235186D01*
X0339000Y0236784D02*
X0333092Y0236784D01*
X0333681Y0238383D02*
X0339000Y0238383D01*
X0339000Y0239981D02*
X0333681Y0239981D01*
X0333681Y0241580D02*
X0339000Y0241580D01*
X0339000Y0243178D02*
X0333130Y0243178D01*
X0339000Y0233587D02*
X0288264Y0233587D01*
X0295500Y0241000D02*
X0295563Y0241063D01*
X0295563Y0246260D01*
X0299135Y0247974D02*
X0300259Y0247974D01*
X0300259Y0249572D02*
X0298143Y0249572D01*
X0298886Y0251171D02*
X0300259Y0251171D01*
X0300708Y0252769D02*
X0299135Y0252769D01*
X0299135Y0254368D02*
X0301231Y0254368D01*
X0300357Y0255966D02*
X0299135Y0255966D01*
X0298758Y0257565D02*
X0291902Y0257565D01*
X0290160Y0259163D02*
X0274600Y0259163D01*
X0274499Y0260762D02*
X0288561Y0260762D01*
X0287451Y0262360D02*
X0273317Y0262360D01*
X0281373Y0267156D02*
X0287400Y0267156D01*
X0285494Y0268754D02*
X0281971Y0268754D01*
X0281971Y0270353D02*
X0284562Y0270353D01*
X0284151Y0271951D02*
X0281971Y0271951D01*
X0281971Y0273550D02*
X0284151Y0273550D01*
X0284770Y0275148D02*
X0281971Y0275148D01*
X0281971Y0276747D02*
X0285995Y0276747D01*
X0294408Y0268754D02*
X0297930Y0268754D01*
X0298529Y0267156D02*
X0292600Y0267156D01*
X0292600Y0265557D02*
X0301400Y0265557D01*
X0301400Y0263959D02*
X0292718Y0263959D01*
X0301317Y0262360D02*
X0301400Y0262360D01*
X0306600Y0263959D02*
X0320593Y0263959D01*
X0318201Y0265557D02*
X0306600Y0265557D01*
X0308932Y0267156D02*
X0317085Y0267156D01*
X0316017Y0268754D02*
X0309530Y0268754D01*
X0309530Y0270353D02*
X0315690Y0270353D01*
X0315372Y0271951D02*
X0309530Y0271951D01*
X0309530Y0273550D02*
X0315472Y0273550D01*
X0315790Y0275148D02*
X0309530Y0275148D01*
X0309530Y0276747D02*
X0316352Y0276747D01*
X0317420Y0278345D02*
X0306330Y0278345D01*
X0306330Y0279944D02*
X0318951Y0279944D01*
X0321508Y0281542D02*
X0306330Y0281542D01*
X0306330Y0283141D02*
X0321246Y0283141D01*
X0319934Y0284739D02*
X0306330Y0284739D01*
X0306330Y0286338D02*
X0319272Y0286338D01*
X0319263Y0287937D02*
X0305740Y0287937D01*
X0304142Y0289535D02*
X0319633Y0289535D01*
X0295563Y0253740D02*
X0288260Y0253740D01*
X0288000Y0254000D01*
X0291895Y0249572D02*
X0292983Y0249572D01*
X0275740Y0246063D02*
X0275740Y0241240D01*
X0275500Y0241000D01*
X0268260Y0246063D02*
X0261000Y0253323D01*
X0261000Y0254000D01*
X0261000Y0246000D02*
X0261000Y0240000D01*
X0259000Y0238000D01*
X0191000Y0238000D01*
X0190000Y0239000D01*
X0190000Y0245000D01*
X0194721Y0247974D02*
X0195279Y0247974D01*
X0196794Y0249572D02*
X0193206Y0249572D01*
X0186794Y0249572D02*
X0183206Y0249572D01*
X0184721Y0247974D02*
X0185279Y0247974D01*
X0176794Y0249572D02*
X0173206Y0249572D01*
X0174721Y0247974D02*
X0175279Y0247974D01*
X0165642Y0241580D02*
X0164358Y0241580D01*
X0162256Y0239981D02*
X0167400Y0239981D01*
X0152600Y0230390D02*
X0184321Y0230390D01*
X0182740Y0227740D02*
X0179000Y0224000D01*
X0185260Y0220260D02*
X0187563Y0220260D01*
X0191135Y0220799D02*
X0193140Y0220799D01*
X0192259Y0222398D02*
X0191135Y0222398D01*
X0191135Y0219201D02*
X0196547Y0219201D01*
X0198145Y0217602D02*
X0190797Y0217602D01*
X0185681Y0216003D02*
X0199744Y0216003D01*
X0201454Y0220799D02*
X0201946Y0220799D01*
X0201838Y0222398D02*
X0199855Y0222398D01*
X0199402Y0223996D02*
X0205619Y0223996D01*
X0205619Y0222398D02*
X0206381Y0222398D01*
X0206381Y0220799D02*
X0205619Y0220799D01*
X0205619Y0225595D02*
X0206381Y0225595D01*
X0206381Y0227193D02*
X0205619Y0227193D01*
X0201944Y0227193D02*
X0198530Y0227193D01*
X0199402Y0225595D02*
X0201838Y0225595D01*
X0214358Y0241580D02*
X0258400Y0241580D01*
X0245141Y0243178D02*
X0236373Y0243178D01*
X0237135Y0244777D02*
X0245141Y0244777D01*
X0245141Y0246375D02*
X0237135Y0246375D01*
X0237135Y0247974D02*
X0238259Y0247974D01*
X0238259Y0249572D02*
X0236143Y0249572D01*
X0236839Y0251171D02*
X0238259Y0251171D01*
X0238708Y0252769D02*
X0237135Y0252769D01*
X0237135Y0253740D02*
X0237135Y0255552D01*
X0237012Y0256010D01*
X0236775Y0256420D01*
X0236440Y0256755D01*
X0236029Y0256992D01*
X0235572Y0257115D01*
X0233563Y0257115D01*
X0233563Y0253740D01*
X0233563Y0253740D01*
X0237135Y0253740D01*
X0237135Y0254368D02*
X0239231Y0254368D01*
X0239231Y0255966D02*
X0237024Y0255966D01*
X0239231Y0257565D02*
X0229902Y0257565D01*
X0229999Y0257467D02*
X0229664Y0257803D01*
X0229254Y0258040D01*
X0228796Y0258162D01*
X0226381Y0258162D01*
X0226381Y0254381D01*
X0229991Y0254381D01*
X0229991Y0253740D01*
X0233563Y0253740D01*
X0233563Y0253740D01*
X0233563Y0257115D01*
X0231554Y0257115D01*
X0231097Y0256992D01*
X0230686Y0256755D01*
X0230359Y0256428D01*
X0230359Y0256599D01*
X0230236Y0257057D01*
X0229999Y0257467D01*
X0229991Y0254368D02*
X0226381Y0254368D01*
X0225619Y0254368D02*
X0113300Y0254368D01*
X0113300Y0255966D02*
X0221641Y0255966D01*
X0222098Y0257565D02*
X0113300Y0257565D01*
X0113300Y0259163D02*
X0235160Y0259163D01*
X0233561Y0260762D02*
X0113300Y0260762D01*
X0113300Y0262360D02*
X0232451Y0262360D01*
X0232400Y0263959D02*
X0113300Y0263959D01*
X0113300Y0265557D02*
X0232400Y0265557D01*
X0232400Y0267156D02*
X0226255Y0267156D01*
X0226158Y0267060D02*
X0226494Y0267395D01*
X0226730Y0267805D01*
X0226853Y0268263D01*
X0226853Y0272119D01*
X0221434Y0272119D01*
X0221434Y0266700D01*
X0225290Y0266700D01*
X0225748Y0266823D01*
X0226158Y0267060D01*
X0226853Y0268754D02*
X0230376Y0268754D01*
X0229444Y0270353D02*
X0226853Y0270353D01*
X0226853Y0271951D02*
X0229033Y0271951D01*
X0229033Y0273550D02*
X0226853Y0273550D01*
X0226853Y0272881D02*
X0226853Y0276737D01*
X0226730Y0277195D01*
X0226494Y0277605D01*
X0226158Y0277940D01*
X0225748Y0278177D01*
X0225290Y0278300D01*
X0221434Y0278300D01*
X0221434Y0272881D01*
X0220672Y0272881D01*
X0220672Y0272119D01*
X0215253Y0272119D01*
X0215253Y0268263D01*
X0215376Y0267805D01*
X0215613Y0267395D01*
X0215948Y0267060D01*
X0216358Y0266823D01*
X0216816Y0266700D01*
X0220672Y0266700D01*
X0220672Y0272119D01*
X0221434Y0272119D01*
X0221434Y0272881D01*
X0226853Y0272881D01*
X0226853Y0275148D02*
X0229652Y0275148D01*
X0230877Y0276747D02*
X0226850Y0276747D01*
X0221434Y0276747D02*
X0220672Y0276747D01*
X0220672Y0278300D02*
X0216816Y0278300D01*
X0216358Y0278177D01*
X0215948Y0277940D01*
X0215613Y0277605D01*
X0215376Y0277195D01*
X0215253Y0276737D01*
X0215253Y0272881D01*
X0220672Y0272881D01*
X0220672Y0278300D01*
X0220672Y0275148D02*
X0221434Y0275148D01*
X0221434Y0273550D02*
X0220672Y0273550D01*
X0221053Y0272500D02*
X0207274Y0272500D01*
X0193494Y0272500D01*
X0193113Y0272881D02*
X0193113Y0272119D01*
X0187694Y0272119D01*
X0187694Y0268263D01*
X0187817Y0267805D01*
X0188054Y0267395D01*
X0188389Y0267060D01*
X0188799Y0266823D01*
X0189257Y0266700D01*
X0193113Y0266700D01*
X0193113Y0272119D01*
X0193875Y0272119D01*
X0193875Y0266700D01*
X0197731Y0266700D01*
X0198189Y0266823D01*
X0198599Y0267060D01*
X0198934Y0267395D01*
X0199171Y0267805D01*
X0199294Y0268263D01*
X0199294Y0272119D01*
X0193875Y0272119D01*
X0193875Y0272881D01*
X0193113Y0272881D01*
X0187694Y0272881D01*
X0187694Y0276737D01*
X0187817Y0277195D01*
X0188054Y0277605D01*
X0188389Y0277940D01*
X0188799Y0278177D01*
X0189257Y0278300D01*
X0193113Y0278300D01*
X0193113Y0272881D01*
X0193113Y0273550D02*
X0193875Y0273550D01*
X0193875Y0272881D02*
X0193875Y0278300D01*
X0197731Y0278300D01*
X0198189Y0278177D01*
X0198599Y0277940D01*
X0198934Y0277605D01*
X0199171Y0277195D01*
X0199294Y0276737D01*
X0199294Y0272881D01*
X0193875Y0272881D01*
X0193875Y0271951D02*
X0193113Y0271951D01*
X0193113Y0270353D02*
X0193875Y0270353D01*
X0193875Y0268754D02*
X0193113Y0268754D01*
X0193113Y0267156D02*
X0193875Y0267156D01*
X0198696Y0267156D02*
X0204986Y0267156D01*
X0205047Y0267125D02*
X0205915Y0266843D01*
X0206817Y0266700D01*
X0206892Y0266700D01*
X0206892Y0272119D01*
X0201474Y0272119D01*
X0201474Y0272044D01*
X0201616Y0271142D01*
X0201899Y0270274D01*
X0202313Y0269460D01*
X0202850Y0268722D01*
X0203495Y0268076D01*
X0204234Y0267539D01*
X0205047Y0267125D01*
X0206892Y0267156D02*
X0207655Y0267156D01*
X0207655Y0266700D02*
X0207730Y0266700D01*
X0208632Y0266843D01*
X0209500Y0267125D01*
X0210313Y0267539D01*
X0211052Y0268076D01*
X0211698Y0268722D01*
X0212234Y0269460D01*
X0212649Y0270274D01*
X0212931Y0271142D01*
X0213074Y0272044D01*
X0213074Y0272119D01*
X0207655Y0272119D01*
X0207655Y0272881D01*
X0213074Y0272881D01*
X0213074Y0272956D01*
X0212931Y0273858D01*
X0212649Y0274726D01*
X0212234Y0275540D01*
X0211698Y0276278D01*
X0211052Y0276924D01*
X0210313Y0277461D01*
X0209500Y0277875D01*
X0208632Y0278157D01*
X0207730Y0278300D01*
X0207655Y0278300D01*
X0207655Y0272881D01*
X0206892Y0272881D01*
X0206892Y0272119D01*
X0207655Y0272119D01*
X0207655Y0266700D01*
X0209561Y0267156D02*
X0215852Y0267156D01*
X0215253Y0268754D02*
X0211721Y0268754D01*
X0212674Y0270353D02*
X0215253Y0270353D01*
X0215253Y0271951D02*
X0213059Y0271951D01*
X0212980Y0273550D02*
X0215253Y0273550D01*
X0215253Y0275148D02*
X0212434Y0275148D01*
X0211229Y0276747D02*
X0215256Y0276747D01*
X0220672Y0271951D02*
X0221434Y0271951D01*
X0221434Y0270353D02*
X0220672Y0270353D01*
X0220672Y0268754D02*
X0221434Y0268754D01*
X0221434Y0267156D02*
X0220672Y0267156D01*
X0225619Y0257565D02*
X0226381Y0257565D01*
X0226381Y0255966D02*
X0225619Y0255966D01*
X0221641Y0252769D02*
X0113022Y0252769D01*
X0111423Y0251171D02*
X0221703Y0251171D01*
X0222105Y0249572D02*
X0213206Y0249572D01*
X0214721Y0247974D02*
X0216297Y0247974D01*
X0218000Y0246000D02*
X0226000Y0246000D01*
X0226260Y0246260D01*
X0233563Y0246260D01*
X0230753Y0243178D02*
X0230359Y0243178D01*
X0229895Y0249572D02*
X0230983Y0249572D01*
X0233563Y0251171D02*
X0233563Y0251171D01*
X0233563Y0252769D02*
X0233563Y0252769D01*
X0233563Y0254368D02*
X0233563Y0254368D01*
X0233563Y0255966D02*
X0233563Y0255966D01*
X0237718Y0263959D02*
X0246400Y0263959D01*
X0246400Y0265557D02*
X0237600Y0265557D01*
X0237600Y0267156D02*
X0243411Y0267156D01*
X0242812Y0268754D02*
X0239289Y0268754D01*
X0242317Y0262360D02*
X0246400Y0262360D01*
X0246699Y0260762D02*
X0243915Y0260762D01*
X0244431Y0259163D02*
X0246900Y0259163D01*
X0245598Y0257565D02*
X0244431Y0257565D01*
X0244431Y0255966D02*
X0245141Y0255966D01*
X0245141Y0254368D02*
X0244431Y0254368D01*
X0244953Y0252769D02*
X0245141Y0252769D01*
X0251958Y0262360D02*
X0260463Y0262360D01*
X0259900Y0263959D02*
X0251600Y0263959D01*
X0251600Y0265557D02*
X0259900Y0265557D01*
X0259900Y0267156D02*
X0253814Y0267156D01*
X0254412Y0268754D02*
X0257935Y0268754D01*
X0257003Y0270353D02*
X0254412Y0270353D01*
X0254412Y0271951D02*
X0256592Y0271951D01*
X0256592Y0273550D02*
X0254412Y0273550D01*
X0254412Y0275148D02*
X0257211Y0275148D01*
X0258436Y0276747D02*
X0254412Y0276747D01*
X0221641Y0243178D02*
X0218855Y0243178D01*
X0217000Y0245000D02*
X0218000Y0246000D01*
X0217000Y0245000D02*
X0210000Y0245000D01*
X0205279Y0247974D02*
X0204721Y0247974D01*
X0203206Y0249572D02*
X0206794Y0249572D01*
X0206892Y0268754D02*
X0207655Y0268754D01*
X0207655Y0270353D02*
X0206892Y0270353D01*
X0206892Y0271951D02*
X0207655Y0271951D01*
X0206892Y0272881D02*
X0201474Y0272881D01*
X0201474Y0272956D01*
X0201616Y0273858D01*
X0201899Y0274726D01*
X0202313Y0275540D01*
X0202850Y0276278D01*
X0203495Y0276924D01*
X0204234Y0277461D01*
X0205047Y0277875D01*
X0205915Y0278157D01*
X0206817Y0278300D01*
X0206892Y0278300D01*
X0206892Y0272881D01*
X0206892Y0273550D02*
X0207655Y0273550D01*
X0207655Y0275148D02*
X0206892Y0275148D01*
X0206892Y0276747D02*
X0207655Y0276747D01*
X0203318Y0276747D02*
X0199291Y0276747D01*
X0199294Y0275148D02*
X0202114Y0275148D01*
X0201568Y0273550D02*
X0199294Y0273550D01*
X0199294Y0271951D02*
X0201488Y0271951D01*
X0201873Y0270353D02*
X0199294Y0270353D01*
X0199294Y0268754D02*
X0202826Y0268754D01*
X0193875Y0275148D02*
X0193113Y0275148D01*
X0193113Y0276747D02*
X0193875Y0276747D01*
X0187697Y0276747D02*
X0183670Y0276747D01*
X0183000Y0277417D02*
X0180868Y0278300D01*
X0178561Y0278300D01*
X0176429Y0277417D01*
X0174798Y0275785D01*
X0173915Y0273654D01*
X0173915Y0271346D01*
X0174798Y0269215D01*
X0176429Y0267583D01*
X0178561Y0266700D01*
X0180868Y0266700D01*
X0183000Y0267583D01*
X0184632Y0269215D01*
X0185515Y0271346D01*
X0185515Y0273654D01*
X0184632Y0275785D01*
X0183000Y0277417D01*
X0184895Y0275148D02*
X0187694Y0275148D01*
X0187694Y0273550D02*
X0185515Y0273550D01*
X0185515Y0271951D02*
X0187694Y0271951D01*
X0187694Y0270353D02*
X0185103Y0270353D01*
X0184171Y0268754D02*
X0187694Y0268754D01*
X0188293Y0267156D02*
X0181969Y0267156D01*
X0177460Y0267156D02*
X0171136Y0267156D01*
X0170681Y0266700D02*
X0171735Y0267754D01*
X0171735Y0277246D01*
X0170681Y0278300D01*
X0161189Y0278300D01*
X0160135Y0277246D01*
X0160135Y0267754D01*
X0161189Y0266700D01*
X0170681Y0266700D01*
X0171735Y0268754D02*
X0175258Y0268754D01*
X0174326Y0270353D02*
X0171735Y0270353D01*
X0171735Y0271951D02*
X0173915Y0271951D01*
X0173915Y0273550D02*
X0171735Y0273550D01*
X0171735Y0275148D02*
X0174534Y0275148D01*
X0175759Y0276747D02*
X0171735Y0276747D01*
X0160135Y0276747D02*
X0156111Y0276747D01*
X0155441Y0277417D02*
X0153309Y0278300D01*
X0151002Y0278300D01*
X0148870Y0277417D01*
X0147239Y0275785D01*
X0146356Y0273654D01*
X0146356Y0271346D01*
X0147239Y0269215D01*
X0148870Y0267583D01*
X0151002Y0266700D01*
X0153309Y0266700D01*
X0155441Y0267583D01*
X0157073Y0269215D01*
X0157955Y0271346D01*
X0157955Y0273654D01*
X0157073Y0275785D01*
X0155441Y0277417D01*
X0157336Y0275148D02*
X0160135Y0275148D01*
X0160135Y0273550D02*
X0157955Y0273550D01*
X0157955Y0271951D02*
X0160135Y0271951D01*
X0160135Y0270353D02*
X0157544Y0270353D01*
X0156612Y0268754D02*
X0160135Y0268754D01*
X0160734Y0267156D02*
X0154410Y0267156D01*
X0149901Y0267156D02*
X0143577Y0267156D01*
X0144176Y0268754D02*
X0147699Y0268754D01*
X0146767Y0270353D02*
X0144176Y0270353D01*
X0144176Y0271951D02*
X0146356Y0271951D01*
X0146356Y0273550D02*
X0144176Y0273550D01*
X0144176Y0275148D02*
X0146975Y0275148D01*
X0148200Y0276747D02*
X0144176Y0276747D01*
X0138376Y0272500D02*
X0138376Y0286376D01*
X0135776Y0283141D02*
X0123536Y0283141D01*
X0125134Y0281542D02*
X0135776Y0281542D01*
X0135776Y0279944D02*
X0126423Y0279944D01*
X0126600Y0278345D02*
X0135776Y0278345D01*
X0132576Y0276747D02*
X0128552Y0276747D01*
X0124000Y0279000D02*
X0122000Y0281000D01*
X0023000Y0281000D01*
X0021000Y0279000D01*
X0021000Y0242000D01*
X0039000Y0224000D01*
X0054879Y0206412D02*
X0055121Y0206412D01*
X0069484Y0208011D02*
X0080766Y0208011D01*
X0086469Y0206412D02*
X0088865Y0206412D01*
X0088901Y0204814D02*
X0086469Y0204814D01*
X0087751Y0203215D02*
X0088249Y0203215D01*
X0088865Y0208011D02*
X0087572Y0208011D01*
X0087741Y0209609D02*
X0089395Y0209609D01*
X0089577Y0211208D02*
X0087741Y0211208D01*
X0092437Y0209609D02*
X0092437Y0209609D01*
X0092437Y0208011D02*
X0092437Y0208011D01*
X0106378Y0220799D02*
X0111234Y0220799D01*
X0110838Y0222398D02*
X0104779Y0222398D01*
X0102768Y0223996D02*
X0110838Y0223996D01*
X0110838Y0225595D02*
X0095372Y0225595D01*
X0096009Y0227193D02*
X0110838Y0227193D01*
X0112149Y0228792D02*
X0096009Y0228792D01*
X0096009Y0230390D02*
X0120700Y0230390D01*
X0120700Y0231989D02*
X0094944Y0231989D01*
X0092437Y0231989D02*
X0092437Y0231989D01*
X0092437Y0230390D02*
X0092437Y0230390D01*
X0092437Y0228792D02*
X0092437Y0228792D01*
X0088865Y0228792D02*
X0086469Y0228792D01*
X0086469Y0227193D02*
X0088865Y0227193D01*
X0088628Y0225595D02*
X0087372Y0225595D01*
X0087741Y0230390D02*
X0088865Y0230390D01*
X0089930Y0231989D02*
X0087741Y0231989D01*
X0087741Y0233587D02*
X0089198Y0233587D01*
X0088865Y0235186D02*
X0087376Y0235186D01*
X0086469Y0236784D02*
X0088865Y0236784D01*
X0088865Y0238383D02*
X0085870Y0238383D01*
X0086256Y0239981D02*
X0091744Y0239981D01*
X0089642Y0241580D02*
X0088358Y0241580D01*
X0102484Y0236784D02*
X0102963Y0236784D01*
X0102484Y0235186D02*
X0120562Y0235186D01*
X0120700Y0233587D02*
X0102484Y0233587D01*
X0114619Y0228792D02*
X0115381Y0228792D01*
X0115381Y0227193D02*
X0114619Y0227193D01*
X0114619Y0225595D02*
X0115381Y0225595D01*
X0117851Y0228792D02*
X0119825Y0228792D01*
X0125300Y0230390D02*
X0137400Y0230390D01*
X0137400Y0228792D02*
X0126175Y0228792D01*
X0127162Y0227193D02*
X0137400Y0227193D01*
X0137400Y0225595D02*
X0127162Y0225595D01*
X0127162Y0223996D02*
X0137400Y0223996D01*
X0137400Y0222398D02*
X0127162Y0222398D01*
X0126766Y0220799D02*
X0137400Y0220799D01*
X0137400Y0219201D02*
X0126047Y0219201D01*
X0126115Y0217602D02*
X0137400Y0217602D01*
X0137400Y0216003D02*
X0126115Y0216003D01*
X0126115Y0216937D02*
X0126115Y0214928D01*
X0125992Y0214471D01*
X0125755Y0214060D01*
X0125420Y0213725D01*
X0125010Y0213488D01*
X0124552Y0213365D01*
X0122740Y0213365D01*
X0122740Y0216937D01*
X0122740Y0216937D01*
X0122740Y0216937D01*
X0126115Y0216937D01*
X0125954Y0214405D02*
X0137400Y0214405D01*
X0142600Y0209609D02*
X0167143Y0209609D01*
X0174857Y0209609D02*
X0175143Y0209609D01*
X0179000Y0206000D02*
X0182740Y0209740D01*
X0187563Y0209740D01*
X0184999Y0206412D02*
X0183162Y0206412D01*
X0183162Y0204814D02*
X0184225Y0204814D01*
X0178319Y0201617D02*
X0133681Y0201617D01*
X0133681Y0200018D02*
X0178319Y0200018D01*
X0178319Y0198420D02*
X0133681Y0198420D01*
X0122740Y0214405D02*
X0122740Y0214405D01*
X0122740Y0216003D02*
X0122740Y0216003D01*
X0119365Y0216003D02*
X0118635Y0216003D01*
X0118620Y0214405D02*
X0119526Y0214405D01*
X0119355Y0217602D02*
X0119365Y0217602D01*
X0111885Y0217602D02*
X0107100Y0217602D01*
X0107100Y0219201D02*
X0111885Y0219201D01*
X0111885Y0216003D02*
X0107100Y0216003D01*
X0107100Y0214405D02*
X0111900Y0214405D01*
X0125300Y0231989D02*
X0137400Y0231989D01*
X0137400Y0233587D02*
X0125300Y0233587D01*
X0125300Y0235186D02*
X0137400Y0235186D01*
X0137400Y0236784D02*
X0125300Y0236784D01*
X0123870Y0238383D02*
X0137400Y0238383D01*
X0137400Y0239981D02*
X0126256Y0239981D01*
X0128358Y0241580D02*
X0135642Y0241580D01*
X0134801Y0243178D02*
X0129199Y0243178D01*
X0120794Y0249572D02*
X0117206Y0249572D01*
X0118721Y0247974D02*
X0119279Y0247974D01*
X0110794Y0249572D02*
X0109825Y0249572D01*
X0109279Y0247974D02*
X0108721Y0247974D01*
X0108115Y0254368D02*
X0099300Y0254368D01*
X0099300Y0255966D02*
X0108700Y0255966D01*
X0108700Y0257565D02*
X0099300Y0257565D01*
X0099300Y0259163D02*
X0108700Y0259163D01*
X0108700Y0260762D02*
X0099300Y0260762D01*
X0099300Y0262360D02*
X0108700Y0262360D01*
X0108700Y0263959D02*
X0099300Y0263959D01*
X0099300Y0265557D02*
X0108700Y0265557D01*
X0105615Y0267156D02*
X0099300Y0267156D01*
X0101494Y0268754D02*
X0105017Y0268754D01*
X0105017Y0270353D02*
X0102426Y0270353D01*
X0102837Y0271951D02*
X0105017Y0271951D01*
X0105017Y0273550D02*
X0102837Y0273550D01*
X0102218Y0275148D02*
X0105017Y0275148D01*
X0105017Y0276747D02*
X0100993Y0276747D01*
X0093082Y0276747D02*
X0089058Y0276747D01*
X0089058Y0277246D02*
X0088003Y0278300D01*
X0078512Y0278300D01*
X0077458Y0277246D01*
X0077458Y0267754D01*
X0078512Y0266700D01*
X0088003Y0266700D01*
X0089058Y0267754D01*
X0089058Y0277246D01*
X0089058Y0275148D02*
X0091857Y0275148D01*
X0091237Y0273550D02*
X0089058Y0273550D01*
X0089058Y0271951D02*
X0091237Y0271951D01*
X0091649Y0270353D02*
X0089058Y0270353D01*
X0089058Y0268754D02*
X0092581Y0268754D01*
X0094700Y0267156D02*
X0088459Y0267156D01*
X0094700Y0265557D02*
X0023600Y0265557D01*
X0023600Y0263959D02*
X0094700Y0263959D01*
X0094700Y0262360D02*
X0023600Y0262360D01*
X0023600Y0260762D02*
X0094700Y0260762D01*
X0094700Y0259163D02*
X0023600Y0259163D01*
X0023600Y0257565D02*
X0094700Y0257565D01*
X0094700Y0255966D02*
X0023600Y0255966D01*
X0023600Y0254368D02*
X0028115Y0254368D01*
X0026517Y0252769D02*
X0023600Y0252769D01*
X0023600Y0251171D02*
X0024918Y0251171D01*
X0023700Y0249572D02*
X0023600Y0249572D01*
X0023600Y0247974D02*
X0023700Y0247974D01*
X0023700Y0246375D02*
X0023600Y0246375D01*
X0023600Y0244777D02*
X0023700Y0244777D01*
X0023700Y0243178D02*
X0023600Y0243178D01*
X0014360Y0249360D02*
X0013000Y0248000D01*
X0013000Y0240500D01*
X0014360Y0249360D02*
X0014360Y0272500D01*
X0018316Y0276747D02*
X0018400Y0276747D01*
X0024022Y0278345D02*
X0120978Y0278345D01*
X0120641Y0276747D02*
X0116617Y0276747D01*
X0116617Y0275148D02*
X0119416Y0275148D01*
X0118796Y0273550D02*
X0116617Y0273550D01*
X0116617Y0271951D02*
X0118796Y0271951D01*
X0119208Y0270353D02*
X0116617Y0270353D01*
X0116617Y0268754D02*
X0120140Y0268754D01*
X0122342Y0267156D02*
X0116018Y0267156D01*
X0124000Y0271904D02*
X0124000Y0279000D01*
X0124596Y0272500D02*
X0124000Y0271904D01*
X0126851Y0267156D02*
X0133175Y0267156D01*
X0132576Y0268754D02*
X0129053Y0268754D01*
X0144358Y0241580D02*
X0145642Y0241580D01*
X0147400Y0239981D02*
X0142600Y0239981D01*
X0142600Y0238383D02*
X0147400Y0238383D01*
X0147400Y0236784D02*
X0142600Y0236784D01*
X0142600Y0235186D02*
X0147400Y0235186D01*
X0147400Y0233587D02*
X0142600Y0233587D01*
X0142600Y0231989D02*
X0147400Y0231989D01*
X0147400Y0230390D02*
X0142600Y0230390D01*
X0142600Y0228792D02*
X0147400Y0228792D01*
X0147400Y0227193D02*
X0142600Y0227193D01*
X0142600Y0225595D02*
X0147400Y0225595D01*
X0148327Y0223996D02*
X0142600Y0223996D01*
X0142600Y0222398D02*
X0149926Y0222398D01*
X0142600Y0220799D02*
X0166838Y0220799D01*
X0199402Y0208011D02*
X0201838Y0208011D01*
X0201838Y0206412D02*
X0199402Y0206412D01*
X0199439Y0204814D02*
X0201838Y0204814D01*
X0201838Y0203215D02*
X0201037Y0203215D01*
X0203300Y0128085D02*
X0203662Y0128085D01*
X0203300Y0126487D02*
X0232523Y0126487D01*
X0237067Y0104114D02*
X0224000Y0104114D01*
X0224000Y0104000D01*
X0228162Y0100911D02*
X0231527Y0100911D01*
X0206571Y0059349D02*
X0203429Y0059349D01*
X0204814Y0057751D02*
X0205186Y0057751D01*
X0196571Y0059349D02*
X0193429Y0059349D01*
X0194814Y0057751D02*
X0195186Y0057751D01*
X0186571Y0059349D02*
X0183429Y0059349D01*
X0184814Y0057751D02*
X0185186Y0057751D01*
X0176571Y0059349D02*
X0173429Y0059349D01*
X0174814Y0057751D02*
X0175186Y0057751D01*
X0166571Y0059349D02*
X0163429Y0059349D01*
X0164814Y0057751D02*
X0165186Y0057751D01*
X0181477Y0041766D02*
X0191200Y0041766D01*
X0191200Y0040167D02*
X0182579Y0040167D01*
X0182685Y0038569D02*
X0191200Y0038569D01*
X0191200Y0036970D02*
X0182685Y0036970D01*
X0182685Y0035372D02*
X0191200Y0035372D01*
X0191200Y0033773D02*
X0182685Y0033773D01*
X0185485Y0032175D02*
X0189937Y0032175D01*
X0188461Y0030576D02*
X0185485Y0030576D01*
X0185485Y0028978D02*
X0187799Y0028978D01*
X0187665Y0027379D02*
X0185485Y0027379D01*
X0185485Y0025781D02*
X0187899Y0025781D01*
X0188580Y0024182D02*
X0185485Y0024182D01*
X0185314Y0022584D02*
X0190178Y0022584D01*
X0196751Y0022584D02*
X0201615Y0022584D01*
X0201444Y0024182D02*
X0198349Y0024182D01*
X0199030Y0025781D02*
X0201444Y0025781D01*
X0201444Y0027379D02*
X0199265Y0027379D01*
X0199130Y0028978D02*
X0201444Y0028978D01*
X0201444Y0030576D02*
X0198468Y0030576D01*
X0196992Y0032175D02*
X0201444Y0032175D01*
X0204700Y0033773D02*
X0195800Y0033773D01*
X0195800Y0035372D02*
X0204700Y0035372D01*
X0204700Y0036970D02*
X0195800Y0036970D01*
X0195800Y0038569D02*
X0204700Y0038569D01*
X0204700Y0040167D02*
X0195800Y0040167D01*
X0195800Y0041766D02*
X0204700Y0041766D01*
X0204700Y0043364D02*
X0195800Y0043364D01*
X0195290Y0044963D02*
X0204700Y0044963D01*
X0162378Y0032175D02*
X0155654Y0032175D01*
X0157130Y0030576D02*
X0160902Y0030576D01*
X0160240Y0028978D02*
X0157792Y0028978D01*
X0157926Y0027379D02*
X0160106Y0027379D01*
X0160340Y0025781D02*
X0157692Y0025781D01*
X0157011Y0024182D02*
X0161021Y0024182D01*
X0152126Y0027500D02*
X0152000Y0027374D01*
X0152000Y0021000D01*
X0151000Y0020000D01*
X0098000Y0020000D01*
X0097008Y0020992D01*
X0097008Y0027500D01*
X0102808Y0027379D02*
X0104987Y0027379D01*
X0105122Y0028978D02*
X0102674Y0028978D01*
X0102012Y0030576D02*
X0105784Y0030576D01*
X0107260Y0032175D02*
X0100536Y0032175D01*
X0102574Y0025781D02*
X0105222Y0025781D01*
X0105903Y0024182D02*
X0101892Y0024182D01*
X0115672Y0024182D02*
X0118767Y0024182D01*
X0118767Y0025781D02*
X0116353Y0025781D01*
X0116587Y0027379D02*
X0124186Y0027379D01*
X0124948Y0027379D02*
X0132546Y0027379D01*
X0132681Y0028978D02*
X0130367Y0028978D01*
X0130367Y0030576D02*
X0133343Y0030576D01*
X0134819Y0032175D02*
X0130250Y0032175D01*
X0124948Y0032175D02*
X0124186Y0032175D01*
X0124186Y0030576D02*
X0124948Y0030576D01*
X0124948Y0028978D02*
X0124186Y0028978D01*
X0130367Y0025781D02*
X0132781Y0025781D01*
X0133462Y0024182D02*
X0130367Y0024182D01*
X0118767Y0028978D02*
X0116453Y0028978D01*
X0115791Y0030576D02*
X0118767Y0030576D01*
X0118884Y0032175D02*
X0114315Y0032175D01*
X0134135Y0051357D02*
X0135865Y0051357D01*
X0141874Y0032175D02*
X0148598Y0032175D01*
X0147122Y0030576D02*
X0143350Y0030576D01*
X0144012Y0028978D02*
X0146460Y0028978D01*
X0146326Y0027379D02*
X0144146Y0027379D01*
X0143912Y0025781D02*
X0146560Y0025781D01*
X0147241Y0024182D02*
X0143231Y0024182D01*
X0104191Y0067342D02*
X0102809Y0067342D01*
X0099500Y0071500D02*
X0100000Y0072000D01*
X0100000Y0085000D01*
X0097385Y0080130D02*
X0094300Y0080130D01*
X0094300Y0078532D02*
X0097400Y0078532D01*
X0097400Y0076933D02*
X0094300Y0076933D01*
X0094300Y0075334D02*
X0095868Y0075334D01*
X0095338Y0073736D02*
X0094300Y0073736D01*
X0094300Y0072137D02*
X0095338Y0072137D01*
X0095338Y0070539D02*
X0094300Y0070539D01*
X0094300Y0068940D02*
X0095338Y0068940D01*
X0096191Y0067342D02*
X0094300Y0067342D01*
X0107500Y0071500D02*
X0112323Y0071500D01*
X0116063Y0075240D01*
X0115344Y0088123D02*
X0114656Y0088123D01*
X0112974Y0089721D02*
X0117026Y0089721D01*
X0118067Y0091320D02*
X0095681Y0091320D01*
X0095681Y0092918D02*
X0119665Y0092918D01*
X0119335Y0099312D02*
X0151345Y0099312D01*
X0146223Y0086524D02*
X0145322Y0086524D01*
X0115381Y0099312D02*
X0114619Y0099312D01*
X0114619Y0100911D02*
X0115381Y0100911D01*
X0107026Y0089721D02*
X0102974Y0089721D01*
X0104656Y0088123D02*
X0105344Y0088123D01*
X0097026Y0089721D02*
X0095681Y0089721D01*
X0095344Y0088123D02*
X0094300Y0088123D01*
X0094300Y0086524D02*
X0094678Y0086524D01*
X0094500Y0084926D02*
X0094300Y0084926D01*
X0094300Y0083327D02*
X0094740Y0083327D01*
X0094300Y0081729D02*
X0095493Y0081729D01*
X0053700Y0046561D02*
X0008000Y0046561D01*
X0008000Y0044963D02*
X0053700Y0044963D01*
X0053700Y0043364D02*
X0008000Y0043364D01*
X0008000Y0041766D02*
X0053700Y0041766D01*
X0053700Y0040167D02*
X0008000Y0040167D01*
X0008000Y0038569D02*
X0053700Y0038569D01*
X0053700Y0036970D02*
X0008000Y0036970D01*
X0008000Y0035372D02*
X0053700Y0035372D01*
X0069484Y0209609D02*
X0071638Y0209609D01*
X0070039Y0211208D02*
X0069484Y0211208D01*
X0070632Y0266700D02*
X0068325Y0266700D01*
X0066193Y0267583D01*
X0064561Y0269215D01*
X0063678Y0271346D01*
X0063678Y0273654D01*
X0064561Y0275785D01*
X0066193Y0277417D01*
X0068325Y0278300D01*
X0070632Y0278300D01*
X0072764Y0277417D01*
X0074395Y0275785D01*
X0075278Y0273654D01*
X0075278Y0271346D01*
X0074395Y0269215D01*
X0072764Y0267583D01*
X0070632Y0266700D01*
X0071733Y0267156D02*
X0078056Y0267156D01*
X0077458Y0268754D02*
X0073935Y0268754D01*
X0074867Y0270353D02*
X0077458Y0270353D01*
X0077458Y0271951D02*
X0075278Y0271951D01*
X0075278Y0273550D02*
X0077458Y0273550D01*
X0077458Y0275148D02*
X0074659Y0275148D01*
X0073434Y0276747D02*
X0077458Y0276747D01*
X0065523Y0276747D02*
X0061499Y0276747D01*
X0061499Y0277246D02*
X0060444Y0278300D01*
X0050953Y0278300D01*
X0049899Y0277246D01*
X0049899Y0267754D01*
X0050953Y0266700D01*
X0060444Y0266700D01*
X0061499Y0267754D01*
X0061499Y0277246D01*
X0061499Y0275148D02*
X0064297Y0275148D01*
X0063678Y0273550D02*
X0061499Y0273550D01*
X0061499Y0271951D02*
X0063678Y0271951D01*
X0064090Y0270353D02*
X0061499Y0270353D01*
X0061499Y0268754D02*
X0065022Y0268754D01*
X0067224Y0267156D02*
X0060900Y0267156D01*
X0050497Y0267156D02*
X0044174Y0267156D01*
X0045205Y0267583D02*
X0043073Y0266700D01*
X0040766Y0266700D01*
X0038634Y0267583D01*
X0037002Y0269215D01*
X0036119Y0271346D01*
X0036119Y0273654D01*
X0037002Y0275785D01*
X0038634Y0277417D01*
X0040766Y0278300D01*
X0043073Y0278300D01*
X0045205Y0277417D01*
X0046836Y0275785D01*
X0047719Y0273654D01*
X0047719Y0271346D01*
X0046836Y0269215D01*
X0045205Y0267583D01*
X0046376Y0268754D02*
X0049899Y0268754D01*
X0049899Y0270353D02*
X0047308Y0270353D01*
X0047719Y0271951D02*
X0049899Y0271951D01*
X0049899Y0273550D02*
X0047719Y0273550D01*
X0047100Y0275148D02*
X0049899Y0275148D01*
X0049899Y0276747D02*
X0045875Y0276747D01*
X0037964Y0276747D02*
X0033940Y0276747D01*
X0033940Y0275148D02*
X0036738Y0275148D01*
X0036119Y0273550D02*
X0033940Y0273550D01*
X0033940Y0271951D02*
X0036119Y0271951D01*
X0036531Y0270353D02*
X0033940Y0270353D01*
X0033940Y0268754D02*
X0037462Y0268754D01*
X0039665Y0267156D02*
X0033341Y0267156D01*
D41*
X0077780Y0151280D02*
X0075000Y0148500D01*
X0073071Y0148500D01*
X0072850Y0148720D01*
X0077780Y0151280D02*
X0079150Y0151280D01*
D42*
X0068000Y0159000D03*
X0063500Y0154500D03*
X0044500Y0159000D03*
X0054000Y0135000D03*
X0058000Y0105000D03*
X0058000Y0100000D03*
X0092000Y0092000D03*
X0140000Y0076000D03*
X0114000Y0141000D03*
X0101000Y0150000D03*
X0105000Y0186000D03*
X0091000Y0186000D03*
X0068000Y0187000D03*
X0068000Y0192000D03*
X0044500Y0187500D03*
X0039000Y0184000D03*
X0040000Y0198000D03*
X0030000Y0203000D03*
X0073000Y0236000D03*
X0081000Y0215000D03*
X0099000Y0214000D03*
X0099000Y0229000D03*
X0130000Y0201000D03*
X0182000Y0199000D03*
X0182000Y0217000D03*
X0230000Y0187500D03*
X0202000Y0173000D03*
X0230000Y0120500D03*
X0330000Y0202000D03*
X0330000Y0240000D03*
X0295500Y0241000D03*
X0275500Y0241000D03*
X0270500Y0024000D03*
X0284000Y0012000D03*
D43*
X0289626Y0027500D02*
X0289626Y0033374D01*
X0287000Y0036000D01*
X0287000Y0057000D01*
X0290000Y0060000D01*
X0297500Y0060000D01*
X0297500Y0070000D02*
X0290000Y0070000D01*
X0286000Y0074000D01*
X0273087Y0074000D01*
X0272500Y0074587D01*
X0272500Y0061500D01*
X0275000Y0059000D01*
X0275000Y0040000D01*
X0258000Y0053000D02*
X0253000Y0058000D01*
X0253000Y0074087D01*
X0252500Y0074587D01*
X0258000Y0053000D02*
X0258000Y0017000D01*
X0256000Y0015000D01*
X0181000Y0015000D01*
X0179685Y0016315D01*
X0179685Y0027500D01*
X0179685Y0039315D01*
X0178000Y0041000D01*
X0142000Y0041000D01*
X0140000Y0043000D01*
X0140000Y0055000D01*
X0035000Y0172000D02*
X0035000Y0174200D01*
X0124596Y0272500D02*
X0138376Y0272500D01*
X0329874Y0250000D02*
X0330000Y0249874D01*
X0330000Y0240000D01*
X0323500Y0058110D02*
X0323500Y0045500D01*
X0321000Y0043000D01*
X0307000Y0043000D01*
X0305000Y0041000D01*
X0305000Y0027874D01*
X0305374Y0027500D01*
D44*
X0077500Y0194500D03*
X0071000Y0180000D03*
X0066000Y0210000D03*
X0077500Y0222000D03*
X0099000Y0236000D03*
M02*
