G75*
%MOIN*%
%OFA0B0*%
%FSLAX25Y25*%
%IPPOS*%
%LPD*%
%AMOC8*
5,1,8,0,0,1.08239X$1,22.5*
%
%ADD10C,0.00700*%
%ADD11C,0.32096*%
%ADD12R,0.13100X0.13100*%
%ADD13R,0.07100X0.07100*%
%ADD14C,0.07100*%
%ADD15R,0.05718X0.05324*%
%ADD16R,0.05324X0.05718*%
%ADD17C,0.01361*%
%ADD18C,0.01969*%
%ADD19C,0.04537*%
%ADD20OC8,0.08000*%
%ADD21C,0.08000*%
%ADD22R,0.08600X0.08600*%
%ADD23C,0.08600*%
%ADD24R,0.03100X0.05600*%
%ADD25R,0.05324X0.05324*%
%ADD26R,0.04143X0.03750*%
%ADD27R,0.03750X0.04143*%
%ADD28OC8,0.07200*%
%ADD29R,0.06299X0.05512*%
%ADD30C,0.14443*%
%ADD31R,0.11624X0.06506*%
%ADD32R,0.08080X0.03356*%
%ADD33R,0.08080X0.04537*%
%ADD34C,0.04931*%
%ADD35C,0.06899*%
%ADD36R,0.09261X0.02962*%
%ADD37R,0.03000X0.09300*%
%ADD38R,0.02569X0.01978*%
%ADD39R,0.04537X0.01584*%
%ADD40R,0.10443X0.07293*%
%ADD41R,0.04362X0.04362*%
%ADD42R,0.03969X0.03969*%
D10*
X0261094Y0217550D02*
X0266365Y0217550D01*
X0269012Y0217550D02*
X0274284Y0217550D01*
X0276931Y0217550D02*
X0276931Y0225457D01*
X0279567Y0222821D01*
X0282202Y0225457D01*
X0282202Y0217550D01*
X0284850Y0218868D02*
X0286168Y0217550D01*
X0288803Y0217550D01*
X0290121Y0218868D01*
X0290121Y0220186D01*
X0288803Y0221503D01*
X0286168Y0221503D01*
X0284850Y0222821D01*
X0284850Y0224139D01*
X0286168Y0225457D01*
X0288803Y0225457D01*
X0290121Y0224139D01*
X0292769Y0222821D02*
X0295404Y0217550D01*
X0298040Y0222821D01*
X0300688Y0224139D02*
X0302005Y0225457D01*
X0304641Y0225457D01*
X0305959Y0224139D01*
X0305959Y0222821D01*
X0300688Y0217550D01*
X0305959Y0217550D01*
X0274284Y0225457D02*
X0269012Y0225457D01*
X0269012Y0217550D01*
X0269012Y0221503D02*
X0271648Y0221503D01*
X0261094Y0225457D02*
X0261094Y0217550D01*
D11*
X0031000Y0108000D03*
D12*
X0031000Y0139000D03*
X0031000Y0077000D03*
D13*
X0275000Y0040000D03*
D14*
X0265000Y0040000D03*
D15*
X0264000Y0024000D03*
X0264000Y0016000D03*
X0277000Y0016000D03*
X0277000Y0024000D03*
X0115000Y0102000D03*
X0115000Y0110000D03*
X0115000Y0121500D03*
X0115000Y0129500D03*
X0105000Y0171500D03*
X0105000Y0179500D03*
X0091000Y0179500D03*
X0091000Y0171500D03*
X0064500Y0173500D03*
X0064500Y0181500D03*
X0054500Y0181500D03*
X0054500Y0173500D03*
X0044500Y0173500D03*
X0044500Y0181500D03*
X0012500Y0180500D03*
X0012500Y0188500D03*
X0023500Y0216500D03*
X0023500Y0224500D03*
X0226000Y0246000D03*
X0226000Y0254000D03*
X0249500Y0254000D03*
X0249500Y0246000D03*
X0261000Y0246000D03*
X0261000Y0254000D03*
X0288000Y0254000D03*
X0288000Y0246000D03*
D16*
X0214000Y0224000D03*
X0206000Y0224000D03*
X0206000Y0206000D03*
X0214000Y0206000D03*
X0216000Y0179000D03*
X0224000Y0179000D03*
X0179000Y0206000D03*
X0171000Y0206000D03*
X0171000Y0224000D03*
X0179000Y0224000D03*
X0123000Y0224500D03*
X0115000Y0224500D03*
X0092000Y0221500D03*
X0084000Y0221500D03*
X0084000Y0199500D03*
X0092000Y0199500D03*
X0115000Y0201000D03*
X0123000Y0201000D03*
X0095000Y0155000D03*
X0087000Y0155000D03*
X0087000Y0145000D03*
X0095000Y0145000D03*
X0155000Y0095500D03*
X0163000Y0095500D03*
X0163000Y0072000D03*
X0155000Y0072000D03*
X0107500Y0071500D03*
X0099500Y0071500D03*
X0216000Y0104000D03*
X0224000Y0104000D03*
X0059000Y0210000D03*
X0051000Y0210000D03*
D17*
X0225912Y0211041D02*
X0229088Y0211041D01*
X0229088Y0207865D01*
X0225912Y0207865D01*
X0225912Y0211041D01*
X0225912Y0209225D02*
X0229088Y0209225D01*
X0229088Y0210585D02*
X0225912Y0210585D01*
X0225912Y0204135D02*
X0229088Y0204135D01*
X0229088Y0200959D01*
X0225912Y0200959D01*
X0225912Y0204135D01*
X0225912Y0202319D02*
X0229088Y0202319D01*
X0229088Y0203679D02*
X0225912Y0203679D01*
X0225912Y0222135D02*
X0229088Y0222135D01*
X0229088Y0218959D01*
X0225912Y0218959D01*
X0225912Y0222135D01*
X0225912Y0220319D02*
X0229088Y0220319D01*
X0229088Y0221679D02*
X0225912Y0221679D01*
X0225912Y0229041D02*
X0229088Y0229041D01*
X0229088Y0225865D01*
X0225912Y0225865D01*
X0225912Y0229041D01*
X0225912Y0227225D02*
X0229088Y0227225D01*
X0229088Y0228585D02*
X0225912Y0228585D01*
D18*
X0322047Y0287500D02*
X0322049Y0287392D01*
X0322055Y0287284D01*
X0322065Y0287177D01*
X0322078Y0287070D01*
X0322096Y0286964D01*
X0322118Y0286858D01*
X0322143Y0286753D01*
X0322172Y0286649D01*
X0322205Y0286547D01*
X0322242Y0286445D01*
X0322282Y0286345D01*
X0322326Y0286247D01*
X0322374Y0286150D01*
X0322425Y0286055D01*
X0322479Y0285962D01*
X0322537Y0285871D01*
X0322598Y0285782D01*
X0322663Y0285695D01*
X0322730Y0285611D01*
X0322801Y0285529D01*
X0322874Y0285450D01*
X0322950Y0285374D01*
X0323029Y0285301D01*
X0323111Y0285230D01*
X0323195Y0285163D01*
X0323282Y0285098D01*
X0323371Y0285037D01*
X0323462Y0284979D01*
X0323555Y0284925D01*
X0323650Y0284874D01*
X0323747Y0284826D01*
X0323845Y0284782D01*
X0323945Y0284742D01*
X0324047Y0284705D01*
X0324149Y0284672D01*
X0324253Y0284643D01*
X0324358Y0284618D01*
X0324464Y0284596D01*
X0324570Y0284578D01*
X0324677Y0284565D01*
X0324784Y0284555D01*
X0324892Y0284549D01*
X0325000Y0284547D01*
X0325108Y0284549D01*
X0325216Y0284555D01*
X0325323Y0284565D01*
X0325430Y0284578D01*
X0325536Y0284596D01*
X0325642Y0284618D01*
X0325747Y0284643D01*
X0325851Y0284672D01*
X0325953Y0284705D01*
X0326055Y0284742D01*
X0326155Y0284782D01*
X0326253Y0284826D01*
X0326350Y0284874D01*
X0326445Y0284925D01*
X0326538Y0284979D01*
X0326629Y0285037D01*
X0326718Y0285098D01*
X0326805Y0285163D01*
X0326889Y0285230D01*
X0326971Y0285301D01*
X0327050Y0285374D01*
X0327126Y0285450D01*
X0327199Y0285529D01*
X0327270Y0285611D01*
X0327337Y0285695D01*
X0327402Y0285782D01*
X0327463Y0285871D01*
X0327521Y0285962D01*
X0327575Y0286055D01*
X0327626Y0286150D01*
X0327674Y0286247D01*
X0327718Y0286345D01*
X0327758Y0286445D01*
X0327795Y0286547D01*
X0327828Y0286649D01*
X0327857Y0286753D01*
X0327882Y0286858D01*
X0327904Y0286964D01*
X0327922Y0287070D01*
X0327935Y0287177D01*
X0327945Y0287284D01*
X0327951Y0287392D01*
X0327953Y0287500D01*
X0327951Y0287608D01*
X0327945Y0287716D01*
X0327935Y0287823D01*
X0327922Y0287930D01*
X0327904Y0288036D01*
X0327882Y0288142D01*
X0327857Y0288247D01*
X0327828Y0288351D01*
X0327795Y0288453D01*
X0327758Y0288555D01*
X0327718Y0288655D01*
X0327674Y0288753D01*
X0327626Y0288850D01*
X0327575Y0288945D01*
X0327521Y0289038D01*
X0327463Y0289129D01*
X0327402Y0289218D01*
X0327337Y0289305D01*
X0327270Y0289389D01*
X0327199Y0289471D01*
X0327126Y0289550D01*
X0327050Y0289626D01*
X0326971Y0289699D01*
X0326889Y0289770D01*
X0326805Y0289837D01*
X0326718Y0289902D01*
X0326629Y0289963D01*
X0326538Y0290021D01*
X0326445Y0290075D01*
X0326350Y0290126D01*
X0326253Y0290174D01*
X0326155Y0290218D01*
X0326055Y0290258D01*
X0325953Y0290295D01*
X0325851Y0290328D01*
X0325747Y0290357D01*
X0325642Y0290382D01*
X0325536Y0290404D01*
X0325430Y0290422D01*
X0325323Y0290435D01*
X0325216Y0290445D01*
X0325108Y0290451D01*
X0325000Y0290453D01*
X0324892Y0290451D01*
X0324784Y0290445D01*
X0324677Y0290435D01*
X0324570Y0290422D01*
X0324464Y0290404D01*
X0324358Y0290382D01*
X0324253Y0290357D01*
X0324149Y0290328D01*
X0324047Y0290295D01*
X0323945Y0290258D01*
X0323845Y0290218D01*
X0323747Y0290174D01*
X0323650Y0290126D01*
X0323555Y0290075D01*
X0323462Y0290021D01*
X0323371Y0289963D01*
X0323282Y0289902D01*
X0323195Y0289837D01*
X0323111Y0289770D01*
X0323029Y0289699D01*
X0322950Y0289626D01*
X0322874Y0289550D01*
X0322801Y0289471D01*
X0322730Y0289389D01*
X0322663Y0289305D01*
X0322598Y0289218D01*
X0322537Y0289129D01*
X0322479Y0289038D01*
X0322425Y0288945D01*
X0322374Y0288850D01*
X0322326Y0288753D01*
X0322282Y0288655D01*
X0322242Y0288555D01*
X0322205Y0288453D01*
X0322172Y0288351D01*
X0322143Y0288247D01*
X0322118Y0288142D01*
X0322096Y0288036D01*
X0322078Y0287930D01*
X0322065Y0287823D01*
X0322055Y0287716D01*
X0322049Y0287608D01*
X0322047Y0287500D01*
X0015000Y0052047D02*
X0014892Y0052049D01*
X0014784Y0052055D01*
X0014677Y0052065D01*
X0014570Y0052078D01*
X0014464Y0052096D01*
X0014358Y0052118D01*
X0014253Y0052143D01*
X0014149Y0052172D01*
X0014047Y0052205D01*
X0013945Y0052242D01*
X0013845Y0052282D01*
X0013747Y0052326D01*
X0013650Y0052374D01*
X0013555Y0052425D01*
X0013462Y0052479D01*
X0013371Y0052537D01*
X0013282Y0052598D01*
X0013195Y0052663D01*
X0013111Y0052730D01*
X0013029Y0052801D01*
X0012950Y0052874D01*
X0012874Y0052950D01*
X0012801Y0053029D01*
X0012730Y0053111D01*
X0012663Y0053195D01*
X0012598Y0053282D01*
X0012537Y0053371D01*
X0012479Y0053462D01*
X0012425Y0053555D01*
X0012374Y0053650D01*
X0012326Y0053747D01*
X0012282Y0053845D01*
X0012242Y0053945D01*
X0012205Y0054047D01*
X0012172Y0054149D01*
X0012143Y0054253D01*
X0012118Y0054358D01*
X0012096Y0054464D01*
X0012078Y0054570D01*
X0012065Y0054677D01*
X0012055Y0054784D01*
X0012049Y0054892D01*
X0012047Y0055000D01*
X0015000Y0052047D02*
X0015108Y0052049D01*
X0015216Y0052055D01*
X0015323Y0052065D01*
X0015430Y0052078D01*
X0015536Y0052096D01*
X0015642Y0052118D01*
X0015747Y0052143D01*
X0015851Y0052172D01*
X0015953Y0052205D01*
X0016055Y0052242D01*
X0016155Y0052282D01*
X0016253Y0052326D01*
X0016350Y0052374D01*
X0016445Y0052425D01*
X0016538Y0052479D01*
X0016629Y0052537D01*
X0016718Y0052598D01*
X0016805Y0052663D01*
X0016889Y0052730D01*
X0016971Y0052801D01*
X0017050Y0052874D01*
X0017126Y0052950D01*
X0017199Y0053029D01*
X0017270Y0053111D01*
X0017337Y0053195D01*
X0017402Y0053282D01*
X0017463Y0053371D01*
X0017521Y0053462D01*
X0017575Y0053555D01*
X0017626Y0053650D01*
X0017674Y0053747D01*
X0017718Y0053845D01*
X0017758Y0053945D01*
X0017795Y0054047D01*
X0017828Y0054149D01*
X0017857Y0054253D01*
X0017882Y0054358D01*
X0017904Y0054464D01*
X0017922Y0054570D01*
X0017935Y0054677D01*
X0017945Y0054784D01*
X0017951Y0054892D01*
X0017953Y0055000D01*
X0017951Y0055108D01*
X0017945Y0055216D01*
X0017935Y0055323D01*
X0017922Y0055430D01*
X0017904Y0055536D01*
X0017882Y0055642D01*
X0017857Y0055747D01*
X0017828Y0055851D01*
X0017795Y0055953D01*
X0017758Y0056055D01*
X0017718Y0056155D01*
X0017674Y0056253D01*
X0017626Y0056350D01*
X0017575Y0056445D01*
X0017521Y0056538D01*
X0017463Y0056629D01*
X0017402Y0056718D01*
X0017337Y0056805D01*
X0017270Y0056889D01*
X0017199Y0056971D01*
X0017126Y0057050D01*
X0017050Y0057126D01*
X0016971Y0057199D01*
X0016889Y0057270D01*
X0016805Y0057337D01*
X0016718Y0057402D01*
X0016629Y0057463D01*
X0016538Y0057521D01*
X0016445Y0057575D01*
X0016350Y0057626D01*
X0016253Y0057674D01*
X0016155Y0057718D01*
X0016055Y0057758D01*
X0015953Y0057795D01*
X0015851Y0057828D01*
X0015747Y0057857D01*
X0015642Y0057882D01*
X0015536Y0057904D01*
X0015430Y0057922D01*
X0015323Y0057935D01*
X0015216Y0057945D01*
X0015108Y0057951D01*
X0015000Y0057953D01*
X0014892Y0057951D01*
X0014784Y0057945D01*
X0014677Y0057935D01*
X0014570Y0057922D01*
X0014464Y0057904D01*
X0014358Y0057882D01*
X0014253Y0057857D01*
X0014149Y0057828D01*
X0014047Y0057795D01*
X0013945Y0057758D01*
X0013845Y0057718D01*
X0013747Y0057674D01*
X0013650Y0057626D01*
X0013555Y0057575D01*
X0013462Y0057521D01*
X0013371Y0057463D01*
X0013282Y0057402D01*
X0013195Y0057337D01*
X0013111Y0057270D01*
X0013029Y0057199D01*
X0012950Y0057126D01*
X0012874Y0057050D01*
X0012801Y0056971D01*
X0012730Y0056889D01*
X0012663Y0056805D01*
X0012598Y0056718D01*
X0012537Y0056629D01*
X0012479Y0056538D01*
X0012425Y0056445D01*
X0012374Y0056350D01*
X0012326Y0056253D01*
X0012282Y0056155D01*
X0012242Y0056055D01*
X0012205Y0055953D01*
X0012172Y0055851D01*
X0012143Y0055747D01*
X0012118Y0055642D01*
X0012096Y0055536D01*
X0012078Y0055430D01*
X0012065Y0055323D01*
X0012055Y0055216D01*
X0012049Y0055108D01*
X0012047Y0055000D01*
X0322047Y0012500D02*
X0322049Y0012392D01*
X0322055Y0012284D01*
X0322065Y0012177D01*
X0322078Y0012070D01*
X0322096Y0011964D01*
X0322118Y0011858D01*
X0322143Y0011753D01*
X0322172Y0011649D01*
X0322205Y0011547D01*
X0322242Y0011445D01*
X0322282Y0011345D01*
X0322326Y0011247D01*
X0322374Y0011150D01*
X0322425Y0011055D01*
X0322479Y0010962D01*
X0322537Y0010871D01*
X0322598Y0010782D01*
X0322663Y0010695D01*
X0322730Y0010611D01*
X0322801Y0010529D01*
X0322874Y0010450D01*
X0322950Y0010374D01*
X0323029Y0010301D01*
X0323111Y0010230D01*
X0323195Y0010163D01*
X0323282Y0010098D01*
X0323371Y0010037D01*
X0323462Y0009979D01*
X0323555Y0009925D01*
X0323650Y0009874D01*
X0323747Y0009826D01*
X0323845Y0009782D01*
X0323945Y0009742D01*
X0324047Y0009705D01*
X0324149Y0009672D01*
X0324253Y0009643D01*
X0324358Y0009618D01*
X0324464Y0009596D01*
X0324570Y0009578D01*
X0324677Y0009565D01*
X0324784Y0009555D01*
X0324892Y0009549D01*
X0325000Y0009547D01*
X0325108Y0009549D01*
X0325216Y0009555D01*
X0325323Y0009565D01*
X0325430Y0009578D01*
X0325536Y0009596D01*
X0325642Y0009618D01*
X0325747Y0009643D01*
X0325851Y0009672D01*
X0325953Y0009705D01*
X0326055Y0009742D01*
X0326155Y0009782D01*
X0326253Y0009826D01*
X0326350Y0009874D01*
X0326445Y0009925D01*
X0326538Y0009979D01*
X0326629Y0010037D01*
X0326718Y0010098D01*
X0326805Y0010163D01*
X0326889Y0010230D01*
X0326971Y0010301D01*
X0327050Y0010374D01*
X0327126Y0010450D01*
X0327199Y0010529D01*
X0327270Y0010611D01*
X0327337Y0010695D01*
X0327402Y0010782D01*
X0327463Y0010871D01*
X0327521Y0010962D01*
X0327575Y0011055D01*
X0327626Y0011150D01*
X0327674Y0011247D01*
X0327718Y0011345D01*
X0327758Y0011445D01*
X0327795Y0011547D01*
X0327828Y0011649D01*
X0327857Y0011753D01*
X0327882Y0011858D01*
X0327904Y0011964D01*
X0327922Y0012070D01*
X0327935Y0012177D01*
X0327945Y0012284D01*
X0327951Y0012392D01*
X0327953Y0012500D01*
X0327951Y0012608D01*
X0327945Y0012716D01*
X0327935Y0012823D01*
X0327922Y0012930D01*
X0327904Y0013036D01*
X0327882Y0013142D01*
X0327857Y0013247D01*
X0327828Y0013351D01*
X0327795Y0013453D01*
X0327758Y0013555D01*
X0327718Y0013655D01*
X0327674Y0013753D01*
X0327626Y0013850D01*
X0327575Y0013945D01*
X0327521Y0014038D01*
X0327463Y0014129D01*
X0327402Y0014218D01*
X0327337Y0014305D01*
X0327270Y0014389D01*
X0327199Y0014471D01*
X0327126Y0014550D01*
X0327050Y0014626D01*
X0326971Y0014699D01*
X0326889Y0014770D01*
X0326805Y0014837D01*
X0326718Y0014902D01*
X0326629Y0014963D01*
X0326538Y0015021D01*
X0326445Y0015075D01*
X0326350Y0015126D01*
X0326253Y0015174D01*
X0326155Y0015218D01*
X0326055Y0015258D01*
X0325953Y0015295D01*
X0325851Y0015328D01*
X0325747Y0015357D01*
X0325642Y0015382D01*
X0325536Y0015404D01*
X0325430Y0015422D01*
X0325323Y0015435D01*
X0325216Y0015445D01*
X0325108Y0015451D01*
X0325000Y0015453D01*
X0324892Y0015451D01*
X0324784Y0015445D01*
X0324677Y0015435D01*
X0324570Y0015422D01*
X0324464Y0015404D01*
X0324358Y0015382D01*
X0324253Y0015357D01*
X0324149Y0015328D01*
X0324047Y0015295D01*
X0323945Y0015258D01*
X0323845Y0015218D01*
X0323747Y0015174D01*
X0323650Y0015126D01*
X0323555Y0015075D01*
X0323462Y0015021D01*
X0323371Y0014963D01*
X0323282Y0014902D01*
X0323195Y0014837D01*
X0323111Y0014770D01*
X0323029Y0014699D01*
X0322950Y0014626D01*
X0322874Y0014550D01*
X0322801Y0014471D01*
X0322730Y0014389D01*
X0322663Y0014305D01*
X0322598Y0014218D01*
X0322537Y0014129D01*
X0322479Y0014038D01*
X0322425Y0013945D01*
X0322374Y0013850D01*
X0322326Y0013753D01*
X0322282Y0013655D01*
X0322242Y0013555D01*
X0322205Y0013453D01*
X0322172Y0013351D01*
X0322143Y0013247D01*
X0322118Y0013142D01*
X0322096Y0013036D01*
X0322078Y0012930D01*
X0322065Y0012823D01*
X0322055Y0012716D01*
X0322049Y0012608D01*
X0322047Y0012500D01*
D19*
X0325000Y0012500D03*
X0015000Y0055000D03*
X0325000Y0287500D03*
D20*
X0220551Y0164803D03*
X0210551Y0164803D03*
X0210551Y0154803D03*
X0220551Y0154803D03*
X0220551Y0144803D03*
X0210551Y0144803D03*
D21*
X0140000Y0085000D03*
X0130000Y0085000D03*
X0120000Y0085000D03*
X0110000Y0085000D03*
X0100000Y0085000D03*
X0100000Y0055000D03*
X0110000Y0055000D03*
X0120000Y0055000D03*
X0130000Y0055000D03*
X0140000Y0055000D03*
X0160000Y0055000D03*
X0170000Y0055000D03*
X0180000Y0055000D03*
X0190000Y0055000D03*
X0200000Y0055000D03*
X0210000Y0055000D03*
X0297500Y0050000D03*
X0297500Y0060000D03*
X0297500Y0070000D03*
X0210000Y0245000D03*
X0200000Y0245000D03*
X0190000Y0245000D03*
X0180000Y0245000D03*
X0170000Y0245000D03*
X0160000Y0245000D03*
X0150000Y0245000D03*
X0140000Y0245000D03*
X0124000Y0245000D03*
X0114000Y0245000D03*
X0104000Y0245000D03*
X0094000Y0245000D03*
X0084000Y0245000D03*
X0074000Y0245000D03*
X0064000Y0245000D03*
X0054000Y0245000D03*
X0044000Y0245000D03*
X0034000Y0245000D03*
X0041500Y0216000D03*
X0032500Y0162000D03*
X0022500Y0162000D03*
X0012500Y0162000D03*
X0070000Y0055000D03*
X0080000Y0055000D03*
X0090000Y0055000D03*
D22*
X0014331Y0027500D03*
X0069449Y0027500D03*
X0124567Y0027500D03*
X0179685Y0027500D03*
X0207244Y0027500D03*
X0323500Y0058110D03*
X0303730Y0272500D03*
X0276171Y0272500D03*
X0248612Y0272500D03*
X0221053Y0272500D03*
X0193494Y0272500D03*
X0165935Y0272500D03*
X0138376Y0272500D03*
X0110817Y0272500D03*
X0083258Y0272500D03*
X0055699Y0272500D03*
X0028140Y0272500D03*
D23*
X0041919Y0272500D03*
X0014360Y0272500D03*
X0069478Y0272500D03*
X0097037Y0272500D03*
X0124596Y0272500D03*
X0152156Y0272500D03*
X0179715Y0272500D03*
X0207274Y0272500D03*
X0234833Y0272500D03*
X0262392Y0272500D03*
X0289951Y0272500D03*
X0323500Y0071890D03*
X0248583Y0027500D03*
X0234803Y0027500D03*
X0221024Y0027500D03*
X0193465Y0027500D03*
X0165906Y0027500D03*
X0152126Y0027500D03*
X0138346Y0027500D03*
X0110787Y0027500D03*
X0097008Y0027500D03*
X0083228Y0027500D03*
X0055669Y0027500D03*
X0041890Y0027500D03*
X0028110Y0027500D03*
D24*
X0039500Y0206000D03*
X0043500Y0206000D03*
D25*
X0252500Y0074587D03*
X0262500Y0074587D03*
X0272500Y0074587D03*
D26*
X0124331Y0071500D03*
X0116063Y0067760D03*
X0116063Y0075240D03*
X0187563Y0202260D03*
X0187563Y0209740D03*
X0195831Y0206000D03*
X0187563Y0220260D03*
X0187563Y0227740D03*
X0195831Y0224000D03*
X0233563Y0246260D03*
X0233563Y0253740D03*
X0241831Y0250000D03*
X0295563Y0246260D03*
X0295563Y0253740D03*
X0303831Y0250000D03*
X0092437Y0236240D03*
X0092437Y0228760D03*
X0084169Y0232500D03*
X0092437Y0214240D03*
X0084169Y0210500D03*
X0092437Y0206760D03*
D27*
X0115260Y0216937D03*
X0122740Y0216937D03*
X0119000Y0208669D03*
X0155260Y0087437D03*
X0162740Y0087437D03*
X0159000Y0079169D03*
X0268260Y0246063D03*
X0275740Y0246063D03*
X0272000Y0254331D03*
D28*
X0013000Y0240500D03*
X0013000Y0200500D03*
D29*
X0013000Y0216463D03*
X0013000Y0224537D03*
D30*
X0015000Y0146000D03*
X0015000Y0070000D03*
X0325000Y0027500D03*
X0325000Y0272500D03*
D31*
X0329587Y0196240D03*
X0244941Y0187579D03*
X0244941Y0088760D03*
X0329587Y0088760D03*
D32*
X0237067Y0094272D03*
X0237067Y0098996D03*
D33*
X0237067Y0104114D03*
X0237067Y0110807D03*
X0237067Y0120354D03*
X0237067Y0130197D03*
X0237067Y0140039D03*
X0237067Y0149882D03*
X0237067Y0159724D03*
X0237067Y0169567D03*
X0237067Y0179409D03*
D34*
X0248878Y0097224D03*
D35*
X0248878Y0179902D03*
D36*
X0103110Y0135000D03*
X0103110Y0130000D03*
X0103110Y0125000D03*
X0103110Y0120000D03*
X0103110Y0115000D03*
X0103110Y0110000D03*
X0103110Y0105000D03*
X0103110Y0100000D03*
X0066890Y0100000D03*
X0066890Y0105000D03*
X0066890Y0110000D03*
X0066890Y0115000D03*
X0066890Y0120000D03*
X0066890Y0125000D03*
X0066890Y0130000D03*
X0066890Y0135000D03*
D37*
X0035000Y0174200D03*
X0030000Y0174200D03*
X0025000Y0174200D03*
X0020000Y0174200D03*
X0020000Y0194800D03*
X0025000Y0194800D03*
X0030000Y0194800D03*
X0035000Y0194800D03*
D38*
X0072850Y0153839D03*
X0072850Y0151280D03*
X0072850Y0148720D03*
X0072850Y0146161D03*
X0079150Y0146161D03*
X0079150Y0148720D03*
X0079150Y0151280D03*
X0079150Y0153839D03*
D39*
X0062819Y0191063D03*
X0062819Y0193031D03*
X0062819Y0195000D03*
X0062819Y0196969D03*
X0062819Y0198937D03*
X0046181Y0198937D03*
X0046181Y0196969D03*
X0046181Y0195000D03*
X0046181Y0193031D03*
X0046181Y0191063D03*
D40*
X0289626Y0027500D03*
X0305374Y0027500D03*
X0314126Y0250000D03*
X0329874Y0250000D03*
D41*
X0330000Y0240000D03*
X0295500Y0241000D03*
X0275500Y0241000D03*
X0330000Y0202000D03*
X0230000Y0187500D03*
X0202000Y0173000D03*
X0182000Y0199000D03*
X0182000Y0217000D03*
X0130000Y0201000D03*
X0105000Y0186000D03*
X0091000Y0186000D03*
X0068000Y0187000D03*
X0068000Y0192000D03*
X0044500Y0187500D03*
X0039000Y0184000D03*
X0040000Y0198000D03*
X0030000Y0203000D03*
X0073000Y0236000D03*
X0081000Y0215000D03*
X0099000Y0214000D03*
X0099000Y0229000D03*
X0068000Y0159000D03*
X0063500Y0154500D03*
X0044500Y0159000D03*
X0054000Y0135000D03*
X0058000Y0105000D03*
X0058000Y0100000D03*
X0092000Y0092000D03*
X0140000Y0076000D03*
X0114000Y0141000D03*
X0101000Y0150000D03*
X0230000Y0120500D03*
X0270500Y0024000D03*
X0284000Y0012000D03*
D42*
X0077500Y0194500D03*
X0071000Y0180000D03*
X0066000Y0210000D03*
X0077500Y0222000D03*
X0099000Y0236000D03*
M02*
