G04 This is an RS-274x file exported by *
G04 gerbv version 2.6.0 *
G04 More information is available about gerbv at *
G04 http://gerbv.gpleda.org/ *
G04 --End of header info--*
%MOIN*%
%FSLAX36Y36*%
%IPPOS*%
G04 --Define apertures--*
%ADD10C,0.0100*%
%ADD11C,0.0010*%
%ADD12C,0.0050*%
%ADD13C,0.0394*%
%ADD14C,0.0787*%
%ADD15C,0.0812*%
%ADD16C,0.0200*%
G04 --Start main section--*
G54D10*
G01X0100000Y0100000D02*
G01X3475000Y0100000D01*
G01X3475000Y0100000D02*
G01X3475000Y3000000D01*
G01X3475000Y3000000D02*
G01X0100000Y3000000D01*
G01X0100000Y3000000D02*
G01X0100000Y0100000D01*
G54D11*
G01X2517130Y1022240D02*
G01X2517150Y1023170D01*
G01X2517150Y1023170D02*
G01X2517210Y1024090D01*
G01X2517210Y1024090D02*
G01X2517310Y1025010D01*
G01X2517310Y1025010D02*
G01X2517450Y1025920D01*
G01X2517450Y1025920D02*
G01X2517620Y1026830D01*
G01X2517620Y1026830D02*
G01X2517840Y1027730D01*
G01X2517840Y1027730D02*
G01X2518090Y1028620D01*
G01X2518090Y1028620D02*
G01X2518380Y1029500D01*
G01X2518380Y1029500D02*
G01X2518710Y1030360D01*
G01X2518710Y1030360D02*
G01X2519080Y1031210D01*
G01X2519080Y1031210D02*
G01X2519480Y1032050D01*
G01X2519480Y1032050D02*
G01X2519920Y1032860D01*
G01X2519920Y1032860D02*
G01X2520390Y1033660D01*
G01X2520390Y1033660D02*
G01X2520890Y1034440D01*
G01X2520890Y1034440D02*
G01X2521430Y1035190D01*
G01X2521430Y1035190D02*
G01X2522000Y1035920D01*
G01X2522000Y1035920D02*
G01X2522600Y1036620D01*
G01X2522600Y1036620D02*
G01X2523230Y1037300D01*
G01X2523230Y1037300D02*
G01X2523890Y1037950D01*
G01X2523890Y1037950D02*
G01X2524570Y1038570D01*
G01X2524570Y1038570D02*
G01X2525280Y1039170D01*
G01X2525280Y1039170D02*
G01X2526020Y1039730D01*
G01X2526020Y1039730D02*
G01X2526780Y1040260D01*
G01X2526780Y1040260D02*
G01X2527560Y1040750D01*
G01X2527560Y1040750D02*
G01X2528360Y1041220D01*
G01X2528360Y1041220D02*
G01X2529180Y1041640D01*
G01X2529180Y1041640D02*
G01X2530020Y1042040D01*
G01X2530020Y1042040D02*
G01X2530870Y1042390D01*
G01X2530870Y1042390D02*
G01X2531740Y1042710D01*
G01X2531740Y1042710D02*
G01X2532620Y1043000D01*
G01X2532620Y1043000D02*
G01X2533510Y1043240D01*
G01X2533510Y1043240D02*
G01X2534410Y1043450D01*
G01X2534410Y1043450D02*
G01X2535320Y1043610D01*
G01X2535320Y1043610D02*
G01X2536240Y1043740D01*
G01X2536240Y1043740D02*
G01X2537160Y1043830D01*
G01X2537160Y1043830D02*
G01X2538090Y1043880D01*
G01X2538090Y1043880D02*
G01X2539010Y1043890D01*
G01X2539010Y1043890D02*
G01X2539940Y1043860D01*
G01X2539940Y1043860D02*
G01X2540860Y1043790D01*
G01X2540860Y1043790D02*
G01X2541780Y1043680D01*
G01X2541780Y1043680D02*
G01X2542690Y1043530D01*
G01X2542690Y1043530D02*
G01X2543600Y1043350D01*
G01X2543600Y1043350D02*
G01X2544500Y1043120D01*
G01X2544500Y1043120D02*
G01X2545380Y1042860D01*
G01X2545380Y1042860D02*
G01X2546260Y1042560D01*
G01X2546260Y1042560D02*
G01X2547120Y1042220D01*
G01X2547120Y1042220D02*
G01X2547960Y1041850D01*
G01X2547960Y1041850D02*
G01X2548790Y1041430D01*
G01X2548790Y1041430D02*
G01X2549600Y1040990D01*
G01X2549600Y1040990D02*
G01X2550400Y1040510D01*
G01X2550400Y1040510D02*
G01X2551170Y1040000D01*
G01X2551170Y1040000D02*
G01X2551910Y1039450D01*
G01X2551910Y1039450D02*
G01X2552640Y1038870D01*
G01X2552640Y1038870D02*
G01X2553340Y1038270D01*
G01X2553340Y1038270D02*
G01X2554010Y1037630D01*
G01X2554010Y1037630D02*
G01X2554650Y1036970D01*
G01X2554650Y1036970D02*
G01X2555270Y1036270D01*
G01X2555270Y1036270D02*
G01X2555850Y1035560D01*
G01X2555850Y1035560D02*
G01X2556400Y1034820D01*
G01X2556400Y1034820D02*
G01X2556920Y1034050D01*
G01X2556920Y1034050D02*
G01X2557410Y1033260D01*
G01X2557410Y1033260D02*
G01X2557870Y1032460D01*
G01X2557870Y1032460D02*
G01X2558290Y1031630D01*
G01X2558290Y1031630D02*
G01X2558670Y1030790D01*
G01X2558670Y1030790D02*
G01X2559020Y1029930D01*
G01X2559020Y1029930D02*
G01X2559330Y1029060D01*
G01X2559330Y1029060D02*
G01X2559600Y1028180D01*
G01X2559600Y1028180D02*
G01X2559830Y1027280D01*
G01X2559830Y1027280D02*
G01X2560030Y1026380D01*
G01X2560030Y1026380D02*
G01X2560190Y1025470D01*
G01X2560190Y1025470D02*
G01X2560310Y1024550D01*
G01X2560310Y1024550D02*
G01X2560390Y1023630D01*
G01X2560390Y1023630D02*
G01X2560430Y1022700D01*
G01X2560430Y1022700D02*
G01X2560430Y1021780D01*
G01X2560430Y1021780D02*
G01X2560390Y1020850D01*
G01X2560390Y1020850D02*
G01X2560310Y1019930D01*
G01X2560310Y1019930D02*
G01X2560190Y1019010D01*
G01X2560190Y1019010D02*
G01X2560030Y1018100D01*
G01X2560030Y1018100D02*
G01X2559830Y1017200D01*
G01X2559830Y1017200D02*
G01X2559600Y1016300D01*
G01X2559600Y1016300D02*
G01X2559330Y1015420D01*
G01X2559330Y1015420D02*
G01X2559020Y1014550D01*
G01X2559020Y1014550D02*
G01X2558670Y1013690D01*
G01X2558670Y1013690D02*
G01X2558290Y1012850D01*
G01X2558290Y1012850D02*
G01X2557870Y1012020D01*
G01X2557870Y1012020D02*
G01X2557410Y1011220D01*
G01X2557410Y1011220D02*
G01X2556920Y1010430D01*
G01X2556920Y1010430D02*
G01X2556400Y1009660D01*
G01X2556400Y1009660D02*
G01X2555850Y1008920D01*
G01X2555850Y1008920D02*
G01X2555270Y1008210D01*
G01X2555270Y1008210D02*
G01X2554650Y1007510D01*
G01X2554650Y1007510D02*
G01X2554010Y1006850D01*
G01X2554010Y1006850D02*
G01X2553340Y1006210D01*
G01X2553340Y1006210D02*
G01X2552640Y1005610D01*
G01X2552640Y1005610D02*
G01X2551910Y1005030D01*
G01X2551910Y1005030D02*
G01X2551170Y1004480D01*
G01X2551170Y1004480D02*
G01X2550400Y1003970D01*
G01X2550400Y1003970D02*
G01X2549610Y1003490D01*
G01X2549610Y1003490D02*
G01X2548790Y1003050D01*
G01X2548790Y1003050D02*
G01X2547960Y1002630D01*
G01X2547960Y1002630D02*
G01X2547120Y1002260D01*
G01X2547120Y1002260D02*
G01X2546260Y1001920D01*
G01X2546260Y1001920D02*
G01X2545380Y1001620D01*
G01X2545380Y1001620D02*
G01X2544500Y1001360D01*
G01X2544500Y1001360D02*
G01X2543600Y1001130D01*
G01X2543600Y1001130D02*
G01X2542690Y1000950D01*
G01X2542690Y1000950D02*
G01X2541780Y1000800D01*
G01X2541780Y1000800D02*
G01X2540860Y1000690D01*
G01X2540860Y1000690D02*
G01X2539940Y1000620D01*
G01X2539940Y1000620D02*
G01X2539010Y1000590D01*
G01X2539010Y1000590D02*
G01X2538090Y1000600D01*
G01X2538090Y1000600D02*
G01X2537160Y1000650D01*
G01X2537160Y1000650D02*
G01X2536240Y1000740D01*
G01X2536240Y1000740D02*
G01X2535320Y1000870D01*
G01X2535320Y1000870D02*
G01X2534410Y1001030D01*
G01X2534410Y1001030D02*
G01X2533510Y1001240D01*
G01X2533510Y1001240D02*
G01X2532620Y1001480D01*
G01X2532620Y1001480D02*
G01X2531740Y1001770D01*
G01X2531740Y1001770D02*
G01X2530870Y1002090D01*
G01X2530870Y1002090D02*
G01X2530020Y1002440D01*
G01X2530020Y1002440D02*
G01X2529180Y1002840D01*
G01X2529180Y1002840D02*
G01X2528360Y1003260D01*
G01X2528360Y1003260D02*
G01X2527560Y1003730D01*
G01X2527560Y1003730D02*
G01X2526780Y1004220D01*
G01X2526780Y1004220D02*
G01X2526020Y1004750D01*
G01X2526020Y1004750D02*
G01X2525280Y1005310D01*
G01X2525280Y1005310D02*
G01X2524570Y1005910D01*
G01X2524570Y1005910D02*
G01X2523890Y1006530D01*
G01X2523890Y1006530D02*
G01X2523230Y1007180D01*
G01X2523230Y1007180D02*
G01X2522600Y1007860D01*
G01X2522600Y1007860D02*
G01X2522000Y1008560D01*
G01X2522000Y1008560D02*
G01X2521430Y1009290D01*
G01X2521430Y1009290D02*
G01X2520890Y1010040D01*
G01X2520890Y1010040D02*
G01X2520390Y1010820D01*
G01X2520390Y1010820D02*
G01X2519920Y1011620D01*
G01X2519920Y1011620D02*
G01X2519480Y1012430D01*
G01X2519480Y1012430D02*
G01X2519080Y1013270D01*
G01X2519080Y1013270D02*
G01X2518710Y1014120D01*
G01X2518710Y1014120D02*
G01X2518380Y1014980D01*
G01X2518380Y1014980D02*
G01X2518090Y1015860D01*
G01X2518090Y1015860D02*
G01X2517840Y1016750D01*
G01X2517840Y1016750D02*
G01X2517620Y1017650D01*
G01X2517620Y1017650D02*
G01X2517450Y1018560D01*
G01X2517450Y1018560D02*
G01X2517310Y1019470D01*
G01X2517310Y1019470D02*
G01X2517210Y1020390D01*
G01X2517210Y1020390D02*
G01X2517150Y1021310D01*
G01X2517150Y1021310D02*
G01X2517130Y1022240D01*
G01X2507280Y1849020D02*
G01X2507300Y1850140D01*
G01X2507300Y1850140D02*
G01X2507360Y1851250D01*
G01X2507360Y1851250D02*
G01X2507460Y1852370D01*
G01X2507460Y1852370D02*
G01X2507600Y1853480D01*
G01X2507600Y1853480D02*
G01X2507770Y1854580D01*
G01X2507770Y1854580D02*
G01X2507990Y1855680D01*
G01X2507990Y1855680D02*
G01X2508250Y1856770D01*
G01X2508250Y1856770D02*
G01X2508540Y1857850D01*
G01X2508540Y1857850D02*
G01X2508870Y1858910D01*
G01X2508870Y1858910D02*
G01X2509240Y1859970D01*
G01X2509240Y1859970D02*
G01X2509650Y1861010D01*
G01X2509650Y1861010D02*
G01X2510100Y1862040D01*
G01X2510100Y1862040D02*
G01X2510580Y1863050D01*
G01X2510580Y1863050D02*
G01X2511090Y1864040D01*
G01X2511090Y1864040D02*
G01X2511640Y1865010D01*
G01X2511640Y1865010D02*
G01X2512230Y1865960D01*
G01X2512230Y1865960D02*
G01X2512840Y1866900D01*
G01X2512840Y1866900D02*
G01X2513490Y1867810D01*
G01X2513490Y1867810D02*
G01X2514180Y1868690D01*
G01X2514180Y1868690D02*
G01X2514890Y1869550D01*
G01X2514890Y1869550D02*
G01X2515630Y1870390D01*
G01X2515630Y1870390D02*
G01X2516410Y1871190D01*
G01X2516410Y1871190D02*
G01X2517210Y1871970D01*
G01X2517210Y1871970D02*
G01X2518040Y1872730D01*
G01X2518040Y1872730D02*
G01X2518890Y1873450D01*
G01X2518890Y1873450D02*
G01X2519770Y1874140D01*
G01X2519770Y1874140D02*
G01X2520670Y1874800D01*
G01X2520670Y1874800D02*
G01X2521600Y1875420D01*
G01X2521600Y1875420D02*
G01X2522550Y1876020D01*
G01X2522550Y1876020D02*
G01X2523520Y1876580D01*
G01X2523520Y1876580D02*
G01X2524500Y1877100D01*
G01X2524500Y1877100D02*
G01X2525510Y1877590D01*
G01X2525510Y1877590D02*
G01X2526530Y1878040D01*
G01X2526530Y1878040D02*
G01X2527570Y1878460D01*
G01X2527570Y1878460D02*
G01X2528620Y1878840D01*
G01X2528620Y1878840D02*
G01X2529690Y1879180D01*
G01X2529690Y1879180D02*
G01X2530760Y1879480D01*
G01X2530760Y1879480D02*
G01X2531850Y1879750D01*
G01X2531850Y1879750D02*
G01X2532940Y1879970D01*
G01X2532940Y1879970D02*
G01X2534050Y1880160D01*
G01X2534050Y1880160D02*
G01X2535150Y1880310D01*
G01X2535150Y1880310D02*
G01X2536270Y1880420D01*
G01X2536270Y1880420D02*
G01X2537380Y1880490D01*
G01X2537380Y1880490D02*
G01X2538500Y1880520D01*
G01X2538500Y1880520D02*
G01X2539620Y1880510D01*
G01X2539620Y1880510D02*
G01X2540740Y1880460D01*
G01X2540740Y1880460D02*
G01X2541850Y1880370D01*
G01X2541850Y1880370D02*
G01X2542960Y1880240D01*
G01X2542960Y1880240D02*
G01X2544070Y1880070D01*
G01X2544070Y1880070D02*
G01X2545170Y1879870D01*
G01X2545170Y1879870D02*
G01X2546260Y1879620D01*
G01X2546260Y1879620D02*
G01X2547340Y1879340D01*
G01X2547340Y1879340D02*
G01X2548410Y1879010D01*
G01X2548410Y1879010D02*
G01X2549470Y1878650D01*
G01X2549470Y1878650D02*
G01X2550510Y1878250D01*
G01X2550510Y1878250D02*
G01X2551540Y1877820D01*
G01X2551540Y1877820D02*
G01X2552560Y1877350D01*
G01X2552560Y1877350D02*
G01X2553550Y1876840D01*
G01X2553550Y1876840D02*
G01X2554530Y1876300D01*
G01X2554530Y1876300D02*
G01X2555490Y1875720D01*
G01X2555490Y1875720D02*
G01X2556430Y1875110D01*
G01X2556430Y1875110D02*
G01X2557340Y1874470D01*
G01X2557340Y1874470D02*
G01X2558230Y1873800D01*
G01X2558230Y1873800D02*
G01X2559100Y1873090D01*
G01X2559100Y1873090D02*
G01X2559940Y1872350D01*
G01X2559940Y1872350D02*
G01X2560760Y1871590D01*
G01X2560760Y1871590D02*
G01X2561540Y1870790D01*
G01X2561540Y1870790D02*
G01X2562300Y1869970D01*
G01X2562300Y1869970D02*
G01X2563030Y1869120D01*
G01X2563030Y1869120D02*
G01X2563730Y1868250D01*
G01X2563730Y1868250D02*
G01X2564390Y1867350D01*
G01X2564390Y1867350D02*
G01X2565030Y1866430D01*
G01X2565030Y1866430D02*
G01X2565630Y1865490D01*
G01X2565630Y1865490D02*
G01X2566200Y1864530D01*
G01X2566200Y1864530D02*
G01X2566730Y1863540D01*
G01X2566730Y1863540D02*
G01X2567230Y1862540D01*
G01X2567230Y1862540D02*
G01X2567690Y1861530D01*
G01X2567690Y1861530D02*
G01X2568120Y1860490D01*
G01X2568120Y1860490D02*
G01X2568510Y1859440D01*
G01X2568510Y1859440D02*
G01X2568860Y1858380D01*
G01X2568860Y1858380D02*
G01X2569170Y1857310D01*
G01X2569170Y1857310D02*
G01X2569450Y1856220D01*
G01X2569450Y1856220D02*
G01X2569680Y1855130D01*
G01X2569680Y1855130D02*
G01X2569880Y1854030D01*
G01X2569880Y1854030D02*
G01X2570040Y1852920D01*
G01X2570040Y1852920D02*
G01X2570160Y1851810D01*
G01X2570160Y1851810D02*
G01X2570240Y1850700D01*
G01X2570240Y1850700D02*
G01X2570280Y1849580D01*
G01X2570280Y1849580D02*
G01X2570280Y1848460D01*
G01X2570280Y1848460D02*
G01X2570240Y1847340D01*
G01X2570240Y1847340D02*
G01X2570160Y1846230D01*
G01X2570160Y1846230D02*
G01X2570040Y1845120D01*
G01X2570040Y1845120D02*
G01X2569880Y1844010D01*
G01X2569880Y1844010D02*
G01X2569680Y1842910D01*
G01X2569680Y1842910D02*
G01X2569450Y1841820D01*
G01X2569450Y1841820D02*
G01X2569170Y1840730D01*
G01X2569170Y1840730D02*
G01X2568860Y1839660D01*
G01X2568860Y1839660D02*
G01X2568510Y1838600D01*
G01X2568510Y1838600D02*
G01X2568120Y1837550D01*
G01X2568120Y1837550D02*
G01X2567690Y1836510D01*
G01X2567690Y1836510D02*
G01X2567230Y1835500D01*
G01X2567230Y1835500D02*
G01X2566730Y1834500D01*
G01X2566730Y1834500D02*
G01X2566200Y1833510D01*
G01X2566200Y1833510D02*
G01X2565630Y1832550D01*
G01X2565630Y1832550D02*
G01X2565030Y1831610D01*
G01X2565030Y1831610D02*
G01X2564390Y1830690D01*
G01X2564390Y1830690D02*
G01X2563730Y1829790D01*
G01X2563730Y1829790D02*
G01X2563030Y1828920D01*
G01X2563030Y1828920D02*
G01X2562300Y1828070D01*
G01X2562300Y1828070D02*
G01X2561540Y1827250D01*
G01X2561540Y1827250D02*
G01X2560760Y1826450D01*
G01X2560760Y1826450D02*
G01X2559940Y1825690D01*
G01X2559940Y1825690D02*
G01X2559100Y1824950D01*
G01X2559100Y1824950D02*
G01X2558230Y1824240D01*
G01X2558230Y1824240D02*
G01X2557340Y1823570D01*
G01X2557340Y1823570D02*
G01X2556430Y1822930D01*
G01X2556430Y1822930D02*
G01X2555490Y1822320D01*
G01X2555490Y1822320D02*
G01X2554530Y1821740D01*
G01X2554530Y1821740D02*
G01X2553550Y1821200D01*
G01X2553550Y1821200D02*
G01X2552560Y1820690D01*
G01X2552560Y1820690D02*
G01X2551540Y1820220D01*
G01X2551540Y1820220D02*
G01X2550510Y1819790D01*
G01X2550510Y1819790D02*
G01X2549470Y1819390D01*
G01X2549470Y1819390D02*
G01X2548410Y1819030D01*
G01X2548410Y1819030D02*
G01X2547340Y1818700D01*
G01X2547340Y1818700D02*
G01X2546260Y1818420D01*
G01X2546260Y1818420D02*
G01X2545170Y1818170D01*
G01X2545170Y1818170D02*
G01X2544070Y1817970D01*
G01X2544070Y1817970D02*
G01X2542960Y1817800D01*
G01X2542960Y1817800D02*
G01X2541850Y1817670D01*
G01X2541850Y1817670D02*
G01X2540740Y1817580D01*
G01X2540740Y1817580D02*
G01X2539620Y1817530D01*
G01X2539620Y1817530D02*
G01X2538500Y1817520D01*
G01X2538500Y1817520D02*
G01X2537380Y1817550D01*
G01X2537380Y1817550D02*
G01X2536270Y1817620D01*
G01X2536270Y1817620D02*
G01X2535150Y1817730D01*
G01X2535150Y1817730D02*
G01X2534050Y1817880D01*
G01X2534050Y1817880D02*
G01X2532940Y1818070D01*
G01X2532940Y1818070D02*
G01X2531850Y1818290D01*
G01X2531850Y1818290D02*
G01X2530760Y1818560D01*
G01X2530760Y1818560D02*
G01X2529690Y1818860D01*
G01X2529690Y1818860D02*
G01X2528620Y1819200D01*
G01X2528620Y1819200D02*
G01X2527570Y1819580D01*
G01X2527570Y1819580D02*
G01X2526530Y1820000D01*
G01X2526530Y1820000D02*
G01X2525510Y1820450D01*
G01X2525510Y1820450D02*
G01X2524500Y1820940D01*
G01X2524500Y1820940D02*
G01X2523520Y1821460D01*
G01X2523520Y1821460D02*
G01X2522550Y1822020D01*
G01X2522550Y1822020D02*
G01X2521600Y1822620D01*
G01X2521600Y1822620D02*
G01X2520670Y1823240D01*
G01X2520670Y1823240D02*
G01X2519770Y1823900D01*
G01X2519770Y1823900D02*
G01X2518890Y1824590D01*
G01X2518890Y1824590D02*
G01X2518040Y1825310D01*
G01X2518040Y1825310D02*
G01X2517210Y1826070D01*
G01X2517210Y1826070D02*
G01X2516410Y1826850D01*
G01X2516410Y1826850D02*
G01X2515630Y1827650D01*
G01X2515630Y1827650D02*
G01X2514890Y1828490D01*
G01X2514890Y1828490D02*
G01X2514180Y1829350D01*
G01X2514180Y1829350D02*
G01X2513490Y1830230D01*
G01X2513490Y1830230D02*
G01X2512840Y1831140D01*
G01X2512840Y1831140D02*
G01X2512230Y1832080D01*
G01X2512230Y1832080D02*
G01X2511640Y1833030D01*
G01X2511640Y1833030D02*
G01X2511090Y1834000D01*
G01X2511090Y1834000D02*
G01X2510580Y1834990D01*
G01X2510580Y1834990D02*
G01X2510100Y1836000D01*
G01X2510100Y1836000D02*
G01X2509650Y1837030D01*
G01X2509650Y1837030D02*
G01X2509240Y1838070D01*
G01X2509240Y1838070D02*
G01X2508870Y1839130D01*
G01X2508870Y1839130D02*
G01X2508540Y1840190D01*
G01X2508540Y1840190D02*
G01X2508250Y1841270D01*
G01X2508250Y1841270D02*
G01X2507990Y1842360D01*
G01X2507990Y1842360D02*
G01X2507770Y1843460D01*
G01X2507770Y1843460D02*
G01X2507600Y1844560D01*
G01X2507600Y1844560D02*
G01X2507460Y1845670D01*
G01X2507460Y1845670D02*
G01X2507360Y1846790D01*
G01X2507360Y1846790D02*
G01X2507300Y1847900D01*
G01X2507300Y1847900D02*
G01X2507280Y1849020D01*
G54D10*
G01X0100000Y3100000D02*
G01X3475000Y3100000D01*
G01X3475000Y3100000D02*
G01X3475000Y6000000D01*
G01X3475000Y6000000D02*
G01X0100000Y6000000D01*
G01X0100000Y6000000D02*
G01X0100000Y3100000D01*
G54D11*
G01X2517130Y4022240D02*
G01X2517150Y4023170D01*
G01X2517150Y4023170D02*
G01X2517210Y4024090D01*
G01X2517210Y4024090D02*
G01X2517310Y4025010D01*
G01X2517310Y4025010D02*
G01X2517450Y4025920D01*
G01X2517450Y4025920D02*
G01X2517620Y4026830D01*
G01X2517620Y4026830D02*
G01X2517840Y4027730D01*
G01X2517840Y4027730D02*
G01X2518090Y4028620D01*
G01X2518090Y4028620D02*
G01X2518380Y4029500D01*
G01X2518380Y4029500D02*
G01X2518710Y4030360D01*
G01X2518710Y4030360D02*
G01X2519080Y4031210D01*
G01X2519080Y4031210D02*
G01X2519480Y4032050D01*
G01X2519480Y4032050D02*
G01X2519920Y4032860D01*
G01X2519920Y4032860D02*
G01X2520390Y4033660D01*
G01X2520390Y4033660D02*
G01X2520890Y4034440D01*
G01X2520890Y4034440D02*
G01X2521430Y4035190D01*
G01X2521430Y4035190D02*
G01X2522000Y4035920D01*
G01X2522000Y4035920D02*
G01X2522600Y4036620D01*
G01X2522600Y4036620D02*
G01X2523230Y4037300D01*
G01X2523230Y4037300D02*
G01X2523890Y4037950D01*
G01X2523890Y4037950D02*
G01X2524570Y4038570D01*
G01X2524570Y4038570D02*
G01X2525280Y4039170D01*
G01X2525280Y4039170D02*
G01X2526020Y4039730D01*
G01X2526020Y4039730D02*
G01X2526780Y4040260D01*
G01X2526780Y4040260D02*
G01X2527560Y4040750D01*
G01X2527560Y4040750D02*
G01X2528360Y4041220D01*
G01X2528360Y4041220D02*
G01X2529180Y4041640D01*
G01X2529180Y4041640D02*
G01X2530020Y4042040D01*
G01X2530020Y4042040D02*
G01X2530870Y4042390D01*
G01X2530870Y4042390D02*
G01X2531740Y4042710D01*
G01X2531740Y4042710D02*
G01X2532620Y4043000D01*
G01X2532620Y4043000D02*
G01X2533510Y4043240D01*
G01X2533510Y4043240D02*
G01X2534410Y4043450D01*
G01X2534410Y4043450D02*
G01X2535320Y4043610D01*
G01X2535320Y4043610D02*
G01X2536240Y4043740D01*
G01X2536240Y4043740D02*
G01X2537160Y4043830D01*
G01X2537160Y4043830D02*
G01X2538090Y4043880D01*
G01X2538090Y4043880D02*
G01X2539010Y4043890D01*
G01X2539010Y4043890D02*
G01X2539940Y4043860D01*
G01X2539940Y4043860D02*
G01X2540860Y4043790D01*
G01X2540860Y4043790D02*
G01X2541780Y4043680D01*
G01X2541780Y4043680D02*
G01X2542690Y4043530D01*
G01X2542690Y4043530D02*
G01X2543600Y4043350D01*
G01X2543600Y4043350D02*
G01X2544500Y4043120D01*
G01X2544500Y4043120D02*
G01X2545380Y4042860D01*
G01X2545380Y4042860D02*
G01X2546260Y4042560D01*
G01X2546260Y4042560D02*
G01X2547120Y4042220D01*
G01X2547120Y4042220D02*
G01X2547960Y4041850D01*
G01X2547960Y4041850D02*
G01X2548790Y4041430D01*
G01X2548790Y4041430D02*
G01X2549600Y4040990D01*
G01X2549600Y4040990D02*
G01X2550400Y4040510D01*
G01X2550400Y4040510D02*
G01X2551170Y4040000D01*
G01X2551170Y4040000D02*
G01X2551910Y4039450D01*
G01X2551910Y4039450D02*
G01X2552640Y4038870D01*
G01X2552640Y4038870D02*
G01X2553340Y4038270D01*
G01X2553340Y4038270D02*
G01X2554010Y4037630D01*
G01X2554010Y4037630D02*
G01X2554650Y4036970D01*
G01X2554650Y4036970D02*
G01X2555270Y4036270D01*
G01X2555270Y4036270D02*
G01X2555850Y4035560D01*
G01X2555850Y4035560D02*
G01X2556400Y4034820D01*
G01X2556400Y4034820D02*
G01X2556920Y4034050D01*
G01X2556920Y4034050D02*
G01X2557410Y4033260D01*
G01X2557410Y4033260D02*
G01X2557870Y4032460D01*
G01X2557870Y4032460D02*
G01X2558290Y4031630D01*
G01X2558290Y4031630D02*
G01X2558670Y4030790D01*
G01X2558670Y4030790D02*
G01X2559020Y4029930D01*
G01X2559020Y4029930D02*
G01X2559330Y4029060D01*
G01X2559330Y4029060D02*
G01X2559600Y4028180D01*
G01X2559600Y4028180D02*
G01X2559830Y4027280D01*
G01X2559830Y4027280D02*
G01X2560030Y4026380D01*
G01X2560030Y4026380D02*
G01X2560190Y4025470D01*
G01X2560190Y4025470D02*
G01X2560310Y4024550D01*
G01X2560310Y4024550D02*
G01X2560390Y4023630D01*
G01X2560390Y4023630D02*
G01X2560430Y4022700D01*
G01X2560430Y4022700D02*
G01X2560430Y4021780D01*
G01X2560430Y4021780D02*
G01X2560390Y4020850D01*
G01X2560390Y4020850D02*
G01X2560310Y4019930D01*
G01X2560310Y4019930D02*
G01X2560190Y4019010D01*
G01X2560190Y4019010D02*
G01X2560030Y4018100D01*
G01X2560030Y4018100D02*
G01X2559830Y4017200D01*
G01X2559830Y4017200D02*
G01X2559600Y4016300D01*
G01X2559600Y4016300D02*
G01X2559330Y4015420D01*
G01X2559330Y4015420D02*
G01X2559020Y4014550D01*
G01X2559020Y4014550D02*
G01X2558670Y4013690D01*
G01X2558670Y4013690D02*
G01X2558290Y4012850D01*
G01X2558290Y4012850D02*
G01X2557870Y4012020D01*
G01X2557870Y4012020D02*
G01X2557410Y4011220D01*
G01X2557410Y4011220D02*
G01X2556920Y4010430D01*
G01X2556920Y4010430D02*
G01X2556400Y4009660D01*
G01X2556400Y4009660D02*
G01X2555850Y4008920D01*
G01X2555850Y4008920D02*
G01X2555270Y4008210D01*
G01X2555270Y4008210D02*
G01X2554650Y4007510D01*
G01X2554650Y4007510D02*
G01X2554010Y4006850D01*
G01X2554010Y4006850D02*
G01X2553340Y4006210D01*
G01X2553340Y4006210D02*
G01X2552640Y4005610D01*
G01X2552640Y4005610D02*
G01X2551910Y4005030D01*
G01X2551910Y4005030D02*
G01X2551170Y4004480D01*
G01X2551170Y4004480D02*
G01X2550400Y4003970D01*
G01X2550400Y4003970D02*
G01X2549610Y4003490D01*
G01X2549610Y4003490D02*
G01X2548790Y4003050D01*
G01X2548790Y4003050D02*
G01X2547960Y4002630D01*
G01X2547960Y4002630D02*
G01X2547120Y4002260D01*
G01X2547120Y4002260D02*
G01X2546260Y4001920D01*
G01X2546260Y4001920D02*
G01X2545380Y4001620D01*
G01X2545380Y4001620D02*
G01X2544500Y4001360D01*
G01X2544500Y4001360D02*
G01X2543600Y4001130D01*
G01X2543600Y4001130D02*
G01X2542690Y4000950D01*
G01X2542690Y4000950D02*
G01X2541780Y4000800D01*
G01X2541780Y4000800D02*
G01X2540860Y4000690D01*
G01X2540860Y4000690D02*
G01X2539940Y4000620D01*
G01X2539940Y4000620D02*
G01X2539010Y4000590D01*
G01X2539010Y4000590D02*
G01X2538090Y4000600D01*
G01X2538090Y4000600D02*
G01X2537160Y4000650D01*
G01X2537160Y4000650D02*
G01X2536240Y4000740D01*
G01X2536240Y4000740D02*
G01X2535320Y4000870D01*
G01X2535320Y4000870D02*
G01X2534410Y4001030D01*
G01X2534410Y4001030D02*
G01X2533510Y4001240D01*
G01X2533510Y4001240D02*
G01X2532620Y4001480D01*
G01X2532620Y4001480D02*
G01X2531740Y4001770D01*
G01X2531740Y4001770D02*
G01X2530870Y4002090D01*
G01X2530870Y4002090D02*
G01X2530020Y4002440D01*
G01X2530020Y4002440D02*
G01X2529180Y4002840D01*
G01X2529180Y4002840D02*
G01X2528360Y4003260D01*
G01X2528360Y4003260D02*
G01X2527560Y4003730D01*
G01X2527560Y4003730D02*
G01X2526780Y4004220D01*
G01X2526780Y4004220D02*
G01X2526020Y4004750D01*
G01X2526020Y4004750D02*
G01X2525280Y4005310D01*
G01X2525280Y4005310D02*
G01X2524570Y4005910D01*
G01X2524570Y4005910D02*
G01X2523890Y4006530D01*
G01X2523890Y4006530D02*
G01X2523230Y4007180D01*
G01X2523230Y4007180D02*
G01X2522600Y4007860D01*
G01X2522600Y4007860D02*
G01X2522000Y4008560D01*
G01X2522000Y4008560D02*
G01X2521430Y4009290D01*
G01X2521430Y4009290D02*
G01X2520890Y4010040D01*
G01X2520890Y4010040D02*
G01X2520390Y4010820D01*
G01X2520390Y4010820D02*
G01X2519920Y4011620D01*
G01X2519920Y4011620D02*
G01X2519480Y4012430D01*
G01X2519480Y4012430D02*
G01X2519080Y4013270D01*
G01X2519080Y4013270D02*
G01X2518710Y4014120D01*
G01X2518710Y4014120D02*
G01X2518380Y4014980D01*
G01X2518380Y4014980D02*
G01X2518090Y4015860D01*
G01X2518090Y4015860D02*
G01X2517840Y4016750D01*
G01X2517840Y4016750D02*
G01X2517620Y4017650D01*
G01X2517620Y4017650D02*
G01X2517450Y4018560D01*
G01X2517450Y4018560D02*
G01X2517310Y4019470D01*
G01X2517310Y4019470D02*
G01X2517210Y4020390D01*
G01X2517210Y4020390D02*
G01X2517150Y4021310D01*
G01X2517150Y4021310D02*
G01X2517130Y4022240D01*
G01X2507280Y4849020D02*
G01X2507300Y4850140D01*
G01X2507300Y4850140D02*
G01X2507360Y4851250D01*
G01X2507360Y4851250D02*
G01X2507460Y4852370D01*
G01X2507460Y4852370D02*
G01X2507600Y4853480D01*
G01X2507600Y4853480D02*
G01X2507770Y4854580D01*
G01X2507770Y4854580D02*
G01X2507990Y4855680D01*
G01X2507990Y4855680D02*
G01X2508250Y4856770D01*
G01X2508250Y4856770D02*
G01X2508540Y4857850D01*
G01X2508540Y4857850D02*
G01X2508870Y4858910D01*
G01X2508870Y4858910D02*
G01X2509240Y4859970D01*
G01X2509240Y4859970D02*
G01X2509650Y4861010D01*
G01X2509650Y4861010D02*
G01X2510100Y4862040D01*
G01X2510100Y4862040D02*
G01X2510580Y4863050D01*
G01X2510580Y4863050D02*
G01X2511090Y4864040D01*
G01X2511090Y4864040D02*
G01X2511640Y4865010D01*
G01X2511640Y4865010D02*
G01X2512230Y4865960D01*
G01X2512230Y4865960D02*
G01X2512840Y4866900D01*
G01X2512840Y4866900D02*
G01X2513490Y4867810D01*
G01X2513490Y4867810D02*
G01X2514180Y4868690D01*
G01X2514180Y4868690D02*
G01X2514890Y4869550D01*
G01X2514890Y4869550D02*
G01X2515630Y4870390D01*
G01X2515630Y4870390D02*
G01X2516410Y4871190D01*
G01X2516410Y4871190D02*
G01X2517210Y4871970D01*
G01X2517210Y4871970D02*
G01X2518040Y4872730D01*
G01X2518040Y4872730D02*
G01X2518890Y4873450D01*
G01X2518890Y4873450D02*
G01X2519770Y4874140D01*
G01X2519770Y4874140D02*
G01X2520670Y4874800D01*
G01X2520670Y4874800D02*
G01X2521600Y4875420D01*
G01X2521600Y4875420D02*
G01X2522550Y4876020D01*
G01X2522550Y4876020D02*
G01X2523520Y4876580D01*
G01X2523520Y4876580D02*
G01X2524500Y4877100D01*
G01X2524500Y4877100D02*
G01X2525510Y4877590D01*
G01X2525510Y4877590D02*
G01X2526530Y4878040D01*
G01X2526530Y4878040D02*
G01X2527570Y4878460D01*
G01X2527570Y4878460D02*
G01X2528620Y4878840D01*
G01X2528620Y4878840D02*
G01X2529690Y4879180D01*
G01X2529690Y4879180D02*
G01X2530760Y4879480D01*
G01X2530760Y4879480D02*
G01X2531850Y4879750D01*
G01X2531850Y4879750D02*
G01X2532940Y4879970D01*
G01X2532940Y4879970D02*
G01X2534050Y4880160D01*
G01X2534050Y4880160D02*
G01X2535150Y4880310D01*
G01X2535150Y4880310D02*
G01X2536270Y4880420D01*
G01X2536270Y4880420D02*
G01X2537380Y4880490D01*
G01X2537380Y4880490D02*
G01X2538500Y4880520D01*
G01X2538500Y4880520D02*
G01X2539620Y4880510D01*
G01X2539620Y4880510D02*
G01X2540740Y4880460D01*
G01X2540740Y4880460D02*
G01X2541850Y4880370D01*
G01X2541850Y4880370D02*
G01X2542960Y4880240D01*
G01X2542960Y4880240D02*
G01X2544070Y4880070D01*
G01X2544070Y4880070D02*
G01X2545170Y4879870D01*
G01X2545170Y4879870D02*
G01X2546260Y4879620D01*
G01X2546260Y4879620D02*
G01X2547340Y4879340D01*
G01X2547340Y4879340D02*
G01X2548410Y4879010D01*
G01X2548410Y4879010D02*
G01X2549470Y4878650D01*
G01X2549470Y4878650D02*
G01X2550510Y4878250D01*
G01X2550510Y4878250D02*
G01X2551540Y4877820D01*
G01X2551540Y4877820D02*
G01X2552560Y4877350D01*
G01X2552560Y4877350D02*
G01X2553550Y4876840D01*
G01X2553550Y4876840D02*
G01X2554530Y4876300D01*
G01X2554530Y4876300D02*
G01X2555490Y4875720D01*
G01X2555490Y4875720D02*
G01X2556430Y4875110D01*
G01X2556430Y4875110D02*
G01X2557340Y4874470D01*
G01X2557340Y4874470D02*
G01X2558230Y4873800D01*
G01X2558230Y4873800D02*
G01X2559100Y4873090D01*
G01X2559100Y4873090D02*
G01X2559940Y4872350D01*
G01X2559940Y4872350D02*
G01X2560760Y4871590D01*
G01X2560760Y4871590D02*
G01X2561540Y4870790D01*
G01X2561540Y4870790D02*
G01X2562300Y4869970D01*
G01X2562300Y4869970D02*
G01X2563030Y4869120D01*
G01X2563030Y4869120D02*
G01X2563730Y4868250D01*
G01X2563730Y4868250D02*
G01X2564390Y4867350D01*
G01X2564390Y4867350D02*
G01X2565030Y4866430D01*
G01X2565030Y4866430D02*
G01X2565630Y4865490D01*
G01X2565630Y4865490D02*
G01X2566200Y4864530D01*
G01X2566200Y4864530D02*
G01X2566730Y4863540D01*
G01X2566730Y4863540D02*
G01X2567230Y4862540D01*
G01X2567230Y4862540D02*
G01X2567690Y4861530D01*
G01X2567690Y4861530D02*
G01X2568120Y4860490D01*
G01X2568120Y4860490D02*
G01X2568510Y4859440D01*
G01X2568510Y4859440D02*
G01X2568860Y4858380D01*
G01X2568860Y4858380D02*
G01X2569170Y4857310D01*
G01X2569170Y4857310D02*
G01X2569450Y4856220D01*
G01X2569450Y4856220D02*
G01X2569680Y4855130D01*
G01X2569680Y4855130D02*
G01X2569880Y4854030D01*
G01X2569880Y4854030D02*
G01X2570040Y4852920D01*
G01X2570040Y4852920D02*
G01X2570160Y4851810D01*
G01X2570160Y4851810D02*
G01X2570240Y4850700D01*
G01X2570240Y4850700D02*
G01X2570280Y4849580D01*
G01X2570280Y4849580D02*
G01X2570280Y4848460D01*
G01X2570280Y4848460D02*
G01X2570240Y4847340D01*
G01X2570240Y4847340D02*
G01X2570160Y4846230D01*
G01X2570160Y4846230D02*
G01X2570040Y4845120D01*
G01X2570040Y4845120D02*
G01X2569880Y4844010D01*
G01X2569880Y4844010D02*
G01X2569680Y4842910D01*
G01X2569680Y4842910D02*
G01X2569450Y4841820D01*
G01X2569450Y4841820D02*
G01X2569170Y4840730D01*
G01X2569170Y4840730D02*
G01X2568860Y4839660D01*
G01X2568860Y4839660D02*
G01X2568510Y4838600D01*
G01X2568510Y4838600D02*
G01X2568120Y4837550D01*
G01X2568120Y4837550D02*
G01X2567690Y4836510D01*
G01X2567690Y4836510D02*
G01X2567230Y4835500D01*
G01X2567230Y4835500D02*
G01X2566730Y4834500D01*
G01X2566730Y4834500D02*
G01X2566200Y4833510D01*
G01X2566200Y4833510D02*
G01X2565630Y4832550D01*
G01X2565630Y4832550D02*
G01X2565030Y4831610D01*
G01X2565030Y4831610D02*
G01X2564390Y4830690D01*
G01X2564390Y4830690D02*
G01X2563730Y4829790D01*
G01X2563730Y4829790D02*
G01X2563030Y4828920D01*
G01X2563030Y4828920D02*
G01X2562300Y4828070D01*
G01X2562300Y4828070D02*
G01X2561540Y4827250D01*
G01X2561540Y4827250D02*
G01X2560760Y4826450D01*
G01X2560760Y4826450D02*
G01X2559940Y4825690D01*
G01X2559940Y4825690D02*
G01X2559100Y4824950D01*
G01X2559100Y4824950D02*
G01X2558230Y4824240D01*
G01X2558230Y4824240D02*
G01X2557340Y4823570D01*
G01X2557340Y4823570D02*
G01X2556430Y4822930D01*
G01X2556430Y4822930D02*
G01X2555490Y4822320D01*
G01X2555490Y4822320D02*
G01X2554530Y4821740D01*
G01X2554530Y4821740D02*
G01X2553550Y4821200D01*
G01X2553550Y4821200D02*
G01X2552560Y4820690D01*
G01X2552560Y4820690D02*
G01X2551540Y4820220D01*
G01X2551540Y4820220D02*
G01X2550510Y4819790D01*
G01X2550510Y4819790D02*
G01X2549470Y4819390D01*
G01X2549470Y4819390D02*
G01X2548410Y4819030D01*
G01X2548410Y4819030D02*
G01X2547340Y4818700D01*
G01X2547340Y4818700D02*
G01X2546260Y4818420D01*
G01X2546260Y4818420D02*
G01X2545170Y4818170D01*
G01X2545170Y4818170D02*
G01X2544070Y4817970D01*
G01X2544070Y4817970D02*
G01X2542960Y4817800D01*
G01X2542960Y4817800D02*
G01X2541850Y4817670D01*
G01X2541850Y4817670D02*
G01X2540740Y4817580D01*
G01X2540740Y4817580D02*
G01X2539620Y4817530D01*
G01X2539620Y4817530D02*
G01X2538500Y4817520D01*
G01X2538500Y4817520D02*
G01X2537380Y4817550D01*
G01X2537380Y4817550D02*
G01X2536270Y4817620D01*
G01X2536270Y4817620D02*
G01X2535150Y4817730D01*
G01X2535150Y4817730D02*
G01X2534050Y4817880D01*
G01X2534050Y4817880D02*
G01X2532940Y4818070D01*
G01X2532940Y4818070D02*
G01X2531850Y4818290D01*
G01X2531850Y4818290D02*
G01X2530760Y4818560D01*
G01X2530760Y4818560D02*
G01X2529690Y4818860D01*
G01X2529690Y4818860D02*
G01X2528620Y4819200D01*
G01X2528620Y4819200D02*
G01X2527570Y4819580D01*
G01X2527570Y4819580D02*
G01X2526530Y4820000D01*
G01X2526530Y4820000D02*
G01X2525510Y4820450D01*
G01X2525510Y4820450D02*
G01X2524500Y4820940D01*
G01X2524500Y4820940D02*
G01X2523520Y4821460D01*
G01X2523520Y4821460D02*
G01X2522550Y4822020D01*
G01X2522550Y4822020D02*
G01X2521600Y4822620D01*
G01X2521600Y4822620D02*
G01X2520670Y4823240D01*
G01X2520670Y4823240D02*
G01X2519770Y4823900D01*
G01X2519770Y4823900D02*
G01X2518890Y4824590D01*
G01X2518890Y4824590D02*
G01X2518040Y4825310D01*
G01X2518040Y4825310D02*
G01X2517210Y4826070D01*
G01X2517210Y4826070D02*
G01X2516410Y4826850D01*
G01X2516410Y4826850D02*
G01X2515630Y4827650D01*
G01X2515630Y4827650D02*
G01X2514890Y4828490D01*
G01X2514890Y4828490D02*
G01X2514180Y4829350D01*
G01X2514180Y4829350D02*
G01X2513490Y4830230D01*
G01X2513490Y4830230D02*
G01X2512840Y4831140D01*
G01X2512840Y4831140D02*
G01X2512230Y4832080D01*
G01X2512230Y4832080D02*
G01X2511640Y4833030D01*
G01X2511640Y4833030D02*
G01X2511090Y4834000D01*
G01X2511090Y4834000D02*
G01X2510580Y4834990D01*
G01X2510580Y4834990D02*
G01X2510100Y4836000D01*
G01X2510100Y4836000D02*
G01X2509650Y4837030D01*
G01X2509650Y4837030D02*
G01X2509240Y4838070D01*
G01X2509240Y4838070D02*
G01X2508870Y4839130D01*
G01X2508870Y4839130D02*
G01X2508540Y4840190D01*
G01X2508540Y4840190D02*
G01X2508250Y4841270D01*
G01X2508250Y4841270D02*
G01X2507990Y4842360D01*
G01X2507990Y4842360D02*
G01X2507770Y4843460D01*
G01X2507770Y4843460D02*
G01X2507600Y4844560D01*
G01X2507600Y4844560D02*
G01X2507460Y4845670D01*
G01X2507460Y4845670D02*
G01X2507360Y4846790D01*
G01X2507360Y4846790D02*
G01X2507300Y4847900D01*
G01X2507300Y4847900D02*
G01X2507280Y4849020D01*
G54D10*
G01X3575000Y0100000D02*
G01X6950000Y0100000D01*
G01X6950000Y0100000D02*
G01X6950000Y3000000D01*
G01X6950000Y3000000D02*
G01X3575000Y3000000D01*
G01X3575000Y3000000D02*
G01X3575000Y0100000D01*
G54D11*
G01X5992130Y1022240D02*
G01X5992150Y1023170D01*
G01X5992150Y1023170D02*
G01X5992210Y1024090D01*
G01X5992210Y1024090D02*
G01X5992310Y1025010D01*
G01X5992310Y1025010D02*
G01X5992450Y1025920D01*
G01X5992450Y1025920D02*
G01X5992620Y1026830D01*
G01X5992620Y1026830D02*
G01X5992840Y1027730D01*
G01X5992840Y1027730D02*
G01X5993090Y1028620D01*
G01X5993090Y1028620D02*
G01X5993380Y1029500D01*
G01X5993380Y1029500D02*
G01X5993710Y1030360D01*
G01X5993710Y1030360D02*
G01X5994080Y1031210D01*
G01X5994080Y1031210D02*
G01X5994480Y1032050D01*
G01X5994480Y1032050D02*
G01X5994920Y1032860D01*
G01X5994920Y1032860D02*
G01X5995390Y1033660D01*
G01X5995390Y1033660D02*
G01X5995890Y1034440D01*
G01X5995890Y1034440D02*
G01X5996430Y1035190D01*
G01X5996430Y1035190D02*
G01X5997000Y1035920D01*
G01X5997000Y1035920D02*
G01X5997600Y1036620D01*
G01X5997600Y1036620D02*
G01X5998230Y1037300D01*
G01X5998230Y1037300D02*
G01X5998890Y1037950D01*
G01X5998890Y1037950D02*
G01X5999570Y1038570D01*
G01X5999570Y1038570D02*
G01X6000280Y1039170D01*
G01X6000280Y1039170D02*
G01X6001020Y1039730D01*
G01X6001020Y1039730D02*
G01X6001780Y1040260D01*
G01X6001780Y1040260D02*
G01X6002560Y1040750D01*
G01X6002560Y1040750D02*
G01X6003360Y1041220D01*
G01X6003360Y1041220D02*
G01X6004180Y1041640D01*
G01X6004180Y1041640D02*
G01X6005020Y1042040D01*
G01X6005020Y1042040D02*
G01X6005870Y1042390D01*
G01X6005870Y1042390D02*
G01X6006740Y1042710D01*
G01X6006740Y1042710D02*
G01X6007620Y1043000D01*
G01X6007620Y1043000D02*
G01X6008510Y1043240D01*
G01X6008510Y1043240D02*
G01X6009410Y1043450D01*
G01X6009410Y1043450D02*
G01X6010320Y1043610D01*
G01X6010320Y1043610D02*
G01X6011240Y1043740D01*
G01X6011240Y1043740D02*
G01X6012160Y1043830D01*
G01X6012160Y1043830D02*
G01X6013090Y1043880D01*
G01X6013090Y1043880D02*
G01X6014010Y1043890D01*
G01X6014010Y1043890D02*
G01X6014940Y1043860D01*
G01X6014940Y1043860D02*
G01X6015860Y1043790D01*
G01X6015860Y1043790D02*
G01X6016780Y1043680D01*
G01X6016780Y1043680D02*
G01X6017690Y1043530D01*
G01X6017690Y1043530D02*
G01X6018600Y1043350D01*
G01X6018600Y1043350D02*
G01X6019500Y1043120D01*
G01X6019500Y1043120D02*
G01X6020380Y1042860D01*
G01X6020380Y1042860D02*
G01X6021260Y1042560D01*
G01X6021260Y1042560D02*
G01X6022120Y1042220D01*
G01X6022120Y1042220D02*
G01X6022960Y1041850D01*
G01X6022960Y1041850D02*
G01X6023790Y1041430D01*
G01X6023790Y1041430D02*
G01X6024600Y1040990D01*
G01X6024600Y1040990D02*
G01X6025400Y1040510D01*
G01X6025400Y1040510D02*
G01X6026170Y1040000D01*
G01X6026170Y1040000D02*
G01X6026910Y1039450D01*
G01X6026910Y1039450D02*
G01X6027640Y1038870D01*
G01X6027640Y1038870D02*
G01X6028340Y1038270D01*
G01X6028340Y1038270D02*
G01X6029010Y1037630D01*
G01X6029010Y1037630D02*
G01X6029650Y1036970D01*
G01X6029650Y1036970D02*
G01X6030270Y1036270D01*
G01X6030270Y1036270D02*
G01X6030850Y1035560D01*
G01X6030850Y1035560D02*
G01X6031400Y1034820D01*
G01X6031400Y1034820D02*
G01X6031920Y1034050D01*
G01X6031920Y1034050D02*
G01X6032410Y1033260D01*
G01X6032410Y1033260D02*
G01X6032870Y1032460D01*
G01X6032870Y1032460D02*
G01X6033290Y1031630D01*
G01X6033290Y1031630D02*
G01X6033670Y1030790D01*
G01X6033670Y1030790D02*
G01X6034020Y1029930D01*
G01X6034020Y1029930D02*
G01X6034330Y1029060D01*
G01X6034330Y1029060D02*
G01X6034600Y1028180D01*
G01X6034600Y1028180D02*
G01X6034830Y1027280D01*
G01X6034830Y1027280D02*
G01X6035030Y1026380D01*
G01X6035030Y1026380D02*
G01X6035190Y1025470D01*
G01X6035190Y1025470D02*
G01X6035310Y1024550D01*
G01X6035310Y1024550D02*
G01X6035390Y1023630D01*
G01X6035390Y1023630D02*
G01X6035430Y1022700D01*
G01X6035430Y1022700D02*
G01X6035430Y1021780D01*
G01X6035430Y1021780D02*
G01X6035390Y1020850D01*
G01X6035390Y1020850D02*
G01X6035310Y1019930D01*
G01X6035310Y1019930D02*
G01X6035190Y1019010D01*
G01X6035190Y1019010D02*
G01X6035030Y1018100D01*
G01X6035030Y1018100D02*
G01X6034830Y1017200D01*
G01X6034830Y1017200D02*
G01X6034600Y1016300D01*
G01X6034600Y1016300D02*
G01X6034330Y1015420D01*
G01X6034330Y1015420D02*
G01X6034020Y1014550D01*
G01X6034020Y1014550D02*
G01X6033670Y1013690D01*
G01X6033670Y1013690D02*
G01X6033290Y1012850D01*
G01X6033290Y1012850D02*
G01X6032870Y1012020D01*
G01X6032870Y1012020D02*
G01X6032410Y1011220D01*
G01X6032410Y1011220D02*
G01X6031920Y1010430D01*
G01X6031920Y1010430D02*
G01X6031400Y1009660D01*
G01X6031400Y1009660D02*
G01X6030850Y1008920D01*
G01X6030850Y1008920D02*
G01X6030270Y1008210D01*
G01X6030270Y1008210D02*
G01X6029650Y1007510D01*
G01X6029650Y1007510D02*
G01X6029010Y1006850D01*
G01X6029010Y1006850D02*
G01X6028340Y1006210D01*
G01X6028340Y1006210D02*
G01X6027640Y1005610D01*
G01X6027640Y1005610D02*
G01X6026910Y1005030D01*
G01X6026910Y1005030D02*
G01X6026170Y1004480D01*
G01X6026170Y1004480D02*
G01X6025400Y1003970D01*
G01X6025400Y1003970D02*
G01X6024610Y1003490D01*
G01X6024610Y1003490D02*
G01X6023790Y1003050D01*
G01X6023790Y1003050D02*
G01X6022960Y1002630D01*
G01X6022960Y1002630D02*
G01X6022120Y1002260D01*
G01X6022120Y1002260D02*
G01X6021260Y1001920D01*
G01X6021260Y1001920D02*
G01X6020380Y1001620D01*
G01X6020380Y1001620D02*
G01X6019500Y1001360D01*
G01X6019500Y1001360D02*
G01X6018600Y1001130D01*
G01X6018600Y1001130D02*
G01X6017690Y1000950D01*
G01X6017690Y1000950D02*
G01X6016780Y1000800D01*
G01X6016780Y1000800D02*
G01X6015860Y1000690D01*
G01X6015860Y1000690D02*
G01X6014940Y1000620D01*
G01X6014940Y1000620D02*
G01X6014010Y1000590D01*
G01X6014010Y1000590D02*
G01X6013090Y1000600D01*
G01X6013090Y1000600D02*
G01X6012160Y1000650D01*
G01X6012160Y1000650D02*
G01X6011240Y1000740D01*
G01X6011240Y1000740D02*
G01X6010320Y1000870D01*
G01X6010320Y1000870D02*
G01X6009410Y1001030D01*
G01X6009410Y1001030D02*
G01X6008510Y1001240D01*
G01X6008510Y1001240D02*
G01X6007620Y1001480D01*
G01X6007620Y1001480D02*
G01X6006740Y1001770D01*
G01X6006740Y1001770D02*
G01X6005870Y1002090D01*
G01X6005870Y1002090D02*
G01X6005020Y1002440D01*
G01X6005020Y1002440D02*
G01X6004180Y1002840D01*
G01X6004180Y1002840D02*
G01X6003360Y1003260D01*
G01X6003360Y1003260D02*
G01X6002560Y1003730D01*
G01X6002560Y1003730D02*
G01X6001780Y1004220D01*
G01X6001780Y1004220D02*
G01X6001020Y1004750D01*
G01X6001020Y1004750D02*
G01X6000280Y1005310D01*
G01X6000280Y1005310D02*
G01X5999570Y1005910D01*
G01X5999570Y1005910D02*
G01X5998890Y1006530D01*
G01X5998890Y1006530D02*
G01X5998230Y1007180D01*
G01X5998230Y1007180D02*
G01X5997600Y1007860D01*
G01X5997600Y1007860D02*
G01X5997000Y1008560D01*
G01X5997000Y1008560D02*
G01X5996430Y1009290D01*
G01X5996430Y1009290D02*
G01X5995890Y1010040D01*
G01X5995890Y1010040D02*
G01X5995390Y1010820D01*
G01X5995390Y1010820D02*
G01X5994920Y1011620D01*
G01X5994920Y1011620D02*
G01X5994480Y1012430D01*
G01X5994480Y1012430D02*
G01X5994080Y1013270D01*
G01X5994080Y1013270D02*
G01X5993710Y1014120D01*
G01X5993710Y1014120D02*
G01X5993380Y1014980D01*
G01X5993380Y1014980D02*
G01X5993090Y1015860D01*
G01X5993090Y1015860D02*
G01X5992840Y1016750D01*
G01X5992840Y1016750D02*
G01X5992620Y1017650D01*
G01X5992620Y1017650D02*
G01X5992450Y1018560D01*
G01X5992450Y1018560D02*
G01X5992310Y1019470D01*
G01X5992310Y1019470D02*
G01X5992210Y1020390D01*
G01X5992210Y1020390D02*
G01X5992150Y1021310D01*
G01X5992150Y1021310D02*
G01X5992130Y1022240D01*
G01X5982280Y1849020D02*
G01X5982300Y1850140D01*
G01X5982300Y1850140D02*
G01X5982360Y1851250D01*
G01X5982360Y1851250D02*
G01X5982460Y1852370D01*
G01X5982460Y1852370D02*
G01X5982600Y1853480D01*
G01X5982600Y1853480D02*
G01X5982770Y1854580D01*
G01X5982770Y1854580D02*
G01X5982990Y1855680D01*
G01X5982990Y1855680D02*
G01X5983250Y1856770D01*
G01X5983250Y1856770D02*
G01X5983540Y1857850D01*
G01X5983540Y1857850D02*
G01X5983870Y1858910D01*
G01X5983870Y1858910D02*
G01X5984240Y1859970D01*
G01X5984240Y1859970D02*
G01X5984650Y1861010D01*
G01X5984650Y1861010D02*
G01X5985100Y1862040D01*
G01X5985100Y1862040D02*
G01X5985580Y1863050D01*
G01X5985580Y1863050D02*
G01X5986090Y1864040D01*
G01X5986090Y1864040D02*
G01X5986640Y1865010D01*
G01X5986640Y1865010D02*
G01X5987230Y1865960D01*
G01X5987230Y1865960D02*
G01X5987840Y1866900D01*
G01X5987840Y1866900D02*
G01X5988490Y1867810D01*
G01X5988490Y1867810D02*
G01X5989180Y1868690D01*
G01X5989180Y1868690D02*
G01X5989890Y1869550D01*
G01X5989890Y1869550D02*
G01X5990630Y1870390D01*
G01X5990630Y1870390D02*
G01X5991410Y1871190D01*
G01X5991410Y1871190D02*
G01X5992210Y1871970D01*
G01X5992210Y1871970D02*
G01X5993040Y1872730D01*
G01X5993040Y1872730D02*
G01X5993890Y1873450D01*
G01X5993890Y1873450D02*
G01X5994770Y1874140D01*
G01X5994770Y1874140D02*
G01X5995670Y1874800D01*
G01X5995670Y1874800D02*
G01X5996600Y1875420D01*
G01X5996600Y1875420D02*
G01X5997550Y1876020D01*
G01X5997550Y1876020D02*
G01X5998520Y1876580D01*
G01X5998520Y1876580D02*
G01X5999500Y1877100D01*
G01X5999500Y1877100D02*
G01X6000510Y1877590D01*
G01X6000510Y1877590D02*
G01X6001530Y1878040D01*
G01X6001530Y1878040D02*
G01X6002570Y1878460D01*
G01X6002570Y1878460D02*
G01X6003620Y1878840D01*
G01X6003620Y1878840D02*
G01X6004690Y1879180D01*
G01X6004690Y1879180D02*
G01X6005760Y1879480D01*
G01X6005760Y1879480D02*
G01X6006850Y1879750D01*
G01X6006850Y1879750D02*
G01X6007940Y1879970D01*
G01X6007940Y1879970D02*
G01X6009050Y1880160D01*
G01X6009050Y1880160D02*
G01X6010150Y1880310D01*
G01X6010150Y1880310D02*
G01X6011270Y1880420D01*
G01X6011270Y1880420D02*
G01X6012380Y1880490D01*
G01X6012380Y1880490D02*
G01X6013500Y1880520D01*
G01X6013500Y1880520D02*
G01X6014620Y1880510D01*
G01X6014620Y1880510D02*
G01X6015740Y1880460D01*
G01X6015740Y1880460D02*
G01X6016850Y1880370D01*
G01X6016850Y1880370D02*
G01X6017960Y1880240D01*
G01X6017960Y1880240D02*
G01X6019070Y1880070D01*
G01X6019070Y1880070D02*
G01X6020170Y1879870D01*
G01X6020170Y1879870D02*
G01X6021260Y1879620D01*
G01X6021260Y1879620D02*
G01X6022340Y1879340D01*
G01X6022340Y1879340D02*
G01X6023410Y1879010D01*
G01X6023410Y1879010D02*
G01X6024470Y1878650D01*
G01X6024470Y1878650D02*
G01X6025510Y1878250D01*
G01X6025510Y1878250D02*
G01X6026540Y1877820D01*
G01X6026540Y1877820D02*
G01X6027560Y1877350D01*
G01X6027560Y1877350D02*
G01X6028550Y1876840D01*
G01X6028550Y1876840D02*
G01X6029530Y1876300D01*
G01X6029530Y1876300D02*
G01X6030490Y1875720D01*
G01X6030490Y1875720D02*
G01X6031430Y1875110D01*
G01X6031430Y1875110D02*
G01X6032340Y1874470D01*
G01X6032340Y1874470D02*
G01X6033230Y1873800D01*
G01X6033230Y1873800D02*
G01X6034100Y1873090D01*
G01X6034100Y1873090D02*
G01X6034940Y1872350D01*
G01X6034940Y1872350D02*
G01X6035760Y1871590D01*
G01X6035760Y1871590D02*
G01X6036540Y1870790D01*
G01X6036540Y1870790D02*
G01X6037300Y1869970D01*
G01X6037300Y1869970D02*
G01X6038030Y1869120D01*
G01X6038030Y1869120D02*
G01X6038730Y1868250D01*
G01X6038730Y1868250D02*
G01X6039390Y1867350D01*
G01X6039390Y1867350D02*
G01X6040030Y1866430D01*
G01X6040030Y1866430D02*
G01X6040630Y1865490D01*
G01X6040630Y1865490D02*
G01X6041200Y1864530D01*
G01X6041200Y1864530D02*
G01X6041730Y1863540D01*
G01X6041730Y1863540D02*
G01X6042230Y1862540D01*
G01X6042230Y1862540D02*
G01X6042690Y1861530D01*
G01X6042690Y1861530D02*
G01X6043120Y1860490D01*
G01X6043120Y1860490D02*
G01X6043510Y1859440D01*
G01X6043510Y1859440D02*
G01X6043860Y1858380D01*
G01X6043860Y1858380D02*
G01X6044170Y1857310D01*
G01X6044170Y1857310D02*
G01X6044450Y1856220D01*
G01X6044450Y1856220D02*
G01X6044680Y1855130D01*
G01X6044680Y1855130D02*
G01X6044880Y1854030D01*
G01X6044880Y1854030D02*
G01X6045040Y1852920D01*
G01X6045040Y1852920D02*
G01X6045160Y1851810D01*
G01X6045160Y1851810D02*
G01X6045240Y1850700D01*
G01X6045240Y1850700D02*
G01X6045280Y1849580D01*
G01X6045280Y1849580D02*
G01X6045280Y1848460D01*
G01X6045280Y1848460D02*
G01X6045240Y1847340D01*
G01X6045240Y1847340D02*
G01X6045160Y1846230D01*
G01X6045160Y1846230D02*
G01X6045040Y1845120D01*
G01X6045040Y1845120D02*
G01X6044880Y1844010D01*
G01X6044880Y1844010D02*
G01X6044680Y1842910D01*
G01X6044680Y1842910D02*
G01X6044450Y1841820D01*
G01X6044450Y1841820D02*
G01X6044170Y1840730D01*
G01X6044170Y1840730D02*
G01X6043860Y1839660D01*
G01X6043860Y1839660D02*
G01X6043510Y1838600D01*
G01X6043510Y1838600D02*
G01X6043120Y1837550D01*
G01X6043120Y1837550D02*
G01X6042690Y1836510D01*
G01X6042690Y1836510D02*
G01X6042230Y1835500D01*
G01X6042230Y1835500D02*
G01X6041730Y1834500D01*
G01X6041730Y1834500D02*
G01X6041200Y1833510D01*
G01X6041200Y1833510D02*
G01X6040630Y1832550D01*
G01X6040630Y1832550D02*
G01X6040030Y1831610D01*
G01X6040030Y1831610D02*
G01X6039390Y1830690D01*
G01X6039390Y1830690D02*
G01X6038730Y1829790D01*
G01X6038730Y1829790D02*
G01X6038030Y1828920D01*
G01X6038030Y1828920D02*
G01X6037300Y1828070D01*
G01X6037300Y1828070D02*
G01X6036540Y1827250D01*
G01X6036540Y1827250D02*
G01X6035760Y1826450D01*
G01X6035760Y1826450D02*
G01X6034940Y1825690D01*
G01X6034940Y1825690D02*
G01X6034100Y1824950D01*
G01X6034100Y1824950D02*
G01X6033230Y1824240D01*
G01X6033230Y1824240D02*
G01X6032340Y1823570D01*
G01X6032340Y1823570D02*
G01X6031430Y1822930D01*
G01X6031430Y1822930D02*
G01X6030490Y1822320D01*
G01X6030490Y1822320D02*
G01X6029530Y1821740D01*
G01X6029530Y1821740D02*
G01X6028550Y1821200D01*
G01X6028550Y1821200D02*
G01X6027560Y1820690D01*
G01X6027560Y1820690D02*
G01X6026540Y1820220D01*
G01X6026540Y1820220D02*
G01X6025510Y1819790D01*
G01X6025510Y1819790D02*
G01X6024470Y1819390D01*
G01X6024470Y1819390D02*
G01X6023410Y1819030D01*
G01X6023410Y1819030D02*
G01X6022340Y1818700D01*
G01X6022340Y1818700D02*
G01X6021260Y1818420D01*
G01X6021260Y1818420D02*
G01X6020170Y1818170D01*
G01X6020170Y1818170D02*
G01X6019070Y1817970D01*
G01X6019070Y1817970D02*
G01X6017960Y1817800D01*
G01X6017960Y1817800D02*
G01X6016850Y1817670D01*
G01X6016850Y1817670D02*
G01X6015740Y1817580D01*
G01X6015740Y1817580D02*
G01X6014620Y1817530D01*
G01X6014620Y1817530D02*
G01X6013500Y1817520D01*
G01X6013500Y1817520D02*
G01X6012380Y1817550D01*
G01X6012380Y1817550D02*
G01X6011270Y1817620D01*
G01X6011270Y1817620D02*
G01X6010150Y1817730D01*
G01X6010150Y1817730D02*
G01X6009050Y1817880D01*
G01X6009050Y1817880D02*
G01X6007940Y1818070D01*
G01X6007940Y1818070D02*
G01X6006850Y1818290D01*
G01X6006850Y1818290D02*
G01X6005760Y1818560D01*
G01X6005760Y1818560D02*
G01X6004690Y1818860D01*
G01X6004690Y1818860D02*
G01X6003620Y1819200D01*
G01X6003620Y1819200D02*
G01X6002570Y1819580D01*
G01X6002570Y1819580D02*
G01X6001530Y1820000D01*
G01X6001530Y1820000D02*
G01X6000510Y1820450D01*
G01X6000510Y1820450D02*
G01X5999500Y1820940D01*
G01X5999500Y1820940D02*
G01X5998520Y1821460D01*
G01X5998520Y1821460D02*
G01X5997550Y1822020D01*
G01X5997550Y1822020D02*
G01X5996600Y1822620D01*
G01X5996600Y1822620D02*
G01X5995670Y1823240D01*
G01X5995670Y1823240D02*
G01X5994770Y1823900D01*
G01X5994770Y1823900D02*
G01X5993890Y1824590D01*
G01X5993890Y1824590D02*
G01X5993040Y1825310D01*
G01X5993040Y1825310D02*
G01X5992210Y1826070D01*
G01X5992210Y1826070D02*
G01X5991410Y1826850D01*
G01X5991410Y1826850D02*
G01X5990630Y1827650D01*
G01X5990630Y1827650D02*
G01X5989890Y1828490D01*
G01X5989890Y1828490D02*
G01X5989180Y1829350D01*
G01X5989180Y1829350D02*
G01X5988490Y1830230D01*
G01X5988490Y1830230D02*
G01X5987840Y1831140D01*
G01X5987840Y1831140D02*
G01X5987230Y1832080D01*
G01X5987230Y1832080D02*
G01X5986640Y1833030D01*
G01X5986640Y1833030D02*
G01X5986090Y1834000D01*
G01X5986090Y1834000D02*
G01X5985580Y1834990D01*
G01X5985580Y1834990D02*
G01X5985100Y1836000D01*
G01X5985100Y1836000D02*
G01X5984650Y1837030D01*
G01X5984650Y1837030D02*
G01X5984240Y1838070D01*
G01X5984240Y1838070D02*
G01X5983870Y1839130D01*
G01X5983870Y1839130D02*
G01X5983540Y1840190D01*
G01X5983540Y1840190D02*
G01X5983250Y1841270D01*
G01X5983250Y1841270D02*
G01X5982990Y1842360D01*
G01X5982990Y1842360D02*
G01X5982770Y1843460D01*
G01X5982770Y1843460D02*
G01X5982600Y1844560D01*
G01X5982600Y1844560D02*
G01X5982460Y1845670D01*
G01X5982460Y1845670D02*
G01X5982360Y1846790D01*
G01X5982360Y1846790D02*
G01X5982300Y1847900D01*
G01X5982300Y1847900D02*
G01X5982280Y1849020D01*
G54D10*
G01X3575000Y3100000D02*
G01X6950000Y3100000D01*
G01X6950000Y3100000D02*
G01X6950000Y6000000D01*
G01X6950000Y6000000D02*
G01X3575000Y6000000D01*
G01X3575000Y6000000D02*
G01X3575000Y3100000D01*
G54D11*
G01X5992130Y4022240D02*
G01X5992150Y4023170D01*
G01X5992150Y4023170D02*
G01X5992210Y4024090D01*
G01X5992210Y4024090D02*
G01X5992310Y4025010D01*
G01X5992310Y4025010D02*
G01X5992450Y4025920D01*
G01X5992450Y4025920D02*
G01X5992620Y4026830D01*
G01X5992620Y4026830D02*
G01X5992840Y4027730D01*
G01X5992840Y4027730D02*
G01X5993090Y4028620D01*
G01X5993090Y4028620D02*
G01X5993380Y4029500D01*
G01X5993380Y4029500D02*
G01X5993710Y4030360D01*
G01X5993710Y4030360D02*
G01X5994080Y4031210D01*
G01X5994080Y4031210D02*
G01X5994480Y4032050D01*
G01X5994480Y4032050D02*
G01X5994920Y4032860D01*
G01X5994920Y4032860D02*
G01X5995390Y4033660D01*
G01X5995390Y4033660D02*
G01X5995890Y4034440D01*
G01X5995890Y4034440D02*
G01X5996430Y4035190D01*
G01X5996430Y4035190D02*
G01X5997000Y4035920D01*
G01X5997000Y4035920D02*
G01X5997600Y4036620D01*
G01X5997600Y4036620D02*
G01X5998230Y4037300D01*
G01X5998230Y4037300D02*
G01X5998890Y4037950D01*
G01X5998890Y4037950D02*
G01X5999570Y4038570D01*
G01X5999570Y4038570D02*
G01X6000280Y4039170D01*
G01X6000280Y4039170D02*
G01X6001020Y4039730D01*
G01X6001020Y4039730D02*
G01X6001780Y4040260D01*
G01X6001780Y4040260D02*
G01X6002560Y4040750D01*
G01X6002560Y4040750D02*
G01X6003360Y4041220D01*
G01X6003360Y4041220D02*
G01X6004180Y4041640D01*
G01X6004180Y4041640D02*
G01X6005020Y4042040D01*
G01X6005020Y4042040D02*
G01X6005870Y4042390D01*
G01X6005870Y4042390D02*
G01X6006740Y4042710D01*
G01X6006740Y4042710D02*
G01X6007620Y4043000D01*
G01X6007620Y4043000D02*
G01X6008510Y4043240D01*
G01X6008510Y4043240D02*
G01X6009410Y4043450D01*
G01X6009410Y4043450D02*
G01X6010320Y4043610D01*
G01X6010320Y4043610D02*
G01X6011240Y4043740D01*
G01X6011240Y4043740D02*
G01X6012160Y4043830D01*
G01X6012160Y4043830D02*
G01X6013090Y4043880D01*
G01X6013090Y4043880D02*
G01X6014010Y4043890D01*
G01X6014010Y4043890D02*
G01X6014940Y4043860D01*
G01X6014940Y4043860D02*
G01X6015860Y4043790D01*
G01X6015860Y4043790D02*
G01X6016780Y4043680D01*
G01X6016780Y4043680D02*
G01X6017690Y4043530D01*
G01X6017690Y4043530D02*
G01X6018600Y4043350D01*
G01X6018600Y4043350D02*
G01X6019500Y4043120D01*
G01X6019500Y4043120D02*
G01X6020380Y4042860D01*
G01X6020380Y4042860D02*
G01X6021260Y4042560D01*
G01X6021260Y4042560D02*
G01X6022120Y4042220D01*
G01X6022120Y4042220D02*
G01X6022960Y4041850D01*
G01X6022960Y4041850D02*
G01X6023790Y4041430D01*
G01X6023790Y4041430D02*
G01X6024600Y4040990D01*
G01X6024600Y4040990D02*
G01X6025400Y4040510D01*
G01X6025400Y4040510D02*
G01X6026170Y4040000D01*
G01X6026170Y4040000D02*
G01X6026910Y4039450D01*
G01X6026910Y4039450D02*
G01X6027640Y4038870D01*
G01X6027640Y4038870D02*
G01X6028340Y4038270D01*
G01X6028340Y4038270D02*
G01X6029010Y4037630D01*
G01X6029010Y4037630D02*
G01X6029650Y4036970D01*
G01X6029650Y4036970D02*
G01X6030270Y4036270D01*
G01X6030270Y4036270D02*
G01X6030850Y4035560D01*
G01X6030850Y4035560D02*
G01X6031400Y4034820D01*
G01X6031400Y4034820D02*
G01X6031920Y4034050D01*
G01X6031920Y4034050D02*
G01X6032410Y4033260D01*
G01X6032410Y4033260D02*
G01X6032870Y4032460D01*
G01X6032870Y4032460D02*
G01X6033290Y4031630D01*
G01X6033290Y4031630D02*
G01X6033670Y4030790D01*
G01X6033670Y4030790D02*
G01X6034020Y4029930D01*
G01X6034020Y4029930D02*
G01X6034330Y4029060D01*
G01X6034330Y4029060D02*
G01X6034600Y4028180D01*
G01X6034600Y4028180D02*
G01X6034830Y4027280D01*
G01X6034830Y4027280D02*
G01X6035030Y4026380D01*
G01X6035030Y4026380D02*
G01X6035190Y4025470D01*
G01X6035190Y4025470D02*
G01X6035310Y4024550D01*
G01X6035310Y4024550D02*
G01X6035390Y4023630D01*
G01X6035390Y4023630D02*
G01X6035430Y4022700D01*
G01X6035430Y4022700D02*
G01X6035430Y4021780D01*
G01X6035430Y4021780D02*
G01X6035390Y4020850D01*
G01X6035390Y4020850D02*
G01X6035310Y4019930D01*
G01X6035310Y4019930D02*
G01X6035190Y4019010D01*
G01X6035190Y4019010D02*
G01X6035030Y4018100D01*
G01X6035030Y4018100D02*
G01X6034830Y4017200D01*
G01X6034830Y4017200D02*
G01X6034600Y4016300D01*
G01X6034600Y4016300D02*
G01X6034330Y4015420D01*
G01X6034330Y4015420D02*
G01X6034020Y4014550D01*
G01X6034020Y4014550D02*
G01X6033670Y4013690D01*
G01X6033670Y4013690D02*
G01X6033290Y4012850D01*
G01X6033290Y4012850D02*
G01X6032870Y4012020D01*
G01X6032870Y4012020D02*
G01X6032410Y4011220D01*
G01X6032410Y4011220D02*
G01X6031920Y4010430D01*
G01X6031920Y4010430D02*
G01X6031400Y4009660D01*
G01X6031400Y4009660D02*
G01X6030850Y4008920D01*
G01X6030850Y4008920D02*
G01X6030270Y4008210D01*
G01X6030270Y4008210D02*
G01X6029650Y4007510D01*
G01X6029650Y4007510D02*
G01X6029010Y4006850D01*
G01X6029010Y4006850D02*
G01X6028340Y4006210D01*
G01X6028340Y4006210D02*
G01X6027640Y4005610D01*
G01X6027640Y4005610D02*
G01X6026910Y4005030D01*
G01X6026910Y4005030D02*
G01X6026170Y4004480D01*
G01X6026170Y4004480D02*
G01X6025400Y4003970D01*
G01X6025400Y4003970D02*
G01X6024610Y4003490D01*
G01X6024610Y4003490D02*
G01X6023790Y4003050D01*
G01X6023790Y4003050D02*
G01X6022960Y4002630D01*
G01X6022960Y4002630D02*
G01X6022120Y4002260D01*
G01X6022120Y4002260D02*
G01X6021260Y4001920D01*
G01X6021260Y4001920D02*
G01X6020380Y4001620D01*
G01X6020380Y4001620D02*
G01X6019500Y4001360D01*
G01X6019500Y4001360D02*
G01X6018600Y4001130D01*
G01X6018600Y4001130D02*
G01X6017690Y4000950D01*
G01X6017690Y4000950D02*
G01X6016780Y4000800D01*
G01X6016780Y4000800D02*
G01X6015860Y4000690D01*
G01X6015860Y4000690D02*
G01X6014940Y4000620D01*
G01X6014940Y4000620D02*
G01X6014010Y4000590D01*
G01X6014010Y4000590D02*
G01X6013090Y4000600D01*
G01X6013090Y4000600D02*
G01X6012160Y4000650D01*
G01X6012160Y4000650D02*
G01X6011240Y4000740D01*
G01X6011240Y4000740D02*
G01X6010320Y4000870D01*
G01X6010320Y4000870D02*
G01X6009410Y4001030D01*
G01X6009410Y4001030D02*
G01X6008510Y4001240D01*
G01X6008510Y4001240D02*
G01X6007620Y4001480D01*
G01X6007620Y4001480D02*
G01X6006740Y4001770D01*
G01X6006740Y4001770D02*
G01X6005870Y4002090D01*
G01X6005870Y4002090D02*
G01X6005020Y4002440D01*
G01X6005020Y4002440D02*
G01X6004180Y4002840D01*
G01X6004180Y4002840D02*
G01X6003360Y4003260D01*
G01X6003360Y4003260D02*
G01X6002560Y4003730D01*
G01X6002560Y4003730D02*
G01X6001780Y4004220D01*
G01X6001780Y4004220D02*
G01X6001020Y4004750D01*
G01X6001020Y4004750D02*
G01X6000280Y4005310D01*
G01X6000280Y4005310D02*
G01X5999570Y4005910D01*
G01X5999570Y4005910D02*
G01X5998890Y4006530D01*
G01X5998890Y4006530D02*
G01X5998230Y4007180D01*
G01X5998230Y4007180D02*
G01X5997600Y4007860D01*
G01X5997600Y4007860D02*
G01X5997000Y4008560D01*
G01X5997000Y4008560D02*
G01X5996430Y4009290D01*
G01X5996430Y4009290D02*
G01X5995890Y4010040D01*
G01X5995890Y4010040D02*
G01X5995390Y4010820D01*
G01X5995390Y4010820D02*
G01X5994920Y4011620D01*
G01X5994920Y4011620D02*
G01X5994480Y4012430D01*
G01X5994480Y4012430D02*
G01X5994080Y4013270D01*
G01X5994080Y4013270D02*
G01X5993710Y4014120D01*
G01X5993710Y4014120D02*
G01X5993380Y4014980D01*
G01X5993380Y4014980D02*
G01X5993090Y4015860D01*
G01X5993090Y4015860D02*
G01X5992840Y4016750D01*
G01X5992840Y4016750D02*
G01X5992620Y4017650D01*
G01X5992620Y4017650D02*
G01X5992450Y4018560D01*
G01X5992450Y4018560D02*
G01X5992310Y4019470D01*
G01X5992310Y4019470D02*
G01X5992210Y4020390D01*
G01X5992210Y4020390D02*
G01X5992150Y4021310D01*
G01X5992150Y4021310D02*
G01X5992130Y4022240D01*
G01X5982280Y4849020D02*
G01X5982300Y4850140D01*
G01X5982300Y4850140D02*
G01X5982360Y4851250D01*
G01X5982360Y4851250D02*
G01X5982460Y4852370D01*
G01X5982460Y4852370D02*
G01X5982600Y4853480D01*
G01X5982600Y4853480D02*
G01X5982770Y4854580D01*
G01X5982770Y4854580D02*
G01X5982990Y4855680D01*
G01X5982990Y4855680D02*
G01X5983250Y4856770D01*
G01X5983250Y4856770D02*
G01X5983540Y4857850D01*
G01X5983540Y4857850D02*
G01X5983870Y4858910D01*
G01X5983870Y4858910D02*
G01X5984240Y4859970D01*
G01X5984240Y4859970D02*
G01X5984650Y4861010D01*
G01X5984650Y4861010D02*
G01X5985100Y4862040D01*
G01X5985100Y4862040D02*
G01X5985580Y4863050D01*
G01X5985580Y4863050D02*
G01X5986090Y4864040D01*
G01X5986090Y4864040D02*
G01X5986640Y4865010D01*
G01X5986640Y4865010D02*
G01X5987230Y4865960D01*
G01X5987230Y4865960D02*
G01X5987840Y4866900D01*
G01X5987840Y4866900D02*
G01X5988490Y4867810D01*
G01X5988490Y4867810D02*
G01X5989180Y4868690D01*
G01X5989180Y4868690D02*
G01X5989890Y4869550D01*
G01X5989890Y4869550D02*
G01X5990630Y4870390D01*
G01X5990630Y4870390D02*
G01X5991410Y4871190D01*
G01X5991410Y4871190D02*
G01X5992210Y4871970D01*
G01X5992210Y4871970D02*
G01X5993040Y4872730D01*
G01X5993040Y4872730D02*
G01X5993890Y4873450D01*
G01X5993890Y4873450D02*
G01X5994770Y4874140D01*
G01X5994770Y4874140D02*
G01X5995670Y4874800D01*
G01X5995670Y4874800D02*
G01X5996600Y4875420D01*
G01X5996600Y4875420D02*
G01X5997550Y4876020D01*
G01X5997550Y4876020D02*
G01X5998520Y4876580D01*
G01X5998520Y4876580D02*
G01X5999500Y4877100D01*
G01X5999500Y4877100D02*
G01X6000510Y4877590D01*
G01X6000510Y4877590D02*
G01X6001530Y4878040D01*
G01X6001530Y4878040D02*
G01X6002570Y4878460D01*
G01X6002570Y4878460D02*
G01X6003620Y4878840D01*
G01X6003620Y4878840D02*
G01X6004690Y4879180D01*
G01X6004690Y4879180D02*
G01X6005760Y4879480D01*
G01X6005760Y4879480D02*
G01X6006850Y4879750D01*
G01X6006850Y4879750D02*
G01X6007940Y4879970D01*
G01X6007940Y4879970D02*
G01X6009050Y4880160D01*
G01X6009050Y4880160D02*
G01X6010150Y4880310D01*
G01X6010150Y4880310D02*
G01X6011270Y4880420D01*
G01X6011270Y4880420D02*
G01X6012380Y4880490D01*
G01X6012380Y4880490D02*
G01X6013500Y4880520D01*
G01X6013500Y4880520D02*
G01X6014620Y4880510D01*
G01X6014620Y4880510D02*
G01X6015740Y4880460D01*
G01X6015740Y4880460D02*
G01X6016850Y4880370D01*
G01X6016850Y4880370D02*
G01X6017960Y4880240D01*
G01X6017960Y4880240D02*
G01X6019070Y4880070D01*
G01X6019070Y4880070D02*
G01X6020170Y4879870D01*
G01X6020170Y4879870D02*
G01X6021260Y4879620D01*
G01X6021260Y4879620D02*
G01X6022340Y4879340D01*
G01X6022340Y4879340D02*
G01X6023410Y4879010D01*
G01X6023410Y4879010D02*
G01X6024470Y4878650D01*
G01X6024470Y4878650D02*
G01X6025510Y4878250D01*
G01X6025510Y4878250D02*
G01X6026540Y4877820D01*
G01X6026540Y4877820D02*
G01X6027560Y4877350D01*
G01X6027560Y4877350D02*
G01X6028550Y4876840D01*
G01X6028550Y4876840D02*
G01X6029530Y4876300D01*
G01X6029530Y4876300D02*
G01X6030490Y4875720D01*
G01X6030490Y4875720D02*
G01X6031430Y4875110D01*
G01X6031430Y4875110D02*
G01X6032340Y4874470D01*
G01X6032340Y4874470D02*
G01X6033230Y4873800D01*
G01X6033230Y4873800D02*
G01X6034100Y4873090D01*
G01X6034100Y4873090D02*
G01X6034940Y4872350D01*
G01X6034940Y4872350D02*
G01X6035760Y4871590D01*
G01X6035760Y4871590D02*
G01X6036540Y4870790D01*
G01X6036540Y4870790D02*
G01X6037300Y4869970D01*
G01X6037300Y4869970D02*
G01X6038030Y4869120D01*
G01X6038030Y4869120D02*
G01X6038730Y4868250D01*
G01X6038730Y4868250D02*
G01X6039390Y4867350D01*
G01X6039390Y4867350D02*
G01X6040030Y4866430D01*
G01X6040030Y4866430D02*
G01X6040630Y4865490D01*
G01X6040630Y4865490D02*
G01X6041200Y4864530D01*
G01X6041200Y4864530D02*
G01X6041730Y4863540D01*
G01X6041730Y4863540D02*
G01X6042230Y4862540D01*
G01X6042230Y4862540D02*
G01X6042690Y4861530D01*
G01X6042690Y4861530D02*
G01X6043120Y4860490D01*
G01X6043120Y4860490D02*
G01X6043510Y4859440D01*
G01X6043510Y4859440D02*
G01X6043860Y4858380D01*
G01X6043860Y4858380D02*
G01X6044170Y4857310D01*
G01X6044170Y4857310D02*
G01X6044450Y4856220D01*
G01X6044450Y4856220D02*
G01X6044680Y4855130D01*
G01X6044680Y4855130D02*
G01X6044880Y4854030D01*
G01X6044880Y4854030D02*
G01X6045040Y4852920D01*
G01X6045040Y4852920D02*
G01X6045160Y4851810D01*
G01X6045160Y4851810D02*
G01X6045240Y4850700D01*
G01X6045240Y4850700D02*
G01X6045280Y4849580D01*
G01X6045280Y4849580D02*
G01X6045280Y4848460D01*
G01X6045280Y4848460D02*
G01X6045240Y4847340D01*
G01X6045240Y4847340D02*
G01X6045160Y4846230D01*
G01X6045160Y4846230D02*
G01X6045040Y4845120D01*
G01X6045040Y4845120D02*
G01X6044880Y4844010D01*
G01X6044880Y4844010D02*
G01X6044680Y4842910D01*
G01X6044680Y4842910D02*
G01X6044450Y4841820D01*
G01X6044450Y4841820D02*
G01X6044170Y4840730D01*
G01X6044170Y4840730D02*
G01X6043860Y4839660D01*
G01X6043860Y4839660D02*
G01X6043510Y4838600D01*
G01X6043510Y4838600D02*
G01X6043120Y4837550D01*
G01X6043120Y4837550D02*
G01X6042690Y4836510D01*
G01X6042690Y4836510D02*
G01X6042230Y4835500D01*
G01X6042230Y4835500D02*
G01X6041730Y4834500D01*
G01X6041730Y4834500D02*
G01X6041200Y4833510D01*
G01X6041200Y4833510D02*
G01X6040630Y4832550D01*
G01X6040630Y4832550D02*
G01X6040030Y4831610D01*
G01X6040030Y4831610D02*
G01X6039390Y4830690D01*
G01X6039390Y4830690D02*
G01X6038730Y4829790D01*
G01X6038730Y4829790D02*
G01X6038030Y4828920D01*
G01X6038030Y4828920D02*
G01X6037300Y4828070D01*
G01X6037300Y4828070D02*
G01X6036540Y4827250D01*
G01X6036540Y4827250D02*
G01X6035760Y4826450D01*
G01X6035760Y4826450D02*
G01X6034940Y4825690D01*
G01X6034940Y4825690D02*
G01X6034100Y4824950D01*
G01X6034100Y4824950D02*
G01X6033230Y4824240D01*
G01X6033230Y4824240D02*
G01X6032340Y4823570D01*
G01X6032340Y4823570D02*
G01X6031430Y4822930D01*
G01X6031430Y4822930D02*
G01X6030490Y4822320D01*
G01X6030490Y4822320D02*
G01X6029530Y4821740D01*
G01X6029530Y4821740D02*
G01X6028550Y4821200D01*
G01X6028550Y4821200D02*
G01X6027560Y4820690D01*
G01X6027560Y4820690D02*
G01X6026540Y4820220D01*
G01X6026540Y4820220D02*
G01X6025510Y4819790D01*
G01X6025510Y4819790D02*
G01X6024470Y4819390D01*
G01X6024470Y4819390D02*
G01X6023410Y4819030D01*
G01X6023410Y4819030D02*
G01X6022340Y4818700D01*
G01X6022340Y4818700D02*
G01X6021260Y4818420D01*
G01X6021260Y4818420D02*
G01X6020170Y4818170D01*
G01X6020170Y4818170D02*
G01X6019070Y4817970D01*
G01X6019070Y4817970D02*
G01X6017960Y4817800D01*
G01X6017960Y4817800D02*
G01X6016850Y4817670D01*
G01X6016850Y4817670D02*
G01X6015740Y4817580D01*
G01X6015740Y4817580D02*
G01X6014620Y4817530D01*
G01X6014620Y4817530D02*
G01X6013500Y4817520D01*
G01X6013500Y4817520D02*
G01X6012380Y4817550D01*
G01X6012380Y4817550D02*
G01X6011270Y4817620D01*
G01X6011270Y4817620D02*
G01X6010150Y4817730D01*
G01X6010150Y4817730D02*
G01X6009050Y4817880D01*
G01X6009050Y4817880D02*
G01X6007940Y4818070D01*
G01X6007940Y4818070D02*
G01X6006850Y4818290D01*
G01X6006850Y4818290D02*
G01X6005760Y4818560D01*
G01X6005760Y4818560D02*
G01X6004690Y4818860D01*
G01X6004690Y4818860D02*
G01X6003620Y4819200D01*
G01X6003620Y4819200D02*
G01X6002570Y4819580D01*
G01X6002570Y4819580D02*
G01X6001530Y4820000D01*
G01X6001530Y4820000D02*
G01X6000510Y4820450D01*
G01X6000510Y4820450D02*
G01X5999500Y4820940D01*
G01X5999500Y4820940D02*
G01X5998520Y4821460D01*
G01X5998520Y4821460D02*
G01X5997550Y4822020D01*
G01X5997550Y4822020D02*
G01X5996600Y4822620D01*
G01X5996600Y4822620D02*
G01X5995670Y4823240D01*
G01X5995670Y4823240D02*
G01X5994770Y4823900D01*
G01X5994770Y4823900D02*
G01X5993890Y4824590D01*
G01X5993890Y4824590D02*
G01X5993040Y4825310D01*
G01X5993040Y4825310D02*
G01X5992210Y4826070D01*
G01X5992210Y4826070D02*
G01X5991410Y4826850D01*
G01X5991410Y4826850D02*
G01X5990630Y4827650D01*
G01X5990630Y4827650D02*
G01X5989890Y4828490D01*
G01X5989890Y4828490D02*
G01X5989180Y4829350D01*
G01X5989180Y4829350D02*
G01X5988490Y4830230D01*
G01X5988490Y4830230D02*
G01X5987840Y4831140D01*
G01X5987840Y4831140D02*
G01X5987230Y4832080D01*
G01X5987230Y4832080D02*
G01X5986640Y4833030D01*
G01X5986640Y4833030D02*
G01X5986090Y4834000D01*
G01X5986090Y4834000D02*
G01X5985580Y4834990D01*
G01X5985580Y4834990D02*
G01X5985100Y4836000D01*
G01X5985100Y4836000D02*
G01X5984650Y4837030D01*
G01X5984650Y4837030D02*
G01X5984240Y4838070D01*
G01X5984240Y4838070D02*
G01X5983870Y4839130D01*
G01X5983870Y4839130D02*
G01X5983540Y4840190D01*
G01X5983540Y4840190D02*
G01X5983250Y4841270D01*
G01X5983250Y4841270D02*
G01X5982990Y4842360D01*
G01X5982990Y4842360D02*
G01X5982770Y4843460D01*
G01X5982770Y4843460D02*
G01X5982600Y4844560D01*
G01X5982600Y4844560D02*
G01X5982460Y4845670D01*
G01X5982460Y4845670D02*
G01X5982360Y4846790D01*
G01X5982360Y4846790D02*
G01X5982300Y4847900D01*
G01X5982300Y4847900D02*
G01X5982280Y4849020D01*
G01X0000000Y0000000D02*
G54D12*
G01X0100000Y6100000D02*
G01X0100000Y6300000D01*
G01X0100000Y6300000D02*
G01X6950000Y6300000D01*
G01X6950000Y6300000D02*
G01X6950000Y6100000D01*
G01X6950000Y6100000D02*
G01X0100000Y6100000D01*
G01X0100000Y0000000D02*
G01X0100000Y-200000D01*
G01X0100000Y-200000D02*
G01X6950000Y-200000D01*
G01X6950000Y-200000D02*
G01X6950000Y0000000D01*
G01X6950000Y0000000D02*
G01X0100000Y0000000D01*
G01X-200000Y-200000D02*
G01X-200000Y6300000D01*
G01X-200000Y6300000D02*
G01X0000000Y6300000D01*
G01X0000000Y6300000D02*
G01X0000000Y-200000D01*
G01X0000000Y-200000D02*
G01X-200000Y-200000D01*
G01X7050000Y-200000D02*
G01X7050000Y6300000D01*
G01X7050000Y6300000D02*
G01X7250000Y6300000D01*
G01X7250000Y6300000D02*
G01X7250000Y-200000D01*
G01X7250000Y-200000D02*
G01X7050000Y-200000D01*
G01X0100000Y-140000D02*
G01X0000000Y-140000D01*
G01X0100000Y-060000D02*
G01X0000000Y-060000D01*
G01X0100000Y6160000D02*
G01X0000000Y6160000D01*
G01X0100000Y6240000D02*
G01X0000000Y6240000D01*
G01X6950000Y-140000D02*
G01X7050000Y-140000D01*
G01X6950000Y-060000D02*
G01X7050000Y-060000D01*
G01X6950000Y6160000D02*
G01X7050000Y6160000D01*
G01X6950000Y6240000D02*
G01X7050000Y6240000D01*
M02*
